<svg xmlns="http://www.w3.org/2000/svg" version="1.1" xmlns:xlink="http://www.w3.org/1999/xlink" xmlns:svgjs="http://svgjs.com/svgjs" width="1920" height="1080" preserveAspectRatio="none" viewBox="0 0 1920 1080"><g mask="url(&quot;#SvgjsMask1108&quot;)" fill="none"><rect width="1920" height="1080" x="0" y="0" fill="rgba(38, 38, 38, 1)"></rect><path d="M600 110L1362 -652" stroke-width="6" stroke="url(#SvgjsLinearGradient1109)" stroke-linecap="round" class="TopRight"></path><path d="M1172 528L780 920" stroke-width="10" stroke="url(#SvgjsLinearGradient1110)" stroke-linecap="round" class="BottomLeft"></path><path d="M934 72L1714 -708" stroke-width="10" stroke="url(#SvgjsLinearGradient1110)" stroke-linecap="round" class="BottomLeft"></path><path d="M327 291L-12 630" stroke-width="8" stroke="url(#SvgjsLinearGradient1110)" stroke-linecap="round" class="BottomLeft"></path><path d="M109 1014L-287 1410" stroke-width="8" stroke="url(#SvgjsLinearGradient1110)" stroke-linecap="round" class="BottomLeft"></path><path d="M478 813L-127 1418" stroke-width="10" stroke="url(#SvgjsLinearGradient1109)" stroke-linecap="round" class="TopRight"></path><path d="M1386 672L1020 1038" stroke-width="8" stroke="url(#SvgjsLinearGradient1110)" stroke-linecap="round" class="BottomLeft"></path><path d="M667 120L43 744" stroke-width="6" stroke="url(#SvgjsLinearGradient1109)" stroke-linecap="round" class="TopRight"></path><path d="M660 940L326 1274" stroke-width="6" stroke="url(#SvgjsLinearGradient1109)" stroke-linecap="round" class="TopRight"></path><path d="M1373 683L1984 72" stroke-width="6" stroke="url(#SvgjsLinearGradient1109)" stroke-linecap="round" class="TopRight"></path><path d="M141 651L419 373" stroke-width="10" stroke="url(#SvgjsLinearGradient1110)" stroke-linecap="round" class="BottomLeft"></path><path d="M114 896L641 369" stroke-width="10" stroke="url(#SvgjsLinearGradient1110)" stroke-linecap="round" class="BottomLeft"></path><path d="M768 208L134 842" stroke-width="6" stroke="url(#SvgjsLinearGradient1110)" stroke-linecap="round" class="BottomLeft"></path><path d="M1747 457L993 1211" stroke-width="10" stroke="url(#SvgjsLinearGradient1109)" stroke-linecap="round" class="TopRight"></path><path d="M593 599L-170 1362" stroke-width="6" stroke="url(#SvgjsLinearGradient1110)" stroke-linecap="round" class="BottomLeft"></path><path d="M96 27L621 -498" stroke-width="6" stroke="url(#SvgjsLinearGradient1109)" stroke-linecap="round" class="TopRight"></path><path d="M715 972L414 1273" stroke-width="8" stroke="url(#SvgjsLinearGradient1110)" stroke-linecap="round" class="BottomLeft"></path><path d="M1694 846L1117 1423" stroke-width="6" stroke="url(#SvgjsLinearGradient1109)" stroke-linecap="round" class="TopRight"></path><path d="M539 859L52 1346" stroke-width="8" stroke="url(#SvgjsLinearGradient1109)" stroke-linecap="round" class="TopRight"></path><path d="M1674 716L2310 80" stroke-width="10" stroke="url(#SvgjsLinearGradient1110)" stroke-linecap="round" class="BottomLeft"></path><path d="M1560 1061L921 1700" stroke-width="10" stroke="url(#SvgjsLinearGradient1109)" stroke-linecap="round" class="TopRight"></path><path d="M1327 210L1610 -73" stroke-width="8" stroke="url(#SvgjsLinearGradient1109)" stroke-linecap="round" class="TopRight"></path><path d="M1394 695L847 1242" stroke-width="10" stroke="url(#SvgjsLinearGradient1109)" stroke-linecap="round" class="TopRight"></path><path d="M592 587L1079 100" stroke-width="6" stroke="url(#SvgjsLinearGradient1109)" stroke-linecap="round" class="TopRight"></path><path d="M1213 930L782 1361" stroke-width="8" stroke="url(#SvgjsLinearGradient1110)" stroke-linecap="round" class="BottomLeft"></path><path d="M1542 8L1173 377" stroke-width="10" stroke="url(#SvgjsLinearGradient1110)" stroke-linecap="round" class="BottomLeft"></path><path d="M1176 739L1592 323" stroke-width="10" stroke="url(#SvgjsLinearGradient1109)" stroke-linecap="round" class="TopRight"></path><path d="M1173 240L1449 -36" stroke-width="10" stroke="url(#SvgjsLinearGradient1109)" stroke-linecap="round" class="TopRight"></path><path d="M525 713L1292 -54" stroke-width="8" stroke="url(#SvgjsLinearGradient1110)" stroke-linecap="round" class="BottomLeft"></path><path d="M801 1005L1332 474" stroke-width="8" stroke="url(#SvgjsLinearGradient1110)" stroke-linecap="round" class="BottomLeft"></path><path d="M1150 534L1540 144" stroke-width="8" stroke="url(#SvgjsLinearGradient1110)" stroke-linecap="round" class="BottomLeft"></path><path d="M1299 377L1904 -228" stroke-width="6" stroke="url(#SvgjsLinearGradient1109)" stroke-linecap="round" class="TopRight"></path><path d="M1773 1011L1005 1779" stroke-width="8" stroke="url(#SvgjsLinearGradient1109)" stroke-linecap="round" class="TopRight"></path><path d="M1471 748L2220 -1" stroke-width="8" stroke="url(#SvgjsLinearGradient1109)" stroke-linecap="round" class="TopRight"></path><path d="M1312 1042L946 1408" stroke-width="10" stroke="url(#SvgjsLinearGradient1110)" stroke-linecap="round" class="BottomLeft"></path><path d="M551 673L134 1090" stroke-width="10" stroke="url(#SvgjsLinearGradient1109)" stroke-linecap="round" class="TopRight"></path><path d="M283 186L929 -460" stroke-width="8" stroke="url(#SvgjsLinearGradient1109)" stroke-linecap="round" class="TopRight"></path><path d="M1379 131L697 813" stroke-width="6" stroke="url(#SvgjsLinearGradient1109)" stroke-linecap="round" class="TopRight"></path><path d="M1664 1023L1048 1639" stroke-width="10" stroke="url(#SvgjsLinearGradient1110)" stroke-linecap="round" class="BottomLeft"></path><path d="M885 399L1449 -165" stroke-width="8" stroke="url(#SvgjsLinearGradient1109)" stroke-linecap="round" class="TopRight"></path><path d="M249 1056L-390 1695" stroke-width="8" stroke="url(#SvgjsLinearGradient1109)" stroke-linecap="round" class="TopRight"></path><path d="M768 536L1543 -239" stroke-width="10" stroke="url(#SvgjsLinearGradient1110)" stroke-linecap="round" class="BottomLeft"></path><path d="M221 748L-251 1220" stroke-width="6" stroke="url(#SvgjsLinearGradient1109)" stroke-linecap="round" class="TopRight"></path><path d="M1050 1052L1618 484" stroke-width="10" stroke="url(#SvgjsLinearGradient1110)" stroke-linecap="round" class="BottomLeft"></path><path d="M966 331L1376 -79" stroke-width="8" stroke="url(#SvgjsLinearGradient1109)" stroke-linecap="round" class="TopRight"></path><path d="M121 134L656 -401" stroke-width="8" stroke="url(#SvgjsLinearGradient1109)" stroke-linecap="round" class="TopRight"></path><path d="M344 1001L-121 1466" stroke-width="10" stroke="url(#SvgjsLinearGradient1110)" stroke-linecap="round" class="BottomLeft"></path><path d="M180 374L841 -287" stroke-width="8" stroke="url(#SvgjsLinearGradient1110)" stroke-linecap="round" class="BottomLeft"></path><path d="M543 497L834 206" stroke-width="6" stroke="url(#SvgjsLinearGradient1109)" stroke-linecap="round" class="TopRight"></path><path d="M1637 1062L2065 634" stroke-width="8" stroke="url(#SvgjsLinearGradient1110)" stroke-linecap="round" class="BottomLeft"></path><path d="M1176 799L1643 332" stroke-width="8" stroke="url(#SvgjsLinearGradient1110)" stroke-linecap="round" class="BottomLeft"></path><path d="M1589 495L2159 -75" stroke-width="10" stroke="url(#SvgjsLinearGradient1110)" stroke-linecap="round" class="BottomLeft"></path><path d="M736 681L200 1217" stroke-width="10" stroke="url(#SvgjsLinearGradient1110)" stroke-linecap="round" class="BottomLeft"></path><path d="M456 907L-90 1453" stroke-width="8" stroke="url(#SvgjsLinearGradient1109)" stroke-linecap="round" class="TopRight"></path><path d="M683 960L1280 363" stroke-width="6" stroke="url(#SvgjsLinearGradient1110)" stroke-linecap="round" class="BottomLeft"></path><path d="M1701 436L913 1224" stroke-width="8" stroke="url(#SvgjsLinearGradient1110)" stroke-linecap="round" class="BottomLeft"></path></g><defs><mask id="SvgjsMask1108"><rect width="1920" height="1080" fill="#ffffff"></rect></mask><linearGradient x1="0%" y1="100%" x2="100%" y2="0%" id="SvgjsLinearGradient1109"><stop stop-color="rgba(64, 64, 64, 0)" offset="0"></stop><stop stop-color="rgba(64, 64, 64, 1)" offset="1"></stop></linearGradient><linearGradient x1="100%" y1="0%" x2="0%" y2="100%" id="SvgjsLinearGradient1110"><stop stop-color="rgba(64, 64, 64, 0)" offset="0"></stop><stop stop-color="rgba(64, 64, 64, 1)" offset="1"></stop></linearGradient></defs></svg>