<svg xmlns="http://www.w3.org/2000/svg" version="1.1" xmlns:xlink="http://www.w3.org/1999/xlink" xmlns:svgjs="http://svgjs.com/svgjs" width="1900" height="900" preserveAspectRatio="none" viewBox="0 0 1900 900"><g mask="url(&quot;#SvgjsMask1468&quot;)" fill="none"><rect width="1900" height="900" x="0" y="0" fill="rgba(23, 23, 23, 1)"></rect><g mask="url(&quot;#SvgjsMask1470&quot;)"><path d="M1791 459L1773 477L1755 477L1737 477L1719 459M1809 459L1791 477M1827 459L1809 477M1917 459L1899 459L1881 459L1863 459L1845 459L1827 459L1809 459L1791 459L1773 459L1755 459" stroke="url(#SvgjsLinearGradient1469)" stroke-width="3"></path><path d="M1750.5 459 a4.5 4.5 0 1 0 9 0 a4.5 4.5 0 1 0 -9 0zM1714.5 459 a4.5 4.5 0 1 0 9 0 a4.5 4.5 0 1 0 -9 0zM1786.5 477 a4.5 4.5 0 1 0 9 0 a4.5 4.5 0 1 0 -9 0zM1804.5 477 a4.5 4.5 0 1 0 9 0 a4.5 4.5 0 1 0 -9 0z" fill="url(#SvgjsLinearGradient1469)"></path><path d="M1539 405L1521 423L1503 423L1485 423L1467 423L1449 423L1431 423L1413 423L1395 423L1377 423L1359 423L1341 423L1323 423L1305 423L1287 423L1269 423L1251 423L1233 423M1737 423L1719 441L1701 459L1683 459L1665 459M1305 387L1287 369M1611 405L1593 423L1575 423L1557 423L1539 423M1197 369L1179 351M1791 441L1773 441L1755 441L1737 441M1629 405L1611 423M1377 387L1359 405M1395 405L1377 405M1251 351L1233 369L1215 387M1215 369L1197 351M1917 441L1899 441L1881 441L1863 441L1845 441L1827 441L1809 441L1791 441L1773 423L1755 423L1737 423L1719 423L1701 423L1683 423L1665 423L1647 405L1629 405L1611 405L1593 405L1575 405L1557 405L1539 405L1521 405L1503 405L1485 405L1467 405L1449 405L1431 405L1413 405L1395 405L1377 387L1359 387L1341 387L1323 387L1305 387L1287 387L1269 369L1251 351L1233 351L1215 369L1197 369L1179 369L1161 369L1143 369" stroke="url(#SvgjsLinearGradient1469)" stroke-width="3"></path><path d="M1138.5 369 a4.5 4.5 0 1 0 9 0 a4.5 4.5 0 1 0 -9 0zM1228.5 423 a4.5 4.5 0 1 0 9 0 a4.5 4.5 0 1 0 -9 0zM1660.5 459 a4.5 4.5 0 1 0 9 0 a4.5 4.5 0 1 0 -9 0zM1282.5 369 a4.5 4.5 0 1 0 9 0 a4.5 4.5 0 1 0 -9 0zM1534.5 423 a4.5 4.5 0 1 0 9 0 a4.5 4.5 0 1 0 -9 0zM1174.5 351 a4.5 4.5 0 1 0 9 0 a4.5 4.5 0 1 0 -9 0zM1732.5 441 a4.5 4.5 0 1 0 9 0 a4.5 4.5 0 1 0 -9 0zM1606.5 423 a4.5 4.5 0 1 0 9 0 a4.5 4.5 0 1 0 -9 0zM1354.5 405 a4.5 4.5 0 1 0 9 0 a4.5 4.5 0 1 0 -9 0zM1372.5 405 a4.5 4.5 0 1 0 9 0 a4.5 4.5 0 1 0 -9 0zM1210.5 387 a4.5 4.5 0 1 0 9 0 a4.5 4.5 0 1 0 -9 0zM1192.5 351 a4.5 4.5 0 1 0 9 0 a4.5 4.5 0 1 0 -9 0z" fill="url(#SvgjsLinearGradient1469)"></path><path d="M1323 459L1305 477L1287 477L1269 495L1251 513M1845 477L1827 477M1503 441L1485 441L1467 441M1611 459L1593 477L1575 477M1233 477L1215 495L1197 495L1179 495L1161 495L1143 513L1125 513M1557 459L1539 477L1521 477L1503 477M1215 477L1197 459L1179 459M1359 459L1341 477M1251 459L1233 459L1215 459L1197 441L1179 441L1161 441L1143 459M1377 459L1359 441L1341 441L1323 441L1305 441L1287 441L1269 441L1251 441M1917 477L1899 477L1881 477L1863 477L1845 477L1827 495L1809 495L1791 495L1773 495L1755 495L1737 495L1719 477L1701 477L1683 477L1665 477L1647 477L1629 477L1611 459L1593 459L1575 459L1557 459L1539 459L1521 441L1503 441L1485 459L1467 459L1449 459L1431 459L1413 459L1395 459L1377 459L1359 459L1341 459L1323 459L1305 459L1287 459L1269 459L1251 459L1233 477L1215 477L1197 477L1179 477L1161 477" stroke="url(#SvgjsLinearGradient1469)" stroke-width="3"></path><path d="M1156.5 477 a4.5 4.5 0 1 0 9 0 a4.5 4.5 0 1 0 -9 0zM1246.5 513 a4.5 4.5 0 1 0 9 0 a4.5 4.5 0 1 0 -9 0zM1822.5 477 a4.5 4.5 0 1 0 9 0 a4.5 4.5 0 1 0 -9 0zM1462.5 441 a4.5 4.5 0 1 0 9 0 a4.5 4.5 0 1 0 -9 0zM1570.5 477 a4.5 4.5 0 1 0 9 0 a4.5 4.5 0 1 0 -9 0zM1120.5 513 a4.5 4.5 0 1 0 9 0 a4.5 4.5 0 1 0 -9 0zM1498.5 477 a4.5 4.5 0 1 0 9 0 a4.5 4.5 0 1 0 -9 0zM1174.5 459 a4.5 4.5 0 1 0 9 0 a4.5 4.5 0 1 0 -9 0zM1336.5 477 a4.5 4.5 0 1 0 9 0 a4.5 4.5 0 1 0 -9 0zM1138.5 459 a4.5 4.5 0 1 0 9 0 a4.5 4.5 0 1 0 -9 0zM1246.5 441 a4.5 4.5 0 1 0 9 0 a4.5 4.5 0 1 0 -9 0z" fill="url(#SvgjsLinearGradient1469)"></path><path d="M1125 333L1107 351L1089 351L1071 351L1053 351L1035 351L1017 351L999 333L981 333L963 333L945 333L927 333L909 333L891 333M1737 405L1719 387L1701 387M1683 405L1665 387L1647 369L1629 369L1611 369L1593 369L1575 369L1557 369L1539 369L1521 369M837 315L819 297L801 297M1287 351L1269 333M1161 333L1143 351L1125 351M1755 405L1737 387M1863 423L1845 405L1827 405M1503 387L1485 369M1323 369L1305 369M1035 333L1017 333M1809 423L1791 423M1917 423L1899 423L1881 423L1863 423L1845 423L1827 423L1809 423L1791 405L1773 405L1755 405L1737 405L1719 405L1701 405L1683 405L1665 405L1647 387L1629 387L1611 387L1593 387L1575 387L1557 387L1539 387L1521 387L1503 387L1485 387L1467 387L1449 387L1431 387L1413 387L1395 387L1377 369L1359 369L1341 369L1323 369L1305 351L1287 351L1269 351L1251 333L1233 333L1215 333L1197 333L1179 333L1161 333L1143 333L1125 333L1107 333L1089 333L1071 333L1053 333L1035 333L1017 315L999 315L981 315L963 315L945 315L927 315L909 315L891 315L873 315L855 315L837 315L819 315" stroke="url(#SvgjsLinearGradient1469)" stroke-width="3"></path><path d="M814.5 315 a4.5 4.5 0 1 0 9 0 a4.5 4.5 0 1 0 -9 0zM886.5 333 a4.5 4.5 0 1 0 9 0 a4.5 4.5 0 1 0 -9 0zM1696.5 387 a4.5 4.5 0 1 0 9 0 a4.5 4.5 0 1 0 -9 0zM1516.5 369 a4.5 4.5 0 1 0 9 0 a4.5 4.5 0 1 0 -9 0zM796.5 297 a4.5 4.5 0 1 0 9 0 a4.5 4.5 0 1 0 -9 0zM1264.5 333 a4.5 4.5 0 1 0 9 0 a4.5 4.5 0 1 0 -9 0zM1120.5 351 a4.5 4.5 0 1 0 9 0 a4.5 4.5 0 1 0 -9 0zM1732.5 387 a4.5 4.5 0 1 0 9 0 a4.5 4.5 0 1 0 -9 0zM1822.5 405 a4.5 4.5 0 1 0 9 0 a4.5 4.5 0 1 0 -9 0zM1480.5 369 a4.5 4.5 0 1 0 9 0 a4.5 4.5 0 1 0 -9 0zM1300.5 369 a4.5 4.5 0 1 0 9 0 a4.5 4.5 0 1 0 -9 0zM1012.5 333 a4.5 4.5 0 1 0 9 0 a4.5 4.5 0 1 0 -9 0zM1786.5 423 a4.5 4.5 0 1 0 9 0 a4.5 4.5 0 1 0 -9 0z" fill="url(#SvgjsLinearGradient1469)"></path><path d="M1575 495L1557 513L1539 513L1521 513M1701 495L1683 513L1665 513L1647 513M1449 495L1431 513L1413 513L1395 513L1377 513M1629 495L1611 513L1593 513L1575 513M1485 495L1467 513L1449 513M1737 513L1719 513L1701 513M1503 495L1485 513M1917 495L1899 495L1881 495L1863 495L1845 495L1827 513L1809 513L1791 513L1773 513L1755 513L1737 513L1719 495L1701 495L1683 495L1665 495L1647 495L1629 495L1611 495L1593 495L1575 495L1557 495L1539 495L1521 495L1503 495L1485 495L1467 495L1449 495L1431 495" stroke="url(#SvgjsLinearGradient1469)" stroke-width="3"></path><path d="M1426.5 495 a4.5 4.5 0 1 0 9 0 a4.5 4.5 0 1 0 -9 0zM1516.5 513 a4.5 4.5 0 1 0 9 0 a4.5 4.5 0 1 0 -9 0zM1642.5 513 a4.5 4.5 0 1 0 9 0 a4.5 4.5 0 1 0 -9 0zM1372.5 513 a4.5 4.5 0 1 0 9 0 a4.5 4.5 0 1 0 -9 0zM1570.5 513 a4.5 4.5 0 1 0 9 0 a4.5 4.5 0 1 0 -9 0zM1444.5 513 a4.5 4.5 0 1 0 9 0 a4.5 4.5 0 1 0 -9 0zM1696.5 513 a4.5 4.5 0 1 0 9 0 a4.5 4.5 0 1 0 -9 0zM1480.5 513 a4.5 4.5 0 1 0 9 0 a4.5 4.5 0 1 0 -9 0z" fill="url(#SvgjsLinearGradient1469)"></path><path d="M1467 369L1449 351L1431 351L1413 351L1395 351L1377 333L1359 333L1341 333M1683 369L1665 369M1863 387L1845 369L1827 369L1809 369M1269 315L1251 297L1233 297L1215 297L1197 297L1179 297L1161 297L1143 297L1125 297L1107 297L1089 297L1071 297M1305 333L1287 333M1287 315L1269 297L1251 279L1233 279L1215 279L1197 279L1179 279L1161 279L1143 279L1125 279L1107 279L1089 279L1071 279L1053 279L1035 279M945 297L927 279L909 279M981 297L963 279L945 261M891 297L873 279L855 279L837 279L819 279M1053 315L1035 297M1791 387L1773 369M999 297L981 279L963 261M1773 387L1755 387M1881 405L1863 405M1917 405L1899 405L1881 405L1863 387L1845 387L1827 387L1809 387L1791 387L1773 387L1755 369L1737 369L1719 369L1701 369L1683 369L1665 351L1647 351L1629 351L1611 351L1593 351L1575 351L1557 351L1539 351L1521 351L1503 351L1485 351L1467 369L1449 369L1431 369L1413 369L1395 369L1377 351L1359 351L1341 351L1323 351L1305 333L1287 315L1269 315L1251 315L1233 315L1215 315L1197 315L1179 315L1161 315L1143 315L1125 315L1107 315L1089 315L1071 315L1053 315L1035 315L1017 297L999 297L981 297L963 297L945 297L927 297L909 297L891 297L873 297" stroke="url(#SvgjsLinearGradient1469)" stroke-width="3"></path><path d="M868.5 297 a4.5 4.5 0 1 0 9 0 a4.5 4.5 0 1 0 -9 0zM1336.5 333 a4.5 4.5 0 1 0 9 0 a4.5 4.5 0 1 0 -9 0zM1660.5 369 a4.5 4.5 0 1 0 9 0 a4.5 4.5 0 1 0 -9 0zM1804.5 369 a4.5 4.5 0 1 0 9 0 a4.5 4.5 0 1 0 -9 0zM1066.5 297 a4.5 4.5 0 1 0 9 0 a4.5 4.5 0 1 0 -9 0zM1282.5 333 a4.5 4.5 0 1 0 9 0 a4.5 4.5 0 1 0 -9 0zM1030.5 279 a4.5 4.5 0 1 0 9 0 a4.5 4.5 0 1 0 -9 0zM904.5 279 a4.5 4.5 0 1 0 9 0 a4.5 4.5 0 1 0 -9 0zM940.5 261 a4.5 4.5 0 1 0 9 0 a4.5 4.5 0 1 0 -9 0zM814.5 279 a4.5 4.5 0 1 0 9 0 a4.5 4.5 0 1 0 -9 0zM1030.5 297 a4.5 4.5 0 1 0 9 0 a4.5 4.5 0 1 0 -9 0zM1768.5 369 a4.5 4.5 0 1 0 9 0 a4.5 4.5 0 1 0 -9 0zM958.5 261 a4.5 4.5 0 1 0 9 0 a4.5 4.5 0 1 0 -9 0zM1750.5 387 a4.5 4.5 0 1 0 9 0 a4.5 4.5 0 1 0 -9 0zM1858.5 405 a4.5 4.5 0 1 0 9 0 a4.5 4.5 0 1 0 -9 0z" fill="url(#SvgjsLinearGradient1469)"></path><path d="M1917 513L1899 513L1881 513L1863 513" stroke="url(#SvgjsLinearGradient1469)" stroke-width="3"></path><path d="M1858.5 513 a4.5 4.5 0 1 0 9 0 a4.5 4.5 0 1 0 -9 0z" fill="url(#SvgjsLinearGradient1469)"></path><path d="M1917 387L1899 387" stroke="url(#SvgjsLinearGradient1469)" stroke-width="3"></path><path d="M1894.5 387 a4.5 4.5 0 1 0 9 0 a4.5 4.5 0 1 0 -9 0z" fill="url(#SvgjsLinearGradient1469)"></path><path d="M1485 531L1467 549L1449 549M1863 531L1845 549L1827 549L1809 549L1791 549L1773 549L1755 549L1737 549L1719 549L1701 549L1683 549L1665 549L1647 549L1629 549M1377 531L1359 549L1341 549L1323 549L1305 549L1287 549L1269 567L1251 567M1359 531L1341 513L1323 513L1305 513L1287 513M1197 531L1179 513L1161 513M1215 531L1197 513M1143 531L1125 549L1107 567L1089 567L1071 567M1179 531L1161 549L1143 549L1125 567M1539 531L1521 549L1503 549M1395 531L1377 549L1359 567L1341 567L1323 567L1305 567L1287 567L1269 585L1251 585L1233 585L1215 585L1197 585L1179 567M1557 531L1539 549M1881 531L1863 549M1917 531L1899 531L1881 531L1863 531L1845 531L1827 531L1809 531L1791 531L1773 531L1755 531L1737 531L1719 531L1701 531L1683 531L1665 531L1647 531L1629 531L1611 531L1593 531L1575 531L1557 531L1539 531L1521 531L1503 531L1485 531L1467 531L1449 531L1431 531L1413 531L1395 531L1377 531L1359 531L1341 531L1323 531L1305 531L1287 531L1269 531L1251 531L1233 531L1215 531L1197 531L1179 531L1161 531L1143 531L1125 531L1107 549L1089 549L1071 549" stroke="url(#SvgjsLinearGradient1469)" stroke-width="3"></path><path d="M1066.5 549 a4.5 4.5 0 1 0 9 0 a4.5 4.5 0 1 0 -9 0zM1444.5 549 a4.5 4.5 0 1 0 9 0 a4.5 4.5 0 1 0 -9 0zM1624.5 549 a4.5 4.5 0 1 0 9 0 a4.5 4.5 0 1 0 -9 0zM1246.5 567 a4.5 4.5 0 1 0 9 0 a4.5 4.5 0 1 0 -9 0zM1282.5 513 a4.5 4.5 0 1 0 9 0 a4.5 4.5 0 1 0 -9 0zM1156.5 513 a4.5 4.5 0 1 0 9 0 a4.5 4.5 0 1 0 -9 0zM1192.5 513 a4.5 4.5 0 1 0 9 0 a4.5 4.5 0 1 0 -9 0zM1066.5 567 a4.5 4.5 0 1 0 9 0 a4.5 4.5 0 1 0 -9 0zM1120.5 567 a4.5 4.5 0 1 0 9 0 a4.5 4.5 0 1 0 -9 0zM1498.5 549 a4.5 4.5 0 1 0 9 0 a4.5 4.5 0 1 0 -9 0zM1174.5 567 a4.5 4.5 0 1 0 9 0 a4.5 4.5 0 1 0 -9 0zM1534.5 549 a4.5 4.5 0 1 0 9 0 a4.5 4.5 0 1 0 -9 0zM1858.5 549 a4.5 4.5 0 1 0 9 0 a4.5 4.5 0 1 0 -9 0z" fill="url(#SvgjsLinearGradient1469)"></path><path d="M1899 369L1881 369M1917 369L1899 369L1881 351L1863 351L1845 351L1827 351L1809 351L1791 351L1773 351L1755 351L1737 351L1719 351L1701 351L1683 351L1665 333L1647 333L1629 333L1611 333L1593 333L1575 333L1557 333L1539 333L1521 333L1503 333L1485 333L1467 333L1449 333L1431 333" stroke="url(#SvgjsLinearGradient1469)" stroke-width="3"></path><path d="M1426.5 333 a4.5 4.5 0 1 0 9 0 a4.5 4.5 0 1 0 -9 0zM1876.5 369 a4.5 4.5 0 1 0 9 0 a4.5 4.5 0 1 0 -9 0z" fill="url(#SvgjsLinearGradient1469)"></path><path d="M1899 549L1881 549M1917 549L1899 549L1881 567L1863 567L1845 567L1827 567L1809 567L1791 567" stroke="url(#SvgjsLinearGradient1469)" stroke-width="3"></path><path d="M1786.5 567 a4.5 4.5 0 1 0 9 0 a4.5 4.5 0 1 0 -9 0zM1876.5 549 a4.5 4.5 0 1 0 9 0 a4.5 4.5 0 1 0 -9 0z" fill="url(#SvgjsLinearGradient1469)"></path><path d="M1863 333L1845 315M1359 315L1341 297L1323 297L1305 297L1287 297M1647 315L1629 297M1341 315L1323 315L1305 315M1377 315L1359 297M1917 351L1899 351L1881 333L1863 333L1845 333L1827 333L1809 333L1791 333L1773 333L1755 333L1737 333L1719 333L1701 333L1683 333L1665 315L1647 315L1629 315L1611 315L1593 315L1575 315L1557 315L1539 315L1521 315L1503 315L1485 315L1467 315L1449 315L1431 315L1413 315L1395 315L1377 315L1359 315L1341 315L1323 333" stroke="url(#SvgjsLinearGradient1469)" stroke-width="3"></path><path d="M1318.5 333 a4.5 4.5 0 1 0 9 0 a4.5 4.5 0 1 0 -9 0zM1840.5 315 a4.5 4.5 0 1 0 9 0 a4.5 4.5 0 1 0 -9 0zM1282.5 297 a4.5 4.5 0 1 0 9 0 a4.5 4.5 0 1 0 -9 0zM1624.5 297 a4.5 4.5 0 1 0 9 0 a4.5 4.5 0 1 0 -9 0zM1300.5 315 a4.5 4.5 0 1 0 9 0 a4.5 4.5 0 1 0 -9 0zM1354.5 297 a4.5 4.5 0 1 0 9 0 a4.5 4.5 0 1 0 -9 0z" fill="url(#SvgjsLinearGradient1469)"></path><path d="M1701 585L1683 567M1431 567L1413 549M1611 549L1593 567M1737 585L1719 567L1701 567M1395 585L1377 567M1539 567L1521 585M1413 567L1395 567M1593 549L1575 549L1557 549M1917 567L1899 567L1881 585L1863 585L1845 585L1827 585L1809 585L1791 585L1773 585L1755 585L1737 585L1719 585L1701 585L1683 585L1665 585L1647 567L1629 567L1611 549L1593 549L1575 567L1557 567L1539 567L1521 567L1503 567L1485 567L1467 567L1449 567L1431 567L1413 567L1395 585L1377 585L1359 585" stroke="url(#SvgjsLinearGradient1469)" stroke-width="3"></path><path d="M1354.5 585 a4.5 4.5 0 1 0 9 0 a4.5 4.5 0 1 0 -9 0zM1678.5 567 a4.5 4.5 0 1 0 9 0 a4.5 4.5 0 1 0 -9 0zM1408.5 549 a4.5 4.5 0 1 0 9 0 a4.5 4.5 0 1 0 -9 0zM1588.5 567 a4.5 4.5 0 1 0 9 0 a4.5 4.5 0 1 0 -9 0zM1696.5 567 a4.5 4.5 0 1 0 9 0 a4.5 4.5 0 1 0 -9 0zM1372.5 567 a4.5 4.5 0 1 0 9 0 a4.5 4.5 0 1 0 -9 0zM1516.5 585 a4.5 4.5 0 1 0 9 0 a4.5 4.5 0 1 0 -9 0zM1390.5 567 a4.5 4.5 0 1 0 9 0 a4.5 4.5 0 1 0 -9 0zM1552.5 549 a4.5 4.5 0 1 0 9 0 a4.5 4.5 0 1 0 -9 0z" fill="url(#SvgjsLinearGradient1469)"></path><path d="M1179 261L1161 243L1143 243M1575 297L1557 279L1539 279L1521 279L1503 279L1485 279L1467 279L1449 279L1431 279L1413 261L1395 261L1377 261M1755 315L1737 297M1431 297L1413 297L1395 297L1377 297M1593 297L1575 279L1557 261M1215 261L1197 243L1179 243L1161 225M1251 261L1233 243L1215 243L1197 225L1179 225M1629 279L1611 279L1593 279L1575 261M1773 315L1755 297L1737 279M1881 315L1863 315M1305 261L1287 279L1269 279M1071 261L1053 243L1035 243L1017 243L999 243L981 243L963 243L945 225L927 225L909 225L891 225L873 225L855 225L837 225L819 225M1917 333L1899 333L1881 315L1863 297L1845 297L1827 315L1809 315L1791 315L1773 315L1755 315L1737 315L1719 315L1701 315L1683 315L1665 297L1647 279L1629 279L1611 297L1593 297L1575 297L1557 297L1539 297L1521 297L1503 297L1485 297L1467 297L1449 297L1431 297L1413 279L1395 279L1377 279L1359 279L1341 279L1323 279L1305 261L1287 261L1269 261L1251 261L1233 261L1215 261L1197 261L1179 261L1161 261L1143 261L1125 261L1107 261L1089 261L1071 261L1053 261" stroke="url(#SvgjsLinearGradient1469)" stroke-width="3"></path><path d="M1048.5 261 a4.5 4.5 0 1 0 9 0 a4.5 4.5 0 1 0 -9 0zM1138.5 243 a4.5 4.5 0 1 0 9 0 a4.5 4.5 0 1 0 -9 0zM1372.5 261 a4.5 4.5 0 1 0 9 0 a4.5 4.5 0 1 0 -9 0zM1732.5 297 a4.5 4.5 0 1 0 9 0 a4.5 4.5 0 1 0 -9 0zM1372.5 297 a4.5 4.5 0 1 0 9 0 a4.5 4.5 0 1 0 -9 0zM1552.5 261 a4.5 4.5 0 1 0 9 0 a4.5 4.5 0 1 0 -9 0zM1156.5 225 a4.5 4.5 0 1 0 9 0 a4.5 4.5 0 1 0 -9 0zM1174.5 225 a4.5 4.5 0 1 0 9 0 a4.5 4.5 0 1 0 -9 0zM1570.5 261 a4.5 4.5 0 1 0 9 0 a4.5 4.5 0 1 0 -9 0zM1732.5 279 a4.5 4.5 0 1 0 9 0 a4.5 4.5 0 1 0 -9 0zM1858.5 315 a4.5 4.5 0 1 0 9 0 a4.5 4.5 0 1 0 -9 0zM1264.5 279 a4.5 4.5 0 1 0 9 0 a4.5 4.5 0 1 0 -9 0zM814.5 225 a4.5 4.5 0 1 0 9 0 a4.5 4.5 0 1 0 -9 0z" fill="url(#SvgjsLinearGradient1469)"></path><path d="M1341 603L1323 585L1305 585L1287 585M1179 585L1161 603L1143 603L1125 603L1107 603L1089 603L1071 603L1053 603L1035 603L1017 603L999 603L981 603L963 621M1377 603L1359 621M1665 621L1647 603L1629 603L1611 585M1197 603L1179 603L1161 621L1143 621L1125 621M1449 585L1431 603L1413 603M1161 585L1143 567M1035 585L1017 567L999 567M1593 603L1575 621L1557 621L1539 621L1521 621L1503 621L1485 621L1467 603L1449 603M1287 603L1269 621L1251 621L1233 621L1215 621L1197 621L1179 621L1161 639L1143 639M891 603L873 603L855 603L837 603M963 603L945 585L927 585L909 585L891 585L873 567L855 567L837 567L819 567L801 567M1053 585L1035 567L1017 549L999 549L981 549L963 549M927 603L909 621L891 621L873 621L855 621L837 639L819 639L801 639M1917 585L1899 585L1881 603L1863 603L1845 603L1827 603L1809 603L1791 603L1773 603L1755 603L1737 603L1719 603L1701 603L1683 603L1665 621L1647 621L1629 621L1611 603L1593 603L1575 603L1557 603L1539 603L1521 603L1503 603L1485 585L1467 585L1449 585L1431 585L1413 585L1395 603L1377 603L1359 603L1341 603L1323 603L1305 603L1287 603L1269 603L1251 603L1233 603L1215 603L1197 603L1179 585L1161 585L1143 585L1125 585L1107 585L1089 585L1071 585L1053 585L1035 585L1017 585L999 585L981 585L963 603L945 603L927 603L909 603L891 603L873 585" stroke="url(#SvgjsLinearGradient1469)" stroke-width="3"></path><path d="M868.5 585 a4.5 4.5 0 1 0 9 0 a4.5 4.5 0 1 0 -9 0zM1282.5 585 a4.5 4.5 0 1 0 9 0 a4.5 4.5 0 1 0 -9 0zM958.5 621 a4.5 4.5 0 1 0 9 0 a4.5 4.5 0 1 0 -9 0zM1354.5 621 a4.5 4.5 0 1 0 9 0 a4.5 4.5 0 1 0 -9 0zM1606.5 585 a4.5 4.5 0 1 0 9 0 a4.5 4.5 0 1 0 -9 0zM1120.5 621 a4.5 4.5 0 1 0 9 0 a4.5 4.5 0 1 0 -9 0zM1408.5 603 a4.5 4.5 0 1 0 9 0 a4.5 4.5 0 1 0 -9 0zM1138.5 567 a4.5 4.5 0 1 0 9 0 a4.5 4.5 0 1 0 -9 0zM994.5 567 a4.5 4.5 0 1 0 9 0 a4.5 4.5 0 1 0 -9 0zM1444.5 603 a4.5 4.5 0 1 0 9 0 a4.5 4.5 0 1 0 -9 0zM1138.5 639 a4.5 4.5 0 1 0 9 0 a4.5 4.5 0 1 0 -9 0zM832.5 603 a4.5 4.5 0 1 0 9 0 a4.5 4.5 0 1 0 -9 0zM796.5 567 a4.5 4.5 0 1 0 9 0 a4.5 4.5 0 1 0 -9 0zM958.5 549 a4.5 4.5 0 1 0 9 0 a4.5 4.5 0 1 0 -9 0zM796.5 639 a4.5 4.5 0 1 0 9 0 a4.5 4.5 0 1 0 -9 0z" fill="url(#SvgjsLinearGradient1469)"></path><path d="M1359 225L1341 243M1701 243L1683 225L1665 225L1647 225L1629 225L1611 225L1593 225M1053 171L1035 189L1017 189L999 189L981 189M1161 189L1143 189L1125 189L1107 189M1449 243L1431 243L1413 243L1395 243L1377 243L1359 243L1341 261L1323 261L1305 243L1287 225L1269 225L1251 225L1233 225L1215 225L1197 207L1179 207M1629 243L1611 261L1593 261M1485 243L1467 261L1449 261L1431 261M1179 189L1161 171L1143 153L1125 153L1107 153L1089 153M1647 243L1629 261M1269 189L1251 207L1233 207L1215 207M1035 171L1017 153L999 153L981 153L963 153L945 153L927 153M1197 189L1179 171L1161 153L1143 135L1125 135M1917 315L1899 315L1881 297L1863 279L1845 279L1827 261L1809 243L1791 243L1773 243L1755 243L1737 243L1719 243L1701 243L1683 243L1665 243L1647 243L1629 243L1611 243L1593 243L1575 243L1557 243L1539 243L1521 243L1503 243L1485 243L1467 243L1449 243L1431 225L1413 225L1395 225L1377 225L1359 225L1341 225L1323 225L1305 225L1287 207L1269 189L1251 189L1233 189L1215 189L1197 189L1179 189L1161 189L1143 171L1125 171L1107 171L1089 171L1071 171L1053 171L1035 171L1017 171" stroke="url(#SvgjsLinearGradient1469)" stroke-width="3"></path><path d="M1012.5 171 a4.5 4.5 0 1 0 9 0 a4.5 4.5 0 1 0 -9 0zM1336.5 243 a4.5 4.5 0 1 0 9 0 a4.5 4.5 0 1 0 -9 0zM1588.5 225 a4.5 4.5 0 1 0 9 0 a4.5 4.5 0 1 0 -9 0zM976.5 189 a4.5 4.5 0 1 0 9 0 a4.5 4.5 0 1 0 -9 0zM1102.5 189 a4.5 4.5 0 1 0 9 0 a4.5 4.5 0 1 0 -9 0zM1174.5 207 a4.5 4.5 0 1 0 9 0 a4.5 4.5 0 1 0 -9 0zM1588.5 261 a4.5 4.5 0 1 0 9 0 a4.5 4.5 0 1 0 -9 0zM1426.5 261 a4.5 4.5 0 1 0 9 0 a4.5 4.5 0 1 0 -9 0zM1084.5 153 a4.5 4.5 0 1 0 9 0 a4.5 4.5 0 1 0 -9 0zM1624.5 261 a4.5 4.5 0 1 0 9 0 a4.5 4.5 0 1 0 -9 0zM1210.5 207 a4.5 4.5 0 1 0 9 0 a4.5 4.5 0 1 0 -9 0zM922.5 153 a4.5 4.5 0 1 0 9 0 a4.5 4.5 0 1 0 -9 0zM1120.5 135 a4.5 4.5 0 1 0 9 0 a4.5 4.5 0 1 0 -9 0z" fill="url(#SvgjsLinearGradient1469)"></path><path d="M1917 603L1899 603" stroke="url(#SvgjsLinearGradient1469)" stroke-width="3"></path><path d="M1894.5 603 a4.5 4.5 0 1 0 9 0 a4.5 4.5 0 1 0 -9 0z" fill="url(#SvgjsLinearGradient1469)"></path><path d="M1611 207L1593 189L1575 189L1557 189L1539 189L1521 171M1575 225L1557 207L1539 207L1521 207L1503 207L1485 207L1467 207L1449 207L1431 189L1413 189L1395 189L1377 189L1359 189L1341 189M1647 207L1629 189L1611 189M1251 171L1233 153L1215 153L1197 153L1179 153M1719 225L1701 225M1665 207L1647 189M1593 207L1575 207M1269 171L1251 153L1233 135L1215 135L1197 135L1179 135L1161 135L1143 117L1125 117L1107 117L1089 117L1071 135L1053 135L1035 135M1683 207L1665 189M1917 297L1899 297L1881 279L1863 261L1845 261L1827 243L1809 225L1791 225L1773 225L1755 225L1737 225L1719 225L1701 207L1683 207L1665 207L1647 207L1629 207L1611 207L1593 207L1575 225L1557 225L1539 225L1521 225L1503 225L1485 225L1467 225L1449 225L1431 207L1413 207L1395 207L1377 207L1359 207L1341 207L1323 207L1305 207L1287 189L1269 171L1251 171L1233 171" stroke="url(#SvgjsLinearGradient1469)" stroke-width="3"></path><path d="M1228.5 171 a4.5 4.5 0 1 0 9 0 a4.5 4.5 0 1 0 -9 0zM1516.5 171 a4.5 4.5 0 1 0 9 0 a4.5 4.5 0 1 0 -9 0zM1336.5 189 a4.5 4.5 0 1 0 9 0 a4.5 4.5 0 1 0 -9 0zM1606.5 189 a4.5 4.5 0 1 0 9 0 a4.5 4.5 0 1 0 -9 0zM1174.5 153 a4.5 4.5 0 1 0 9 0 a4.5 4.5 0 1 0 -9 0zM1696.5 225 a4.5 4.5 0 1 0 9 0 a4.5 4.5 0 1 0 -9 0zM1642.5 189 a4.5 4.5 0 1 0 9 0 a4.5 4.5 0 1 0 -9 0zM1570.5 207 a4.5 4.5 0 1 0 9 0 a4.5 4.5 0 1 0 -9 0zM1030.5 135 a4.5 4.5 0 1 0 9 0 a4.5 4.5 0 1 0 -9 0zM1660.5 189 a4.5 4.5 0 1 0 9 0 a4.5 4.5 0 1 0 -9 0z" fill="url(#SvgjsLinearGradient1469)"></path><path d="M1809 621L1791 639L1773 639M1269 675L1251 657L1233 657L1215 657L1197 657M1431 693L1413 675L1395 675L1377 675L1359 675L1341 675L1323 675L1305 675L1287 675L1269 657L1251 639L1233 639M1521 675L1503 675L1485 675L1467 675L1449 675L1431 675L1413 657L1395 657M1863 621L1845 639L1827 639L1809 639M1143 711L1125 729L1107 729L1089 729L1071 729L1053 729M1215 675L1197 675L1179 675L1161 675L1143 675L1125 675L1107 675L1089 657L1071 657L1053 657L1035 657L1017 657M1107 711L1089 693L1071 693L1053 675L1035 675M1035 693L1017 711L999 711L981 711L963 711L945 711L927 693L909 693L891 675L873 675L855 675M1557 675L1539 657L1521 657L1503 657L1485 639L1467 639L1449 639M1197 693L1179 711L1161 729L1143 729L1125 747L1107 747L1089 747L1071 747L1053 747L1035 729L1017 729L999 729M1575 675L1557 657L1539 639L1521 639L1503 639M1539 675L1521 693M1917 621L1899 621L1881 621L1863 621L1845 621L1827 621L1809 621L1791 621L1773 621L1755 621L1737 621L1719 621L1701 639L1683 639L1665 639L1647 639L1629 639L1611 639L1593 657L1575 675L1557 675L1539 675L1521 675L1503 693L1485 693L1467 693L1449 693L1431 693L1413 693L1395 693L1377 693L1359 693L1341 693L1323 693L1305 693L1287 693L1269 675L1251 675L1233 675L1215 675L1197 693L1179 693L1161 711L1143 711L1125 711L1107 711L1089 711L1071 711L1053 693L1035 693L1017 693L999 693" stroke="url(#SvgjsLinearGradient1469)" stroke-width="3"></path><path d="M994.5 693 a4.5 4.5 0 1 0 9 0 a4.5 4.5 0 1 0 -9 0zM1768.5 639 a4.5 4.5 0 1 0 9 0 a4.5 4.5 0 1 0 -9 0zM1192.5 657 a4.5 4.5 0 1 0 9 0 a4.5 4.5 0 1 0 -9 0zM1228.5 639 a4.5 4.5 0 1 0 9 0 a4.5 4.5 0 1 0 -9 0zM1390.5 657 a4.5 4.5 0 1 0 9 0 a4.5 4.5 0 1 0 -9 0zM1804.5 639 a4.5 4.5 0 1 0 9 0 a4.5 4.5 0 1 0 -9 0zM1048.5 729 a4.5 4.5 0 1 0 9 0 a4.5 4.5 0 1 0 -9 0zM1012.5 657 a4.5 4.5 0 1 0 9 0 a4.5 4.5 0 1 0 -9 0zM1030.5 675 a4.5 4.5 0 1 0 9 0 a4.5 4.5 0 1 0 -9 0zM850.5 675 a4.5 4.5 0 1 0 9 0 a4.5 4.5 0 1 0 -9 0zM1444.5 639 a4.5 4.5 0 1 0 9 0 a4.5 4.5 0 1 0 -9 0zM994.5 729 a4.5 4.5 0 1 0 9 0 a4.5 4.5 0 1 0 -9 0zM1498.5 639 a4.5 4.5 0 1 0 9 0 a4.5 4.5 0 1 0 -9 0zM1516.5 693 a4.5 4.5 0 1 0 9 0 a4.5 4.5 0 1 0 -9 0z" fill="url(#SvgjsLinearGradient1469)"></path><path d="M1737 189L1719 207M1791 207L1773 189L1755 189M1755 207L1737 207M1917 279L1899 279L1881 261L1863 243L1845 243L1827 225L1809 207L1791 207L1773 207L1755 207L1737 189L1719 189L1701 189L1683 171L1665 171L1647 171L1629 171L1611 171L1593 171L1575 171L1557 171" stroke="url(#SvgjsLinearGradient1469)" stroke-width="3"></path><path d="M1552.5 171 a4.5 4.5 0 1 0 9 0 a4.5 4.5 0 1 0 -9 0zM1714.5 207 a4.5 4.5 0 1 0 9 0 a4.5 4.5 0 1 0 -9 0zM1750.5 189 a4.5 4.5 0 1 0 9 0 a4.5 4.5 0 1 0 -9 0zM1732.5 207 a4.5 4.5 0 1 0 9 0 a4.5 4.5 0 1 0 -9 0z" fill="url(#SvgjsLinearGradient1469)"></path><path d="M1881 657L1863 639M1899 639L1881 639M1917 639L1899 639L1881 657L1863 657L1845 657L1827 657L1809 657L1791 657L1773 657L1755 639L1737 639L1719 639" stroke="url(#SvgjsLinearGradient1469)" stroke-width="3"></path><path d="M1714.5 639 a4.5 4.5 0 1 0 9 0 a4.5 4.5 0 1 0 -9 0zM1858.5 639 a4.5 4.5 0 1 0 9 0 a4.5 4.5 0 1 0 -9 0zM1876.5 639 a4.5 4.5 0 1 0 9 0 a4.5 4.5 0 1 0 -9 0z" fill="url(#SvgjsLinearGradient1469)"></path><path d="M1719 171L1701 171M1629 153L1611 135M1809 189L1791 189M1575 153L1557 135L1539 117L1521 117L1503 117L1485 117L1467 117L1449 117L1431 117M1683 153L1665 135L1647 135L1629 135L1611 117L1593 117M1449 171L1431 153L1413 153L1395 153L1377 153M1539 153L1521 135L1503 135L1485 135M1917 261L1899 261L1881 243L1863 225L1845 225L1827 207L1809 189L1791 171L1773 171L1755 171L1737 171L1719 171L1701 153L1683 153L1665 153L1647 153L1629 153L1611 153L1593 153L1575 153L1557 153L1539 153L1521 153L1503 171L1485 171L1467 171L1449 171L1431 171" stroke="url(#SvgjsLinearGradient1469)" stroke-width="3"></path><path d="M1426.5 171 a4.5 4.5 0 1 0 9 0 a4.5 4.5 0 1 0 -9 0zM1696.5 171 a4.5 4.5 0 1 0 9 0 a4.5 4.5 0 1 0 -9 0zM1606.5 135 a4.5 4.5 0 1 0 9 0 a4.5 4.5 0 1 0 -9 0zM1786.5 189 a4.5 4.5 0 1 0 9 0 a4.5 4.5 0 1 0 -9 0zM1426.5 117 a4.5 4.5 0 1 0 9 0 a4.5 4.5 0 1 0 -9 0zM1588.5 117 a4.5 4.5 0 1 0 9 0 a4.5 4.5 0 1 0 -9 0zM1372.5 153 a4.5 4.5 0 1 0 9 0 a4.5 4.5 0 1 0 -9 0zM1480.5 135 a4.5 4.5 0 1 0 9 0 a4.5 4.5 0 1 0 -9 0z" fill="url(#SvgjsLinearGradient1469)"></path><path d="M1485 711L1467 729L1449 729L1431 729L1413 729L1395 729L1377 729L1359 729M1683 657L1665 675L1647 675M1233 711L1215 711L1197 729L1179 729L1161 747L1143 747L1125 765L1107 765L1089 765L1071 765L1053 765L1035 765L1017 765L999 765M1503 711L1485 729L1467 747L1449 747L1431 765L1413 765L1395 747L1377 747L1359 747L1341 747L1323 747L1305 747M1305 711L1287 729L1269 729L1251 747L1233 747L1215 747L1197 747L1179 747L1161 765L1143 765L1125 783M1719 657L1701 675L1683 675M1521 711L1503 729L1485 747L1467 765L1449 783L1431 783L1413 783L1395 783L1377 783L1359 783M1737 657L1719 675L1701 693L1683 693L1665 693L1647 693L1629 693L1611 693M1791 675L1773 693L1755 693L1737 693L1719 693L1701 711L1683 711L1665 711M1845 675L1827 693L1809 693L1791 693L1773 711L1755 711L1737 711L1719 711L1701 729L1683 729L1665 729L1647 729L1629 729L1611 729M1917 657L1899 657L1881 675L1863 675L1845 675L1827 675L1809 675L1791 675L1773 675L1755 657L1737 657L1719 657L1701 657L1683 657L1665 657L1647 657L1629 657L1611 657L1593 675L1575 693L1557 711L1539 711L1521 711L1503 711L1485 711L1467 711L1449 711L1431 711L1413 711L1395 711L1377 711L1359 711L1341 711L1323 711L1305 711L1287 711L1269 711L1251 711L1233 711L1215 693" stroke="url(#SvgjsLinearGradient1469)" stroke-width="3"></path><path d="M1210.5 693 a4.5 4.5 0 1 0 9 0 a4.5 4.5 0 1 0 -9 0zM1354.5 729 a4.5 4.5 0 1 0 9 0 a4.5 4.5 0 1 0 -9 0zM1642.5 675 a4.5 4.5 0 1 0 9 0 a4.5 4.5 0 1 0 -9 0zM994.5 765 a4.5 4.5 0 1 0 9 0 a4.5 4.5 0 1 0 -9 0zM1300.5 747 a4.5 4.5 0 1 0 9 0 a4.5 4.5 0 1 0 -9 0zM1120.5 783 a4.5 4.5 0 1 0 9 0 a4.5 4.5 0 1 0 -9 0zM1678.5 675 a4.5 4.5 0 1 0 9 0 a4.5 4.5 0 1 0 -9 0zM1354.5 783 a4.5 4.5 0 1 0 9 0 a4.5 4.5 0 1 0 -9 0zM1606.5 693 a4.5 4.5 0 1 0 9 0 a4.5 4.5 0 1 0 -9 0zM1660.5 711 a4.5 4.5 0 1 0 9 0 a4.5 4.5 0 1 0 -9 0zM1606.5 729 a4.5 4.5 0 1 0 9 0 a4.5 4.5 0 1 0 -9 0z" fill="url(#SvgjsLinearGradient1469)"></path><path d="M1755 153L1737 135L1719 117L1701 117L1683 99M1863 207L1845 189L1827 171M1791 153L1773 135L1755 135L1737 117M1917 243L1899 243L1881 225L1863 207L1845 207L1827 189L1809 171L1791 153L1773 153L1755 153L1737 153L1719 153L1701 135" stroke="url(#SvgjsLinearGradient1469)" stroke-width="3"></path><path d="M1696.5 135 a4.5 4.5 0 1 0 9 0 a4.5 4.5 0 1 0 -9 0zM1678.5 99 a4.5 4.5 0 1 0 9 0 a4.5 4.5 0 1 0 -9 0zM1822.5 171 a4.5 4.5 0 1 0 9 0 a4.5 4.5 0 1 0 -9 0zM1732.5 117 a4.5 4.5 0 1 0 9 0 a4.5 4.5 0 1 0 -9 0z" fill="url(#SvgjsLinearGradient1469)"></path></g></g><defs><mask id="SvgjsMask1468"><rect width="1900" height="900" fill="#ffffff"></rect></mask><linearGradient x1="819.9639999999999" y1="-60.029999999999994" x2="1840.0359999999998" y2="960.03" gradientUnits="userSpaceOnUse" id="SvgjsLinearGradient1469"><stop stop-color="rgba(0, 192, 255, 1)" offset="0.01"></stop><stop stop-color="rgba(255, 0, 57, 1)" offset="1"></stop></linearGradient><mask id="SvgjsMask1470"><rect width="1900" height="900" fill="white"></rect><path d="M1752.75 459 a2.25 2.25 0 1 0 4.5 0 a2.25 2.25 0 1 0 -4.5 0zM1716.75 459 a2.25 2.25 0 1 0 4.5 0 a2.25 2.25 0 1 0 -4.5 0zM1788.75 477 a2.25 2.25 0 1 0 4.5 0 a2.25 2.25 0 1 0 -4.5 0zM1806.75 477 a2.25 2.25 0 1 0 4.5 0 a2.25 2.25 0 1 0 -4.5 0z" fill="black"></path><path d="M1140.75 369 a2.25 2.25 0 1 0 4.5 0 a2.25 2.25 0 1 0 -4.5 0zM1230.75 423 a2.25 2.25 0 1 0 4.5 0 a2.25 2.25 0 1 0 -4.5 0zM1662.75 459 a2.25 2.25 0 1 0 4.5 0 a2.25 2.25 0 1 0 -4.5 0zM1284.75 369 a2.25 2.25 0 1 0 4.5 0 a2.25 2.25 0 1 0 -4.5 0zM1536.75 423 a2.25 2.25 0 1 0 4.5 0 a2.25 2.25 0 1 0 -4.5 0zM1176.75 351 a2.25 2.25 0 1 0 4.5 0 a2.25 2.25 0 1 0 -4.5 0zM1734.75 441 a2.25 2.25 0 1 0 4.5 0 a2.25 2.25 0 1 0 -4.5 0zM1608.75 423 a2.25 2.25 0 1 0 4.5 0 a2.25 2.25 0 1 0 -4.5 0zM1356.75 405 a2.25 2.25 0 1 0 4.5 0 a2.25 2.25 0 1 0 -4.5 0zM1374.75 405 a2.25 2.25 0 1 0 4.5 0 a2.25 2.25 0 1 0 -4.5 0zM1212.75 387 a2.25 2.25 0 1 0 4.5 0 a2.25 2.25 0 1 0 -4.5 0zM1194.75 351 a2.25 2.25 0 1 0 4.5 0 a2.25 2.25 0 1 0 -4.5 0z" fill="black"></path><path d="M1158.75 477 a2.25 2.25 0 1 0 4.5 0 a2.25 2.25 0 1 0 -4.5 0zM1248.75 513 a2.25 2.25 0 1 0 4.5 0 a2.25 2.25 0 1 0 -4.5 0zM1824.75 477 a2.25 2.25 0 1 0 4.5 0 a2.25 2.25 0 1 0 -4.5 0zM1464.75 441 a2.25 2.25 0 1 0 4.5 0 a2.25 2.25 0 1 0 -4.5 0zM1572.75 477 a2.25 2.25 0 1 0 4.5 0 a2.25 2.25 0 1 0 -4.5 0zM1122.75 513 a2.25 2.25 0 1 0 4.5 0 a2.25 2.25 0 1 0 -4.5 0zM1500.75 477 a2.25 2.25 0 1 0 4.5 0 a2.25 2.25 0 1 0 -4.5 0zM1176.75 459 a2.25 2.25 0 1 0 4.5 0 a2.25 2.25 0 1 0 -4.5 0zM1338.75 477 a2.25 2.25 0 1 0 4.5 0 a2.25 2.25 0 1 0 -4.5 0zM1140.75 459 a2.25 2.25 0 1 0 4.5 0 a2.25 2.25 0 1 0 -4.5 0zM1248.75 441 a2.25 2.25 0 1 0 4.5 0 a2.25 2.25 0 1 0 -4.5 0z" fill="black"></path><path d="M816.75 315 a2.25 2.25 0 1 0 4.5 0 a2.25 2.25 0 1 0 -4.5 0zM888.75 333 a2.25 2.25 0 1 0 4.5 0 a2.25 2.25 0 1 0 -4.5 0zM1698.75 387 a2.25 2.25 0 1 0 4.5 0 a2.25 2.25 0 1 0 -4.5 0zM1518.75 369 a2.25 2.25 0 1 0 4.5 0 a2.25 2.25 0 1 0 -4.5 0zM798.75 297 a2.25 2.25 0 1 0 4.5 0 a2.25 2.25 0 1 0 -4.5 0zM1266.75 333 a2.25 2.25 0 1 0 4.5 0 a2.25 2.25 0 1 0 -4.5 0zM1122.75 351 a2.25 2.25 0 1 0 4.5 0 a2.25 2.25 0 1 0 -4.5 0zM1734.75 387 a2.25 2.25 0 1 0 4.5 0 a2.25 2.25 0 1 0 -4.5 0zM1824.75 405 a2.25 2.25 0 1 0 4.5 0 a2.25 2.25 0 1 0 -4.5 0zM1482.75 369 a2.25 2.25 0 1 0 4.5 0 a2.25 2.25 0 1 0 -4.5 0zM1302.75 369 a2.25 2.25 0 1 0 4.5 0 a2.25 2.25 0 1 0 -4.5 0zM1014.75 333 a2.25 2.25 0 1 0 4.5 0 a2.25 2.25 0 1 0 -4.5 0zM1788.75 423 a2.25 2.25 0 1 0 4.5 0 a2.25 2.25 0 1 0 -4.5 0z" fill="black"></path><path d="M1428.75 495 a2.25 2.25 0 1 0 4.5 0 a2.25 2.25 0 1 0 -4.5 0zM1518.75 513 a2.25 2.25 0 1 0 4.5 0 a2.25 2.25 0 1 0 -4.5 0zM1644.75 513 a2.25 2.25 0 1 0 4.5 0 a2.25 2.25 0 1 0 -4.5 0zM1374.75 513 a2.25 2.25 0 1 0 4.5 0 a2.25 2.25 0 1 0 -4.5 0zM1572.75 513 a2.25 2.25 0 1 0 4.5 0 a2.25 2.25 0 1 0 -4.5 0zM1446.75 513 a2.25 2.25 0 1 0 4.5 0 a2.25 2.25 0 1 0 -4.5 0zM1698.75 513 a2.25 2.25 0 1 0 4.5 0 a2.25 2.25 0 1 0 -4.5 0zM1482.75 513 a2.25 2.25 0 1 0 4.5 0 a2.25 2.25 0 1 0 -4.5 0z" fill="black"></path><path d="M870.75 297 a2.25 2.25 0 1 0 4.5 0 a2.25 2.25 0 1 0 -4.5 0zM1338.75 333 a2.25 2.25 0 1 0 4.5 0 a2.25 2.25 0 1 0 -4.5 0zM1662.75 369 a2.25 2.25 0 1 0 4.5 0 a2.25 2.25 0 1 0 -4.5 0zM1806.75 369 a2.25 2.25 0 1 0 4.5 0 a2.25 2.25 0 1 0 -4.5 0zM1068.75 297 a2.25 2.25 0 1 0 4.5 0 a2.25 2.25 0 1 0 -4.5 0zM1284.75 333 a2.25 2.25 0 1 0 4.5 0 a2.25 2.25 0 1 0 -4.5 0zM1032.75 279 a2.25 2.25 0 1 0 4.5 0 a2.25 2.25 0 1 0 -4.5 0zM906.75 279 a2.25 2.25 0 1 0 4.5 0 a2.25 2.25 0 1 0 -4.5 0zM942.75 261 a2.25 2.25 0 1 0 4.5 0 a2.25 2.25 0 1 0 -4.5 0zM816.75 279 a2.25 2.25 0 1 0 4.5 0 a2.25 2.25 0 1 0 -4.5 0zM1032.75 297 a2.25 2.25 0 1 0 4.5 0 a2.25 2.25 0 1 0 -4.5 0zM1770.75 369 a2.25 2.25 0 1 0 4.5 0 a2.25 2.25 0 1 0 -4.5 0zM960.75 261 a2.25 2.25 0 1 0 4.5 0 a2.25 2.25 0 1 0 -4.5 0zM1752.75 387 a2.25 2.25 0 1 0 4.5 0 a2.25 2.25 0 1 0 -4.5 0zM1860.75 405 a2.25 2.25 0 1 0 4.5 0 a2.25 2.25 0 1 0 -4.5 0z" fill="black"></path><path d="M1860.75 513 a2.25 2.25 0 1 0 4.5 0 a2.25 2.25 0 1 0 -4.5 0z" fill="black"></path><path d="M1896.75 387 a2.25 2.25 0 1 0 4.5 0 a2.25 2.25 0 1 0 -4.5 0z" fill="black"></path><path d="M1068.75 549 a2.25 2.25 0 1 0 4.5 0 a2.25 2.25 0 1 0 -4.5 0zM1446.75 549 a2.25 2.25 0 1 0 4.5 0 a2.25 2.25 0 1 0 -4.5 0zM1626.75 549 a2.25 2.25 0 1 0 4.5 0 a2.25 2.25 0 1 0 -4.5 0zM1248.75 567 a2.25 2.25 0 1 0 4.5 0 a2.25 2.25 0 1 0 -4.5 0zM1284.75 513 a2.25 2.25 0 1 0 4.5 0 a2.25 2.25 0 1 0 -4.5 0zM1158.75 513 a2.25 2.25 0 1 0 4.5 0 a2.25 2.25 0 1 0 -4.5 0zM1194.75 513 a2.25 2.25 0 1 0 4.5 0 a2.25 2.25 0 1 0 -4.5 0zM1068.75 567 a2.25 2.25 0 1 0 4.5 0 a2.25 2.25 0 1 0 -4.5 0zM1122.75 567 a2.25 2.25 0 1 0 4.5 0 a2.25 2.25 0 1 0 -4.5 0zM1500.75 549 a2.25 2.25 0 1 0 4.5 0 a2.25 2.25 0 1 0 -4.5 0zM1176.75 567 a2.25 2.25 0 1 0 4.5 0 a2.25 2.25 0 1 0 -4.5 0zM1536.75 549 a2.25 2.25 0 1 0 4.5 0 a2.25 2.25 0 1 0 -4.5 0zM1860.75 549 a2.25 2.25 0 1 0 4.5 0 a2.25 2.25 0 1 0 -4.5 0z" fill="black"></path><path d="M1428.75 333 a2.25 2.25 0 1 0 4.5 0 a2.25 2.25 0 1 0 -4.5 0zM1878.75 369 a2.25 2.25 0 1 0 4.5 0 a2.25 2.25 0 1 0 -4.5 0z" fill="black"></path><path d="M1788.75 567 a2.25 2.25 0 1 0 4.5 0 a2.25 2.25 0 1 0 -4.5 0zM1878.75 549 a2.25 2.25 0 1 0 4.5 0 a2.25 2.25 0 1 0 -4.5 0z" fill="black"></path><path d="M1320.75 333 a2.25 2.25 0 1 0 4.5 0 a2.25 2.25 0 1 0 -4.5 0zM1842.75 315 a2.25 2.25 0 1 0 4.5 0 a2.25 2.25 0 1 0 -4.5 0zM1284.75 297 a2.25 2.25 0 1 0 4.5 0 a2.25 2.25 0 1 0 -4.5 0zM1626.75 297 a2.25 2.25 0 1 0 4.5 0 a2.25 2.25 0 1 0 -4.5 0zM1302.75 315 a2.25 2.25 0 1 0 4.5 0 a2.25 2.25 0 1 0 -4.5 0zM1356.75 297 a2.25 2.25 0 1 0 4.5 0 a2.25 2.25 0 1 0 -4.5 0z" fill="black"></path><path d="M1356.75 585 a2.25 2.25 0 1 0 4.5 0 a2.25 2.25 0 1 0 -4.5 0zM1680.75 567 a2.25 2.25 0 1 0 4.5 0 a2.25 2.25 0 1 0 -4.5 0zM1410.75 549 a2.25 2.25 0 1 0 4.5 0 a2.25 2.25 0 1 0 -4.5 0zM1590.75 567 a2.25 2.25 0 1 0 4.5 0 a2.25 2.25 0 1 0 -4.5 0zM1698.75 567 a2.25 2.25 0 1 0 4.5 0 a2.25 2.25 0 1 0 -4.5 0zM1374.75 567 a2.25 2.25 0 1 0 4.5 0 a2.25 2.25 0 1 0 -4.5 0zM1518.75 585 a2.25 2.25 0 1 0 4.5 0 a2.25 2.25 0 1 0 -4.5 0zM1392.75 567 a2.25 2.25 0 1 0 4.5 0 a2.25 2.25 0 1 0 -4.5 0zM1554.75 549 a2.25 2.25 0 1 0 4.5 0 a2.25 2.25 0 1 0 -4.5 0z" fill="black"></path><path d="M1050.75 261 a2.25 2.25 0 1 0 4.5 0 a2.25 2.25 0 1 0 -4.5 0zM1140.75 243 a2.25 2.25 0 1 0 4.5 0 a2.25 2.25 0 1 0 -4.5 0zM1374.75 261 a2.25 2.25 0 1 0 4.5 0 a2.25 2.25 0 1 0 -4.5 0zM1734.75 297 a2.25 2.25 0 1 0 4.5 0 a2.25 2.25 0 1 0 -4.5 0zM1374.75 297 a2.25 2.25 0 1 0 4.5 0 a2.25 2.25 0 1 0 -4.5 0zM1554.75 261 a2.25 2.25 0 1 0 4.5 0 a2.25 2.25 0 1 0 -4.5 0zM1158.75 225 a2.25 2.25 0 1 0 4.5 0 a2.25 2.25 0 1 0 -4.5 0zM1176.75 225 a2.25 2.25 0 1 0 4.5 0 a2.25 2.25 0 1 0 -4.5 0zM1572.75 261 a2.25 2.25 0 1 0 4.5 0 a2.25 2.25 0 1 0 -4.5 0zM1734.75 279 a2.25 2.25 0 1 0 4.5 0 a2.25 2.25 0 1 0 -4.5 0zM1860.75 315 a2.25 2.25 0 1 0 4.5 0 a2.25 2.25 0 1 0 -4.5 0zM1266.75 279 a2.25 2.25 0 1 0 4.5 0 a2.25 2.25 0 1 0 -4.5 0zM816.75 225 a2.25 2.25 0 1 0 4.5 0 a2.25 2.25 0 1 0 -4.5 0z" fill="black"></path><path d="M870.75 585 a2.25 2.25 0 1 0 4.5 0 a2.25 2.25 0 1 0 -4.5 0zM1284.75 585 a2.25 2.25 0 1 0 4.5 0 a2.25 2.25 0 1 0 -4.5 0zM960.75 621 a2.25 2.25 0 1 0 4.5 0 a2.25 2.25 0 1 0 -4.5 0zM1356.75 621 a2.25 2.25 0 1 0 4.5 0 a2.25 2.25 0 1 0 -4.5 0zM1608.75 585 a2.25 2.25 0 1 0 4.5 0 a2.25 2.25 0 1 0 -4.5 0zM1122.75 621 a2.25 2.25 0 1 0 4.5 0 a2.25 2.25 0 1 0 -4.5 0zM1410.75 603 a2.25 2.25 0 1 0 4.5 0 a2.25 2.25 0 1 0 -4.5 0zM1140.75 567 a2.25 2.25 0 1 0 4.5 0 a2.25 2.25 0 1 0 -4.5 0zM996.75 567 a2.25 2.25 0 1 0 4.5 0 a2.25 2.25 0 1 0 -4.5 0zM1446.75 603 a2.25 2.25 0 1 0 4.5 0 a2.25 2.25 0 1 0 -4.5 0zM1140.75 639 a2.25 2.25 0 1 0 4.5 0 a2.25 2.25 0 1 0 -4.5 0zM834.75 603 a2.25 2.25 0 1 0 4.5 0 a2.25 2.25 0 1 0 -4.5 0zM798.75 567 a2.25 2.25 0 1 0 4.5 0 a2.25 2.25 0 1 0 -4.5 0zM960.75 549 a2.25 2.25 0 1 0 4.5 0 a2.25 2.25 0 1 0 -4.5 0zM798.75 639 a2.25 2.25 0 1 0 4.5 0 a2.25 2.25 0 1 0 -4.5 0z" fill="black"></path><path d="M1014.75 171 a2.25 2.25 0 1 0 4.5 0 a2.25 2.25 0 1 0 -4.5 0zM1338.75 243 a2.25 2.25 0 1 0 4.5 0 a2.25 2.25 0 1 0 -4.5 0zM1590.75 225 a2.25 2.25 0 1 0 4.5 0 a2.25 2.25 0 1 0 -4.5 0zM978.75 189 a2.25 2.25 0 1 0 4.5 0 a2.25 2.25 0 1 0 -4.5 0zM1104.75 189 a2.25 2.25 0 1 0 4.5 0 a2.25 2.25 0 1 0 -4.5 0zM1176.75 207 a2.25 2.25 0 1 0 4.5 0 a2.25 2.25 0 1 0 -4.5 0zM1590.75 261 a2.25 2.25 0 1 0 4.5 0 a2.25 2.25 0 1 0 -4.5 0zM1428.75 261 a2.25 2.25 0 1 0 4.5 0 a2.25 2.25 0 1 0 -4.5 0zM1086.75 153 a2.25 2.25 0 1 0 4.5 0 a2.25 2.25 0 1 0 -4.5 0zM1626.75 261 a2.25 2.25 0 1 0 4.5 0 a2.25 2.25 0 1 0 -4.5 0zM1212.75 207 a2.25 2.25 0 1 0 4.5 0 a2.25 2.25 0 1 0 -4.5 0zM924.75 153 a2.25 2.25 0 1 0 4.5 0 a2.25 2.25 0 1 0 -4.5 0zM1122.75 135 a2.25 2.25 0 1 0 4.5 0 a2.25 2.25 0 1 0 -4.5 0z" fill="black"></path><path d="M1896.75 603 a2.25 2.25 0 1 0 4.5 0 a2.25 2.25 0 1 0 -4.5 0z" fill="black"></path><path d="M1230.75 171 a2.25 2.25 0 1 0 4.5 0 a2.25 2.25 0 1 0 -4.5 0zM1518.75 171 a2.25 2.25 0 1 0 4.5 0 a2.25 2.25 0 1 0 -4.5 0zM1338.75 189 a2.25 2.25 0 1 0 4.5 0 a2.25 2.25 0 1 0 -4.5 0zM1608.75 189 a2.25 2.25 0 1 0 4.5 0 a2.25 2.25 0 1 0 -4.5 0zM1176.75 153 a2.25 2.25 0 1 0 4.5 0 a2.25 2.25 0 1 0 -4.5 0zM1698.75 225 a2.25 2.25 0 1 0 4.5 0 a2.25 2.25 0 1 0 -4.5 0zM1644.75 189 a2.25 2.25 0 1 0 4.5 0 a2.25 2.25 0 1 0 -4.5 0zM1572.75 207 a2.25 2.25 0 1 0 4.5 0 a2.25 2.25 0 1 0 -4.5 0zM1032.75 135 a2.25 2.25 0 1 0 4.5 0 a2.25 2.25 0 1 0 -4.5 0zM1662.75 189 a2.25 2.25 0 1 0 4.5 0 a2.25 2.25 0 1 0 -4.5 0z" fill="black"></path><path d="M996.75 693 a2.25 2.25 0 1 0 4.5 0 a2.25 2.25 0 1 0 -4.5 0zM1770.75 639 a2.25 2.25 0 1 0 4.5 0 a2.25 2.25 0 1 0 -4.5 0zM1194.75 657 a2.25 2.25 0 1 0 4.5 0 a2.25 2.25 0 1 0 -4.5 0zM1230.75 639 a2.25 2.25 0 1 0 4.5 0 a2.25 2.25 0 1 0 -4.5 0zM1392.75 657 a2.25 2.25 0 1 0 4.5 0 a2.25 2.25 0 1 0 -4.5 0zM1806.75 639 a2.25 2.25 0 1 0 4.5 0 a2.25 2.25 0 1 0 -4.5 0zM1050.75 729 a2.25 2.25 0 1 0 4.5 0 a2.25 2.25 0 1 0 -4.5 0zM1014.75 657 a2.25 2.25 0 1 0 4.5 0 a2.25 2.25 0 1 0 -4.5 0zM1032.75 675 a2.25 2.25 0 1 0 4.5 0 a2.25 2.25 0 1 0 -4.5 0zM852.75 675 a2.25 2.25 0 1 0 4.5 0 a2.25 2.25 0 1 0 -4.5 0zM1446.75 639 a2.25 2.25 0 1 0 4.5 0 a2.25 2.25 0 1 0 -4.5 0zM996.75 729 a2.25 2.25 0 1 0 4.5 0 a2.25 2.25 0 1 0 -4.5 0zM1500.75 639 a2.25 2.25 0 1 0 4.5 0 a2.25 2.25 0 1 0 -4.5 0zM1518.75 693 a2.25 2.25 0 1 0 4.5 0 a2.25 2.25 0 1 0 -4.5 0z" fill="black"></path><path d="M1554.75 171 a2.25 2.25 0 1 0 4.5 0 a2.25 2.25 0 1 0 -4.5 0zM1716.75 207 a2.25 2.25 0 1 0 4.5 0 a2.25 2.25 0 1 0 -4.5 0zM1752.75 189 a2.25 2.25 0 1 0 4.5 0 a2.25 2.25 0 1 0 -4.5 0zM1734.75 207 a2.25 2.25 0 1 0 4.5 0 a2.25 2.25 0 1 0 -4.5 0z" fill="black"></path><path d="M1716.75 639 a2.25 2.25 0 1 0 4.5 0 a2.25 2.25 0 1 0 -4.5 0zM1860.75 639 a2.25 2.25 0 1 0 4.5 0 a2.25 2.25 0 1 0 -4.5 0zM1878.75 639 a2.25 2.25 0 1 0 4.5 0 a2.25 2.25 0 1 0 -4.5 0z" fill="black"></path><path d="M1428.75 171 a2.25 2.25 0 1 0 4.5 0 a2.25 2.25 0 1 0 -4.5 0zM1698.75 171 a2.25 2.25 0 1 0 4.5 0 a2.25 2.25 0 1 0 -4.5 0zM1608.75 135 a2.25 2.25 0 1 0 4.5 0 a2.25 2.25 0 1 0 -4.5 0zM1788.75 189 a2.25 2.25 0 1 0 4.5 0 a2.25 2.25 0 1 0 -4.5 0zM1428.75 117 a2.25 2.25 0 1 0 4.5 0 a2.25 2.25 0 1 0 -4.5 0zM1590.75 117 a2.25 2.25 0 1 0 4.5 0 a2.25 2.25 0 1 0 -4.5 0zM1374.75 153 a2.25 2.25 0 1 0 4.5 0 a2.25 2.25 0 1 0 -4.5 0zM1482.75 135 a2.25 2.25 0 1 0 4.5 0 a2.25 2.25 0 1 0 -4.5 0z" fill="black"></path><path d="M1212.75 693 a2.25 2.25 0 1 0 4.5 0 a2.25 2.25 0 1 0 -4.5 0zM1356.75 729 a2.25 2.25 0 1 0 4.5 0 a2.25 2.25 0 1 0 -4.5 0zM1644.75 675 a2.25 2.25 0 1 0 4.5 0 a2.25 2.25 0 1 0 -4.5 0zM996.75 765 a2.25 2.25 0 1 0 4.5 0 a2.25 2.25 0 1 0 -4.5 0zM1302.75 747 a2.25 2.25 0 1 0 4.5 0 a2.25 2.25 0 1 0 -4.5 0zM1122.75 783 a2.25 2.25 0 1 0 4.5 0 a2.25 2.25 0 1 0 -4.5 0zM1680.75 675 a2.25 2.25 0 1 0 4.5 0 a2.25 2.25 0 1 0 -4.5 0zM1356.75 783 a2.25 2.25 0 1 0 4.5 0 a2.25 2.25 0 1 0 -4.5 0zM1608.75 693 a2.25 2.25 0 1 0 4.5 0 a2.25 2.25 0 1 0 -4.5 0zM1662.75 711 a2.25 2.25 0 1 0 4.5 0 a2.25 2.25 0 1 0 -4.5 0zM1608.75 729 a2.25 2.25 0 1 0 4.5 0 a2.25 2.25 0 1 0 -4.5 0z" fill="black"></path><path d="M1698.75 135 a2.25 2.25 0 1 0 4.5 0 a2.25 2.25 0 1 0 -4.5 0zM1680.75 99 a2.25 2.25 0 1 0 4.5 0 a2.25 2.25 0 1 0 -4.5 0zM1824.75 171 a2.25 2.25 0 1 0 4.5 0 a2.25 2.25 0 1 0 -4.5 0zM1734.75 117 a2.25 2.25 0 1 0 4.5 0 a2.25 2.25 0 1 0 -4.5 0z" fill="black"></path></mask></defs></svg>