<svg xmlns="http://www.w3.org/2000/svg" version="1.1" xmlns:xlink="http://www.w3.org/1999/xlink" xmlns:svgjs="http://svgjs.com/svgjs" width="1920" height="1080" preserveAspectRatio="none" viewBox="0 0 1920 1080"><g mask="url(&quot;#SvgjsMask3739&quot;)" fill="none"><rect width="1920" height="1080" x="0" y="0" fill="rgba(0, 0, 0, 1)"></rect><g mask="url(&quot;#SvgjsMask3741&quot;)"><path d="M1138.5 517.5L1115.5 540.5L1092.5 540.5L1069.5 540.5L1046.5 540.5M1690.5 540.5L1667.5 517.5L1644.5 517.5L1621.5 517.5L1598.5 517.5M1736.5 540.5L1713.5 517.5L1690.5 517.5L1667.5 494.5L1644.5 494.5L1621.5 494.5L1598.5 494.5L1575.5 494.5L1552.5 494.5L1529.5 494.5L1506.5 494.5L1483.5 494.5L1460.5 494.5L1437.5 494.5L1414.5 494.5L1391.5 494.5L1368.5 517.5M1207.5 517.5L1184.5 540.5L1161.5 540.5L1138.5 540.5L1115.5 563.5L1092.5 563.5M1092.5 517.5L1069.5 494.5L1046.5 494.5L1023.5 494.5L1000.5 494.5L977.5 494.5M1529.5 540.5L1506.5 517.5L1483.5 517.5L1460.5 517.5L1437.5 517.5L1414.5 517.5L1391.5 517.5M1184.5 517.5L1161.5 494.5L1138.5 494.5L1115.5 494.5L1092.5 494.5M1759.5 540.5L1736.5 517.5L1713.5 494.5L1690.5 494.5L1667.5 471.5M1299.5 540.5L1276.5 563.5L1253.5 563.5L1230.5 563.5L1207.5 563.5L1184.5 563.5L1161.5 563.5L1138.5 563.5M1391.5 540.5L1368.5 563.5L1345.5 563.5L1322.5 563.5M1943.5 540.5L1920.5 540.5L1897.5 540.5L1874.5 540.5L1851.5 540.5L1828.5 540.5L1805.5 540.5L1782.5 540.5L1759.5 540.5L1736.5 540.5L1713.5 540.5L1690.5 540.5L1667.5 540.5L1644.5 540.5L1621.5 540.5L1598.5 540.5L1575.5 540.5L1552.5 540.5L1529.5 540.5L1506.5 540.5L1483.5 540.5L1460.5 540.5L1437.5 540.5L1414.5 540.5L1391.5 540.5L1368.5 540.5L1345.5 540.5L1322.5 540.5L1299.5 540.5L1276.5 540.5L1253.5 540.5L1230.5 517.5L1207.5 517.5L1184.5 517.5L1161.5 517.5L1138.5 517.5L1115.5 517.5L1092.5 517.5L1069.5 517.5L1046.5 517.5" stroke="url(#SvgjsLinearGradient3740)" stroke-width="3.83"></path><path d="M1040.75 517.5 a5.75 5.75 0 1 0 11.5 0 a5.75 5.75 0 1 0 -11.5 0zM1040.75 540.5 a5.75 5.75 0 1 0 11.5 0 a5.75 5.75 0 1 0 -11.5 0zM1592.75 517.5 a5.75 5.75 0 1 0 11.5 0 a5.75 5.75 0 1 0 -11.5 0zM1362.75 517.5 a5.75 5.75 0 1 0 11.5 0 a5.75 5.75 0 1 0 -11.5 0zM1086.75 563.5 a5.75 5.75 0 1 0 11.5 0 a5.75 5.75 0 1 0 -11.5 0zM971.75 494.5 a5.75 5.75 0 1 0 11.5 0 a5.75 5.75 0 1 0 -11.5 0zM1385.75 517.5 a5.75 5.75 0 1 0 11.5 0 a5.75 5.75 0 1 0 -11.5 0zM1086.75 494.5 a5.75 5.75 0 1 0 11.5 0 a5.75 5.75 0 1 0 -11.5 0zM1661.75 471.5 a5.75 5.75 0 1 0 11.5 0 a5.75 5.75 0 1 0 -11.5 0zM1132.75 563.5 a5.75 5.75 0 1 0 11.5 0 a5.75 5.75 0 1 0 -11.5 0zM1316.75 563.5 a5.75 5.75 0 1 0 11.5 0 a5.75 5.75 0 1 0 -11.5 0z" fill="url(#SvgjsLinearGradient3740)"></path><path d="M1828.5 517.5L1805.5 494.5L1782.5 494.5L1759.5 471.5M1943.5 517.5L1920.5 517.5L1897.5 517.5L1874.5 517.5L1851.5 517.5L1828.5 517.5L1805.5 517.5" stroke="url(#SvgjsLinearGradient3740)" stroke-width="3.83"></path><path d="M1799.75 517.5 a5.75 5.75 0 1 0 11.5 0 a5.75 5.75 0 1 0 -11.5 0zM1753.75 471.5 a5.75 5.75 0 1 0 11.5 0 a5.75 5.75 0 1 0 -11.5 0z" fill="url(#SvgjsLinearGradient3740)"></path><path d="M908.5 609.5L885.5 586.5L862.5 586.5M885.5 609.5L862.5 632.5L839.5 632.5L816.5 632.5L793.5 632.5L770.5 632.5L747.5 632.5L724.5 632.5M1069.5 609.5L1046.5 632.5L1023.5 632.5L1000.5 632.5L977.5 632.5L954.5 632.5L931.5 632.5L908.5 632.5L885.5 632.5L862.5 655.5L839.5 655.5L816.5 655.5L793.5 655.5L770.5 655.5L747.5 655.5L724.5 655.5M977.5 609.5L954.5 586.5L931.5 586.5M1391.5 609.5L1368.5 586.5L1345.5 586.5L1322.5 586.5L1299.5 586.5L1276.5 586.5M1092.5 609.5L1069.5 632.5L1046.5 655.5M1437.5 563.5L1414.5 563.5L1391.5 563.5M1115.5 609.5L1092.5 632.5M1161.5 609.5L1138.5 632.5L1115.5 632.5L1092.5 655.5L1069.5 655.5M1276.5 632.5L1253.5 655.5L1230.5 655.5L1207.5 655.5L1184.5 655.5L1161.5 655.5L1138.5 655.5L1115.5 655.5M1230.5 632.5L1207.5 632.5L1184.5 632.5L1161.5 632.5M1000.5 609.5L977.5 586.5L954.5 563.5L931.5 563.5L908.5 563.5L885.5 563.5L862.5 563.5L839.5 563.5M1943.5 563.5L1920.5 563.5L1897.5 563.5L1874.5 563.5L1851.5 563.5L1828.5 563.5L1805.5 563.5L1782.5 563.5L1759.5 563.5L1736.5 563.5L1713.5 563.5L1690.5 563.5L1667.5 563.5L1644.5 563.5L1621.5 563.5L1598.5 563.5L1575.5 563.5L1552.5 563.5L1529.5 563.5L1506.5 563.5L1483.5 563.5L1460.5 563.5L1437.5 563.5L1414.5 586.5L1391.5 609.5L1368.5 609.5L1345.5 609.5L1322.5 632.5L1299.5 632.5L1276.5 632.5L1253.5 632.5L1230.5 632.5L1207.5 609.5L1184.5 609.5L1161.5 609.5L1138.5 609.5L1115.5 609.5L1092.5 609.5L1069.5 609.5L1046.5 609.5L1023.5 609.5L1000.5 609.5L977.5 609.5L954.5 609.5L931.5 609.5L908.5 609.5L885.5 609.5L862.5 609.5" stroke="url(#SvgjsLinearGradient3740)" stroke-width="3.83"></path><path d="M856.75 609.5 a5.75 5.75 0 1 0 11.5 0 a5.75 5.75 0 1 0 -11.5 0zM856.75 586.5 a5.75 5.75 0 1 0 11.5 0 a5.75 5.75 0 1 0 -11.5 0zM718.75 632.5 a5.75 5.75 0 1 0 11.5 0 a5.75 5.75 0 1 0 -11.5 0zM718.75 655.5 a5.75 5.75 0 1 0 11.5 0 a5.75 5.75 0 1 0 -11.5 0zM925.75 586.5 a5.75 5.75 0 1 0 11.5 0 a5.75 5.75 0 1 0 -11.5 0zM1270.75 586.5 a5.75 5.75 0 1 0 11.5 0 a5.75 5.75 0 1 0 -11.5 0zM1040.75 655.5 a5.75 5.75 0 1 0 11.5 0 a5.75 5.75 0 1 0 -11.5 0zM1385.75 563.5 a5.75 5.75 0 1 0 11.5 0 a5.75 5.75 0 1 0 -11.5 0zM1086.75 632.5 a5.75 5.75 0 1 0 11.5 0 a5.75 5.75 0 1 0 -11.5 0zM1063.75 655.5 a5.75 5.75 0 1 0 11.5 0 a5.75 5.75 0 1 0 -11.5 0zM1109.75 655.5 a5.75 5.75 0 1 0 11.5 0 a5.75 5.75 0 1 0 -11.5 0zM1155.75 632.5 a5.75 5.75 0 1 0 11.5 0 a5.75 5.75 0 1 0 -11.5 0zM833.75 563.5 a5.75 5.75 0 1 0 11.5 0 a5.75 5.75 0 1 0 -11.5 0z" fill="url(#SvgjsLinearGradient3740)"></path><path d="M1621.5 448.5L1598.5 471.5M1851.5 494.5L1828.5 494.5M1460.5 448.5L1437.5 471.5L1414.5 471.5L1391.5 471.5L1368.5 471.5M1644.5 448.5L1621.5 471.5M1368.5 448.5L1345.5 425.5L1322.5 425.5L1299.5 425.5L1276.5 425.5L1253.5 425.5L1230.5 425.5L1207.5 425.5M1805.5 448.5L1782.5 471.5M1736.5 448.5L1713.5 471.5L1690.5 471.5M1828.5 471.5L1805.5 471.5M1943.5 494.5L1920.5 494.5L1897.5 494.5L1874.5 494.5L1851.5 494.5L1828.5 471.5L1805.5 448.5L1782.5 448.5L1759.5 448.5L1736.5 448.5L1713.5 448.5L1690.5 448.5L1667.5 448.5L1644.5 448.5L1621.5 448.5L1598.5 448.5L1575.5 448.5L1552.5 448.5L1529.5 448.5L1506.5 448.5L1483.5 448.5L1460.5 448.5L1437.5 448.5L1414.5 448.5L1391.5 448.5L1368.5 448.5L1345.5 448.5L1322.5 448.5L1299.5 448.5L1276.5 448.5L1253.5 448.5L1230.5 448.5L1207.5 448.5L1184.5 448.5" stroke="url(#SvgjsLinearGradient3740)" stroke-width="3.83"></path><path d="M1178.75 448.5 a5.75 5.75 0 1 0 11.5 0 a5.75 5.75 0 1 0 -11.5 0zM1592.75 471.5 a5.75 5.75 0 1 0 11.5 0 a5.75 5.75 0 1 0 -11.5 0zM1822.75 494.5 a5.75 5.75 0 1 0 11.5 0 a5.75 5.75 0 1 0 -11.5 0zM1362.75 471.5 a5.75 5.75 0 1 0 11.5 0 a5.75 5.75 0 1 0 -11.5 0zM1615.75 471.5 a5.75 5.75 0 1 0 11.5 0 a5.75 5.75 0 1 0 -11.5 0zM1201.75 425.5 a5.75 5.75 0 1 0 11.5 0 a5.75 5.75 0 1 0 -11.5 0zM1776.75 471.5 a5.75 5.75 0 1 0 11.5 0 a5.75 5.75 0 1 0 -11.5 0zM1684.75 471.5 a5.75 5.75 0 1 0 11.5 0 a5.75 5.75 0 1 0 -11.5 0zM1799.75 471.5 a5.75 5.75 0 1 0 11.5 0 a5.75 5.75 0 1 0 -11.5 0z" fill="url(#SvgjsLinearGradient3740)"></path><path d="M1690.5 586.5L1667.5 609.5L1644.5 609.5L1621.5 609.5L1598.5 609.5L1575.5 609.5L1552.5 609.5L1529.5 609.5L1506.5 609.5M1828.5 586.5L1805.5 609.5L1782.5 609.5L1759.5 609.5M1368.5 632.5L1345.5 655.5M1713.5 586.5L1690.5 609.5L1667.5 632.5M1874.5 586.5L1851.5 609.5M1736.5 586.5L1713.5 609.5L1690.5 632.5M1943.5 586.5L1920.5 586.5L1897.5 586.5L1874.5 586.5L1851.5 586.5L1828.5 586.5L1805.5 586.5L1782.5 586.5L1759.5 586.5L1736.5 586.5L1713.5 586.5L1690.5 586.5L1667.5 586.5L1644.5 586.5L1621.5 586.5L1598.5 586.5L1575.5 586.5L1552.5 586.5L1529.5 586.5L1506.5 586.5L1483.5 586.5L1460.5 586.5L1437.5 586.5L1414.5 609.5L1391.5 632.5L1368.5 632.5L1345.5 632.5L1322.5 655.5L1299.5 655.5" stroke="url(#SvgjsLinearGradient3740)" stroke-width="3.83"></path><path d="M1293.75 655.5 a5.75 5.75 0 1 0 11.5 0 a5.75 5.75 0 1 0 -11.5 0zM1500.75 609.5 a5.75 5.75 0 1 0 11.5 0 a5.75 5.75 0 1 0 -11.5 0zM1753.75 609.5 a5.75 5.75 0 1 0 11.5 0 a5.75 5.75 0 1 0 -11.5 0zM1339.75 655.5 a5.75 5.75 0 1 0 11.5 0 a5.75 5.75 0 1 0 -11.5 0zM1661.75 632.5 a5.75 5.75 0 1 0 11.5 0 a5.75 5.75 0 1 0 -11.5 0zM1845.75 609.5 a5.75 5.75 0 1 0 11.5 0 a5.75 5.75 0 1 0 -11.5 0zM1684.75 632.5 a5.75 5.75 0 1 0 11.5 0 a5.75 5.75 0 1 0 -11.5 0z" fill="url(#SvgjsLinearGradient3740)"></path><path d="M1943.5 471.5L1920.5 471.5L1897.5 471.5" stroke="url(#SvgjsLinearGradient3740)" stroke-width="3.83"></path><path d="M1891.75 471.5 a5.75 5.75 0 1 0 11.5 0 a5.75 5.75 0 1 0 -11.5 0z" fill="url(#SvgjsLinearGradient3740)"></path><path d="M1276.5 678.5L1253.5 701.5M1506.5 632.5L1483.5 655.5M1575.5 632.5L1552.5 655.5L1529.5 655.5L1506.5 655.5M1598.5 632.5L1575.5 655.5L1552.5 678.5L1529.5 678.5M1230.5 678.5L1207.5 701.5M1483.5 609.5L1460.5 632.5L1437.5 632.5L1414.5 655.5M1621.5 655.5L1598.5 655.5L1575.5 678.5M1322.5 678.5L1299.5 701.5L1276.5 701.5M1046.5 678.5L1023.5 678.5L1000.5 678.5L977.5 678.5L954.5 678.5L931.5 655.5L908.5 655.5M1667.5 655.5L1644.5 678.5L1621.5 678.5L1598.5 678.5M1943.5 609.5L1920.5 609.5L1897.5 609.5L1874.5 632.5L1851.5 655.5L1828.5 655.5L1805.5 655.5L1782.5 655.5L1759.5 655.5L1736.5 655.5L1713.5 655.5L1690.5 655.5L1667.5 655.5L1644.5 655.5L1621.5 655.5L1598.5 632.5L1575.5 632.5L1552.5 632.5L1529.5 632.5L1506.5 632.5L1483.5 609.5L1460.5 609.5L1437.5 609.5L1414.5 632.5L1391.5 655.5L1368.5 678.5L1345.5 678.5L1322.5 678.5L1299.5 678.5L1276.5 678.5L1253.5 678.5L1230.5 678.5L1207.5 678.5L1184.5 678.5L1161.5 678.5L1138.5 678.5L1115.5 678.5L1092.5 678.5L1069.5 678.5L1046.5 678.5L1023.5 701.5L1000.5 701.5L977.5 701.5" stroke="url(#SvgjsLinearGradient3740)" stroke-width="3.83"></path><path d="M971.75 701.5 a5.75 5.75 0 1 0 11.5 0 a5.75 5.75 0 1 0 -11.5 0zM1247.75 701.5 a5.75 5.75 0 1 0 11.5 0 a5.75 5.75 0 1 0 -11.5 0zM1477.75 655.5 a5.75 5.75 0 1 0 11.5 0 a5.75 5.75 0 1 0 -11.5 0zM1500.75 655.5 a5.75 5.75 0 1 0 11.5 0 a5.75 5.75 0 1 0 -11.5 0zM1523.75 678.5 a5.75 5.75 0 1 0 11.5 0 a5.75 5.75 0 1 0 -11.5 0zM1201.75 701.5 a5.75 5.75 0 1 0 11.5 0 a5.75 5.75 0 1 0 -11.5 0zM1408.75 655.5 a5.75 5.75 0 1 0 11.5 0 a5.75 5.75 0 1 0 -11.5 0zM1569.75 678.5 a5.75 5.75 0 1 0 11.5 0 a5.75 5.75 0 1 0 -11.5 0zM1270.75 701.5 a5.75 5.75 0 1 0 11.5 0 a5.75 5.75 0 1 0 -11.5 0zM902.75 655.5 a5.75 5.75 0 1 0 11.5 0 a5.75 5.75 0 1 0 -11.5 0zM1592.75 678.5 a5.75 5.75 0 1 0 11.5 0 a5.75 5.75 0 1 0 -11.5 0z" fill="url(#SvgjsLinearGradient3740)"></path><path d="M1713.5 425.5L1690.5 402.5L1667.5 402.5L1644.5 402.5L1621.5 402.5M1782.5 425.5L1759.5 402.5M1805.5 425.5L1782.5 402.5M1874.5 448.5L1851.5 471.5M1943.5 448.5L1920.5 448.5L1897.5 448.5L1874.5 448.5L1851.5 448.5L1828.5 448.5L1805.5 425.5L1782.5 425.5L1759.5 425.5L1736.5 425.5L1713.5 425.5L1690.5 425.5L1667.5 425.5L1644.5 425.5L1621.5 425.5L1598.5 425.5" stroke="url(#SvgjsLinearGradient3740)" stroke-width="3.83"></path><path d="M1592.75 425.5 a5.75 5.75 0 1 0 11.5 0 a5.75 5.75 0 1 0 -11.5 0zM1615.75 402.5 a5.75 5.75 0 1 0 11.5 0 a5.75 5.75 0 1 0 -11.5 0zM1753.75 402.5 a5.75 5.75 0 1 0 11.5 0 a5.75 5.75 0 1 0 -11.5 0zM1776.75 402.5 a5.75 5.75 0 1 0 11.5 0 a5.75 5.75 0 1 0 -11.5 0zM1845.75 471.5 a5.75 5.75 0 1 0 11.5 0 a5.75 5.75 0 1 0 -11.5 0z" fill="url(#SvgjsLinearGradient3740)"></path><path d="M1115.5 701.5L1092.5 724.5L1069.5 724.5L1046.5 724.5L1023.5 747.5M1368.5 701.5L1345.5 724.5M1506.5 678.5L1483.5 701.5M1552.5 701.5L1529.5 724.5L1506.5 724.5L1483.5 724.5L1460.5 724.5L1437.5 724.5M885.5 724.5L862.5 701.5L839.5 701.5M1207.5 724.5L1184.5 724.5L1161.5 724.5L1138.5 724.5L1115.5 724.5L1092.5 747.5M1529.5 701.5L1506.5 701.5M1690.5 678.5L1667.5 678.5M1437.5 678.5L1414.5 701.5M1759.5 678.5L1736.5 701.5L1713.5 701.5L1690.5 701.5M1575.5 701.5L1552.5 724.5M1621.5 701.5L1598.5 724.5L1575.5 724.5M1943.5 632.5L1920.5 632.5L1897.5 632.5L1874.5 655.5L1851.5 678.5L1828.5 678.5L1805.5 678.5L1782.5 678.5L1759.5 678.5L1736.5 678.5L1713.5 678.5L1690.5 678.5L1667.5 701.5L1644.5 701.5L1621.5 701.5L1598.5 701.5L1575.5 701.5L1552.5 701.5L1529.5 701.5L1506.5 678.5L1483.5 678.5L1460.5 678.5L1437.5 678.5L1414.5 678.5L1391.5 678.5L1368.5 701.5L1345.5 701.5L1322.5 724.5L1299.5 724.5L1276.5 724.5L1253.5 724.5L1230.5 724.5L1207.5 724.5L1184.5 701.5L1161.5 701.5L1138.5 701.5L1115.5 701.5L1092.5 701.5L1069.5 701.5L1046.5 701.5L1023.5 724.5L1000.5 724.5L977.5 724.5L954.5 724.5L931.5 724.5L908.5 724.5L885.5 724.5L862.5 724.5" stroke="url(#SvgjsLinearGradient3740)" stroke-width="3.83"></path><path d="M856.75 724.5 a5.75 5.75 0 1 0 11.5 0 a5.75 5.75 0 1 0 -11.5 0zM1017.75 747.5 a5.75 5.75 0 1 0 11.5 0 a5.75 5.75 0 1 0 -11.5 0zM1339.75 724.5 a5.75 5.75 0 1 0 11.5 0 a5.75 5.75 0 1 0 -11.5 0zM1477.75 701.5 a5.75 5.75 0 1 0 11.5 0 a5.75 5.75 0 1 0 -11.5 0zM1431.75 724.5 a5.75 5.75 0 1 0 11.5 0 a5.75 5.75 0 1 0 -11.5 0zM833.75 701.5 a5.75 5.75 0 1 0 11.5 0 a5.75 5.75 0 1 0 -11.5 0zM1086.75 747.5 a5.75 5.75 0 1 0 11.5 0 a5.75 5.75 0 1 0 -11.5 0zM1500.75 701.5 a5.75 5.75 0 1 0 11.5 0 a5.75 5.75 0 1 0 -11.5 0zM1661.75 678.5 a5.75 5.75 0 1 0 11.5 0 a5.75 5.75 0 1 0 -11.5 0zM1408.75 701.5 a5.75 5.75 0 1 0 11.5 0 a5.75 5.75 0 1 0 -11.5 0zM1684.75 701.5 a5.75 5.75 0 1 0 11.5 0 a5.75 5.75 0 1 0 -11.5 0zM1546.75 724.5 a5.75 5.75 0 1 0 11.5 0 a5.75 5.75 0 1 0 -11.5 0zM1569.75 724.5 a5.75 5.75 0 1 0 11.5 0 a5.75 5.75 0 1 0 -11.5 0z" fill="url(#SvgjsLinearGradient3740)"></path><path d="M1897.5 425.5L1874.5 402.5L1851.5 402.5M1943.5 425.5L1920.5 425.5L1897.5 425.5L1874.5 425.5L1851.5 425.5" stroke="url(#SvgjsLinearGradient3740)" stroke-width="3.83"></path><path d="M1845.75 425.5 a5.75 5.75 0 1 0 11.5 0 a5.75 5.75 0 1 0 -11.5 0zM1845.75 402.5 a5.75 5.75 0 1 0 11.5 0 a5.75 5.75 0 1 0 -11.5 0z" fill="url(#SvgjsLinearGradient3740)"></path><path d="M1943.5 655.5L1920.5 655.5L1897.5 655.5L1874.5 678.5L1851.5 701.5" stroke="url(#SvgjsLinearGradient3740)" stroke-width="3.83"></path><path d="M1845.75 701.5 a5.75 5.75 0 1 0 11.5 0 a5.75 5.75 0 1 0 -11.5 0z" fill="url(#SvgjsLinearGradient3740)"></path><path d="M1000.5 379.5L977.5 402.5L954.5 402.5L931.5 402.5L908.5 402.5L885.5 402.5M862.5 379.5L839.5 402.5L816.5 402.5L793.5 402.5L770.5 402.5M977.5 379.5L954.5 356.5M816.5 356.5L793.5 356.5L770.5 356.5L747.5 356.5L724.5 356.5M839.5 379.5L816.5 379.5L793.5 379.5L770.5 379.5L747.5 379.5L724.5 379.5M1920.5 402.5L1897.5 402.5M1414.5 402.5L1391.5 379.5L1368.5 379.5M1115.5 402.5L1092.5 425.5L1069.5 425.5L1046.5 425.5L1023.5 425.5M1345.5 402.5L1322.5 379.5L1299.5 379.5M1598.5 379.5L1575.5 379.5L1552.5 379.5L1529.5 379.5M1023.5 379.5L1000.5 356.5M1069.5 402.5L1046.5 402.5L1023.5 402.5L1000.5 425.5M1943.5 402.5L1920.5 402.5L1897.5 379.5L1874.5 379.5L1851.5 379.5L1828.5 379.5L1805.5 379.5L1782.5 379.5L1759.5 379.5L1736.5 379.5L1713.5 379.5L1690.5 379.5L1667.5 379.5L1644.5 379.5L1621.5 379.5L1598.5 379.5L1575.5 402.5L1552.5 402.5L1529.5 402.5L1506.5 402.5L1483.5 402.5L1460.5 402.5L1437.5 402.5L1414.5 402.5L1391.5 402.5L1368.5 402.5L1345.5 402.5L1322.5 402.5L1299.5 402.5L1276.5 402.5L1253.5 402.5L1230.5 402.5L1207.5 402.5L1184.5 379.5L1161.5 379.5L1138.5 379.5L1115.5 402.5L1092.5 402.5L1069.5 402.5L1046.5 379.5L1023.5 379.5L1000.5 379.5L977.5 379.5L954.5 379.5L931.5 379.5L908.5 379.5L885.5 379.5L862.5 379.5L839.5 379.5L816.5 356.5L793.5 333.5" stroke="url(#SvgjsLinearGradient3740)" stroke-width="3.83"></path><path d="M787.75 333.5 a5.75 5.75 0 1 0 11.5 0 a5.75 5.75 0 1 0 -11.5 0zM879.75 402.5 a5.75 5.75 0 1 0 11.5 0 a5.75 5.75 0 1 0 -11.5 0zM764.75 402.5 a5.75 5.75 0 1 0 11.5 0 a5.75 5.75 0 1 0 -11.5 0zM948.75 356.5 a5.75 5.75 0 1 0 11.5 0 a5.75 5.75 0 1 0 -11.5 0zM718.75 356.5 a5.75 5.75 0 1 0 11.5 0 a5.75 5.75 0 1 0 -11.5 0zM718.75 379.5 a5.75 5.75 0 1 0 11.5 0 a5.75 5.75 0 1 0 -11.5 0zM1891.75 402.5 a5.75 5.75 0 1 0 11.5 0 a5.75 5.75 0 1 0 -11.5 0zM1362.75 379.5 a5.75 5.75 0 1 0 11.5 0 a5.75 5.75 0 1 0 -11.5 0zM1017.75 425.5 a5.75 5.75 0 1 0 11.5 0 a5.75 5.75 0 1 0 -11.5 0zM1293.75 379.5 a5.75 5.75 0 1 0 11.5 0 a5.75 5.75 0 1 0 -11.5 0zM1523.75 379.5 a5.75 5.75 0 1 0 11.5 0 a5.75 5.75 0 1 0 -11.5 0zM994.75 356.5 a5.75 5.75 0 1 0 11.5 0 a5.75 5.75 0 1 0 -11.5 0zM994.75 425.5 a5.75 5.75 0 1 0 11.5 0 a5.75 5.75 0 1 0 -11.5 0z" fill="url(#SvgjsLinearGradient3740)"></path><path d="M885.5 770.5L862.5 770.5M1368.5 747.5L1345.5 770.5L1322.5 770.5M1644.5 747.5L1621.5 724.5M1184.5 770.5L1161.5 793.5L1138.5 793.5L1115.5 793.5L1092.5 793.5M1506.5 747.5L1483.5 770.5L1460.5 770.5L1437.5 770.5M793.5 770.5L770.5 747.5L747.5 747.5L724.5 747.5M1805.5 724.5L1782.5 701.5L1759.5 701.5M839.5 747.5L816.5 770.5L793.5 793.5L770.5 793.5L747.5 793.5L724.5 793.5M1000.5 770.5L977.5 747.5L954.5 747.5L931.5 747.5L908.5 747.5L885.5 747.5M1299.5 747.5L1276.5 770.5L1253.5 770.5L1230.5 770.5L1207.5 770.5L1184.5 793.5M1138.5 770.5L1115.5 747.5M1414.5 747.5L1391.5 770.5L1368.5 770.5M816.5 747.5L793.5 747.5L770.5 724.5L747.5 724.5L724.5 724.5M1943.5 678.5L1920.5 678.5L1897.5 678.5L1874.5 701.5L1851.5 724.5L1828.5 724.5L1805.5 724.5L1782.5 724.5L1759.5 724.5L1736.5 724.5L1713.5 724.5L1690.5 724.5L1667.5 724.5L1644.5 747.5L1621.5 747.5L1598.5 747.5L1575.5 747.5L1552.5 747.5L1529.5 747.5L1506.5 747.5L1483.5 747.5L1460.5 747.5L1437.5 747.5L1414.5 747.5L1391.5 747.5L1368.5 747.5L1345.5 747.5L1322.5 747.5L1299.5 747.5L1276.5 747.5L1253.5 747.5L1230.5 747.5L1207.5 747.5L1184.5 770.5L1161.5 770.5L1138.5 770.5L1115.5 770.5L1092.5 770.5L1069.5 770.5L1046.5 770.5L1023.5 770.5L1000.5 770.5L977.5 770.5L954.5 770.5L931.5 770.5L908.5 770.5L885.5 770.5L862.5 747.5L839.5 747.5L816.5 747.5L793.5 770.5L770.5 770.5L747.5 770.5" stroke="url(#SvgjsLinearGradient3740)" stroke-width="3.83"></path><path d="M741.75 770.5 a5.75 5.75 0 1 0 11.5 0 a5.75 5.75 0 1 0 -11.5 0zM856.75 770.5 a5.75 5.75 0 1 0 11.5 0 a5.75 5.75 0 1 0 -11.5 0zM1316.75 770.5 a5.75 5.75 0 1 0 11.5 0 a5.75 5.75 0 1 0 -11.5 0zM1615.75 724.5 a5.75 5.75 0 1 0 11.5 0 a5.75 5.75 0 1 0 -11.5 0zM1086.75 793.5 a5.75 5.75 0 1 0 11.5 0 a5.75 5.75 0 1 0 -11.5 0zM1431.75 770.5 a5.75 5.75 0 1 0 11.5 0 a5.75 5.75 0 1 0 -11.5 0zM718.75 747.5 a5.75 5.75 0 1 0 11.5 0 a5.75 5.75 0 1 0 -11.5 0zM1753.75 701.5 a5.75 5.75 0 1 0 11.5 0 a5.75 5.75 0 1 0 -11.5 0zM718.75 793.5 a5.75 5.75 0 1 0 11.5 0 a5.75 5.75 0 1 0 -11.5 0zM879.75 747.5 a5.75 5.75 0 1 0 11.5 0 a5.75 5.75 0 1 0 -11.5 0zM1178.75 793.5 a5.75 5.75 0 1 0 11.5 0 a5.75 5.75 0 1 0 -11.5 0zM1109.75 747.5 a5.75 5.75 0 1 0 11.5 0 a5.75 5.75 0 1 0 -11.5 0zM1362.75 770.5 a5.75 5.75 0 1 0 11.5 0 a5.75 5.75 0 1 0 -11.5 0zM718.75 724.5 a5.75 5.75 0 1 0 11.5 0 a5.75 5.75 0 1 0 -11.5 0z" fill="url(#SvgjsLinearGradient3740)"></path><path d="M1437.5 356.5L1414.5 379.5M1483.5 356.5L1460.5 379.5L1437.5 379.5M1506.5 356.5L1483.5 379.5M1943.5 379.5L1920.5 379.5L1897.5 356.5L1874.5 356.5L1851.5 356.5L1828.5 356.5L1805.5 356.5L1782.5 356.5L1759.5 356.5L1736.5 356.5L1713.5 356.5L1690.5 356.5L1667.5 356.5L1644.5 356.5L1621.5 356.5L1598.5 356.5L1575.5 356.5L1552.5 356.5L1529.5 356.5L1506.5 356.5L1483.5 356.5L1460.5 356.5L1437.5 356.5L1414.5 356.5L1391.5 356.5L1368.5 356.5L1345.5 356.5L1322.5 356.5" stroke="url(#SvgjsLinearGradient3740)" stroke-width="3.83"></path><path d="M1316.75 356.5 a5.75 5.75 0 1 0 11.5 0 a5.75 5.75 0 1 0 -11.5 0zM1408.75 379.5 a5.75 5.75 0 1 0 11.5 0 a5.75 5.75 0 1 0 -11.5 0zM1431.75 379.5 a5.75 5.75 0 1 0 11.5 0 a5.75 5.75 0 1 0 -11.5 0zM1477.75 379.5 a5.75 5.75 0 1 0 11.5 0 a5.75 5.75 0 1 0 -11.5 0z" fill="url(#SvgjsLinearGradient3740)"></path><path d="M1529.5 770.5L1506.5 770.5M1943.5 701.5L1920.5 701.5L1897.5 701.5L1874.5 724.5L1851.5 747.5L1828.5 747.5L1805.5 747.5L1782.5 747.5L1759.5 747.5L1736.5 747.5L1713.5 747.5L1690.5 747.5L1667.5 747.5L1644.5 770.5L1621.5 770.5L1598.5 770.5L1575.5 770.5L1552.5 770.5L1529.5 770.5L1506.5 793.5L1483.5 793.5L1460.5 793.5L1437.5 793.5L1414.5 793.5" stroke="url(#SvgjsLinearGradient3740)" stroke-width="3.83"></path><path d="M1408.75 793.5 a5.75 5.75 0 1 0 11.5 0 a5.75 5.75 0 1 0 -11.5 0zM1500.75 770.5 a5.75 5.75 0 1 0 11.5 0 a5.75 5.75 0 1 0 -11.5 0z" fill="url(#SvgjsLinearGradient3740)"></path><path d="M1207.5 333.5L1184.5 356.5M1184.5 333.5L1161.5 310.5L1138.5 310.5M1713.5 333.5L1690.5 310.5L1667.5 310.5M1299.5 333.5L1276.5 310.5L1253.5 287.5L1230.5 287.5M1483.5 333.5L1460.5 310.5M1552.5 333.5L1529.5 310.5M1437.5 333.5L1414.5 310.5L1391.5 287.5L1368.5 287.5M1644.5 333.5L1621.5 310.5M1506.5 333.5L1483.5 310.5L1460.5 287.5L1437.5 287.5L1414.5 287.5L1391.5 264.5L1368.5 264.5L1345.5 264.5L1322.5 264.5L1299.5 264.5L1276.5 264.5L1253.5 264.5L1230.5 264.5M1943.5 356.5L1920.5 356.5L1897.5 333.5L1874.5 333.5L1851.5 333.5L1828.5 333.5L1805.5 333.5L1782.5 333.5L1759.5 333.5L1736.5 333.5L1713.5 333.5L1690.5 333.5L1667.5 333.5L1644.5 333.5L1621.5 333.5L1598.5 333.5L1575.5 333.5L1552.5 333.5L1529.5 333.5L1506.5 333.5L1483.5 333.5L1460.5 333.5L1437.5 333.5L1414.5 333.5L1391.5 333.5L1368.5 333.5L1345.5 333.5L1322.5 333.5L1299.5 333.5L1276.5 333.5L1253.5 333.5L1230.5 333.5L1207.5 333.5L1184.5 333.5L1161.5 333.5L1138.5 333.5L1115.5 333.5L1092.5 333.5" stroke="url(#SvgjsLinearGradient3740)" stroke-width="3.83"></path><path d="M1086.75 333.5 a5.75 5.75 0 1 0 11.5 0 a5.75 5.75 0 1 0 -11.5 0zM1178.75 356.5 a5.75 5.75 0 1 0 11.5 0 a5.75 5.75 0 1 0 -11.5 0zM1132.75 310.5 a5.75 5.75 0 1 0 11.5 0 a5.75 5.75 0 1 0 -11.5 0zM1661.75 310.5 a5.75 5.75 0 1 0 11.5 0 a5.75 5.75 0 1 0 -11.5 0zM1224.75 287.5 a5.75 5.75 0 1 0 11.5 0 a5.75 5.75 0 1 0 -11.5 0zM1454.75 310.5 a5.75 5.75 0 1 0 11.5 0 a5.75 5.75 0 1 0 -11.5 0zM1523.75 310.5 a5.75 5.75 0 1 0 11.5 0 a5.75 5.75 0 1 0 -11.5 0zM1362.75 287.5 a5.75 5.75 0 1 0 11.5 0 a5.75 5.75 0 1 0 -11.5 0zM1615.75 310.5 a5.75 5.75 0 1 0 11.5 0 a5.75 5.75 0 1 0 -11.5 0zM1224.75 264.5 a5.75 5.75 0 1 0 11.5 0 a5.75 5.75 0 1 0 -11.5 0z" fill="url(#SvgjsLinearGradient3740)"></path><path d="M1782.5 770.5L1759.5 793.5L1736.5 793.5L1713.5 793.5L1690.5 793.5L1667.5 793.5M1000.5 816.5L977.5 816.5M1575.5 793.5L1552.5 816.5L1529.5 816.5L1506.5 839.5L1483.5 839.5M1437.5 816.5L1414.5 839.5L1391.5 839.5L1368.5 839.5L1345.5 839.5L1322.5 839.5L1299.5 839.5L1276.5 839.5L1253.5 839.5M1460.5 816.5L1437.5 839.5L1414.5 862.5L1391.5 862.5L1368.5 862.5M1207.5 816.5L1184.5 839.5L1161.5 839.5L1138.5 862.5L1115.5 885.5L1092.5 885.5L1069.5 885.5L1046.5 885.5L1023.5 885.5L1000.5 885.5L977.5 885.5M1092.5 816.5L1069.5 839.5L1046.5 839.5L1023.5 839.5L1000.5 839.5L977.5 862.5L954.5 862.5M1046.5 816.5L1023.5 793.5L1000.5 793.5M1644.5 793.5L1621.5 816.5L1598.5 816.5L1575.5 816.5L1552.5 839.5M1253.5 816.5L1230.5 793.5L1207.5 793.5M1230.5 816.5L1207.5 839.5L1184.5 862.5L1161.5 862.5M1943.5 724.5L1920.5 724.5L1897.5 724.5L1874.5 747.5L1851.5 770.5L1828.5 770.5L1805.5 770.5L1782.5 770.5L1759.5 770.5L1736.5 770.5L1713.5 770.5L1690.5 770.5L1667.5 770.5L1644.5 793.5L1621.5 793.5L1598.5 793.5L1575.5 793.5L1552.5 793.5L1529.5 793.5L1506.5 816.5L1483.5 816.5L1460.5 816.5L1437.5 816.5L1414.5 816.5L1391.5 816.5L1368.5 793.5L1345.5 793.5L1322.5 793.5L1299.5 793.5L1276.5 793.5L1253.5 816.5L1230.5 816.5L1207.5 816.5L1184.5 816.5L1161.5 816.5L1138.5 816.5L1115.5 816.5L1092.5 816.5L1069.5 816.5L1046.5 816.5L1023.5 816.5L1000.5 816.5L977.5 793.5L954.5 793.5" stroke="url(#SvgjsLinearGradient3740)" stroke-width="3.83"></path><path d="M948.75 793.5 a5.75 5.75 0 1 0 11.5 0 a5.75 5.75 0 1 0 -11.5 0zM1661.75 793.5 a5.75 5.75 0 1 0 11.5 0 a5.75 5.75 0 1 0 -11.5 0zM971.75 816.5 a5.75 5.75 0 1 0 11.5 0 a5.75 5.75 0 1 0 -11.5 0zM1477.75 839.5 a5.75 5.75 0 1 0 11.5 0 a5.75 5.75 0 1 0 -11.5 0zM1247.75 839.5 a5.75 5.75 0 1 0 11.5 0 a5.75 5.75 0 1 0 -11.5 0zM1362.75 862.5 a5.75 5.75 0 1 0 11.5 0 a5.75 5.75 0 1 0 -11.5 0zM971.75 885.5 a5.75 5.75 0 1 0 11.5 0 a5.75 5.75 0 1 0 -11.5 0zM948.75 862.5 a5.75 5.75 0 1 0 11.5 0 a5.75 5.75 0 1 0 -11.5 0zM994.75 793.5 a5.75 5.75 0 1 0 11.5 0 a5.75 5.75 0 1 0 -11.5 0zM1546.75 839.5 a5.75 5.75 0 1 0 11.5 0 a5.75 5.75 0 1 0 -11.5 0zM1201.75 793.5 a5.75 5.75 0 1 0 11.5 0 a5.75 5.75 0 1 0 -11.5 0zM1155.75 862.5 a5.75 5.75 0 1 0 11.5 0 a5.75 5.75 0 1 0 -11.5 0z" fill="url(#SvgjsLinearGradient3740)"></path><path d="M1667.5 287.5L1644.5 264.5L1621.5 264.5L1598.5 264.5L1575.5 264.5M1575.5 287.5L1552.5 310.5M1828.5 310.5L1805.5 287.5L1782.5 287.5L1759.5 287.5M1598.5 287.5L1575.5 310.5M1943.5 333.5L1920.5 333.5L1897.5 310.5L1874.5 310.5L1851.5 310.5L1828.5 310.5L1805.5 310.5L1782.5 310.5L1759.5 310.5L1736.5 287.5L1713.5 287.5L1690.5 287.5L1667.5 287.5L1644.5 287.5L1621.5 287.5L1598.5 287.5L1575.5 287.5L1552.5 287.5" stroke="url(#SvgjsLinearGradient3740)" stroke-width="3.83"></path><path d="M1546.75 287.5 a5.75 5.75 0 1 0 11.5 0 a5.75 5.75 0 1 0 -11.5 0zM1569.75 264.5 a5.75 5.75 0 1 0 11.5 0 a5.75 5.75 0 1 0 -11.5 0zM1546.75 310.5 a5.75 5.75 0 1 0 11.5 0 a5.75 5.75 0 1 0 -11.5 0zM1753.75 287.5 a5.75 5.75 0 1 0 11.5 0 a5.75 5.75 0 1 0 -11.5 0zM1569.75 310.5 a5.75 5.75 0 1 0 11.5 0 a5.75 5.75 0 1 0 -11.5 0z" fill="url(#SvgjsLinearGradient3740)"></path><path d="M1782.5 816.5L1759.5 839.5L1736.5 839.5M1851.5 793.5L1828.5 816.5M1897.5 770.5L1874.5 793.5L1851.5 816.5L1828.5 839.5M1943.5 747.5L1920.5 770.5L1897.5 770.5L1874.5 770.5L1851.5 793.5L1828.5 793.5L1805.5 793.5L1782.5 816.5L1759.5 816.5L1736.5 816.5" stroke="url(#SvgjsLinearGradient3740)" stroke-width="3.83"></path><path d="M1730.75 816.5 a5.75 5.75 0 1 0 11.5 0 a5.75 5.75 0 1 0 -11.5 0zM1730.75 839.5 a5.75 5.75 0 1 0 11.5 0 a5.75 5.75 0 1 0 -11.5 0zM1822.75 816.5 a5.75 5.75 0 1 0 11.5 0 a5.75 5.75 0 1 0 -11.5 0zM1822.75 839.5 a5.75 5.75 0 1 0 11.5 0 a5.75 5.75 0 1 0 -11.5 0z" fill="url(#SvgjsLinearGradient3740)"></path><path d="M1943.5 310.5L1920.5 310.5L1897.5 287.5" stroke="url(#SvgjsLinearGradient3740)" stroke-width="3.83"></path><path d="M1891.75 287.5 a5.75 5.75 0 1 0 11.5 0 a5.75 5.75 0 1 0 -11.5 0z" fill="url(#SvgjsLinearGradient3740)"></path><path d="M1851.5 264.5L1828.5 241.5L1805.5 241.5L1782.5 241.5M1874.5 264.5L1851.5 241.5L1828.5 218.5L1805.5 218.5L1782.5 218.5M1897.5 264.5L1874.5 241.5M1943.5 287.5L1920.5 287.5L1897.5 264.5L1874.5 264.5L1851.5 264.5L1828.5 264.5L1805.5 264.5L1782.5 264.5L1759.5 264.5L1736.5 264.5L1713.5 264.5" stroke="url(#SvgjsLinearGradient3740)" stroke-width="3.83"></path><path d="M1707.75 264.5 a5.75 5.75 0 1 0 11.5 0 a5.75 5.75 0 1 0 -11.5 0zM1776.75 241.5 a5.75 5.75 0 1 0 11.5 0 a5.75 5.75 0 1 0 -11.5 0zM1776.75 218.5 a5.75 5.75 0 1 0 11.5 0 a5.75 5.75 0 1 0 -11.5 0zM1868.75 241.5 a5.75 5.75 0 1 0 11.5 0 a5.75 5.75 0 1 0 -11.5 0z" fill="url(#SvgjsLinearGradient3740)"></path></g></g><defs><mask id="SvgjsMask3739"><rect width="1920" height="1080" fill="#ffffff"></rect></mask><linearGradient x1="672" y1="540" x2="1920" y2="540" gradientUnits="userSpaceOnUse" id="SvgjsLinearGradient3740"><stop stop-color="#3a7cc3" offset="0"></stop><stop stop-color="#dd1133" offset="1"></stop></linearGradient><mask id="SvgjsMask3741"><rect width="1920" height="1080" fill="white"></rect><path d="M1043.62 517.5 a2.88 2.88 0 1 0 5.76 0 a2.88 2.88 0 1 0 -5.76 0zM1043.62 540.5 a2.88 2.88 0 1 0 5.76 0 a2.88 2.88 0 1 0 -5.76 0zM1595.62 517.5 a2.88 2.88 0 1 0 5.76 0 a2.88 2.88 0 1 0 -5.76 0zM1365.62 517.5 a2.88 2.88 0 1 0 5.76 0 a2.88 2.88 0 1 0 -5.76 0zM1089.62 563.5 a2.88 2.88 0 1 0 5.76 0 a2.88 2.88 0 1 0 -5.76 0zM974.62 494.5 a2.88 2.88 0 1 0 5.76 0 a2.88 2.88 0 1 0 -5.76 0zM1388.62 517.5 a2.88 2.88 0 1 0 5.76 0 a2.88 2.88 0 1 0 -5.76 0zM1089.62 494.5 a2.88 2.88 0 1 0 5.76 0 a2.88 2.88 0 1 0 -5.76 0zM1664.62 471.5 a2.88 2.88 0 1 0 5.76 0 a2.88 2.88 0 1 0 -5.76 0zM1135.62 563.5 a2.88 2.88 0 1 0 5.76 0 a2.88 2.88 0 1 0 -5.76 0zM1319.62 563.5 a2.88 2.88 0 1 0 5.76 0 a2.88 2.88 0 1 0 -5.76 0z" fill="black"></path><path d="M1802.62 517.5 a2.88 2.88 0 1 0 5.76 0 a2.88 2.88 0 1 0 -5.76 0zM1756.62 471.5 a2.88 2.88 0 1 0 5.76 0 a2.88 2.88 0 1 0 -5.76 0z" fill="black"></path><path d="M859.62 609.5 a2.88 2.88 0 1 0 5.76 0 a2.88 2.88 0 1 0 -5.76 0zM859.62 586.5 a2.88 2.88 0 1 0 5.76 0 a2.88 2.88 0 1 0 -5.76 0zM721.62 632.5 a2.88 2.88 0 1 0 5.76 0 a2.88 2.88 0 1 0 -5.76 0zM721.62 655.5 a2.88 2.88 0 1 0 5.76 0 a2.88 2.88 0 1 0 -5.76 0zM928.62 586.5 a2.88 2.88 0 1 0 5.76 0 a2.88 2.88 0 1 0 -5.76 0zM1273.62 586.5 a2.88 2.88 0 1 0 5.76 0 a2.88 2.88 0 1 0 -5.76 0zM1043.62 655.5 a2.88 2.88 0 1 0 5.76 0 a2.88 2.88 0 1 0 -5.76 0zM1388.62 563.5 a2.88 2.88 0 1 0 5.76 0 a2.88 2.88 0 1 0 -5.76 0zM1089.62 632.5 a2.88 2.88 0 1 0 5.76 0 a2.88 2.88 0 1 0 -5.76 0zM1066.62 655.5 a2.88 2.88 0 1 0 5.76 0 a2.88 2.88 0 1 0 -5.76 0zM1112.62 655.5 a2.88 2.88 0 1 0 5.76 0 a2.88 2.88 0 1 0 -5.76 0zM1158.62 632.5 a2.88 2.88 0 1 0 5.76 0 a2.88 2.88 0 1 0 -5.76 0zM836.62 563.5 a2.88 2.88 0 1 0 5.76 0 a2.88 2.88 0 1 0 -5.76 0z" fill="black"></path><path d="M1181.62 448.5 a2.88 2.88 0 1 0 5.76 0 a2.88 2.88 0 1 0 -5.76 0zM1595.62 471.5 a2.88 2.88 0 1 0 5.76 0 a2.88 2.88 0 1 0 -5.76 0zM1825.62 494.5 a2.88 2.88 0 1 0 5.76 0 a2.88 2.88 0 1 0 -5.76 0zM1365.62 471.5 a2.88 2.88 0 1 0 5.76 0 a2.88 2.88 0 1 0 -5.76 0zM1618.62 471.5 a2.88 2.88 0 1 0 5.76 0 a2.88 2.88 0 1 0 -5.76 0zM1204.62 425.5 a2.88 2.88 0 1 0 5.76 0 a2.88 2.88 0 1 0 -5.76 0zM1779.62 471.5 a2.88 2.88 0 1 0 5.76 0 a2.88 2.88 0 1 0 -5.76 0zM1687.62 471.5 a2.88 2.88 0 1 0 5.76 0 a2.88 2.88 0 1 0 -5.76 0zM1802.62 471.5 a2.88 2.88 0 1 0 5.76 0 a2.88 2.88 0 1 0 -5.76 0z" fill="black"></path><path d="M1296.62 655.5 a2.88 2.88 0 1 0 5.76 0 a2.88 2.88 0 1 0 -5.76 0zM1503.62 609.5 a2.88 2.88 0 1 0 5.76 0 a2.88 2.88 0 1 0 -5.76 0zM1756.62 609.5 a2.88 2.88 0 1 0 5.76 0 a2.88 2.88 0 1 0 -5.76 0zM1342.62 655.5 a2.88 2.88 0 1 0 5.76 0 a2.88 2.88 0 1 0 -5.76 0zM1664.62 632.5 a2.88 2.88 0 1 0 5.76 0 a2.88 2.88 0 1 0 -5.76 0zM1848.62 609.5 a2.88 2.88 0 1 0 5.76 0 a2.88 2.88 0 1 0 -5.76 0zM1687.62 632.5 a2.88 2.88 0 1 0 5.76 0 a2.88 2.88 0 1 0 -5.76 0z" fill="black"></path><path d="M1894.62 471.5 a2.88 2.88 0 1 0 5.76 0 a2.88 2.88 0 1 0 -5.76 0z" fill="black"></path><path d="M974.62 701.5 a2.88 2.88 0 1 0 5.76 0 a2.88 2.88 0 1 0 -5.76 0zM1250.62 701.5 a2.88 2.88 0 1 0 5.76 0 a2.88 2.88 0 1 0 -5.76 0zM1480.62 655.5 a2.88 2.88 0 1 0 5.76 0 a2.88 2.88 0 1 0 -5.76 0zM1503.62 655.5 a2.88 2.88 0 1 0 5.76 0 a2.88 2.88 0 1 0 -5.76 0zM1526.62 678.5 a2.88 2.88 0 1 0 5.76 0 a2.88 2.88 0 1 0 -5.76 0zM1204.62 701.5 a2.88 2.88 0 1 0 5.76 0 a2.88 2.88 0 1 0 -5.76 0zM1411.62 655.5 a2.88 2.88 0 1 0 5.76 0 a2.88 2.88 0 1 0 -5.76 0zM1572.62 678.5 a2.88 2.88 0 1 0 5.76 0 a2.88 2.88 0 1 0 -5.76 0zM1273.62 701.5 a2.88 2.88 0 1 0 5.76 0 a2.88 2.88 0 1 0 -5.76 0zM905.62 655.5 a2.88 2.88 0 1 0 5.76 0 a2.88 2.88 0 1 0 -5.76 0zM1595.62 678.5 a2.88 2.88 0 1 0 5.76 0 a2.88 2.88 0 1 0 -5.76 0z" fill="black"></path><path d="M1595.62 425.5 a2.88 2.88 0 1 0 5.76 0 a2.88 2.88 0 1 0 -5.76 0zM1618.62 402.5 a2.88 2.88 0 1 0 5.76 0 a2.88 2.88 0 1 0 -5.76 0zM1756.62 402.5 a2.88 2.88 0 1 0 5.76 0 a2.88 2.88 0 1 0 -5.76 0zM1779.62 402.5 a2.88 2.88 0 1 0 5.76 0 a2.88 2.88 0 1 0 -5.76 0zM1848.62 471.5 a2.88 2.88 0 1 0 5.76 0 a2.88 2.88 0 1 0 -5.76 0z" fill="black"></path><path d="M859.62 724.5 a2.88 2.88 0 1 0 5.76 0 a2.88 2.88 0 1 0 -5.76 0zM1020.62 747.5 a2.88 2.88 0 1 0 5.76 0 a2.88 2.88 0 1 0 -5.76 0zM1342.62 724.5 a2.88 2.88 0 1 0 5.76 0 a2.88 2.88 0 1 0 -5.76 0zM1480.62 701.5 a2.88 2.88 0 1 0 5.76 0 a2.88 2.88 0 1 0 -5.76 0zM1434.62 724.5 a2.88 2.88 0 1 0 5.76 0 a2.88 2.88 0 1 0 -5.76 0zM836.62 701.5 a2.88 2.88 0 1 0 5.76 0 a2.88 2.88 0 1 0 -5.76 0zM1089.62 747.5 a2.88 2.88 0 1 0 5.76 0 a2.88 2.88 0 1 0 -5.76 0zM1503.62 701.5 a2.88 2.88 0 1 0 5.76 0 a2.88 2.88 0 1 0 -5.76 0zM1664.62 678.5 a2.88 2.88 0 1 0 5.76 0 a2.88 2.88 0 1 0 -5.76 0zM1411.62 701.5 a2.88 2.88 0 1 0 5.76 0 a2.88 2.88 0 1 0 -5.76 0zM1687.62 701.5 a2.88 2.88 0 1 0 5.76 0 a2.88 2.88 0 1 0 -5.76 0zM1549.62 724.5 a2.88 2.88 0 1 0 5.76 0 a2.88 2.88 0 1 0 -5.76 0zM1572.62 724.5 a2.88 2.88 0 1 0 5.76 0 a2.88 2.88 0 1 0 -5.76 0z" fill="black"></path><path d="M1848.62 425.5 a2.88 2.88 0 1 0 5.76 0 a2.88 2.88 0 1 0 -5.76 0zM1848.62 402.5 a2.88 2.88 0 1 0 5.76 0 a2.88 2.88 0 1 0 -5.76 0z" fill="black"></path><path d="M1848.62 701.5 a2.88 2.88 0 1 0 5.76 0 a2.88 2.88 0 1 0 -5.76 0z" fill="black"></path><path d="M790.62 333.5 a2.88 2.88 0 1 0 5.76 0 a2.88 2.88 0 1 0 -5.76 0zM882.62 402.5 a2.88 2.88 0 1 0 5.76 0 a2.88 2.88 0 1 0 -5.76 0zM767.62 402.5 a2.88 2.88 0 1 0 5.76 0 a2.88 2.88 0 1 0 -5.76 0zM951.62 356.5 a2.88 2.88 0 1 0 5.76 0 a2.88 2.88 0 1 0 -5.76 0zM721.62 356.5 a2.88 2.88 0 1 0 5.76 0 a2.88 2.88 0 1 0 -5.76 0zM721.62 379.5 a2.88 2.88 0 1 0 5.76 0 a2.88 2.88 0 1 0 -5.76 0zM1894.62 402.5 a2.88 2.88 0 1 0 5.76 0 a2.88 2.88 0 1 0 -5.76 0zM1365.62 379.5 a2.88 2.88 0 1 0 5.76 0 a2.88 2.88 0 1 0 -5.76 0zM1020.62 425.5 a2.88 2.88 0 1 0 5.76 0 a2.88 2.88 0 1 0 -5.76 0zM1296.62 379.5 a2.88 2.88 0 1 0 5.76 0 a2.88 2.88 0 1 0 -5.76 0zM1526.62 379.5 a2.88 2.88 0 1 0 5.76 0 a2.88 2.88 0 1 0 -5.76 0zM997.62 356.5 a2.88 2.88 0 1 0 5.76 0 a2.88 2.88 0 1 0 -5.76 0zM997.62 425.5 a2.88 2.88 0 1 0 5.76 0 a2.88 2.88 0 1 0 -5.76 0z" fill="black"></path><path d="M744.62 770.5 a2.88 2.88 0 1 0 5.76 0 a2.88 2.88 0 1 0 -5.76 0zM859.62 770.5 a2.88 2.88 0 1 0 5.76 0 a2.88 2.88 0 1 0 -5.76 0zM1319.62 770.5 a2.88 2.88 0 1 0 5.76 0 a2.88 2.88 0 1 0 -5.76 0zM1618.62 724.5 a2.88 2.88 0 1 0 5.76 0 a2.88 2.88 0 1 0 -5.76 0zM1089.62 793.5 a2.88 2.88 0 1 0 5.76 0 a2.88 2.88 0 1 0 -5.76 0zM1434.62 770.5 a2.88 2.88 0 1 0 5.76 0 a2.88 2.88 0 1 0 -5.76 0zM721.62 747.5 a2.88 2.88 0 1 0 5.76 0 a2.88 2.88 0 1 0 -5.76 0zM1756.62 701.5 a2.88 2.88 0 1 0 5.76 0 a2.88 2.88 0 1 0 -5.76 0zM721.62 793.5 a2.88 2.88 0 1 0 5.76 0 a2.88 2.88 0 1 0 -5.76 0zM882.62 747.5 a2.88 2.88 0 1 0 5.76 0 a2.88 2.88 0 1 0 -5.76 0zM1181.62 793.5 a2.88 2.88 0 1 0 5.76 0 a2.88 2.88 0 1 0 -5.76 0zM1112.62 747.5 a2.88 2.88 0 1 0 5.76 0 a2.88 2.88 0 1 0 -5.76 0zM1365.62 770.5 a2.88 2.88 0 1 0 5.76 0 a2.88 2.88 0 1 0 -5.76 0zM721.62 724.5 a2.88 2.88 0 1 0 5.76 0 a2.88 2.88 0 1 0 -5.76 0z" fill="black"></path><path d="M1319.62 356.5 a2.88 2.88 0 1 0 5.76 0 a2.88 2.88 0 1 0 -5.76 0zM1411.62 379.5 a2.88 2.88 0 1 0 5.76 0 a2.88 2.88 0 1 0 -5.76 0zM1434.62 379.5 a2.88 2.88 0 1 0 5.76 0 a2.88 2.88 0 1 0 -5.76 0zM1480.62 379.5 a2.88 2.88 0 1 0 5.76 0 a2.88 2.88 0 1 0 -5.76 0z" fill="black"></path><path d="M1411.62 793.5 a2.88 2.88 0 1 0 5.76 0 a2.88 2.88 0 1 0 -5.76 0zM1503.62 770.5 a2.88 2.88 0 1 0 5.76 0 a2.88 2.88 0 1 0 -5.76 0z" fill="black"></path><path d="M1089.62 333.5 a2.88 2.88 0 1 0 5.76 0 a2.88 2.88 0 1 0 -5.76 0zM1181.62 356.5 a2.88 2.88 0 1 0 5.76 0 a2.88 2.88 0 1 0 -5.76 0zM1135.62 310.5 a2.88 2.88 0 1 0 5.76 0 a2.88 2.88 0 1 0 -5.76 0zM1664.62 310.5 a2.88 2.88 0 1 0 5.76 0 a2.88 2.88 0 1 0 -5.76 0zM1227.62 287.5 a2.88 2.88 0 1 0 5.76 0 a2.88 2.88 0 1 0 -5.76 0zM1457.62 310.5 a2.88 2.88 0 1 0 5.76 0 a2.88 2.88 0 1 0 -5.76 0zM1526.62 310.5 a2.88 2.88 0 1 0 5.76 0 a2.88 2.88 0 1 0 -5.76 0zM1365.62 287.5 a2.88 2.88 0 1 0 5.76 0 a2.88 2.88 0 1 0 -5.76 0zM1618.62 310.5 a2.88 2.88 0 1 0 5.76 0 a2.88 2.88 0 1 0 -5.76 0zM1227.62 264.5 a2.88 2.88 0 1 0 5.76 0 a2.88 2.88 0 1 0 -5.76 0z" fill="black"></path><path d="M951.62 793.5 a2.88 2.88 0 1 0 5.76 0 a2.88 2.88 0 1 0 -5.76 0zM1664.62 793.5 a2.88 2.88 0 1 0 5.76 0 a2.88 2.88 0 1 0 -5.76 0zM974.62 816.5 a2.88 2.88 0 1 0 5.76 0 a2.88 2.88 0 1 0 -5.76 0zM1480.62 839.5 a2.88 2.88 0 1 0 5.76 0 a2.88 2.88 0 1 0 -5.76 0zM1250.62 839.5 a2.88 2.88 0 1 0 5.76 0 a2.88 2.88 0 1 0 -5.76 0zM1365.62 862.5 a2.88 2.88 0 1 0 5.76 0 a2.88 2.88 0 1 0 -5.76 0zM974.62 885.5 a2.88 2.88 0 1 0 5.76 0 a2.88 2.88 0 1 0 -5.76 0zM951.62 862.5 a2.88 2.88 0 1 0 5.76 0 a2.88 2.88 0 1 0 -5.76 0zM997.62 793.5 a2.88 2.88 0 1 0 5.76 0 a2.88 2.88 0 1 0 -5.76 0zM1549.62 839.5 a2.88 2.88 0 1 0 5.76 0 a2.88 2.88 0 1 0 -5.76 0zM1204.62 793.5 a2.88 2.88 0 1 0 5.76 0 a2.88 2.88 0 1 0 -5.76 0zM1158.62 862.5 a2.88 2.88 0 1 0 5.76 0 a2.88 2.88 0 1 0 -5.76 0z" fill="black"></path><path d="M1549.62 287.5 a2.88 2.88 0 1 0 5.76 0 a2.88 2.88 0 1 0 -5.76 0zM1572.62 264.5 a2.88 2.88 0 1 0 5.76 0 a2.88 2.88 0 1 0 -5.76 0zM1549.62 310.5 a2.88 2.88 0 1 0 5.76 0 a2.88 2.88 0 1 0 -5.76 0zM1756.62 287.5 a2.88 2.88 0 1 0 5.76 0 a2.88 2.88 0 1 0 -5.76 0zM1572.62 310.5 a2.88 2.88 0 1 0 5.76 0 a2.88 2.88 0 1 0 -5.76 0z" fill="black"></path><path d="M1733.62 816.5 a2.88 2.88 0 1 0 5.76 0 a2.88 2.88 0 1 0 -5.76 0zM1733.62 839.5 a2.88 2.88 0 1 0 5.76 0 a2.88 2.88 0 1 0 -5.76 0zM1825.62 816.5 a2.88 2.88 0 1 0 5.76 0 a2.88 2.88 0 1 0 -5.76 0zM1825.62 839.5 a2.88 2.88 0 1 0 5.76 0 a2.88 2.88 0 1 0 -5.76 0z" fill="black"></path><path d="M1894.62 287.5 a2.88 2.88 0 1 0 5.76 0 a2.88 2.88 0 1 0 -5.76 0z" fill="black"></path><path d="M1710.62 264.5 a2.88 2.88 0 1 0 5.76 0 a2.88 2.88 0 1 0 -5.76 0zM1779.62 241.5 a2.88 2.88 0 1 0 5.76 0 a2.88 2.88 0 1 0 -5.76 0zM1779.62 218.5 a2.88 2.88 0 1 0 5.76 0 a2.88 2.88 0 1 0 -5.76 0zM1871.62 241.5 a2.88 2.88 0 1 0 5.76 0 a2.88 2.88 0 1 0 -5.76 0z" fill="black"></path></mask></defs></svg>