<svg xmlns="http://www.w3.org/2000/svg" version="1.1" xmlns:xlink="http://www.w3.org/1999/xlink" xmlns:svgjs="http://svgjs.com/svgjs" width="1900" height="900" preserveAspectRatio="none" viewBox="0 0 1900 900"><g mask="url(&quot;#SvgjsMask2032&quot;)" fill="none"><rect width="1900" height="900" x="0" y="0" fill="rgba(23, 23, 23, 1)"></rect><g mask="url(&quot;#SvgjsMask2034&quot;)"><path d="M1463 483L1449 469L1435 455L1421 455L1407 455L1393 455L1379 455L1365 441L1351 441L1337 441L1323 441L1309 441L1295 441L1281 441L1267 441L1253 455M931 497L917 483L903 469L889 469L875 483L861 483L847 483L833 483L819 483L805 483L791 483M1421 469L1407 483L1393 483L1379 483L1365 483L1351 483L1337 483L1323 483L1309 483L1295 483M1183 483L1169 469L1155 469L1141 469L1127 469M1337 469L1323 455L1309 455L1295 455L1281 455L1267 455M1099 497L1085 483L1071 483L1057 483L1043 483L1029 483L1015 483L1001 483M987 497L973 511L959 511M1785 455L1771 455M1127 483L1113 483L1099 483L1085 469M1869 455L1855 469M1043 497L1029 511L1015 511L1001 511L987 511L973 525L959 525L945 525L931 525L917 525L903 525L889 525L875 525L861 525L847 525L833 525L819 525L805 525L791 511M1197 483L1183 469L1169 455L1155 455L1141 455L1127 455L1113 455L1099 455L1085 455L1071 455M1477 483L1463 469L1449 455L1435 441L1421 441L1407 441L1393 441L1379 441L1365 427L1351 427L1337 427L1323 427M1617 469L1603 455L1589 455L1575 455M875 497L861 511L847 511L833 511L819 511L805 511L791 497M1659 455L1645 469L1631 469L1617 483L1603 483M959 497L945 483L931 483L917 469L903 455L889 455L875 469L861 469L847 469L833 469L819 469L805 469L791 469M1519 455L1505 455L1491 455L1477 455L1463 455M1547 455L1533 441L1519 441M1911 455L1897 455L1883 455L1869 455L1855 455L1841 455L1827 455L1813 455L1799 455L1785 455L1771 469L1757 469L1743 469L1729 469L1715 469L1701 469L1687 469L1673 455L1659 455L1645 455L1631 455L1617 469L1603 469L1589 469L1575 469L1561 455L1547 455L1533 455L1519 455L1505 469L1491 469L1477 483L1463 483L1449 483L1435 483L1421 469L1407 469L1393 469L1379 469L1365 469L1351 469L1337 469L1323 469L1309 469L1295 469L1281 469L1267 469L1253 469L1239 469L1225 469L1211 483L1197 483L1183 483L1169 483L1155 483L1141 483L1127 483L1113 497L1099 497L1085 497L1071 497L1057 497L1043 497L1029 497L1015 497L1001 497L987 497L973 497L959 497L945 497L931 497L917 497L903 497L889 497L875 497L861 497L847 497L833 497" stroke="url(#SvgjsLinearGradient2033)" stroke-width="2.33"></path><path d="M829.5 497 a3.5 3.5 0 1 0 7 0 a3.5 3.5 0 1 0 -7 0zM1249.5 455 a3.5 3.5 0 1 0 7 0 a3.5 3.5 0 1 0 -7 0zM787.5 483 a3.5 3.5 0 1 0 7 0 a3.5 3.5 0 1 0 -7 0zM1291.5 483 a3.5 3.5 0 1 0 7 0 a3.5 3.5 0 1 0 -7 0zM1123.5 469 a3.5 3.5 0 1 0 7 0 a3.5 3.5 0 1 0 -7 0zM1263.5 455 a3.5 3.5 0 1 0 7 0 a3.5 3.5 0 1 0 -7 0zM997.5 483 a3.5 3.5 0 1 0 7 0 a3.5 3.5 0 1 0 -7 0zM955.5 511 a3.5 3.5 0 1 0 7 0 a3.5 3.5 0 1 0 -7 0zM1767.5 455 a3.5 3.5 0 1 0 7 0 a3.5 3.5 0 1 0 -7 0zM1081.5 469 a3.5 3.5 0 1 0 7 0 a3.5 3.5 0 1 0 -7 0zM1851.5 469 a3.5 3.5 0 1 0 7 0 a3.5 3.5 0 1 0 -7 0zM787.5 511 a3.5 3.5 0 1 0 7 0 a3.5 3.5 0 1 0 -7 0zM1067.5 455 a3.5 3.5 0 1 0 7 0 a3.5 3.5 0 1 0 -7 0zM1319.5 427 a3.5 3.5 0 1 0 7 0 a3.5 3.5 0 1 0 -7 0zM1571.5 455 a3.5 3.5 0 1 0 7 0 a3.5 3.5 0 1 0 -7 0zM787.5 497 a3.5 3.5 0 1 0 7 0 a3.5 3.5 0 1 0 -7 0zM1599.5 483 a3.5 3.5 0 1 0 7 0 a3.5 3.5 0 1 0 -7 0zM787.5 469 a3.5 3.5 0 1 0 7 0 a3.5 3.5 0 1 0 -7 0zM1459.5 455 a3.5 3.5 0 1 0 7 0 a3.5 3.5 0 1 0 -7 0zM1515.5 441 a3.5 3.5 0 1 0 7 0 a3.5 3.5 0 1 0 -7 0z" fill="url(#SvgjsLinearGradient2033)"></path><path d="M1477 427L1463 441L1449 441M1309 413L1295 427L1281 427L1267 427L1253 427L1239 427L1225 427L1211 441L1197 441L1183 441L1169 441L1155 441L1141 441L1127 427L1113 427L1099 441L1085 441L1071 441L1057 455L1043 455L1029 455M1155 413L1141 399L1127 399L1113 399M1197 413L1183 399L1169 385L1155 385L1141 385L1127 385M1239 413L1225 399L1211 399L1197 399L1183 385L1169 371L1155 371L1141 371L1127 371L1113 371L1099 371L1085 371L1071 371L1057 371L1043 371M1099 413L1085 427L1071 427L1057 427L1043 441L1029 441L1015 441L1001 441L987 441L973 441M1043 413L1029 399L1015 399L1001 399L987 399L973 399L959 385L945 385M1015 413L1001 427L987 427L973 427L959 427L945 427M1183 413L1169 427L1155 427L1141 427M1743 455L1729 441L1715 441L1701 441L1687 427L1673 427L1659 427L1645 427L1631 427L1617 427L1603 427L1589 427L1575 413L1561 413L1547 413L1533 413L1519 413M1169 413L1155 399M1421 427L1407 413L1393 399L1379 399L1365 399M1575 441L1561 441M931 399L917 413L903 413L889 413L875 413L861 413M1295 413L1281 399L1267 399L1253 399L1239 385L1225 385L1211 385L1197 385L1183 371L1169 357L1155 357L1141 357L1127 357L1113 357L1099 357M973 413L959 413L945 413L931 413L917 427L903 427L889 427L875 427L861 427L847 427L833 427L819 427L805 427L791 427M1323 413L1309 399L1295 399L1281 385L1267 385L1253 385L1239 371L1225 371L1211 371L1197 371L1183 357L1169 343L1155 343L1141 343L1127 343L1113 343L1099 343M1211 413L1197 427L1183 427M1911 441L1897 441L1883 441L1869 441L1855 441L1841 441L1827 441L1813 441L1799 441L1785 441L1771 441L1757 455L1743 455L1729 455L1715 455L1701 455L1687 455L1673 441L1659 441L1645 441L1631 441L1617 441L1603 441L1589 441L1575 441L1561 427L1547 427L1533 427L1519 427L1505 441L1491 441L1477 427L1463 427L1449 427L1435 427L1421 427L1407 427L1393 413L1379 413L1365 413L1351 413L1337 413L1323 413L1309 413L1295 413L1281 413L1267 413L1253 413L1239 413L1225 413L1211 413L1197 413L1183 413L1169 413L1155 413L1141 413L1127 413L1113 413L1099 413L1085 413L1071 413L1057 413L1043 413L1029 413L1015 413L1001 413L987 413L973 413L959 399L945 399L931 399L917 399" stroke="url(#SvgjsLinearGradient2033)" stroke-width="2.33"></path><path d="M913.5 399 a3.5 3.5 0 1 0 7 0 a3.5 3.5 0 1 0 -7 0zM1445.5 441 a3.5 3.5 0 1 0 7 0 a3.5 3.5 0 1 0 -7 0zM1025.5 455 a3.5 3.5 0 1 0 7 0 a3.5 3.5 0 1 0 -7 0zM1109.5 399 a3.5 3.5 0 1 0 7 0 a3.5 3.5 0 1 0 -7 0zM1123.5 385 a3.5 3.5 0 1 0 7 0 a3.5 3.5 0 1 0 -7 0zM1039.5 371 a3.5 3.5 0 1 0 7 0 a3.5 3.5 0 1 0 -7 0zM969.5 441 a3.5 3.5 0 1 0 7 0 a3.5 3.5 0 1 0 -7 0zM941.5 385 a3.5 3.5 0 1 0 7 0 a3.5 3.5 0 1 0 -7 0zM941.5 427 a3.5 3.5 0 1 0 7 0 a3.5 3.5 0 1 0 -7 0zM1137.5 427 a3.5 3.5 0 1 0 7 0 a3.5 3.5 0 1 0 -7 0zM1515.5 413 a3.5 3.5 0 1 0 7 0 a3.5 3.5 0 1 0 -7 0zM1151.5 399 a3.5 3.5 0 1 0 7 0 a3.5 3.5 0 1 0 -7 0zM1361.5 399 a3.5 3.5 0 1 0 7 0 a3.5 3.5 0 1 0 -7 0zM1557.5 441 a3.5 3.5 0 1 0 7 0 a3.5 3.5 0 1 0 -7 0zM857.5 413 a3.5 3.5 0 1 0 7 0 a3.5 3.5 0 1 0 -7 0zM1095.5 357 a3.5 3.5 0 1 0 7 0 a3.5 3.5 0 1 0 -7 0zM787.5 427 a3.5 3.5 0 1 0 7 0 a3.5 3.5 0 1 0 -7 0zM1095.5 343 a3.5 3.5 0 1 0 7 0 a3.5 3.5 0 1 0 -7 0zM1179.5 427 a3.5 3.5 0 1 0 7 0 a3.5 3.5 0 1 0 -7 0z" fill="url(#SvgjsLinearGradient2033)"></path><path d="M1267 497L1253 483L1239 483M1687 497L1673 483L1659 483L1645 483L1631 483M1519 497L1505 483L1491 483M1715 497L1701 483L1687 483M1729 483L1715 483M1155 497L1141 511L1127 511L1113 525L1099 525L1085 525L1071 525L1057 539L1043 539L1029 539L1015 539M1799 469L1785 483M1827 469L1813 483L1799 483M1169 497L1155 511L1141 525L1127 525L1113 539L1099 553L1085 553L1071 553L1057 553L1043 553L1029 553M1897 469L1883 469M1533 497L1519 483M1225 497L1211 511L1197 511L1183 511L1169 511L1155 525M1575 497L1561 483L1547 483L1533 483L1519 469M1589 497L1575 483M1841 469L1827 483M1911 469L1897 469L1883 483L1869 483L1855 483L1841 469L1827 469L1813 469L1799 469L1785 469L1771 483L1757 483L1743 483L1729 483L1715 497L1701 497L1687 497L1673 497L1659 497L1645 497L1631 497L1617 497L1603 497L1589 497L1575 497L1561 497L1547 497L1533 497L1519 497L1505 497L1491 497L1477 497L1463 497L1449 497L1435 497L1421 497L1407 497L1393 497L1379 497L1365 497L1351 497L1337 497L1323 497L1309 497L1295 497L1281 497L1267 497L1253 497L1239 497L1225 497L1211 497L1197 497L1183 497L1169 497L1155 497L1141 497L1127 497L1113 511L1099 511L1085 511L1071 511L1057 511" stroke="url(#SvgjsLinearGradient2033)" stroke-width="2.33"></path><path d="M1053.5 511 a3.5 3.5 0 1 0 7 0 a3.5 3.5 0 1 0 -7 0zM1235.5 483 a3.5 3.5 0 1 0 7 0 a3.5 3.5 0 1 0 -7 0zM1627.5 483 a3.5 3.5 0 1 0 7 0 a3.5 3.5 0 1 0 -7 0zM1487.5 483 a3.5 3.5 0 1 0 7 0 a3.5 3.5 0 1 0 -7 0zM1683.5 483 a3.5 3.5 0 1 0 7 0 a3.5 3.5 0 1 0 -7 0zM1711.5 483 a3.5 3.5 0 1 0 7 0 a3.5 3.5 0 1 0 -7 0zM1011.5 539 a3.5 3.5 0 1 0 7 0 a3.5 3.5 0 1 0 -7 0zM1781.5 483 a3.5 3.5 0 1 0 7 0 a3.5 3.5 0 1 0 -7 0zM1795.5 483 a3.5 3.5 0 1 0 7 0 a3.5 3.5 0 1 0 -7 0zM1025.5 553 a3.5 3.5 0 1 0 7 0 a3.5 3.5 0 1 0 -7 0zM1879.5 469 a3.5 3.5 0 1 0 7 0 a3.5 3.5 0 1 0 -7 0zM1515.5 483 a3.5 3.5 0 1 0 7 0 a3.5 3.5 0 1 0 -7 0zM1151.5 525 a3.5 3.5 0 1 0 7 0 a3.5 3.5 0 1 0 -7 0zM1515.5 469 a3.5 3.5 0 1 0 7 0 a3.5 3.5 0 1 0 -7 0zM1571.5 483 a3.5 3.5 0 1 0 7 0 a3.5 3.5 0 1 0 -7 0zM1823.5 483 a3.5 3.5 0 1 0 7 0 a3.5 3.5 0 1 0 -7 0z" fill="url(#SvgjsLinearGradient2033)"></path><path d="M1827 427L1813 413M1729 413L1715 399L1701 399L1687 399L1673 399L1659 399L1645 399L1631 399M1841 427L1827 413M1785 413L1771 427M1757 413L1743 427L1729 427M1911 427L1897 427L1883 427L1869 427L1855 427L1841 427L1827 427L1813 427L1799 413L1785 413L1771 413L1757 413L1743 413L1729 413L1715 413L1701 413L1687 413L1673 413L1659 413L1645 413L1631 413L1617 413" stroke="url(#SvgjsLinearGradient2033)" stroke-width="2.33"></path><path d="M1613.5 413 a3.5 3.5 0 1 0 7 0 a3.5 3.5 0 1 0 -7 0zM1809.5 413 a3.5 3.5 0 1 0 7 0 a3.5 3.5 0 1 0 -7 0zM1627.5 399 a3.5 3.5 0 1 0 7 0 a3.5 3.5 0 1 0 -7 0zM1823.5 413 a3.5 3.5 0 1 0 7 0 a3.5 3.5 0 1 0 -7 0zM1767.5 427 a3.5 3.5 0 1 0 7 0 a3.5 3.5 0 1 0 -7 0zM1725.5 427 a3.5 3.5 0 1 0 7 0 a3.5 3.5 0 1 0 -7 0z" fill="url(#SvgjsLinearGradient2033)"></path><path d="M1449 511L1435 525L1421 525L1407 525L1393 525L1379 525L1365 525L1351 525L1337 525L1323 525L1309 525L1295 525L1281 525L1267 525L1253 525M1491 511L1477 525L1463 525L1449 525L1435 539L1421 539L1407 539M1505 511L1491 525L1477 539M1771 497L1757 511L1743 511L1729 511L1715 525L1701 525L1687 525M1561 511L1547 525L1533 525L1519 525M1225 525L1211 539L1197 539M1575 511L1561 525L1547 539L1533 539L1519 539M1183 525L1169 525M1799 497L1785 511L1771 511M1239 511L1225 511M1827 497L1813 511L1799 511M1169 539L1155 553L1141 553L1127 553L1113 553M1841 497L1827 511M1911 483L1897 483L1883 497L1869 497L1855 497L1841 497L1827 497L1813 497L1799 497L1785 497L1771 497L1757 497L1743 497L1729 497L1715 511L1701 511L1687 511L1673 511L1659 511L1645 511L1631 511L1617 511L1603 511L1589 511L1575 511L1561 511L1547 511L1533 511L1519 511L1505 511L1491 511L1477 511L1463 511L1449 511L1435 511L1421 511L1407 511L1393 511L1379 511L1365 511L1351 511L1337 511L1323 511L1309 511L1295 511L1281 511L1267 511L1253 511L1239 511L1225 525L1211 525L1197 525L1183 525L1169 539L1155 539L1141 539" stroke="url(#SvgjsLinearGradient2033)" stroke-width="2.33"></path><path d="M1137.5 539 a3.5 3.5 0 1 0 7 0 a3.5 3.5 0 1 0 -7 0zM1249.5 525 a3.5 3.5 0 1 0 7 0 a3.5 3.5 0 1 0 -7 0zM1403.5 539 a3.5 3.5 0 1 0 7 0 a3.5 3.5 0 1 0 -7 0zM1473.5 539 a3.5 3.5 0 1 0 7 0 a3.5 3.5 0 1 0 -7 0zM1683.5 525 a3.5 3.5 0 1 0 7 0 a3.5 3.5 0 1 0 -7 0zM1515.5 525 a3.5 3.5 0 1 0 7 0 a3.5 3.5 0 1 0 -7 0zM1193.5 539 a3.5 3.5 0 1 0 7 0 a3.5 3.5 0 1 0 -7 0zM1515.5 539 a3.5 3.5 0 1 0 7 0 a3.5 3.5 0 1 0 -7 0zM1165.5 525 a3.5 3.5 0 1 0 7 0 a3.5 3.5 0 1 0 -7 0zM1767.5 511 a3.5 3.5 0 1 0 7 0 a3.5 3.5 0 1 0 -7 0zM1221.5 511 a3.5 3.5 0 1 0 7 0 a3.5 3.5 0 1 0 -7 0zM1795.5 511 a3.5 3.5 0 1 0 7 0 a3.5 3.5 0 1 0 -7 0zM1109.5 553 a3.5 3.5 0 1 0 7 0 a3.5 3.5 0 1 0 -7 0zM1823.5 511 a3.5 3.5 0 1 0 7 0 a3.5 3.5 0 1 0 -7 0z" fill="url(#SvgjsLinearGradient2033)"></path><path d="M1911 413L1897 413L1883 413" stroke="url(#SvgjsLinearGradient2033)" stroke-width="2.33"></path><path d="M1879.5 413 a3.5 3.5 0 1 0 7 0 a3.5 3.5 0 1 0 -7 0z" fill="url(#SvgjsLinearGradient2033)"></path><path d="M1785 525L1771 539L1757 539M1827 525L1813 539L1799 539L1785 539M1855 511L1841 511M1911 497L1897 497L1883 511L1869 511L1855 511L1841 525L1827 525L1813 525L1799 525L1785 525L1771 525L1757 525" stroke="url(#SvgjsLinearGradient2033)" stroke-width="2.33"></path><path d="M1753.5 525 a3.5 3.5 0 1 0 7 0 a3.5 3.5 0 1 0 -7 0zM1753.5 539 a3.5 3.5 0 1 0 7 0 a3.5 3.5 0 1 0 -7 0zM1781.5 539 a3.5 3.5 0 1 0 7 0 a3.5 3.5 0 1 0 -7 0zM1837.5 511 a3.5 3.5 0 1 0 7 0 a3.5 3.5 0 1 0 -7 0z" fill="url(#SvgjsLinearGradient2033)"></path><path d="M1869 399L1855 413L1841 413M1911 399L1897 399L1883 399L1869 399L1855 399L1841 399L1827 399L1813 399L1799 399" stroke="url(#SvgjsLinearGradient2033)" stroke-width="2.33"></path><path d="M1795.5 399 a3.5 3.5 0 1 0 7 0 a3.5 3.5 0 1 0 -7 0zM1837.5 413 a3.5 3.5 0 1 0 7 0 a3.5 3.5 0 1 0 -7 0z" fill="url(#SvgjsLinearGradient2033)"></path><path d="M1617 525L1603 539L1589 539L1575 539L1561 539M1687 539L1673 539L1659 539M1701 539L1687 553L1673 553M1729 539L1715 553L1701 553M1631 525L1617 539L1603 553L1589 553M1743 539L1729 525M1911 511L1897 511L1883 525L1869 525L1855 525L1841 539L1827 553L1813 553L1799 553L1785 553L1771 553L1757 553L1743 539L1729 539L1715 539L1701 539L1687 539L1673 525L1659 525L1645 525L1631 525L1617 525L1603 525L1589 525" stroke="url(#SvgjsLinearGradient2033)" stroke-width="2.33"></path><path d="M1585.5 525 a3.5 3.5 0 1 0 7 0 a3.5 3.5 0 1 0 -7 0zM1557.5 539 a3.5 3.5 0 1 0 7 0 a3.5 3.5 0 1 0 -7 0zM1655.5 539 a3.5 3.5 0 1 0 7 0 a3.5 3.5 0 1 0 -7 0zM1669.5 553 a3.5 3.5 0 1 0 7 0 a3.5 3.5 0 1 0 -7 0zM1697.5 553 a3.5 3.5 0 1 0 7 0 a3.5 3.5 0 1 0 -7 0zM1585.5 553 a3.5 3.5 0 1 0 7 0 a3.5 3.5 0 1 0 -7 0zM1725.5 525 a3.5 3.5 0 1 0 7 0 a3.5 3.5 0 1 0 -7 0z" fill="url(#SvgjsLinearGradient2033)"></path><path d="M1505 385L1491 399L1477 399M1435 385L1421 371M1771 385L1757 399L1743 399L1729 399M1589 385L1575 399L1561 399L1547 399L1533 399L1519 399L1505 399L1491 413L1477 413L1463 413M1575 385L1561 371L1547 371L1533 371L1519 371M1491 385L1477 371L1463 371L1449 371M1463 385L1449 399L1435 399M1785 385L1771 399M1617 385L1603 371L1589 371L1575 371M1911 385L1897 385L1883 385L1869 385L1855 385L1841 385L1827 385L1813 385L1799 385L1785 385L1771 385L1757 385L1743 385L1729 385L1715 385L1701 385L1687 385L1673 385L1659 385L1645 385L1631 385L1617 385L1603 385L1589 385L1575 385L1561 385L1547 385L1533 385L1519 385L1505 385L1491 385L1477 385L1463 385L1449 385L1435 385L1421 385" stroke="url(#SvgjsLinearGradient2033)" stroke-width="2.33"></path><path d="M1417.5 385 a3.5 3.5 0 1 0 7 0 a3.5 3.5 0 1 0 -7 0zM1473.5 399 a3.5 3.5 0 1 0 7 0 a3.5 3.5 0 1 0 -7 0zM1417.5 371 a3.5 3.5 0 1 0 7 0 a3.5 3.5 0 1 0 -7 0zM1725.5 399 a3.5 3.5 0 1 0 7 0 a3.5 3.5 0 1 0 -7 0zM1459.5 413 a3.5 3.5 0 1 0 7 0 a3.5 3.5 0 1 0 -7 0zM1515.5 371 a3.5 3.5 0 1 0 7 0 a3.5 3.5 0 1 0 -7 0zM1445.5 371 a3.5 3.5 0 1 0 7 0 a3.5 3.5 0 1 0 -7 0zM1431.5 399 a3.5 3.5 0 1 0 7 0 a3.5 3.5 0 1 0 -7 0zM1767.5 399 a3.5 3.5 0 1 0 7 0 a3.5 3.5 0 1 0 -7 0zM1571.5 371 a3.5 3.5 0 1 0 7 0 a3.5 3.5 0 1 0 -7 0z" fill="url(#SvgjsLinearGradient2033)"></path><path d="M1407 581L1393 595L1379 595L1365 595L1351 609L1337 609L1323 609L1309 609L1295 609L1281 609L1267 609M1421 581L1407 567L1393 567L1379 567L1365 553L1351 553L1337 553L1323 553L1309 553L1295 553M1701 567L1687 581L1673 581L1659 595L1645 609L1631 609L1617 609L1603 609M1547 581L1533 567L1519 567L1505 567L1491 567L1477 567L1463 567L1449 567L1435 567L1421 567L1407 553L1393 553L1379 553L1365 539L1351 539L1337 539M1337 567L1323 581L1309 581L1295 581L1281 595L1267 595L1253 595L1239 595L1225 595L1211 595L1197 595L1183 595L1169 595M1351 567L1337 581L1323 595L1309 595L1295 595M1617 581L1603 595M1365 581L1351 581L1337 595M1211 581L1197 567L1183 567L1169 567L1155 567L1141 567L1127 567L1113 567L1099 567L1085 567M1253 581L1239 567L1225 567L1211 567L1197 553L1183 553M1729 581L1715 567M1099 581L1085 595L1071 595L1057 595L1043 595M1113 581L1099 595L1085 609L1071 623L1057 623L1043 623M1463 581L1449 595L1435 595L1421 595L1407 595L1393 609L1379 609L1365 609L1351 623L1337 623L1323 623L1309 623L1295 623L1281 623L1267 623L1253 623L1239 623L1225 623L1211 623L1197 623L1183 623L1169 623L1155 637M1575 581L1561 595L1547 595L1533 595L1519 595L1505 595L1491 595L1477 595L1463 595L1449 609L1435 609L1421 609L1407 609M1911 525L1897 525L1883 539L1869 539L1855 539L1841 553L1827 567L1813 567L1799 567L1785 567L1771 567L1757 567L1743 567L1729 581L1715 581L1701 567L1687 567L1673 567L1659 581L1645 581L1631 581L1617 581L1603 581L1589 581L1575 581L1561 581L1547 581L1533 581L1519 581L1505 581L1491 581L1477 581L1463 581L1449 581L1435 581L1421 581L1407 581L1393 581L1379 581L1365 581L1351 567L1337 567L1323 567L1309 567L1295 567L1281 581L1267 581L1253 581L1239 581L1225 581L1211 581L1197 581L1183 581L1169 581L1155 581L1141 581L1127 581L1113 581L1099 581L1085 581L1071 581" stroke="url(#SvgjsLinearGradient2033)" stroke-width="2.33"></path><path d="M1067.5 581 a3.5 3.5 0 1 0 7 0 a3.5 3.5 0 1 0 -7 0zM1263.5 609 a3.5 3.5 0 1 0 7 0 a3.5 3.5 0 1 0 -7 0zM1291.5 553 a3.5 3.5 0 1 0 7 0 a3.5 3.5 0 1 0 -7 0zM1599.5 609 a3.5 3.5 0 1 0 7 0 a3.5 3.5 0 1 0 -7 0zM1333.5 539 a3.5 3.5 0 1 0 7 0 a3.5 3.5 0 1 0 -7 0zM1165.5 595 a3.5 3.5 0 1 0 7 0 a3.5 3.5 0 1 0 -7 0zM1291.5 595 a3.5 3.5 0 1 0 7 0 a3.5 3.5 0 1 0 -7 0zM1599.5 595 a3.5 3.5 0 1 0 7 0 a3.5 3.5 0 1 0 -7 0zM1333.5 595 a3.5 3.5 0 1 0 7 0 a3.5 3.5 0 1 0 -7 0zM1081.5 567 a3.5 3.5 0 1 0 7 0 a3.5 3.5 0 1 0 -7 0zM1179.5 553 a3.5 3.5 0 1 0 7 0 a3.5 3.5 0 1 0 -7 0zM1711.5 567 a3.5 3.5 0 1 0 7 0 a3.5 3.5 0 1 0 -7 0zM1039.5 595 a3.5 3.5 0 1 0 7 0 a3.5 3.5 0 1 0 -7 0zM1039.5 623 a3.5 3.5 0 1 0 7 0 a3.5 3.5 0 1 0 -7 0zM1151.5 637 a3.5 3.5 0 1 0 7 0 a3.5 3.5 0 1 0 -7 0zM1403.5 609 a3.5 3.5 0 1 0 7 0 a3.5 3.5 0 1 0 -7 0z" fill="url(#SvgjsLinearGradient2033)"></path><path d="M1561 357L1547 343L1533 343L1519 343M1365 357L1351 343L1337 343L1323 343L1309 343L1295 343L1281 343L1267 343L1253 343L1239 343L1225 343L1211 343L1197 343L1183 343M1477 357L1463 343M1505 357L1491 343M1701 371L1687 357M1421 357L1407 343L1393 343L1379 343L1365 343M1729 371L1715 357L1701 357M1617 357L1603 343L1589 343L1575 343M1659 371L1645 357M1631 357L1617 371M1309 357L1295 371L1281 371L1267 371L1253 371L1239 357L1225 357L1211 357L1197 357M1911 371L1897 371L1883 371L1869 371L1855 371L1841 371L1827 371L1813 371L1799 371L1785 371L1771 371L1757 371L1743 371L1729 371L1715 371L1701 371L1687 371L1673 371L1659 371L1645 371L1631 357L1617 357L1603 357L1589 357L1575 357L1561 357L1547 357L1533 357L1519 357L1505 357L1491 357L1477 357L1463 357L1449 357L1435 357L1421 357L1407 357L1393 357L1379 357L1365 357L1351 357L1337 357L1323 357L1309 357L1295 357" stroke="url(#SvgjsLinearGradient2033)" stroke-width="2.33"></path><path d="M1291.5 357 a3.5 3.5 0 1 0 7 0 a3.5 3.5 0 1 0 -7 0zM1515.5 343 a3.5 3.5 0 1 0 7 0 a3.5 3.5 0 1 0 -7 0zM1179.5 343 a3.5 3.5 0 1 0 7 0 a3.5 3.5 0 1 0 -7 0zM1459.5 343 a3.5 3.5 0 1 0 7 0 a3.5 3.5 0 1 0 -7 0zM1487.5 343 a3.5 3.5 0 1 0 7 0 a3.5 3.5 0 1 0 -7 0zM1683.5 357 a3.5 3.5 0 1 0 7 0 a3.5 3.5 0 1 0 -7 0zM1361.5 343 a3.5 3.5 0 1 0 7 0 a3.5 3.5 0 1 0 -7 0zM1697.5 357 a3.5 3.5 0 1 0 7 0 a3.5 3.5 0 1 0 -7 0zM1571.5 343 a3.5 3.5 0 1 0 7 0 a3.5 3.5 0 1 0 -7 0zM1641.5 357 a3.5 3.5 0 1 0 7 0 a3.5 3.5 0 1 0 -7 0zM1613.5 371 a3.5 3.5 0 1 0 7 0 a3.5 3.5 0 1 0 -7 0zM1193.5 357 a3.5 3.5 0 1 0 7 0 a3.5 3.5 0 1 0 -7 0z" fill="url(#SvgjsLinearGradient2033)"></path><path d="M1687 609L1673 609L1659 609M1267 637L1253 651L1239 651M1477 623L1463 609M1883 553L1869 553L1855 553M1533 623L1519 637L1505 637L1491 637L1477 637L1463 637L1449 637L1435 637L1421 637L1407 637L1393 637M1113 651L1099 637L1085 637L1071 637M1617 623L1603 623M1519 623L1505 609L1491 609L1477 609M1393 623L1379 623L1365 623M1225 637L1211 651L1197 651M1547 623L1533 637M1561 623L1547 609L1533 609L1519 609M1589 637L1575 637L1561 637L1547 637M1183 637L1169 637M1127 651L1113 637L1099 623L1085 623M1911 539L1897 539L1883 553L1869 567L1855 567L1841 567L1827 581L1813 581L1799 581L1785 581L1771 581L1757 581L1743 581L1729 595L1715 595L1701 595L1687 609L1673 623L1659 623L1645 623L1631 623L1617 623L1603 637L1589 637L1575 623L1561 623L1547 623L1533 623L1519 623L1505 623L1491 623L1477 623L1463 623L1449 623L1435 623L1421 623L1407 623L1393 623L1379 637L1365 637L1351 637L1337 637L1323 637L1309 637L1295 637L1281 637L1267 637L1253 637L1239 637L1225 637L1211 637L1197 637L1183 637L1169 651L1155 651L1141 651L1127 651L1113 651L1099 651L1085 651" stroke="url(#SvgjsLinearGradient2033)" stroke-width="2.33"></path><path d="M1081.5 651 a3.5 3.5 0 1 0 7 0 a3.5 3.5 0 1 0 -7 0zM1655.5 609 a3.5 3.5 0 1 0 7 0 a3.5 3.5 0 1 0 -7 0zM1235.5 651 a3.5 3.5 0 1 0 7 0 a3.5 3.5 0 1 0 -7 0zM1459.5 609 a3.5 3.5 0 1 0 7 0 a3.5 3.5 0 1 0 -7 0zM1851.5 553 a3.5 3.5 0 1 0 7 0 a3.5 3.5 0 1 0 -7 0zM1389.5 637 a3.5 3.5 0 1 0 7 0 a3.5 3.5 0 1 0 -7 0zM1067.5 637 a3.5 3.5 0 1 0 7 0 a3.5 3.5 0 1 0 -7 0zM1599.5 623 a3.5 3.5 0 1 0 7 0 a3.5 3.5 0 1 0 -7 0zM1473.5 609 a3.5 3.5 0 1 0 7 0 a3.5 3.5 0 1 0 -7 0zM1361.5 623 a3.5 3.5 0 1 0 7 0 a3.5 3.5 0 1 0 -7 0zM1193.5 651 a3.5 3.5 0 1 0 7 0 a3.5 3.5 0 1 0 -7 0zM1529.5 637 a3.5 3.5 0 1 0 7 0 a3.5 3.5 0 1 0 -7 0zM1515.5 609 a3.5 3.5 0 1 0 7 0 a3.5 3.5 0 1 0 -7 0zM1543.5 637 a3.5 3.5 0 1 0 7 0 a3.5 3.5 0 1 0 -7 0zM1165.5 637 a3.5 3.5 0 1 0 7 0 a3.5 3.5 0 1 0 -7 0zM1081.5 623 a3.5 3.5 0 1 0 7 0 a3.5 3.5 0 1 0 -7 0z" fill="url(#SvgjsLinearGradient2033)"></path><path d="M1127 329L1113 315M1239 329L1225 315L1211 315L1197 301L1183 301L1169 301L1155 301L1141 301L1127 301L1113 287L1099 287L1085 287L1071 287L1057 287L1043 287L1029 287L1015 273L1001 273M1295 329L1281 315M1771 357L1757 343M1841 357L1827 343L1813 343L1799 343L1785 329L1771 329M1323 329L1309 315L1295 315L1281 301L1267 301L1253 315M1099 329L1085 329L1071 329L1057 329L1043 329L1029 329L1015 329L1001 315L987 315M1085 343L1071 357L1057 357L1043 357M1449 315L1435 315L1421 315L1407 315L1393 315L1379 315L1365 315M1491 315L1477 329L1463 329L1449 329L1435 343L1421 343M1897 357L1883 343L1869 343L1855 343L1841 343M1169 329L1155 315L1141 315L1127 315M1351 329L1337 315L1323 315L1309 301L1295 301L1281 287L1267 287L1253 287L1239 287L1225 287L1211 287L1197 287L1183 287L1169 287M1505 329L1491 329M1911 357L1897 357L1883 357L1869 357L1855 357L1841 357L1827 357L1813 357L1799 357L1785 357L1771 357L1757 357L1743 357L1729 343L1715 343L1701 343L1687 343L1673 343L1659 343L1645 343L1631 343L1617 329L1603 329L1589 329L1575 329L1561 329L1547 329L1533 329L1519 329L1505 329L1491 315L1477 315L1463 315L1449 315L1435 329L1421 329L1407 329L1393 329L1379 329L1365 329L1351 329L1337 329L1323 329L1309 329L1295 329L1281 329L1267 329L1253 329L1239 329L1225 329L1211 329L1197 329L1183 329L1169 329L1155 329L1141 329L1127 329L1113 329L1099 329L1085 343L1071 343L1057 343" stroke="url(#SvgjsLinearGradient2033)" stroke-width="2.33"></path><path d="M1053.5 343 a3.5 3.5 0 1 0 7 0 a3.5 3.5 0 1 0 -7 0zM1109.5 315 a3.5 3.5 0 1 0 7 0 a3.5 3.5 0 1 0 -7 0zM997.5 273 a3.5 3.5 0 1 0 7 0 a3.5 3.5 0 1 0 -7 0zM1277.5 315 a3.5 3.5 0 1 0 7 0 a3.5 3.5 0 1 0 -7 0zM1753.5 343 a3.5 3.5 0 1 0 7 0 a3.5 3.5 0 1 0 -7 0zM1767.5 329 a3.5 3.5 0 1 0 7 0 a3.5 3.5 0 1 0 -7 0zM1249.5 315 a3.5 3.5 0 1 0 7 0 a3.5 3.5 0 1 0 -7 0zM983.5 315 a3.5 3.5 0 1 0 7 0 a3.5 3.5 0 1 0 -7 0zM1039.5 357 a3.5 3.5 0 1 0 7 0 a3.5 3.5 0 1 0 -7 0zM1361.5 315 a3.5 3.5 0 1 0 7 0 a3.5 3.5 0 1 0 -7 0zM1417.5 343 a3.5 3.5 0 1 0 7 0 a3.5 3.5 0 1 0 -7 0zM1837.5 343 a3.5 3.5 0 1 0 7 0 a3.5 3.5 0 1 0 -7 0zM1123.5 315 a3.5 3.5 0 1 0 7 0 a3.5 3.5 0 1 0 -7 0zM1165.5 287 a3.5 3.5 0 1 0 7 0 a3.5 3.5 0 1 0 -7 0zM1487.5 329 a3.5 3.5 0 1 0 7 0 a3.5 3.5 0 1 0 -7 0z" fill="url(#SvgjsLinearGradient2033)"></path><path d="M1113 665L1099 679M1127 665L1113 679M1631 637L1617 651M1141 665L1127 679M1659 637L1645 651L1631 651M1169 665L1155 679L1141 679M1281 651L1267 651M1757 595L1743 595M1911 553L1897 553L1883 567L1869 581L1855 581L1841 581L1827 595L1813 595L1799 595L1785 595L1771 595L1757 595L1743 609L1729 609L1715 609L1701 609L1687 623L1673 637L1659 637L1645 637L1631 637L1617 637L1603 651L1589 651L1575 651L1561 651L1547 651L1533 651L1519 651L1505 651L1491 651L1477 651L1463 651L1449 651L1435 651L1421 651L1407 651L1393 651L1379 651L1365 651L1351 651L1337 651L1323 651L1309 651L1295 651L1281 651L1267 665L1253 665L1239 665L1225 665L1211 665L1197 665L1183 665L1169 665L1155 665L1141 665L1127 665L1113 665L1099 665L1085 665" stroke="url(#SvgjsLinearGradient2033)" stroke-width="2.33"></path><path d="M1081.5 665 a3.5 3.5 0 1 0 7 0 a3.5 3.5 0 1 0 -7 0zM1095.5 679 a3.5 3.5 0 1 0 7 0 a3.5 3.5 0 1 0 -7 0zM1109.5 679 a3.5 3.5 0 1 0 7 0 a3.5 3.5 0 1 0 -7 0zM1613.5 651 a3.5 3.5 0 1 0 7 0 a3.5 3.5 0 1 0 -7 0zM1123.5 679 a3.5 3.5 0 1 0 7 0 a3.5 3.5 0 1 0 -7 0zM1627.5 651 a3.5 3.5 0 1 0 7 0 a3.5 3.5 0 1 0 -7 0zM1137.5 679 a3.5 3.5 0 1 0 7 0 a3.5 3.5 0 1 0 -7 0zM1263.5 651 a3.5 3.5 0 1 0 7 0 a3.5 3.5 0 1 0 -7 0zM1739.5 595 a3.5 3.5 0 1 0 7 0 a3.5 3.5 0 1 0 -7 0z" fill="url(#SvgjsLinearGradient2033)"></path><path d="M1911 343L1897 329L1883 329L1869 329L1855 329L1841 329L1827 329" stroke="url(#SvgjsLinearGradient2033)" stroke-width="2.33"></path><path d="M1823.5 329 a3.5 3.5 0 1 0 7 0 a3.5 3.5 0 1 0 -7 0z" fill="url(#SvgjsLinearGradient2033)"></path><path d="M1379 665L1365 679L1351 679L1337 679M1491 665L1477 679L1463 679L1449 679L1435 679L1421 679L1407 679L1393 679L1379 679M1673 651L1659 651M1547 665L1533 679L1519 679L1505 679L1491 679M1561 665L1547 679M1589 665L1575 679L1561 679M1911 567L1897 567L1883 581L1869 595L1855 595L1841 595L1827 609L1813 609L1799 609L1785 609L1771 609L1757 609L1743 623L1729 623L1715 623L1701 623L1687 637L1673 651L1659 665L1645 665L1631 665L1617 665L1603 665L1589 665L1575 665L1561 665L1547 665L1533 665L1519 665L1505 665L1491 665L1477 665L1463 665L1449 665L1435 665L1421 665L1407 665L1393 665L1379 665L1365 665L1351 665L1337 665L1323 665L1309 665L1295 665L1281 665L1267 679L1253 679L1239 679L1225 679L1211 679L1197 679" stroke="url(#SvgjsLinearGradient2033)" stroke-width="2.33"></path><path d="M1193.5 679 a3.5 3.5 0 1 0 7 0 a3.5 3.5 0 1 0 -7 0zM1333.5 679 a3.5 3.5 0 1 0 7 0 a3.5 3.5 0 1 0 -7 0zM1375.5 679 a3.5 3.5 0 1 0 7 0 a3.5 3.5 0 1 0 -7 0zM1655.5 651 a3.5 3.5 0 1 0 7 0 a3.5 3.5 0 1 0 -7 0zM1487.5 679 a3.5 3.5 0 1 0 7 0 a3.5 3.5 0 1 0 -7 0zM1543.5 679 a3.5 3.5 0 1 0 7 0 a3.5 3.5 0 1 0 -7 0zM1557.5 679 a3.5 3.5 0 1 0 7 0 a3.5 3.5 0 1 0 -7 0z" fill="url(#SvgjsLinearGradient2033)"></path><path d="M1211 693L1197 707M1071 693L1057 707M1085 693L1071 679L1057 679L1043 679L1029 679M1155 693L1141 707L1127 707L1113 707L1099 707L1085 707L1071 707M1183 693L1169 707L1155 707M1855 609L1841 609M1309 679L1295 693L1281 693M1603 679L1589 679M1617 679L1603 693M1631 679L1617 693M1911 581L1897 581L1883 595L1869 609L1855 609L1841 623L1827 623L1813 623L1799 623L1785 623L1771 623L1757 623L1743 637L1729 637L1715 637L1701 637L1687 651L1673 665L1659 679L1645 679L1631 679L1617 679L1603 679L1589 693L1575 693L1561 693L1547 693L1533 693L1519 693L1505 693L1491 693L1477 693L1463 693L1449 693L1435 693L1421 693L1407 693L1393 693L1379 693L1365 693L1351 693L1337 693L1323 693L1309 679L1295 679L1281 679L1267 693L1253 693L1239 693L1225 693L1211 693L1197 693L1183 693L1169 693L1155 693L1141 693L1127 693L1113 693L1099 693L1085 693L1071 693L1057 693L1043 693" stroke="url(#SvgjsLinearGradient2033)" stroke-width="2.33"></path><path d="M1039.5 693 a3.5 3.5 0 1 0 7 0 a3.5 3.5 0 1 0 -7 0zM1193.5 707 a3.5 3.5 0 1 0 7 0 a3.5 3.5 0 1 0 -7 0zM1053.5 707 a3.5 3.5 0 1 0 7 0 a3.5 3.5 0 1 0 -7 0zM1025.5 679 a3.5 3.5 0 1 0 7 0 a3.5 3.5 0 1 0 -7 0zM1067.5 707 a3.5 3.5 0 1 0 7 0 a3.5 3.5 0 1 0 -7 0zM1151.5 707 a3.5 3.5 0 1 0 7 0 a3.5 3.5 0 1 0 -7 0zM1837.5 609 a3.5 3.5 0 1 0 7 0 a3.5 3.5 0 1 0 -7 0zM1277.5 693 a3.5 3.5 0 1 0 7 0 a3.5 3.5 0 1 0 -7 0zM1585.5 679 a3.5 3.5 0 1 0 7 0 a3.5 3.5 0 1 0 -7 0zM1599.5 693 a3.5 3.5 0 1 0 7 0 a3.5 3.5 0 1 0 -7 0zM1613.5 693 a3.5 3.5 0 1 0 7 0 a3.5 3.5 0 1 0 -7 0z" fill="url(#SvgjsLinearGradient2033)"></path><path d="M1449 301L1435 287L1421 287M1659 329L1645 315L1631 315M1729 329L1715 315L1701 315L1687 315L1673 315M1813 315L1799 329M1771 315L1757 315L1743 315L1729 315M1561 315L1547 301L1533 301M1589 315L1575 301L1561 301L1547 287L1533 287L1519 287L1505 287L1491 287L1477 287L1463 287L1449 287L1435 273M1603 315L1589 301L1575 287L1561 287L1547 273L1533 273M1883 315L1869 301M1911 315L1897 315L1883 315L1869 315L1855 315L1841 315L1827 315L1813 315L1799 315L1785 315L1771 315L1757 329L1743 329L1729 329L1715 329L1701 329L1687 329L1673 329L1659 329L1645 329L1631 329L1617 315L1603 315L1589 315L1575 315L1561 315L1547 315L1533 315L1519 315L1505 315L1491 301L1477 301L1463 301L1449 301L1435 301L1421 301L1407 301L1393 287L1379 287" stroke="url(#SvgjsLinearGradient2033)" stroke-width="2.33"></path><path d="M1375.5 287 a3.5 3.5 0 1 0 7 0 a3.5 3.5 0 1 0 -7 0zM1417.5 287 a3.5 3.5 0 1 0 7 0 a3.5 3.5 0 1 0 -7 0zM1627.5 315 a3.5 3.5 0 1 0 7 0 a3.5 3.5 0 1 0 -7 0zM1669.5 315 a3.5 3.5 0 1 0 7 0 a3.5 3.5 0 1 0 -7 0zM1795.5 329 a3.5 3.5 0 1 0 7 0 a3.5 3.5 0 1 0 -7 0zM1725.5 315 a3.5 3.5 0 1 0 7 0 a3.5 3.5 0 1 0 -7 0zM1529.5 301 a3.5 3.5 0 1 0 7 0 a3.5 3.5 0 1 0 -7 0zM1431.5 273 a3.5 3.5 0 1 0 7 0 a3.5 3.5 0 1 0 -7 0zM1529.5 273 a3.5 3.5 0 1 0 7 0 a3.5 3.5 0 1 0 -7 0zM1865.5 301 a3.5 3.5 0 1 0 7 0 a3.5 3.5 0 1 0 -7 0z" fill="url(#SvgjsLinearGradient2033)"></path><path d="M917 721L903 735L889 735L875 735L861 735L847 735L833 735L819 735L805 735L791 735M1281 707L1267 721L1253 721M1323 707L1309 721L1295 721M1085 721L1071 735L1057 735L1043 735L1029 735L1015 735L1001 735L987 735L973 735M1211 721L1197 735L1183 749M973 707L959 721L945 721L931 721L917 735L903 749L889 749L875 749L861 749L847 749L833 749L819 749L805 749L791 749M1225 707L1211 707M1099 721L1085 735L1071 749L1057 749L1043 749L1029 749L1015 749M1029 707L1015 721L1001 721L987 721L973 721M903 721L889 707L875 707M959 707L945 693L931 693L917 693L903 693L889 679L875 679L861 679L847 679L833 679L819 679L805 679M931 707L917 707L903 707M1001 707L987 693L973 693L959 693L945 679L931 679L917 679L903 679L889 665L875 665L861 665M1015 707L1001 693L987 679L973 679L959 679L945 665L931 651L917 651L903 651L889 651L875 651L861 651L847 651L833 651L819 651L805 651L791 651M1043 707L1029 721M1183 721L1169 735L1155 735L1141 735L1127 735L1113 735L1099 735L1085 749L1071 763L1057 763L1043 763L1029 763M1645 693L1631 693M1337 707L1323 721M1911 595L1897 595L1883 609L1869 623L1855 623L1841 637L1827 637L1813 637L1799 637L1785 637L1771 637L1757 637L1743 651L1729 651L1715 651L1701 651L1687 665L1673 679L1659 693L1645 693L1631 707L1617 707L1603 707L1589 707L1575 707L1561 707L1547 707L1533 707L1519 707L1505 707L1491 707L1477 707L1463 707L1449 707L1435 707L1421 707L1407 707L1393 707L1379 707L1365 707L1351 707L1337 707L1323 707L1309 707L1295 707L1281 707L1267 707L1253 707L1239 707L1225 707L1211 721L1197 721L1183 721L1169 721L1155 721L1141 721L1127 721L1113 721L1099 721L1085 721L1071 721L1057 721L1043 707L1029 707L1015 707L1001 707L987 707L973 707L959 707L945 707L931 707L917 721L903 721L889 721" stroke="url(#SvgjsLinearGradient2033)" stroke-width="2.33"></path><path d="M885.5 721 a3.5 3.5 0 1 0 7 0 a3.5 3.5 0 1 0 -7 0zM787.5 735 a3.5 3.5 0 1 0 7 0 a3.5 3.5 0 1 0 -7 0zM1249.5 721 a3.5 3.5 0 1 0 7 0 a3.5 3.5 0 1 0 -7 0zM1291.5 721 a3.5 3.5 0 1 0 7 0 a3.5 3.5 0 1 0 -7 0zM969.5 735 a3.5 3.5 0 1 0 7 0 a3.5 3.5 0 1 0 -7 0zM1179.5 749 a3.5 3.5 0 1 0 7 0 a3.5 3.5 0 1 0 -7 0zM787.5 749 a3.5 3.5 0 1 0 7 0 a3.5 3.5 0 1 0 -7 0zM1207.5 707 a3.5 3.5 0 1 0 7 0 a3.5 3.5 0 1 0 -7 0zM1011.5 749 a3.5 3.5 0 1 0 7 0 a3.5 3.5 0 1 0 -7 0zM969.5 721 a3.5 3.5 0 1 0 7 0 a3.5 3.5 0 1 0 -7 0zM871.5 707 a3.5 3.5 0 1 0 7 0 a3.5 3.5 0 1 0 -7 0zM801.5 679 a3.5 3.5 0 1 0 7 0 a3.5 3.5 0 1 0 -7 0zM899.5 707 a3.5 3.5 0 1 0 7 0 a3.5 3.5 0 1 0 -7 0zM857.5 665 a3.5 3.5 0 1 0 7 0 a3.5 3.5 0 1 0 -7 0zM787.5 651 a3.5 3.5 0 1 0 7 0 a3.5 3.5 0 1 0 -7 0zM1025.5 721 a3.5 3.5 0 1 0 7 0 a3.5 3.5 0 1 0 -7 0zM1025.5 763 a3.5 3.5 0 1 0 7 0 a3.5 3.5 0 1 0 -7 0zM1627.5 693 a3.5 3.5 0 1 0 7 0 a3.5 3.5 0 1 0 -7 0zM1319.5 721 a3.5 3.5 0 1 0 7 0 a3.5 3.5 0 1 0 -7 0z" fill="url(#SvgjsLinearGradient2033)"></path><path d="M1715 301L1701 287L1687 287M1799 301L1785 287L1771 287L1757 287L1743 287M1673 301L1659 287L1645 287L1631 287L1617 287M1813 301L1799 287M1841 301L1827 287L1813 273L1799 273M1911 301L1897 287L1883 287L1869 287L1855 301L1841 301L1827 301L1813 301L1799 301L1785 301L1771 301L1757 301L1743 301L1729 301L1715 301L1701 301L1687 301L1673 301L1659 301L1645 301L1631 301L1617 301" stroke="url(#SvgjsLinearGradient2033)" stroke-width="2.33"></path><path d="M1613.5 301 a3.5 3.5 0 1 0 7 0 a3.5 3.5 0 1 0 -7 0zM1683.5 287 a3.5 3.5 0 1 0 7 0 a3.5 3.5 0 1 0 -7 0zM1739.5 287 a3.5 3.5 0 1 0 7 0 a3.5 3.5 0 1 0 -7 0zM1613.5 287 a3.5 3.5 0 1 0 7 0 a3.5 3.5 0 1 0 -7 0zM1795.5 287 a3.5 3.5 0 1 0 7 0 a3.5 3.5 0 1 0 -7 0zM1795.5 273 a3.5 3.5 0 1 0 7 0 a3.5 3.5 0 1 0 -7 0z" fill="url(#SvgjsLinearGradient2033)"></path><path d="M1267 749L1253 735L1239 735L1225 735L1211 735L1197 749L1183 763L1169 763L1155 763L1141 763M1575 721L1561 735M1323 735L1309 735L1295 735L1281 735L1267 735M1351 721L1337 721M1911 609L1897 609L1883 623L1869 637L1855 637L1841 651L1827 651L1813 651L1799 651L1785 651L1771 651L1757 651L1743 665L1729 665L1715 665L1701 665L1687 679L1673 693L1659 707L1645 707L1631 721L1617 721L1603 721L1589 721L1575 721L1561 721L1547 721L1533 721L1519 721L1505 721L1491 721L1477 721L1463 721L1449 721L1435 721L1421 721L1407 721L1393 721L1379 721L1365 721L1351 721L1337 735L1323 735L1309 749L1295 749L1281 749L1267 749L1253 749L1239 749L1225 749" stroke="url(#SvgjsLinearGradient2033)" stroke-width="2.33"></path><path d="M1221.5 749 a3.5 3.5 0 1 0 7 0 a3.5 3.5 0 1 0 -7 0zM1137.5 763 a3.5 3.5 0 1 0 7 0 a3.5 3.5 0 1 0 -7 0zM1557.5 735 a3.5 3.5 0 1 0 7 0 a3.5 3.5 0 1 0 -7 0zM1263.5 735 a3.5 3.5 0 1 0 7 0 a3.5 3.5 0 1 0 -7 0zM1333.5 721 a3.5 3.5 0 1 0 7 0 a3.5 3.5 0 1 0 -7 0z" fill="url(#SvgjsLinearGradient2033)"></path><path d="M1911 623L1897 623L1883 637L1869 651L1855 651L1841 665L1827 665L1813 665L1799 665L1785 665L1771 665" stroke="url(#SvgjsLinearGradient2033)" stroke-width="2.33"></path><path d="M1767.5 665 a3.5 3.5 0 1 0 7 0 a3.5 3.5 0 1 0 -7 0z" fill="url(#SvgjsLinearGradient2033)"></path><path d="M1911 273L1897 273L1883 273L1869 273" stroke="url(#SvgjsLinearGradient2033)" stroke-width="2.33"></path><path d="M1865.5 273 a3.5 3.5 0 1 0 7 0 a3.5 3.5 0 1 0 -7 0z" fill="url(#SvgjsLinearGradient2033)"></path><path d="M1771 679L1757 693L1743 693L1729 693M1267 763L1253 777L1239 777L1225 777L1211 777L1197 777L1183 777L1169 777L1155 777L1141 777L1127 777L1113 777M1379 735L1365 749L1351 749L1337 763L1323 763L1309 777L1295 777L1281 777L1267 777L1253 791L1239 791L1225 791L1211 791L1197 791L1183 791L1169 791M1477 735L1463 749L1449 749L1435 749L1421 749L1407 763L1393 763L1379 763L1365 763L1351 763L1337 777L1323 777L1309 791L1295 791L1281 791L1267 791M1533 735L1519 749L1505 749L1491 749L1477 749L1463 763L1449 763L1435 763L1421 763M1407 735L1393 749L1379 749M1617 735L1603 749L1589 749M1561 749L1547 749M1911 637L1897 637L1883 651L1869 665L1855 665L1841 679L1827 679L1813 679L1799 679L1785 679L1771 679L1757 679L1743 679L1729 679L1715 679L1701 679L1687 693L1673 707L1659 721L1645 721L1631 735L1617 735L1603 735L1589 735L1575 749L1561 749L1547 735L1533 735L1519 735L1505 735L1491 735L1477 735L1463 735L1449 735L1435 735L1421 735L1407 735L1393 735L1379 735L1365 735L1351 735L1337 749L1323 749L1309 763L1295 763L1281 763L1267 763L1253 763L1239 763L1225 763L1211 763" stroke="url(#SvgjsLinearGradient2033)" stroke-width="2.33"></path><path d="M1207.5 763 a3.5 3.5 0 1 0 7 0 a3.5 3.5 0 1 0 -7 0zM1725.5 693 a3.5 3.5 0 1 0 7 0 a3.5 3.5 0 1 0 -7 0zM1109.5 777 a3.5 3.5 0 1 0 7 0 a3.5 3.5 0 1 0 -7 0zM1165.5 791 a3.5 3.5 0 1 0 7 0 a3.5 3.5 0 1 0 -7 0zM1263.5 791 a3.5 3.5 0 1 0 7 0 a3.5 3.5 0 1 0 -7 0zM1417.5 763 a3.5 3.5 0 1 0 7 0 a3.5 3.5 0 1 0 -7 0zM1375.5 749 a3.5 3.5 0 1 0 7 0 a3.5 3.5 0 1 0 -7 0zM1585.5 749 a3.5 3.5 0 1 0 7 0 a3.5 3.5 0 1 0 -7 0zM1543.5 749 a3.5 3.5 0 1 0 7 0 a3.5 3.5 0 1 0 -7 0z" fill="url(#SvgjsLinearGradient2033)"></path><path d="M1897 259L1883 245L1869 245M1239 231L1225 217L1211 217L1197 203L1183 203L1169 217L1155 217L1141 217L1127 217L1113 217L1099 217L1085 217L1071 217M1099 245L1085 231L1071 231L1057 231L1043 231L1029 231M1477 217L1463 203M973 245L959 231L945 231L931 231L917 217L903 217L889 217M1337 217L1323 203L1309 203L1295 189L1281 189L1267 189L1253 189L1239 189L1225 203L1211 203M1561 217L1547 231L1533 231L1519 231L1505 231L1491 231L1477 231L1463 231L1449 231L1435 231L1421 231L1407 217L1393 217L1379 217L1365 217L1351 231L1337 231L1323 231L1309 231L1295 231L1281 231L1267 231L1253 245M1435 217L1421 217M931 245L917 245L903 245M819 259L805 273L791 287M1631 217L1617 231L1603 231M1813 231L1799 245L1785 245L1771 245L1757 245L1743 245L1729 245L1715 245L1701 245M1197 245L1183 259L1169 259L1155 259L1141 259L1127 259L1113 259L1099 259L1085 259L1071 259L1057 273L1043 273L1029 273M987 259L973 259L959 259L945 259M847 259L833 245L819 245M1827 245L1813 245L1799 259L1785 259L1771 259L1757 259L1743 259L1729 259L1715 259L1701 259L1687 259L1673 259L1659 259M1351 217L1337 203M1113 245L1099 231M1365 203L1351 203M1029 259L1015 245L1001 245L987 245L973 231L959 217L945 217L931 217L917 203L903 203L889 189L875 189L861 189L847 189L833 189L819 189L805 189L791 189M1911 259L1897 259L1883 259L1869 259L1855 259L1841 259L1827 245L1813 231L1799 231L1785 217L1771 217L1757 217L1743 217L1729 217L1715 217L1701 231L1687 231L1673 231L1659 231L1645 231L1631 217L1617 217L1603 217L1589 217L1575 217L1561 217L1547 217L1533 217L1519 217L1505 217L1491 217L1477 217L1463 217L1449 217L1435 217L1421 203L1407 203L1393 203L1379 203L1365 203L1351 217L1337 217L1323 217L1309 217L1295 217L1281 217L1267 217L1253 231L1239 231L1225 231L1211 231L1197 245L1183 245L1169 245L1155 245L1141 245L1127 245L1113 245L1099 245L1085 245L1071 245L1057 245L1043 245L1029 259L1015 259L1001 259L987 259L973 245L959 245L945 245L931 245L917 259L903 259L889 259L875 259L861 259L847 259L833 259L819 259L805 259" stroke="url(#SvgjsLinearGradient2033)" stroke-width="2.33"></path><path d="M801.5 259 a3.5 3.5 0 1 0 7 0 a3.5 3.5 0 1 0 -7 0zM1865.5 245 a3.5 3.5 0 1 0 7 0 a3.5 3.5 0 1 0 -7 0zM1067.5 217 a3.5 3.5 0 1 0 7 0 a3.5 3.5 0 1 0 -7 0zM1025.5 231 a3.5 3.5 0 1 0 7 0 a3.5 3.5 0 1 0 -7 0zM1459.5 203 a3.5 3.5 0 1 0 7 0 a3.5 3.5 0 1 0 -7 0zM885.5 217 a3.5 3.5 0 1 0 7 0 a3.5 3.5 0 1 0 -7 0zM1207.5 203 a3.5 3.5 0 1 0 7 0 a3.5 3.5 0 1 0 -7 0zM1249.5 245 a3.5 3.5 0 1 0 7 0 a3.5 3.5 0 1 0 -7 0zM1417.5 217 a3.5 3.5 0 1 0 7 0 a3.5 3.5 0 1 0 -7 0zM899.5 245 a3.5 3.5 0 1 0 7 0 a3.5 3.5 0 1 0 -7 0zM787.5 287 a3.5 3.5 0 1 0 7 0 a3.5 3.5 0 1 0 -7 0zM1599.5 231 a3.5 3.5 0 1 0 7 0 a3.5 3.5 0 1 0 -7 0zM1697.5 245 a3.5 3.5 0 1 0 7 0 a3.5 3.5 0 1 0 -7 0zM1025.5 273 a3.5 3.5 0 1 0 7 0 a3.5 3.5 0 1 0 -7 0zM941.5 259 a3.5 3.5 0 1 0 7 0 a3.5 3.5 0 1 0 -7 0zM815.5 245 a3.5 3.5 0 1 0 7 0 a3.5 3.5 0 1 0 -7 0zM1655.5 259 a3.5 3.5 0 1 0 7 0 a3.5 3.5 0 1 0 -7 0zM1333.5 203 a3.5 3.5 0 1 0 7 0 a3.5 3.5 0 1 0 -7 0zM1095.5 231 a3.5 3.5 0 1 0 7 0 a3.5 3.5 0 1 0 -7 0zM1347.5 203 a3.5 3.5 0 1 0 7 0 a3.5 3.5 0 1 0 -7 0zM787.5 189 a3.5 3.5 0 1 0 7 0 a3.5 3.5 0 1 0 -7 0z" fill="url(#SvgjsLinearGradient2033)"></path><path d="M1813 693L1799 707L1785 707L1771 721L1757 721L1743 721L1729 721L1715 721L1701 721L1687 721L1673 735L1659 749L1645 749L1631 763M1547 763L1533 777L1519 791L1505 791M1477 777L1463 791L1449 805L1435 805M1505 777L1491 763L1477 763M1785 693L1771 693M1617 763L1603 777L1589 777L1575 777L1561 777L1547 777L1533 791M1533 763L1519 763L1505 763M1449 791L1435 777L1421 777L1407 777L1393 777L1379 777L1365 777L1351 777L1337 791L1323 791M1631 749L1617 749M1911 651L1897 651L1883 665L1869 679L1855 679L1841 693L1827 693L1813 693L1799 693L1785 693L1771 707L1757 707L1743 707L1729 707L1715 693L1701 693L1687 707L1673 721L1659 735L1645 735L1631 749L1617 763L1603 763L1589 763L1575 763L1561 763L1547 763L1533 763L1519 777L1505 777L1491 777L1477 777L1463 777L1449 791L1435 791L1421 791" stroke="url(#SvgjsLinearGradient2033)" stroke-width="2.33"></path><path d="M1417.5 791 a3.5 3.5 0 1 0 7 0 a3.5 3.5 0 1 0 -7 0zM1627.5 763 a3.5 3.5 0 1 0 7 0 a3.5 3.5 0 1 0 -7 0zM1501.5 791 a3.5 3.5 0 1 0 7 0 a3.5 3.5 0 1 0 -7 0zM1431.5 805 a3.5 3.5 0 1 0 7 0 a3.5 3.5 0 1 0 -7 0zM1473.5 763 a3.5 3.5 0 1 0 7 0 a3.5 3.5 0 1 0 -7 0zM1767.5 693 a3.5 3.5 0 1 0 7 0 a3.5 3.5 0 1 0 -7 0zM1529.5 791 a3.5 3.5 0 1 0 7 0 a3.5 3.5 0 1 0 -7 0zM1501.5 763 a3.5 3.5 0 1 0 7 0 a3.5 3.5 0 1 0 -7 0zM1319.5 791 a3.5 3.5 0 1 0 7 0 a3.5 3.5 0 1 0 -7 0zM1613.5 749 a3.5 3.5 0 1 0 7 0 a3.5 3.5 0 1 0 -7 0z" fill="url(#SvgjsLinearGradient2033)"></path><path d="M1911 665L1897 665L1883 679" stroke="url(#SvgjsLinearGradient2033)" stroke-width="2.33"></path><path d="M1879.5 679 a3.5 3.5 0 1 0 7 0 a3.5 3.5 0 1 0 -7 0z" fill="url(#SvgjsLinearGradient2033)"></path><path d="M1323 175L1309 189M1869 231L1855 217L1841 217M1337 175L1323 161L1309 161M1211 189L1197 175L1183 175L1169 175L1155 175L1141 175L1127 175L1113 175L1099 175L1085 175L1071 175L1057 175L1043 175L1029 175L1015 175L1001 175L987 175M1645 203L1631 189L1617 189L1603 189L1589 175L1575 175M1575 203L1561 189L1547 189L1533 189L1519 189L1505 189L1491 175L1477 175L1463 175L1449 175L1435 161L1421 161M1505 203L1491 203L1477 203M1449 189L1435 189M1281 175L1267 161L1253 161L1239 161L1225 161L1211 161L1197 161L1183 161L1169 161L1155 161L1141 161M1897 231L1883 217L1869 217L1855 203L1841 203L1827 203L1813 203L1799 203M1183 189L1169 189L1155 189L1141 189L1127 189L1113 189L1099 189L1085 189L1071 189L1057 189L1043 189L1029 189L1015 189L1001 189M1855 231L1841 245M1757 203L1743 189L1729 189L1715 189L1701 189L1687 203L1673 203L1659 189L1645 189L1631 175L1617 161L1603 161M1911 231L1897 231L1883 231L1869 231L1855 231L1841 231L1827 231L1813 217L1799 217L1785 203L1771 203L1757 203L1743 203L1729 203L1715 203L1701 217L1687 217L1673 217L1659 203L1645 203L1631 203L1617 203L1603 203L1589 203L1575 203L1561 203L1547 203L1533 203L1519 203L1505 203L1491 189L1477 189L1463 189L1449 189L1435 175L1421 175L1407 175L1393 175L1379 175L1365 175L1351 175L1337 175L1323 175L1309 175L1295 175L1281 175L1267 175L1253 175L1239 175L1225 189L1211 189L1197 189L1183 189L1169 203L1155 203" stroke="url(#SvgjsLinearGradient2033)" stroke-width="2.33"></path><path d="M1151.5 203 a3.5 3.5 0 1 0 7 0 a3.5 3.5 0 1 0 -7 0zM1305.5 189 a3.5 3.5 0 1 0 7 0 a3.5 3.5 0 1 0 -7 0zM1837.5 217 a3.5 3.5 0 1 0 7 0 a3.5 3.5 0 1 0 -7 0zM1305.5 161 a3.5 3.5 0 1 0 7 0 a3.5 3.5 0 1 0 -7 0zM983.5 175 a3.5 3.5 0 1 0 7 0 a3.5 3.5 0 1 0 -7 0zM1571.5 175 a3.5 3.5 0 1 0 7 0 a3.5 3.5 0 1 0 -7 0zM1417.5 161 a3.5 3.5 0 1 0 7 0 a3.5 3.5 0 1 0 -7 0zM1473.5 203 a3.5 3.5 0 1 0 7 0 a3.5 3.5 0 1 0 -7 0zM1431.5 189 a3.5 3.5 0 1 0 7 0 a3.5 3.5 0 1 0 -7 0zM1137.5 161 a3.5 3.5 0 1 0 7 0 a3.5 3.5 0 1 0 -7 0zM1795.5 203 a3.5 3.5 0 1 0 7 0 a3.5 3.5 0 1 0 -7 0zM997.5 189 a3.5 3.5 0 1 0 7 0 a3.5 3.5 0 1 0 -7 0zM1837.5 245 a3.5 3.5 0 1 0 7 0 a3.5 3.5 0 1 0 -7 0zM1599.5 161 a3.5 3.5 0 1 0 7 0 a3.5 3.5 0 1 0 -7 0z" fill="url(#SvgjsLinearGradient2033)"></path></g></g><defs><mask id="SvgjsMask2032"><rect width="1900" height="900" fill="#ffffff"></rect></mask><linearGradient x1="819.9639999999999" y1="-60.029999999999994" x2="1840.0359999999998" y2="960.03" gradientUnits="userSpaceOnUse" id="SvgjsLinearGradient2033"><stop stop-color="rgba(0, 192, 255, 0.27)" offset="0.01"></stop><stop stop-color="rgba(255, 0, 57, 0.82)" offset="1"></stop></linearGradient><mask id="SvgjsMask2034"><rect width="1900" height="900" fill="white"></rect><path d="M831.25 497 a1.75 1.75 0 1 0 3.5 0 a1.75 1.75 0 1 0 -3.5 0zM1251.25 455 a1.75 1.75 0 1 0 3.5 0 a1.75 1.75 0 1 0 -3.5 0zM789.25 483 a1.75 1.75 0 1 0 3.5 0 a1.75 1.75 0 1 0 -3.5 0zM1293.25 483 a1.75 1.75 0 1 0 3.5 0 a1.75 1.75 0 1 0 -3.5 0zM1125.25 469 a1.75 1.75 0 1 0 3.5 0 a1.75 1.75 0 1 0 -3.5 0zM1265.25 455 a1.75 1.75 0 1 0 3.5 0 a1.75 1.75 0 1 0 -3.5 0zM999.25 483 a1.75 1.75 0 1 0 3.5 0 a1.75 1.75 0 1 0 -3.5 0zM957.25 511 a1.75 1.75 0 1 0 3.5 0 a1.75 1.75 0 1 0 -3.5 0zM1769.25 455 a1.75 1.75 0 1 0 3.5 0 a1.75 1.75 0 1 0 -3.5 0zM1083.25 469 a1.75 1.75 0 1 0 3.5 0 a1.75 1.75 0 1 0 -3.5 0zM1853.25 469 a1.75 1.75 0 1 0 3.5 0 a1.75 1.75 0 1 0 -3.5 0zM789.25 511 a1.75 1.75 0 1 0 3.5 0 a1.75 1.75 0 1 0 -3.5 0zM1069.25 455 a1.75 1.75 0 1 0 3.5 0 a1.75 1.75 0 1 0 -3.5 0zM1321.25 427 a1.75 1.75 0 1 0 3.5 0 a1.75 1.75 0 1 0 -3.5 0zM1573.25 455 a1.75 1.75 0 1 0 3.5 0 a1.75 1.75 0 1 0 -3.5 0zM789.25 497 a1.75 1.75 0 1 0 3.5 0 a1.75 1.75 0 1 0 -3.5 0zM1601.25 483 a1.75 1.75 0 1 0 3.5 0 a1.75 1.75 0 1 0 -3.5 0zM789.25 469 a1.75 1.75 0 1 0 3.5 0 a1.75 1.75 0 1 0 -3.5 0zM1461.25 455 a1.75 1.75 0 1 0 3.5 0 a1.75 1.75 0 1 0 -3.5 0zM1517.25 441 a1.75 1.75 0 1 0 3.5 0 a1.75 1.75 0 1 0 -3.5 0z" fill="black"></path><path d="M915.25 399 a1.75 1.75 0 1 0 3.5 0 a1.75 1.75 0 1 0 -3.5 0zM1447.25 441 a1.75 1.75 0 1 0 3.5 0 a1.75 1.75 0 1 0 -3.5 0zM1027.25 455 a1.75 1.75 0 1 0 3.5 0 a1.75 1.75 0 1 0 -3.5 0zM1111.25 399 a1.75 1.75 0 1 0 3.5 0 a1.75 1.75 0 1 0 -3.5 0zM1125.25 385 a1.75 1.75 0 1 0 3.5 0 a1.75 1.75 0 1 0 -3.5 0zM1041.25 371 a1.75 1.75 0 1 0 3.5 0 a1.75 1.75 0 1 0 -3.5 0zM971.25 441 a1.75 1.75 0 1 0 3.5 0 a1.75 1.75 0 1 0 -3.5 0zM943.25 385 a1.75 1.75 0 1 0 3.5 0 a1.75 1.75 0 1 0 -3.5 0zM943.25 427 a1.75 1.75 0 1 0 3.5 0 a1.75 1.75 0 1 0 -3.5 0zM1139.25 427 a1.75 1.75 0 1 0 3.5 0 a1.75 1.75 0 1 0 -3.5 0zM1517.25 413 a1.75 1.75 0 1 0 3.5 0 a1.75 1.75 0 1 0 -3.5 0zM1153.25 399 a1.75 1.75 0 1 0 3.5 0 a1.75 1.75 0 1 0 -3.5 0zM1363.25 399 a1.75 1.75 0 1 0 3.5 0 a1.75 1.75 0 1 0 -3.5 0zM1559.25 441 a1.75 1.75 0 1 0 3.5 0 a1.75 1.75 0 1 0 -3.5 0zM859.25 413 a1.75 1.75 0 1 0 3.5 0 a1.75 1.75 0 1 0 -3.5 0zM1097.25 357 a1.75 1.75 0 1 0 3.5 0 a1.75 1.75 0 1 0 -3.5 0zM789.25 427 a1.75 1.75 0 1 0 3.5 0 a1.75 1.75 0 1 0 -3.5 0zM1097.25 343 a1.75 1.75 0 1 0 3.5 0 a1.75 1.75 0 1 0 -3.5 0zM1181.25 427 a1.75 1.75 0 1 0 3.5 0 a1.75 1.75 0 1 0 -3.5 0z" fill="black"></path><path d="M1055.25 511 a1.75 1.75 0 1 0 3.5 0 a1.75 1.75 0 1 0 -3.5 0zM1237.25 483 a1.75 1.75 0 1 0 3.5 0 a1.75 1.75 0 1 0 -3.5 0zM1629.25 483 a1.75 1.75 0 1 0 3.5 0 a1.75 1.75 0 1 0 -3.5 0zM1489.25 483 a1.75 1.75 0 1 0 3.5 0 a1.75 1.75 0 1 0 -3.5 0zM1685.25 483 a1.75 1.75 0 1 0 3.5 0 a1.75 1.75 0 1 0 -3.5 0zM1713.25 483 a1.75 1.75 0 1 0 3.5 0 a1.75 1.75 0 1 0 -3.5 0zM1013.25 539 a1.75 1.75 0 1 0 3.5 0 a1.75 1.75 0 1 0 -3.5 0zM1783.25 483 a1.75 1.75 0 1 0 3.5 0 a1.75 1.75 0 1 0 -3.5 0zM1797.25 483 a1.75 1.75 0 1 0 3.5 0 a1.75 1.75 0 1 0 -3.5 0zM1027.25 553 a1.75 1.75 0 1 0 3.5 0 a1.75 1.75 0 1 0 -3.5 0zM1881.25 469 a1.75 1.75 0 1 0 3.5 0 a1.75 1.75 0 1 0 -3.5 0zM1517.25 483 a1.75 1.75 0 1 0 3.5 0 a1.75 1.75 0 1 0 -3.5 0zM1153.25 525 a1.75 1.75 0 1 0 3.5 0 a1.75 1.75 0 1 0 -3.5 0zM1517.25 469 a1.75 1.75 0 1 0 3.5 0 a1.75 1.75 0 1 0 -3.5 0zM1573.25 483 a1.75 1.75 0 1 0 3.5 0 a1.75 1.75 0 1 0 -3.5 0zM1825.25 483 a1.75 1.75 0 1 0 3.5 0 a1.75 1.75 0 1 0 -3.5 0z" fill="black"></path><path d="M1615.25 413 a1.75 1.75 0 1 0 3.5 0 a1.75 1.75 0 1 0 -3.5 0zM1811.25 413 a1.75 1.75 0 1 0 3.5 0 a1.75 1.75 0 1 0 -3.5 0zM1629.25 399 a1.75 1.75 0 1 0 3.5 0 a1.75 1.75 0 1 0 -3.5 0zM1825.25 413 a1.75 1.75 0 1 0 3.5 0 a1.75 1.75 0 1 0 -3.5 0zM1769.25 427 a1.75 1.75 0 1 0 3.5 0 a1.75 1.75 0 1 0 -3.5 0zM1727.25 427 a1.75 1.75 0 1 0 3.5 0 a1.75 1.75 0 1 0 -3.5 0z" fill="black"></path><path d="M1139.25 539 a1.75 1.75 0 1 0 3.5 0 a1.75 1.75 0 1 0 -3.5 0zM1251.25 525 a1.75 1.75 0 1 0 3.5 0 a1.75 1.75 0 1 0 -3.5 0zM1405.25 539 a1.75 1.75 0 1 0 3.5 0 a1.75 1.75 0 1 0 -3.5 0zM1475.25 539 a1.75 1.75 0 1 0 3.5 0 a1.75 1.75 0 1 0 -3.5 0zM1685.25 525 a1.75 1.75 0 1 0 3.5 0 a1.75 1.75 0 1 0 -3.5 0zM1517.25 525 a1.75 1.75 0 1 0 3.5 0 a1.75 1.75 0 1 0 -3.5 0zM1195.25 539 a1.75 1.75 0 1 0 3.5 0 a1.75 1.75 0 1 0 -3.5 0zM1517.25 539 a1.75 1.75 0 1 0 3.5 0 a1.75 1.75 0 1 0 -3.5 0zM1167.25 525 a1.75 1.75 0 1 0 3.5 0 a1.75 1.75 0 1 0 -3.5 0zM1769.25 511 a1.75 1.75 0 1 0 3.5 0 a1.75 1.75 0 1 0 -3.5 0zM1223.25 511 a1.75 1.75 0 1 0 3.5 0 a1.75 1.75 0 1 0 -3.5 0zM1797.25 511 a1.75 1.75 0 1 0 3.5 0 a1.75 1.75 0 1 0 -3.5 0zM1111.25 553 a1.75 1.75 0 1 0 3.5 0 a1.75 1.75 0 1 0 -3.5 0zM1825.25 511 a1.75 1.75 0 1 0 3.5 0 a1.75 1.75 0 1 0 -3.5 0z" fill="black"></path><path d="M1881.25 413 a1.75 1.75 0 1 0 3.5 0 a1.75 1.75 0 1 0 -3.5 0z" fill="black"></path><path d="M1755.25 525 a1.75 1.75 0 1 0 3.5 0 a1.75 1.75 0 1 0 -3.5 0zM1755.25 539 a1.75 1.75 0 1 0 3.5 0 a1.75 1.75 0 1 0 -3.5 0zM1783.25 539 a1.75 1.75 0 1 0 3.5 0 a1.75 1.75 0 1 0 -3.5 0zM1839.25 511 a1.75 1.75 0 1 0 3.5 0 a1.75 1.75 0 1 0 -3.5 0z" fill="black"></path><path d="M1797.25 399 a1.75 1.75 0 1 0 3.5 0 a1.75 1.75 0 1 0 -3.5 0zM1839.25 413 a1.75 1.75 0 1 0 3.5 0 a1.75 1.75 0 1 0 -3.5 0z" fill="black"></path><path d="M1587.25 525 a1.75 1.75 0 1 0 3.5 0 a1.75 1.75 0 1 0 -3.5 0zM1559.25 539 a1.75 1.75 0 1 0 3.5 0 a1.75 1.75 0 1 0 -3.5 0zM1657.25 539 a1.75 1.75 0 1 0 3.5 0 a1.75 1.75 0 1 0 -3.5 0zM1671.25 553 a1.75 1.75 0 1 0 3.5 0 a1.75 1.75 0 1 0 -3.5 0zM1699.25 553 a1.75 1.75 0 1 0 3.5 0 a1.75 1.75 0 1 0 -3.5 0zM1587.25 553 a1.75 1.75 0 1 0 3.5 0 a1.75 1.75 0 1 0 -3.5 0zM1727.25 525 a1.75 1.75 0 1 0 3.5 0 a1.75 1.75 0 1 0 -3.5 0z" fill="black"></path><path d="M1419.25 385 a1.75 1.75 0 1 0 3.5 0 a1.75 1.75 0 1 0 -3.5 0zM1475.25 399 a1.75 1.75 0 1 0 3.5 0 a1.75 1.75 0 1 0 -3.5 0zM1419.25 371 a1.75 1.75 0 1 0 3.5 0 a1.75 1.75 0 1 0 -3.5 0zM1727.25 399 a1.75 1.75 0 1 0 3.5 0 a1.75 1.75 0 1 0 -3.5 0zM1461.25 413 a1.75 1.75 0 1 0 3.5 0 a1.75 1.75 0 1 0 -3.5 0zM1517.25 371 a1.75 1.75 0 1 0 3.5 0 a1.75 1.75 0 1 0 -3.5 0zM1447.25 371 a1.75 1.75 0 1 0 3.5 0 a1.75 1.75 0 1 0 -3.5 0zM1433.25 399 a1.75 1.75 0 1 0 3.5 0 a1.75 1.75 0 1 0 -3.5 0zM1769.25 399 a1.75 1.75 0 1 0 3.5 0 a1.75 1.75 0 1 0 -3.5 0zM1573.25 371 a1.75 1.75 0 1 0 3.5 0 a1.75 1.75 0 1 0 -3.5 0z" fill="black"></path><path d="M1069.25 581 a1.75 1.75 0 1 0 3.5 0 a1.75 1.75 0 1 0 -3.5 0zM1265.25 609 a1.75 1.75 0 1 0 3.5 0 a1.75 1.75 0 1 0 -3.5 0zM1293.25 553 a1.75 1.75 0 1 0 3.5 0 a1.75 1.75 0 1 0 -3.5 0zM1601.25 609 a1.75 1.75 0 1 0 3.5 0 a1.75 1.75 0 1 0 -3.5 0zM1335.25 539 a1.75 1.75 0 1 0 3.5 0 a1.75 1.75 0 1 0 -3.5 0zM1167.25 595 a1.75 1.75 0 1 0 3.5 0 a1.75 1.75 0 1 0 -3.5 0zM1293.25 595 a1.75 1.75 0 1 0 3.5 0 a1.75 1.75 0 1 0 -3.5 0zM1601.25 595 a1.75 1.75 0 1 0 3.5 0 a1.75 1.75 0 1 0 -3.5 0zM1335.25 595 a1.75 1.75 0 1 0 3.5 0 a1.75 1.75 0 1 0 -3.5 0zM1083.25 567 a1.75 1.75 0 1 0 3.5 0 a1.75 1.75 0 1 0 -3.5 0zM1181.25 553 a1.75 1.75 0 1 0 3.5 0 a1.75 1.75 0 1 0 -3.5 0zM1713.25 567 a1.75 1.75 0 1 0 3.5 0 a1.75 1.75 0 1 0 -3.5 0zM1041.25 595 a1.75 1.75 0 1 0 3.5 0 a1.75 1.75 0 1 0 -3.5 0zM1041.25 623 a1.75 1.75 0 1 0 3.5 0 a1.75 1.75 0 1 0 -3.5 0zM1153.25 637 a1.75 1.75 0 1 0 3.5 0 a1.75 1.75 0 1 0 -3.5 0zM1405.25 609 a1.75 1.75 0 1 0 3.5 0 a1.75 1.75 0 1 0 -3.5 0z" fill="black"></path><path d="M1293.25 357 a1.75 1.75 0 1 0 3.5 0 a1.75 1.75 0 1 0 -3.5 0zM1517.25 343 a1.75 1.75 0 1 0 3.5 0 a1.75 1.75 0 1 0 -3.5 0zM1181.25 343 a1.75 1.75 0 1 0 3.5 0 a1.75 1.75 0 1 0 -3.5 0zM1461.25 343 a1.75 1.75 0 1 0 3.5 0 a1.75 1.75 0 1 0 -3.5 0zM1489.25 343 a1.75 1.75 0 1 0 3.5 0 a1.75 1.75 0 1 0 -3.5 0zM1685.25 357 a1.75 1.75 0 1 0 3.5 0 a1.75 1.75 0 1 0 -3.5 0zM1363.25 343 a1.75 1.75 0 1 0 3.5 0 a1.75 1.75 0 1 0 -3.5 0zM1699.25 357 a1.75 1.75 0 1 0 3.5 0 a1.75 1.75 0 1 0 -3.5 0zM1573.25 343 a1.75 1.75 0 1 0 3.5 0 a1.75 1.75 0 1 0 -3.5 0zM1643.25 357 a1.75 1.75 0 1 0 3.5 0 a1.75 1.75 0 1 0 -3.5 0zM1615.25 371 a1.75 1.75 0 1 0 3.5 0 a1.75 1.75 0 1 0 -3.5 0zM1195.25 357 a1.75 1.75 0 1 0 3.5 0 a1.75 1.75 0 1 0 -3.5 0z" fill="black"></path><path d="M1083.25 651 a1.75 1.75 0 1 0 3.5 0 a1.75 1.75 0 1 0 -3.5 0zM1657.25 609 a1.75 1.75 0 1 0 3.5 0 a1.75 1.75 0 1 0 -3.5 0zM1237.25 651 a1.75 1.75 0 1 0 3.5 0 a1.75 1.75 0 1 0 -3.5 0zM1461.25 609 a1.75 1.75 0 1 0 3.5 0 a1.75 1.75 0 1 0 -3.5 0zM1853.25 553 a1.75 1.75 0 1 0 3.5 0 a1.75 1.75 0 1 0 -3.5 0zM1391.25 637 a1.75 1.75 0 1 0 3.5 0 a1.75 1.75 0 1 0 -3.5 0zM1069.25 637 a1.75 1.75 0 1 0 3.5 0 a1.75 1.75 0 1 0 -3.5 0zM1601.25 623 a1.75 1.75 0 1 0 3.5 0 a1.75 1.75 0 1 0 -3.5 0zM1475.25 609 a1.75 1.75 0 1 0 3.5 0 a1.75 1.75 0 1 0 -3.5 0zM1363.25 623 a1.75 1.75 0 1 0 3.5 0 a1.75 1.75 0 1 0 -3.5 0zM1195.25 651 a1.75 1.75 0 1 0 3.5 0 a1.75 1.75 0 1 0 -3.5 0zM1531.25 637 a1.75 1.75 0 1 0 3.5 0 a1.75 1.75 0 1 0 -3.5 0zM1517.25 609 a1.75 1.75 0 1 0 3.5 0 a1.75 1.75 0 1 0 -3.5 0zM1545.25 637 a1.75 1.75 0 1 0 3.5 0 a1.75 1.75 0 1 0 -3.5 0zM1167.25 637 a1.75 1.75 0 1 0 3.5 0 a1.75 1.75 0 1 0 -3.5 0zM1083.25 623 a1.75 1.75 0 1 0 3.5 0 a1.75 1.75 0 1 0 -3.5 0z" fill="black"></path><path d="M1055.25 343 a1.75 1.75 0 1 0 3.5 0 a1.75 1.75 0 1 0 -3.5 0zM1111.25 315 a1.75 1.75 0 1 0 3.5 0 a1.75 1.75 0 1 0 -3.5 0zM999.25 273 a1.75 1.75 0 1 0 3.5 0 a1.75 1.75 0 1 0 -3.5 0zM1279.25 315 a1.75 1.75 0 1 0 3.5 0 a1.75 1.75 0 1 0 -3.5 0zM1755.25 343 a1.75 1.75 0 1 0 3.5 0 a1.75 1.75 0 1 0 -3.5 0zM1769.25 329 a1.75 1.75 0 1 0 3.5 0 a1.75 1.75 0 1 0 -3.5 0zM1251.25 315 a1.75 1.75 0 1 0 3.5 0 a1.75 1.75 0 1 0 -3.5 0zM985.25 315 a1.75 1.75 0 1 0 3.5 0 a1.75 1.75 0 1 0 -3.5 0zM1041.25 357 a1.75 1.75 0 1 0 3.5 0 a1.75 1.75 0 1 0 -3.5 0zM1363.25 315 a1.75 1.75 0 1 0 3.5 0 a1.75 1.75 0 1 0 -3.5 0zM1419.25 343 a1.75 1.75 0 1 0 3.5 0 a1.75 1.75 0 1 0 -3.5 0zM1839.25 343 a1.75 1.75 0 1 0 3.5 0 a1.75 1.75 0 1 0 -3.5 0zM1125.25 315 a1.75 1.75 0 1 0 3.5 0 a1.75 1.75 0 1 0 -3.5 0zM1167.25 287 a1.75 1.75 0 1 0 3.5 0 a1.75 1.75 0 1 0 -3.5 0zM1489.25 329 a1.75 1.75 0 1 0 3.5 0 a1.75 1.75 0 1 0 -3.5 0z" fill="black"></path><path d="M1083.25 665 a1.75 1.75 0 1 0 3.5 0 a1.75 1.75 0 1 0 -3.5 0zM1097.25 679 a1.75 1.75 0 1 0 3.5 0 a1.75 1.75 0 1 0 -3.5 0zM1111.25 679 a1.75 1.75 0 1 0 3.5 0 a1.75 1.75 0 1 0 -3.5 0zM1615.25 651 a1.75 1.75 0 1 0 3.5 0 a1.75 1.75 0 1 0 -3.5 0zM1125.25 679 a1.75 1.75 0 1 0 3.5 0 a1.75 1.75 0 1 0 -3.5 0zM1629.25 651 a1.75 1.75 0 1 0 3.5 0 a1.75 1.75 0 1 0 -3.5 0zM1139.25 679 a1.75 1.75 0 1 0 3.5 0 a1.75 1.75 0 1 0 -3.5 0zM1265.25 651 a1.75 1.75 0 1 0 3.5 0 a1.75 1.75 0 1 0 -3.5 0zM1741.25 595 a1.75 1.75 0 1 0 3.5 0 a1.75 1.75 0 1 0 -3.5 0z" fill="black"></path><path d="M1825.25 329 a1.75 1.75 0 1 0 3.5 0 a1.75 1.75 0 1 0 -3.5 0z" fill="black"></path><path d="M1195.25 679 a1.75 1.75 0 1 0 3.5 0 a1.75 1.75 0 1 0 -3.5 0zM1335.25 679 a1.75 1.75 0 1 0 3.5 0 a1.75 1.75 0 1 0 -3.5 0zM1377.25 679 a1.75 1.75 0 1 0 3.5 0 a1.75 1.75 0 1 0 -3.5 0zM1657.25 651 a1.75 1.75 0 1 0 3.5 0 a1.75 1.75 0 1 0 -3.5 0zM1489.25 679 a1.75 1.75 0 1 0 3.5 0 a1.75 1.75 0 1 0 -3.5 0zM1545.25 679 a1.75 1.75 0 1 0 3.5 0 a1.75 1.75 0 1 0 -3.5 0zM1559.25 679 a1.75 1.75 0 1 0 3.5 0 a1.75 1.75 0 1 0 -3.5 0z" fill="black"></path><path d="M1041.25 693 a1.75 1.75 0 1 0 3.5 0 a1.75 1.75 0 1 0 -3.5 0zM1195.25 707 a1.75 1.75 0 1 0 3.5 0 a1.75 1.75 0 1 0 -3.5 0zM1055.25 707 a1.75 1.75 0 1 0 3.5 0 a1.75 1.75 0 1 0 -3.5 0zM1027.25 679 a1.75 1.75 0 1 0 3.5 0 a1.75 1.75 0 1 0 -3.5 0zM1069.25 707 a1.75 1.75 0 1 0 3.5 0 a1.75 1.75 0 1 0 -3.5 0zM1153.25 707 a1.75 1.75 0 1 0 3.5 0 a1.75 1.75 0 1 0 -3.5 0zM1839.25 609 a1.75 1.75 0 1 0 3.5 0 a1.75 1.75 0 1 0 -3.5 0zM1279.25 693 a1.75 1.75 0 1 0 3.5 0 a1.75 1.75 0 1 0 -3.5 0zM1587.25 679 a1.75 1.75 0 1 0 3.5 0 a1.75 1.75 0 1 0 -3.5 0zM1601.25 693 a1.75 1.75 0 1 0 3.5 0 a1.75 1.75 0 1 0 -3.5 0zM1615.25 693 a1.75 1.75 0 1 0 3.5 0 a1.75 1.75 0 1 0 -3.5 0z" fill="black"></path><path d="M1377.25 287 a1.75 1.75 0 1 0 3.5 0 a1.75 1.75 0 1 0 -3.5 0zM1419.25 287 a1.75 1.75 0 1 0 3.5 0 a1.75 1.75 0 1 0 -3.5 0zM1629.25 315 a1.75 1.75 0 1 0 3.5 0 a1.75 1.75 0 1 0 -3.5 0zM1671.25 315 a1.75 1.75 0 1 0 3.5 0 a1.75 1.75 0 1 0 -3.5 0zM1797.25 329 a1.75 1.75 0 1 0 3.5 0 a1.75 1.75 0 1 0 -3.5 0zM1727.25 315 a1.75 1.75 0 1 0 3.5 0 a1.75 1.75 0 1 0 -3.5 0zM1531.25 301 a1.75 1.75 0 1 0 3.5 0 a1.75 1.75 0 1 0 -3.5 0zM1433.25 273 a1.75 1.75 0 1 0 3.5 0 a1.75 1.75 0 1 0 -3.5 0zM1531.25 273 a1.75 1.75 0 1 0 3.5 0 a1.75 1.75 0 1 0 -3.5 0zM1867.25 301 a1.75 1.75 0 1 0 3.5 0 a1.75 1.75 0 1 0 -3.5 0z" fill="black"></path><path d="M887.25 721 a1.75 1.75 0 1 0 3.5 0 a1.75 1.75 0 1 0 -3.5 0zM789.25 735 a1.75 1.75 0 1 0 3.5 0 a1.75 1.75 0 1 0 -3.5 0zM1251.25 721 a1.75 1.75 0 1 0 3.5 0 a1.75 1.75 0 1 0 -3.5 0zM1293.25 721 a1.75 1.75 0 1 0 3.5 0 a1.75 1.75 0 1 0 -3.5 0zM971.25 735 a1.75 1.75 0 1 0 3.5 0 a1.75 1.75 0 1 0 -3.5 0zM1181.25 749 a1.75 1.75 0 1 0 3.5 0 a1.75 1.75 0 1 0 -3.5 0zM789.25 749 a1.75 1.75 0 1 0 3.5 0 a1.75 1.75 0 1 0 -3.5 0zM1209.25 707 a1.75 1.75 0 1 0 3.5 0 a1.75 1.75 0 1 0 -3.5 0zM1013.25 749 a1.75 1.75 0 1 0 3.5 0 a1.75 1.75 0 1 0 -3.5 0zM971.25 721 a1.75 1.75 0 1 0 3.5 0 a1.75 1.75 0 1 0 -3.5 0zM873.25 707 a1.75 1.75 0 1 0 3.5 0 a1.75 1.75 0 1 0 -3.5 0zM803.25 679 a1.75 1.75 0 1 0 3.5 0 a1.75 1.75 0 1 0 -3.5 0zM901.25 707 a1.75 1.75 0 1 0 3.5 0 a1.75 1.75 0 1 0 -3.5 0zM859.25 665 a1.75 1.75 0 1 0 3.5 0 a1.75 1.75 0 1 0 -3.5 0zM789.25 651 a1.75 1.75 0 1 0 3.5 0 a1.75 1.75 0 1 0 -3.5 0zM1027.25 721 a1.75 1.75 0 1 0 3.5 0 a1.75 1.75 0 1 0 -3.5 0zM1027.25 763 a1.75 1.75 0 1 0 3.5 0 a1.75 1.75 0 1 0 -3.5 0zM1629.25 693 a1.75 1.75 0 1 0 3.5 0 a1.75 1.75 0 1 0 -3.5 0zM1321.25 721 a1.75 1.75 0 1 0 3.5 0 a1.75 1.75 0 1 0 -3.5 0z" fill="black"></path><path d="M1615.25 301 a1.75 1.75 0 1 0 3.5 0 a1.75 1.75 0 1 0 -3.5 0zM1685.25 287 a1.75 1.75 0 1 0 3.5 0 a1.75 1.75 0 1 0 -3.5 0zM1741.25 287 a1.75 1.75 0 1 0 3.5 0 a1.75 1.75 0 1 0 -3.5 0zM1615.25 287 a1.75 1.75 0 1 0 3.5 0 a1.75 1.75 0 1 0 -3.5 0zM1797.25 287 a1.75 1.75 0 1 0 3.5 0 a1.75 1.75 0 1 0 -3.5 0zM1797.25 273 a1.75 1.75 0 1 0 3.5 0 a1.75 1.75 0 1 0 -3.5 0z" fill="black"></path><path d="M1223.25 749 a1.75 1.75 0 1 0 3.5 0 a1.75 1.75 0 1 0 -3.5 0zM1139.25 763 a1.75 1.75 0 1 0 3.5 0 a1.75 1.75 0 1 0 -3.5 0zM1559.25 735 a1.75 1.75 0 1 0 3.5 0 a1.75 1.75 0 1 0 -3.5 0zM1265.25 735 a1.75 1.75 0 1 0 3.5 0 a1.75 1.75 0 1 0 -3.5 0zM1335.25 721 a1.75 1.75 0 1 0 3.5 0 a1.75 1.75 0 1 0 -3.5 0z" fill="black"></path><path d="M1769.25 665 a1.75 1.75 0 1 0 3.5 0 a1.75 1.75 0 1 0 -3.5 0z" fill="black"></path><path d="M1867.25 273 a1.75 1.75 0 1 0 3.5 0 a1.75 1.75 0 1 0 -3.5 0z" fill="black"></path><path d="M1209.25 763 a1.75 1.75 0 1 0 3.5 0 a1.75 1.75 0 1 0 -3.5 0zM1727.25 693 a1.75 1.75 0 1 0 3.5 0 a1.75 1.75 0 1 0 -3.5 0zM1111.25 777 a1.75 1.75 0 1 0 3.5 0 a1.75 1.75 0 1 0 -3.5 0zM1167.25 791 a1.75 1.75 0 1 0 3.5 0 a1.75 1.75 0 1 0 -3.5 0zM1265.25 791 a1.75 1.75 0 1 0 3.5 0 a1.75 1.75 0 1 0 -3.5 0zM1419.25 763 a1.75 1.75 0 1 0 3.5 0 a1.75 1.75 0 1 0 -3.5 0zM1377.25 749 a1.75 1.75 0 1 0 3.5 0 a1.75 1.75 0 1 0 -3.5 0zM1587.25 749 a1.75 1.75 0 1 0 3.5 0 a1.75 1.75 0 1 0 -3.5 0zM1545.25 749 a1.75 1.75 0 1 0 3.5 0 a1.75 1.75 0 1 0 -3.5 0z" fill="black"></path><path d="M803.25 259 a1.75 1.75 0 1 0 3.5 0 a1.75 1.75 0 1 0 -3.5 0zM1867.25 245 a1.75 1.75 0 1 0 3.5 0 a1.75 1.75 0 1 0 -3.5 0zM1069.25 217 a1.75 1.75 0 1 0 3.5 0 a1.75 1.75 0 1 0 -3.5 0zM1027.25 231 a1.75 1.75 0 1 0 3.5 0 a1.75 1.75 0 1 0 -3.5 0zM1461.25 203 a1.75 1.75 0 1 0 3.5 0 a1.75 1.75 0 1 0 -3.5 0zM887.25 217 a1.75 1.75 0 1 0 3.5 0 a1.75 1.75 0 1 0 -3.5 0zM1209.25 203 a1.75 1.75 0 1 0 3.5 0 a1.75 1.75 0 1 0 -3.5 0zM1251.25 245 a1.75 1.75 0 1 0 3.5 0 a1.75 1.75 0 1 0 -3.5 0zM1419.25 217 a1.75 1.75 0 1 0 3.5 0 a1.75 1.75 0 1 0 -3.5 0zM901.25 245 a1.75 1.75 0 1 0 3.5 0 a1.75 1.75 0 1 0 -3.5 0zM789.25 287 a1.75 1.75 0 1 0 3.5 0 a1.75 1.75 0 1 0 -3.5 0zM1601.25 231 a1.75 1.75 0 1 0 3.5 0 a1.75 1.75 0 1 0 -3.5 0zM1699.25 245 a1.75 1.75 0 1 0 3.5 0 a1.75 1.75 0 1 0 -3.5 0zM1027.25 273 a1.75 1.75 0 1 0 3.5 0 a1.75 1.75 0 1 0 -3.5 0zM943.25 259 a1.75 1.75 0 1 0 3.5 0 a1.75 1.75 0 1 0 -3.5 0zM817.25 245 a1.75 1.75 0 1 0 3.5 0 a1.75 1.75 0 1 0 -3.5 0zM1657.25 259 a1.75 1.75 0 1 0 3.5 0 a1.75 1.75 0 1 0 -3.5 0zM1335.25 203 a1.75 1.75 0 1 0 3.5 0 a1.75 1.75 0 1 0 -3.5 0zM1097.25 231 a1.75 1.75 0 1 0 3.5 0 a1.75 1.75 0 1 0 -3.5 0zM1349.25 203 a1.75 1.75 0 1 0 3.5 0 a1.75 1.75 0 1 0 -3.5 0zM789.25 189 a1.75 1.75 0 1 0 3.5 0 a1.75 1.75 0 1 0 -3.5 0z" fill="black"></path><path d="M1419.25 791 a1.75 1.75 0 1 0 3.5 0 a1.75 1.75 0 1 0 -3.5 0zM1629.25 763 a1.75 1.75 0 1 0 3.5 0 a1.75 1.75 0 1 0 -3.5 0zM1503.25 791 a1.75 1.75 0 1 0 3.5 0 a1.75 1.75 0 1 0 -3.5 0zM1433.25 805 a1.75 1.75 0 1 0 3.5 0 a1.75 1.75 0 1 0 -3.5 0zM1475.25 763 a1.75 1.75 0 1 0 3.5 0 a1.75 1.75 0 1 0 -3.5 0zM1769.25 693 a1.75 1.75 0 1 0 3.5 0 a1.75 1.75 0 1 0 -3.5 0zM1531.25 791 a1.75 1.75 0 1 0 3.5 0 a1.75 1.75 0 1 0 -3.5 0zM1503.25 763 a1.75 1.75 0 1 0 3.5 0 a1.75 1.75 0 1 0 -3.5 0zM1321.25 791 a1.75 1.75 0 1 0 3.5 0 a1.75 1.75 0 1 0 -3.5 0zM1615.25 749 a1.75 1.75 0 1 0 3.5 0 a1.75 1.75 0 1 0 -3.5 0z" fill="black"></path><path d="M1881.25 679 a1.75 1.75 0 1 0 3.5 0 a1.75 1.75 0 1 0 -3.5 0z" fill="black"></path><path d="M1153.25 203 a1.75 1.75 0 1 0 3.5 0 a1.75 1.75 0 1 0 -3.5 0zM1307.25 189 a1.75 1.75 0 1 0 3.5 0 a1.75 1.75 0 1 0 -3.5 0zM1839.25 217 a1.75 1.75 0 1 0 3.5 0 a1.75 1.75 0 1 0 -3.5 0zM1307.25 161 a1.75 1.75 0 1 0 3.5 0 a1.75 1.75 0 1 0 -3.5 0zM985.25 175 a1.75 1.75 0 1 0 3.5 0 a1.75 1.75 0 1 0 -3.5 0zM1573.25 175 a1.75 1.75 0 1 0 3.5 0 a1.75 1.75 0 1 0 -3.5 0zM1419.25 161 a1.75 1.75 0 1 0 3.5 0 a1.75 1.75 0 1 0 -3.5 0zM1475.25 203 a1.75 1.75 0 1 0 3.5 0 a1.75 1.75 0 1 0 -3.5 0zM1433.25 189 a1.75 1.75 0 1 0 3.5 0 a1.75 1.75 0 1 0 -3.5 0zM1139.25 161 a1.75 1.75 0 1 0 3.5 0 a1.75 1.75 0 1 0 -3.5 0zM1797.25 203 a1.75 1.75 0 1 0 3.5 0 a1.75 1.75 0 1 0 -3.5 0zM999.25 189 a1.75 1.75 0 1 0 3.5 0 a1.75 1.75 0 1 0 -3.5 0zM1839.25 245 a1.75 1.75 0 1 0 3.5 0 a1.75 1.75 0 1 0 -3.5 0zM1601.25 161 a1.75 1.75 0 1 0 3.5 0 a1.75 1.75 0 1 0 -3.5 0z" fill="black"></path></mask></defs></svg>