<svg xmlns="http://www.w3.org/2000/svg" version="1.1" xmlns:xlink="http://www.w3.org/1999/xlink" xmlns:svgjs="http://svgjs.com/svgjs" width="1900" height="900" preserveAspectRatio="none" viewBox="0 0 1900 900"><g mask="url(&quot;#SvgjsMask1426&quot;)" fill="none"><rect width="1900" height="900" x="0" y="0" fill="rgba(23, 23, 23, 1)"></rect><g mask="url(&quot;#SvgjsMask1428&quot;)"><path d="M1539 477L1521 459L1503 459L1485 459L1467 459M1593 477L1575 459L1557 459L1539 459L1521 441L1503 423M1629 459L1611 477M1701 441L1683 459L1665 477L1647 477L1629 495M1431 477L1413 495M1827 459L1809 477M1845 459L1827 477M1917 459L1899 459L1881 459L1863 459L1845 459L1827 459L1809 459L1791 459L1773 441L1755 441L1737 441L1719 441L1701 441L1683 441L1665 459L1647 459L1629 459L1611 459L1593 477L1575 477L1557 477L1539 477L1521 477L1503 477L1485 477L1467 477L1449 477L1431 477L1413 477L1395 477" stroke="url(#SvgjsLinearGradient1427)" stroke-width="3"></path><path d="M1390.5 477 a4.5 4.5 0 1 0 9 0 a4.5 4.5 0 1 0 -9 0zM1462.5 459 a4.5 4.5 0 1 0 9 0 a4.5 4.5 0 1 0 -9 0zM1498.5 423 a4.5 4.5 0 1 0 9 0 a4.5 4.5 0 1 0 -9 0zM1606.5 477 a4.5 4.5 0 1 0 9 0 a4.5 4.5 0 1 0 -9 0zM1624.5 495 a4.5 4.5 0 1 0 9 0 a4.5 4.5 0 1 0 -9 0zM1408.5 495 a4.5 4.5 0 1 0 9 0 a4.5 4.5 0 1 0 -9 0zM1804.5 477 a4.5 4.5 0 1 0 9 0 a4.5 4.5 0 1 0 -9 0zM1822.5 477 a4.5 4.5 0 1 0 9 0 a4.5 4.5 0 1 0 -9 0z" fill="url(#SvgjsLinearGradient1427)"></path><path d="M1053 333L1035 351L1017 351M1503 387L1485 387L1467 387L1449 387L1431 405L1413 405L1395 405M1107 351L1089 351L1071 351L1053 351M1539 387L1521 405L1503 405L1485 405L1467 405L1449 405L1431 423L1413 423L1395 423L1377 423M1017 333L999 333L981 333L963 351L945 351M1395 369L1377 351L1359 351L1341 351L1323 351M1377 369L1359 387L1341 387L1323 387L1305 387L1287 387L1269 387L1251 387L1233 387L1215 387L1197 387L1179 387L1161 387L1143 387L1125 387L1107 387L1089 387L1071 387L1053 387L1035 405M1557 387L1539 369L1521 369L1503 369M999 351L981 369L963 369L945 369M1647 423L1629 441L1611 441L1593 441L1575 441L1557 441M1179 351L1161 369M1431 369L1413 387L1395 387M1143 351L1125 369M1917 441L1899 441L1881 441L1863 441L1845 441L1827 441L1809 441L1791 441L1773 423L1755 423L1737 423L1719 423L1701 423L1683 423L1665 423L1647 423L1629 423L1611 423L1593 405L1575 405L1557 387L1539 387L1521 387L1503 387L1485 369L1467 369L1449 369L1431 369L1413 369L1395 369L1377 369L1359 369L1341 369L1323 369L1305 351L1287 351L1269 351L1251 351L1233 351L1215 351L1197 351L1179 351L1161 351L1143 351L1125 351L1107 351L1089 333L1071 333L1053 333L1035 333L1017 333L999 351L981 351" stroke="url(#SvgjsLinearGradient1427)" stroke-width="3"></path><path d="M976.5 351 a4.5 4.5 0 1 0 9 0 a4.5 4.5 0 1 0 -9 0zM1012.5 351 a4.5 4.5 0 1 0 9 0 a4.5 4.5 0 1 0 -9 0zM1390.5 405 a4.5 4.5 0 1 0 9 0 a4.5 4.5 0 1 0 -9 0zM1048.5 351 a4.5 4.5 0 1 0 9 0 a4.5 4.5 0 1 0 -9 0zM1372.5 423 a4.5 4.5 0 1 0 9 0 a4.5 4.5 0 1 0 -9 0zM940.5 351 a4.5 4.5 0 1 0 9 0 a4.5 4.5 0 1 0 -9 0zM1318.5 351 a4.5 4.5 0 1 0 9 0 a4.5 4.5 0 1 0 -9 0zM1030.5 405 a4.5 4.5 0 1 0 9 0 a4.5 4.5 0 1 0 -9 0zM1498.5 369 a4.5 4.5 0 1 0 9 0 a4.5 4.5 0 1 0 -9 0zM940.5 369 a4.5 4.5 0 1 0 9 0 a4.5 4.5 0 1 0 -9 0zM1552.5 441 a4.5 4.5 0 1 0 9 0 a4.5 4.5 0 1 0 -9 0zM1156.5 369 a4.5 4.5 0 1 0 9 0 a4.5 4.5 0 1 0 -9 0zM1390.5 387 a4.5 4.5 0 1 0 9 0 a4.5 4.5 0 1 0 -9 0zM1120.5 369 a4.5 4.5 0 1 0 9 0 a4.5 4.5 0 1 0 -9 0z" fill="url(#SvgjsLinearGradient1427)"></path><path d="M1881 495L1863 477L1845 477M1791 477L1773 495L1755 495M1773 477L1755 477M1917 477L1899 495L1881 495L1863 495L1845 495L1827 495L1809 495L1791 477L1773 477L1755 459L1737 459L1719 477L1701 477" stroke="url(#SvgjsLinearGradient1427)" stroke-width="3"></path><path d="M1696.5 477 a4.5 4.5 0 1 0 9 0 a4.5 4.5 0 1 0 -9 0zM1840.5 477 a4.5 4.5 0 1 0 9 0 a4.5 4.5 0 1 0 -9 0zM1750.5 495 a4.5 4.5 0 1 0 9 0 a4.5 4.5 0 1 0 -9 0zM1750.5 477 a4.5 4.5 0 1 0 9 0 a4.5 4.5 0 1 0 -9 0z" fill="url(#SvgjsLinearGradient1427)"></path><path d="M1917 423L1899 423L1881 423L1863 423L1845 423L1827 423L1809 423L1791 423L1773 405L1755 405L1737 405L1719 405L1701 405L1683 405" stroke="url(#SvgjsLinearGradient1427)" stroke-width="3"></path><path d="M1678.5 405 a4.5 4.5 0 1 0 9 0 a4.5 4.5 0 1 0 -9 0z" fill="url(#SvgjsLinearGradient1427)"></path><path d="M1845 405L1827 387M1863 405L1845 387M1881 405L1863 387M1917 405L1899 405L1881 405L1863 405L1845 405L1827 405L1809 405L1791 405L1773 387L1755 387L1737 387L1719 387L1701 387L1683 387L1665 387L1647 387" stroke="url(#SvgjsLinearGradient1427)" stroke-width="3"></path><path d="M1642.5 387 a4.5 4.5 0 1 0 9 0 a4.5 4.5 0 1 0 -9 0zM1822.5 387 a4.5 4.5 0 1 0 9 0 a4.5 4.5 0 1 0 -9 0zM1840.5 387 a4.5 4.5 0 1 0 9 0 a4.5 4.5 0 1 0 -9 0zM1858.5 387 a4.5 4.5 0 1 0 9 0 a4.5 4.5 0 1 0 -9 0z" fill="url(#SvgjsLinearGradient1427)"></path><path d="M1629 513L1611 531L1593 531L1575 531L1557 531M1593 495L1575 513L1557 513L1539 513L1521 513L1503 513L1485 513M1827 513L1809 531L1791 531M1701 513L1683 531M1719 513L1701 495L1683 495L1665 495L1647 495M1647 513L1629 531M1917 513L1899 513L1881 513L1863 513L1845 513L1827 513L1809 513L1791 513L1773 513L1755 513L1737 513L1719 513L1701 513L1683 513L1665 513L1647 513L1629 513L1611 495L1593 495L1575 495L1557 495L1539 495L1521 495L1503 495L1485 495" stroke="url(#SvgjsLinearGradient1427)" stroke-width="3"></path><path d="M1480.5 495 a4.5 4.5 0 1 0 9 0 a4.5 4.5 0 1 0 -9 0zM1552.5 531 a4.5 4.5 0 1 0 9 0 a4.5 4.5 0 1 0 -9 0zM1480.5 513 a4.5 4.5 0 1 0 9 0 a4.5 4.5 0 1 0 -9 0zM1786.5 531 a4.5 4.5 0 1 0 9 0 a4.5 4.5 0 1 0 -9 0zM1678.5 531 a4.5 4.5 0 1 0 9 0 a4.5 4.5 0 1 0 -9 0zM1642.5 495 a4.5 4.5 0 1 0 9 0 a4.5 4.5 0 1 0 -9 0zM1624.5 531 a4.5 4.5 0 1 0 9 0 a4.5 4.5 0 1 0 -9 0z" fill="url(#SvgjsLinearGradient1427)"></path><path d="M1071 315L1053 315L1035 315L1017 315L999 315L981 315L963 315L945 315L927 315M1125 315L1107 297L1089 297L1071 297M1719 369L1701 351L1683 351L1665 351M1161 333L1143 315L1125 297L1107 279L1089 261L1071 261L1053 261L1035 261L1017 261L999 279L981 279L963 279L945 279L927 279M1575 351L1557 369M1665 369L1647 369L1629 369M1359 333L1341 315L1323 315L1305 297M1215 315L1197 297L1179 297L1161 297L1143 297M1251 315L1233 297L1215 297L1197 279L1179 279L1161 279L1143 279M1413 351L1395 351M1737 369L1719 351M1233 315L1215 333L1197 333M1809 369L1791 387M1917 387L1899 387L1881 369L1863 369L1845 369L1827 369L1809 369L1791 369L1773 369L1755 369L1737 369L1719 369L1701 369L1683 369L1665 369L1647 351L1629 351L1611 351L1593 351L1575 351L1557 351L1539 351L1521 351L1503 351L1485 351L1467 351L1449 351L1431 351L1413 351L1395 333L1377 333L1359 333L1341 333L1323 333L1305 333L1287 333L1269 315L1251 315L1233 315L1215 315L1197 315L1179 333L1161 333L1143 333L1125 315L1107 315L1089 315L1071 315L1053 297L1035 297L1017 297L999 297L981 297" stroke="url(#SvgjsLinearGradient1427)" stroke-width="3"></path><path d="M976.5 297 a4.5 4.5 0 1 0 9 0 a4.5 4.5 0 1 0 -9 0zM922.5 315 a4.5 4.5 0 1 0 9 0 a4.5 4.5 0 1 0 -9 0zM1066.5 297 a4.5 4.5 0 1 0 9 0 a4.5 4.5 0 1 0 -9 0zM1660.5 351 a4.5 4.5 0 1 0 9 0 a4.5 4.5 0 1 0 -9 0zM922.5 279 a4.5 4.5 0 1 0 9 0 a4.5 4.5 0 1 0 -9 0zM1552.5 369 a4.5 4.5 0 1 0 9 0 a4.5 4.5 0 1 0 -9 0zM1624.5 369 a4.5 4.5 0 1 0 9 0 a4.5 4.5 0 1 0 -9 0zM1300.5 297 a4.5 4.5 0 1 0 9 0 a4.5 4.5 0 1 0 -9 0zM1138.5 297 a4.5 4.5 0 1 0 9 0 a4.5 4.5 0 1 0 -9 0zM1138.5 279 a4.5 4.5 0 1 0 9 0 a4.5 4.5 0 1 0 -9 0zM1390.5 351 a4.5 4.5 0 1 0 9 0 a4.5 4.5 0 1 0 -9 0zM1714.5 351 a4.5 4.5 0 1 0 9 0 a4.5 4.5 0 1 0 -9 0zM1192.5 333 a4.5 4.5 0 1 0 9 0 a4.5 4.5 0 1 0 -9 0zM1786.5 387 a4.5 4.5 0 1 0 9 0 a4.5 4.5 0 1 0 -9 0z" fill="url(#SvgjsLinearGradient1427)"></path><path d="M1179 513L1161 495L1143 495L1125 495L1107 477L1089 459L1071 441L1053 441L1035 441L1017 441L999 441L981 441L963 441M1287 513L1269 531L1251 531L1233 531L1215 531L1197 531L1179 531L1161 531M1233 513L1215 495L1197 495L1179 495L1161 477L1143 477L1125 459L1107 459M1449 549L1431 531L1413 531L1395 513L1377 495M1251 513L1233 495L1215 477L1197 477L1179 459L1161 459L1143 459M1773 531L1755 549L1737 549L1719 549M1791 549L1773 549M1125 513L1107 513L1089 513L1071 513L1053 513L1035 513L1017 513L999 513L981 513L963 513L945 495L927 495L909 495M1107 495L1089 495M1143 513L1125 531L1107 531M1719 531L1701 531M1395 531L1377 531L1359 531L1341 531L1323 531M1917 531L1899 531L1881 531L1863 549L1845 549L1827 549L1809 549L1791 549L1773 531L1755 531L1737 531L1719 531L1701 549L1683 549L1665 549L1647 549L1629 549L1611 549L1593 549L1575 549L1557 549L1539 549L1521 549L1503 549L1485 549L1467 549L1449 549L1431 549L1413 549L1395 531L1377 513L1359 513L1341 513L1323 513L1305 513L1287 513L1269 513L1251 513L1233 513L1215 513L1197 513L1179 513L1161 513L1143 513L1125 513L1107 495L1089 477L1071 477" stroke="url(#SvgjsLinearGradient1427)" stroke-width="3"></path><path d="M1066.5 477 a4.5 4.5 0 1 0 9 0 a4.5 4.5 0 1 0 -9 0zM958.5 441 a4.5 4.5 0 1 0 9 0 a4.5 4.5 0 1 0 -9 0zM1156.5 531 a4.5 4.5 0 1 0 9 0 a4.5 4.5 0 1 0 -9 0zM1102.5 459 a4.5 4.5 0 1 0 9 0 a4.5 4.5 0 1 0 -9 0zM1372.5 495 a4.5 4.5 0 1 0 9 0 a4.5 4.5 0 1 0 -9 0zM1138.5 459 a4.5 4.5 0 1 0 9 0 a4.5 4.5 0 1 0 -9 0zM1714.5 549 a4.5 4.5 0 1 0 9 0 a4.5 4.5 0 1 0 -9 0zM1768.5 549 a4.5 4.5 0 1 0 9 0 a4.5 4.5 0 1 0 -9 0zM904.5 495 a4.5 4.5 0 1 0 9 0 a4.5 4.5 0 1 0 -9 0zM1084.5 495 a4.5 4.5 0 1 0 9 0 a4.5 4.5 0 1 0 -9 0zM1102.5 531 a4.5 4.5 0 1 0 9 0 a4.5 4.5 0 1 0 -9 0zM1696.5 531 a4.5 4.5 0 1 0 9 0 a4.5 4.5 0 1 0 -9 0zM1318.5 531 a4.5 4.5 0 1 0 9 0 a4.5 4.5 0 1 0 -9 0z" fill="url(#SvgjsLinearGradient1427)"></path><path d="M1755 333L1737 351M1845 351L1827 333M1809 351L1791 333M1863 351L1845 333M1773 351L1755 351M1917 369L1899 369L1881 351L1863 351L1845 351L1827 351L1809 351L1791 351L1773 351L1755 333L1737 333L1719 333L1701 333L1683 333L1665 333L1647 333L1629 333L1611 333L1593 333L1575 333L1557 333L1539 333L1521 333L1503 333L1485 333L1467 333L1449 333L1431 333L1413 333L1395 315L1377 315" stroke="url(#SvgjsLinearGradient1427)" stroke-width="3"></path><path d="M1372.5 315 a4.5 4.5 0 1 0 9 0 a4.5 4.5 0 1 0 -9 0zM1732.5 351 a4.5 4.5 0 1 0 9 0 a4.5 4.5 0 1 0 -9 0zM1822.5 333 a4.5 4.5 0 1 0 9 0 a4.5 4.5 0 1 0 -9 0zM1786.5 333 a4.5 4.5 0 1 0 9 0 a4.5 4.5 0 1 0 -9 0zM1840.5 333 a4.5 4.5 0 1 0 9 0 a4.5 4.5 0 1 0 -9 0zM1750.5 351 a4.5 4.5 0 1 0 9 0 a4.5 4.5 0 1 0 -9 0z" fill="url(#SvgjsLinearGradient1427)"></path><path d="M1305 549L1287 567L1269 567M1323 549L1305 567M1413 567L1395 567L1377 567L1359 567M1341 549L1323 567M1917 549L1899 549L1881 549L1863 567L1845 567L1827 567L1809 567L1791 567L1773 567L1755 567L1737 567L1719 567L1701 567L1683 567L1665 567L1647 567L1629 567L1611 567L1593 567L1575 567L1557 567L1539 567L1521 567L1503 567L1485 567L1467 567L1449 567L1431 567L1413 567L1395 549L1377 549L1359 549L1341 549L1323 549L1305 549L1287 549" stroke="url(#SvgjsLinearGradient1427)" stroke-width="3"></path><path d="M1282.5 549 a4.5 4.5 0 1 0 9 0 a4.5 4.5 0 1 0 -9 0zM1264.5 567 a4.5 4.5 0 1 0 9 0 a4.5 4.5 0 1 0 -9 0zM1300.5 567 a4.5 4.5 0 1 0 9 0 a4.5 4.5 0 1 0 -9 0zM1354.5 567 a4.5 4.5 0 1 0 9 0 a4.5 4.5 0 1 0 -9 0zM1318.5 567 a4.5 4.5 0 1 0 9 0 a4.5 4.5 0 1 0 -9 0z" fill="url(#SvgjsLinearGradient1427)"></path><path d="M1593 315L1575 297L1557 297M1305 279L1287 261L1269 261L1251 261L1233 261L1215 261L1197 261L1179 261L1161 261L1143 261L1125 261L1107 261M1377 297L1359 297L1341 297L1323 297M1467 315L1449 297L1431 297M1287 279L1269 297L1251 297M1539 315L1521 297L1503 297L1485 297L1467 297M1881 333L1863 333M1665 315L1647 297L1629 297L1611 297L1593 297M1341 279L1323 261L1305 261M1917 351L1899 351L1881 333L1863 315L1845 315L1827 315L1809 315L1791 315L1773 315L1755 315L1737 315L1719 315L1701 315L1683 315L1665 315L1647 315L1629 315L1611 315L1593 315L1575 315L1557 315L1539 315L1521 315L1503 315L1485 315L1467 315L1449 315L1431 315L1413 315L1395 297L1377 297L1359 279L1341 279L1323 279L1305 279L1287 279L1269 279" stroke="url(#SvgjsLinearGradient1427)" stroke-width="3"></path><path d="M1264.5 279 a4.5 4.5 0 1 0 9 0 a4.5 4.5 0 1 0 -9 0zM1552.5 297 a4.5 4.5 0 1 0 9 0 a4.5 4.5 0 1 0 -9 0zM1102.5 261 a4.5 4.5 0 1 0 9 0 a4.5 4.5 0 1 0 -9 0zM1318.5 297 a4.5 4.5 0 1 0 9 0 a4.5 4.5 0 1 0 -9 0zM1426.5 297 a4.5 4.5 0 1 0 9 0 a4.5 4.5 0 1 0 -9 0zM1246.5 297 a4.5 4.5 0 1 0 9 0 a4.5 4.5 0 1 0 -9 0zM1462.5 297 a4.5 4.5 0 1 0 9 0 a4.5 4.5 0 1 0 -9 0zM1858.5 333 a4.5 4.5 0 1 0 9 0 a4.5 4.5 0 1 0 -9 0zM1588.5 297 a4.5 4.5 0 1 0 9 0 a4.5 4.5 0 1 0 -9 0zM1300.5 261 a4.5 4.5 0 1 0 9 0 a4.5 4.5 0 1 0 -9 0z" fill="url(#SvgjsLinearGradient1427)"></path><path d="M1287 585L1269 603L1251 603L1233 621L1215 621L1197 621L1179 621L1161 621L1143 621L1125 621L1107 621L1089 621L1071 621M1377 585L1359 603L1341 603L1323 603L1305 603M891 603L873 585L855 585L837 585L819 585L801 585L783 567L765 567L747 567L729 567L711 567L693 585L675 585L657 585L639 585L621 585M1485 585L1467 603L1449 603M1413 585L1395 603L1377 603L1359 621L1341 621L1323 621L1305 621L1287 621L1269 621L1251 621L1233 639L1215 639L1197 639L1179 639L1161 639L1143 639L1125 639L1107 639L1089 639L1071 639L1053 639L1035 639L1017 639L999 639L981 639M909 603L891 621L873 621L855 621M801 603L783 621L765 621L747 621L729 621L711 621L693 639L675 639M1197 585L1179 567L1161 549M1035 567L1017 549L999 549L981 549L963 549L945 549L927 549M819 603L801 621L783 639L765 657L747 657L729 657L711 657M1701 585L1683 603L1665 603M927 603L909 585L891 585M1071 549L1053 567L1035 585L1017 585L999 585M729 603L711 585M693 621L675 603L657 603L639 603L621 603M1179 585L1161 585L1143 585L1125 585L1107 585L1089 585L1071 585L1053 585L1035 603L1017 603L999 603L981 603L963 603L945 621L927 621L909 621M1251 585L1233 567M837 603L819 621L801 639L783 657M1917 567L1899 567L1881 567L1863 585L1845 585L1827 585L1809 585L1791 585L1773 585L1755 585L1737 585L1719 585L1701 585L1683 585L1665 585L1647 585L1629 585L1611 585L1593 585L1575 585L1557 585L1539 585L1521 585L1503 585L1485 585L1467 585L1449 585L1431 585L1413 585L1395 585L1377 585L1359 585L1341 585L1323 585L1305 585L1287 585L1269 585L1251 585L1233 585L1215 585L1197 585L1179 585L1161 567L1143 549L1125 549L1107 549L1089 549L1071 549L1053 549L1035 567L1017 567L999 567L981 567L963 585L945 603L927 603L909 603L891 603L873 603L855 603L837 603L819 603L801 603L783 603L765 603L747 603L729 603L711 603L693 621L675 621L657 621L639 621L621 621" stroke="url(#SvgjsLinearGradient1427)" stroke-width="3"></path><path d="M616.5 621 a4.5 4.5 0 1 0 9 0 a4.5 4.5 0 1 0 -9 0zM1066.5 621 a4.5 4.5 0 1 0 9 0 a4.5 4.5 0 1 0 -9 0zM1300.5 603 a4.5 4.5 0 1 0 9 0 a4.5 4.5 0 1 0 -9 0zM616.5 585 a4.5 4.5 0 1 0 9 0 a4.5 4.5 0 1 0 -9 0zM1444.5 603 a4.5 4.5 0 1 0 9 0 a4.5 4.5 0 1 0 -9 0zM976.5 639 a4.5 4.5 0 1 0 9 0 a4.5 4.5 0 1 0 -9 0zM850.5 621 a4.5 4.5 0 1 0 9 0 a4.5 4.5 0 1 0 -9 0zM670.5 639 a4.5 4.5 0 1 0 9 0 a4.5 4.5 0 1 0 -9 0zM1156.5 549 a4.5 4.5 0 1 0 9 0 a4.5 4.5 0 1 0 -9 0zM922.5 549 a4.5 4.5 0 1 0 9 0 a4.5 4.5 0 1 0 -9 0zM706.5 657 a4.5 4.5 0 1 0 9 0 a4.5 4.5 0 1 0 -9 0zM1660.5 603 a4.5 4.5 0 1 0 9 0 a4.5 4.5 0 1 0 -9 0zM886.5 585 a4.5 4.5 0 1 0 9 0 a4.5 4.5 0 1 0 -9 0zM994.5 585 a4.5 4.5 0 1 0 9 0 a4.5 4.5 0 1 0 -9 0zM706.5 585 a4.5 4.5 0 1 0 9 0 a4.5 4.5 0 1 0 -9 0zM616.5 603 a4.5 4.5 0 1 0 9 0 a4.5 4.5 0 1 0 -9 0zM904.5 621 a4.5 4.5 0 1 0 9 0 a4.5 4.5 0 1 0 -9 0zM1228.5 567 a4.5 4.5 0 1 0 9 0 a4.5 4.5 0 1 0 -9 0zM778.5 657 a4.5 4.5 0 1 0 9 0 a4.5 4.5 0 1 0 -9 0z" fill="url(#SvgjsLinearGradient1427)"></path><path d="M1503 279L1485 261L1467 261M1575 279L1557 261L1539 261L1521 261M1449 279L1431 261L1413 261L1395 261L1377 261L1359 243L1341 225M1359 261L1341 261M1683 297L1665 297M1917 333L1899 333L1881 315L1863 297L1845 297L1827 297L1809 297L1791 297L1773 297L1755 297L1737 297L1719 297L1701 297L1683 297L1665 279L1647 279L1629 279L1611 279L1593 279L1575 279L1557 279L1539 279L1521 279L1503 279L1485 279L1467 279L1449 279L1431 279L1413 279L1395 279L1377 279L1359 261L1341 243L1323 243L1305 243L1287 243L1269 243L1251 243L1233 243L1215 243L1197 243L1179 243L1161 243L1143 243L1125 243L1107 243L1089 243L1071 243L1053 243" stroke="url(#SvgjsLinearGradient1427)" stroke-width="3"></path><path d="M1048.5 243 a4.5 4.5 0 1 0 9 0 a4.5 4.5 0 1 0 -9 0zM1462.5 261 a4.5 4.5 0 1 0 9 0 a4.5 4.5 0 1 0 -9 0zM1516.5 261 a4.5 4.5 0 1 0 9 0 a4.5 4.5 0 1 0 -9 0zM1336.5 225 a4.5 4.5 0 1 0 9 0 a4.5 4.5 0 1 0 -9 0zM1336.5 261 a4.5 4.5 0 1 0 9 0 a4.5 4.5 0 1 0 -9 0zM1660.5 297 a4.5 4.5 0 1 0 9 0 a4.5 4.5 0 1 0 -9 0z" fill="url(#SvgjsLinearGradient1427)"></path><path d="M1449 225L1431 243L1413 243L1395 243M981 243L963 261L945 261L927 261L909 261L891 261M1539 225L1521 243M1251 225L1233 207L1215 207L1197 207L1179 207L1161 207L1143 207L1125 207L1107 207L1089 207L1071 207L1053 207L1035 207M1377 225L1359 225M1503 225L1485 243L1467 243L1449 243M1323 225L1305 207L1287 207M1557 243L1539 243M1017 225L999 225L981 225M1035 225L1017 243M1341 207L1323 207M1593 261L1575 261M1269 225L1251 207M1917 315L1899 297L1881 297L1863 279L1845 279L1827 279L1809 279L1791 279L1773 279L1755 279L1737 279L1719 279L1701 279L1683 279L1665 261L1647 261L1629 261L1611 261L1593 261L1575 243L1557 243L1539 225L1521 225L1503 225L1485 225L1467 225L1449 225L1431 225L1413 225L1395 225L1377 225L1359 207L1341 207L1323 225L1305 225L1287 225L1269 225L1251 225L1233 225L1215 225L1197 225L1179 225L1161 225L1143 225L1125 225L1107 225L1089 225L1071 225L1053 225L1035 225L1017 225L999 243L981 243L963 243" stroke="url(#SvgjsLinearGradient1427)" stroke-width="3"></path><path d="M958.5 243 a4.5 4.5 0 1 0 9 0 a4.5 4.5 0 1 0 -9 0zM1390.5 243 a4.5 4.5 0 1 0 9 0 a4.5 4.5 0 1 0 -9 0zM886.5 261 a4.5 4.5 0 1 0 9 0 a4.5 4.5 0 1 0 -9 0zM1516.5 243 a4.5 4.5 0 1 0 9 0 a4.5 4.5 0 1 0 -9 0zM1030.5 207 a4.5 4.5 0 1 0 9 0 a4.5 4.5 0 1 0 -9 0zM1354.5 225 a4.5 4.5 0 1 0 9 0 a4.5 4.5 0 1 0 -9 0zM1444.5 243 a4.5 4.5 0 1 0 9 0 a4.5 4.5 0 1 0 -9 0zM1282.5 207 a4.5 4.5 0 1 0 9 0 a4.5 4.5 0 1 0 -9 0zM1534.5 243 a4.5 4.5 0 1 0 9 0 a4.5 4.5 0 1 0 -9 0zM976.5 225 a4.5 4.5 0 1 0 9 0 a4.5 4.5 0 1 0 -9 0zM1012.5 243 a4.5 4.5 0 1 0 9 0 a4.5 4.5 0 1 0 -9 0zM1318.5 207 a4.5 4.5 0 1 0 9 0 a4.5 4.5 0 1 0 -9 0zM1570.5 261 a4.5 4.5 0 1 0 9 0 a4.5 4.5 0 1 0 -9 0zM1246.5 207 a4.5 4.5 0 1 0 9 0 a4.5 4.5 0 1 0 -9 0z" fill="url(#SvgjsLinearGradient1427)"></path><path d="M1557 603L1539 621M1575 603L1557 621M1755 603L1737 603L1719 603M1395 639L1377 621M1413 639L1395 621M1503 603L1485 603M1431 639L1413 621M1449 639L1431 621L1413 603M1611 603L1593 621L1575 621M1917 603L1899 603L1881 603L1863 603L1845 603L1827 603L1809 603L1791 603L1773 603L1755 603L1737 621L1719 621L1701 621L1683 621L1665 621L1647 603L1629 603L1611 603L1593 603L1575 603L1557 603L1539 603L1521 603L1503 603L1485 621L1467 621L1449 639L1431 639L1413 639L1395 639L1377 639L1359 639L1341 639L1323 639L1305 639L1287 639L1269 657L1251 657" stroke="url(#SvgjsLinearGradient1427)" stroke-width="3"></path><path d="M1246.5 657 a4.5 4.5 0 1 0 9 0 a4.5 4.5 0 1 0 -9 0zM1534.5 621 a4.5 4.5 0 1 0 9 0 a4.5 4.5 0 1 0 -9 0zM1552.5 621 a4.5 4.5 0 1 0 9 0 a4.5 4.5 0 1 0 -9 0zM1714.5 603 a4.5 4.5 0 1 0 9 0 a4.5 4.5 0 1 0 -9 0zM1372.5 621 a4.5 4.5 0 1 0 9 0 a4.5 4.5 0 1 0 -9 0zM1390.5 621 a4.5 4.5 0 1 0 9 0 a4.5 4.5 0 1 0 -9 0zM1480.5 603 a4.5 4.5 0 1 0 9 0 a4.5 4.5 0 1 0 -9 0zM1408.5 621 a4.5 4.5 0 1 0 9 0 a4.5 4.5 0 1 0 -9 0zM1408.5 603 a4.5 4.5 0 1 0 9 0 a4.5 4.5 0 1 0 -9 0zM1570.5 621 a4.5 4.5 0 1 0 9 0 a4.5 4.5 0 1 0 -9 0z" fill="url(#SvgjsLinearGradient1427)"></path><path d="M1143 657L1125 675L1107 675M1845 621L1827 639L1809 639M1629 639L1611 621M1089 657L1071 675L1053 675L1035 675L1017 675M1881 621L1863 639M1179 657L1161 675L1143 675M1791 621L1773 639M1233 675L1215 657M1197 657L1179 675M1647 639L1629 621M1215 675L1197 675M1917 621L1899 621L1881 621L1863 621L1845 621L1827 621L1809 621L1791 621L1773 621L1755 621L1737 639L1719 639L1701 639L1683 639L1665 639L1647 639L1629 639L1611 639L1593 639L1575 639L1557 639L1539 639L1521 639L1503 639L1485 639L1467 639L1449 657L1431 657L1413 657L1395 657L1377 657L1359 657L1341 657L1323 657L1305 657L1287 657L1269 675L1251 675L1233 675L1215 675L1197 657L1179 657L1161 657L1143 657L1125 657L1107 657L1089 657L1071 657L1053 657" stroke="url(#SvgjsLinearGradient1427)" stroke-width="3"></path><path d="M1048.5 657 a4.5 4.5 0 1 0 9 0 a4.5 4.5 0 1 0 -9 0zM1102.5 675 a4.5 4.5 0 1 0 9 0 a4.5 4.5 0 1 0 -9 0zM1804.5 639 a4.5 4.5 0 1 0 9 0 a4.5 4.5 0 1 0 -9 0zM1606.5 621 a4.5 4.5 0 1 0 9 0 a4.5 4.5 0 1 0 -9 0zM1012.5 675 a4.5 4.5 0 1 0 9 0 a4.5 4.5 0 1 0 -9 0zM1858.5 639 a4.5 4.5 0 1 0 9 0 a4.5 4.5 0 1 0 -9 0zM1138.5 675 a4.5 4.5 0 1 0 9 0 a4.5 4.5 0 1 0 -9 0zM1768.5 639 a4.5 4.5 0 1 0 9 0 a4.5 4.5 0 1 0 -9 0zM1210.5 657 a4.5 4.5 0 1 0 9 0 a4.5 4.5 0 1 0 -9 0zM1174.5 675 a4.5 4.5 0 1 0 9 0 a4.5 4.5 0 1 0 -9 0zM1624.5 621 a4.5 4.5 0 1 0 9 0 a4.5 4.5 0 1 0 -9 0zM1192.5 675 a4.5 4.5 0 1 0 9 0 a4.5 4.5 0 1 0 -9 0z" fill="url(#SvgjsLinearGradient1427)"></path><path d="M1737 261L1719 243L1701 243L1683 243M1071 189L1053 171L1035 171L1017 171L999 171L981 171M999 207L981 189L963 171L945 171L927 171L909 189L891 189L873 189L855 189M963 225L945 207L927 207L909 207L891 207M945 225L927 243L909 243L891 225M1017 207L999 189M1089 189L1071 171M1143 189L1125 171L1107 171L1089 171M1035 189L1017 189M981 207L963 207L945 189L927 189M1917 279L1899 279L1881 279L1863 261L1845 261L1827 261L1809 261L1791 261L1773 261L1755 261L1737 261L1719 261L1701 261L1683 261L1665 243L1647 243L1629 243L1611 243L1593 243L1575 225L1557 225L1539 207L1521 207L1503 207L1485 207L1467 207L1449 207L1431 207L1413 207L1395 207L1377 207L1359 189L1341 189L1323 189L1305 189L1287 189L1269 189L1251 189L1233 189L1215 189L1197 189L1179 189L1161 189L1143 189L1125 189L1107 189L1089 189L1071 189L1053 189L1035 189L1017 207L999 207L981 207L963 225L945 225L927 225" stroke="url(#SvgjsLinearGradient1427)" stroke-width="3"></path><path d="M922.5 225 a4.5 4.5 0 1 0 9 0 a4.5 4.5 0 1 0 -9 0zM1678.5 243 a4.5 4.5 0 1 0 9 0 a4.5 4.5 0 1 0 -9 0zM976.5 171 a4.5 4.5 0 1 0 9 0 a4.5 4.5 0 1 0 -9 0zM850.5 189 a4.5 4.5 0 1 0 9 0 a4.5 4.5 0 1 0 -9 0zM886.5 207 a4.5 4.5 0 1 0 9 0 a4.5 4.5 0 1 0 -9 0zM886.5 225 a4.5 4.5 0 1 0 9 0 a4.5 4.5 0 1 0 -9 0zM994.5 189 a4.5 4.5 0 1 0 9 0 a4.5 4.5 0 1 0 -9 0zM1066.5 171 a4.5 4.5 0 1 0 9 0 a4.5 4.5 0 1 0 -9 0zM1084.5 171 a4.5 4.5 0 1 0 9 0 a4.5 4.5 0 1 0 -9 0zM1012.5 189 a4.5 4.5 0 1 0 9 0 a4.5 4.5 0 1 0 -9 0zM922.5 189 a4.5 4.5 0 1 0 9 0 a4.5 4.5 0 1 0 -9 0z" fill="url(#SvgjsLinearGradient1427)"></path><path d="M1143 693L1125 711L1107 711L1089 711M1683 657L1665 675L1647 675L1629 675L1611 675L1593 675M1557 657L1539 675L1521 675L1503 675L1485 675L1467 675M1449 675L1431 693L1413 693L1395 693M1575 657L1557 675M1701 657L1683 675M1899 639L1881 639M1305 675L1287 693M1917 639L1899 639L1881 657L1863 657L1845 657L1827 657L1809 657L1791 657L1773 657L1755 657L1737 657L1719 657L1701 657L1683 657L1665 657L1647 657L1629 657L1611 657L1593 657L1575 657L1557 657L1539 657L1521 657L1503 657L1485 657L1467 657L1449 675L1431 675L1413 675L1395 675L1377 675L1359 675L1341 675L1323 675L1305 675L1287 675L1269 693L1251 693L1233 693L1215 693L1197 693L1179 693L1161 693L1143 693L1125 693L1107 693L1089 693" stroke="url(#SvgjsLinearGradient1427)" stroke-width="3"></path><path d="M1084.5 693 a4.5 4.5 0 1 0 9 0 a4.5 4.5 0 1 0 -9 0zM1084.5 711 a4.5 4.5 0 1 0 9 0 a4.5 4.5 0 1 0 -9 0zM1588.5 675 a4.5 4.5 0 1 0 9 0 a4.5 4.5 0 1 0 -9 0zM1462.5 675 a4.5 4.5 0 1 0 9 0 a4.5 4.5 0 1 0 -9 0zM1390.5 693 a4.5 4.5 0 1 0 9 0 a4.5 4.5 0 1 0 -9 0zM1552.5 675 a4.5 4.5 0 1 0 9 0 a4.5 4.5 0 1 0 -9 0zM1678.5 675 a4.5 4.5 0 1 0 9 0 a4.5 4.5 0 1 0 -9 0zM1876.5 639 a4.5 4.5 0 1 0 9 0 a4.5 4.5 0 1 0 -9 0zM1282.5 693 a4.5 4.5 0 1 0 9 0 a4.5 4.5 0 1 0 -9 0z" fill="url(#SvgjsLinearGradient1427)"></path><path d="M1755 243L1737 243M1665 225L1647 207L1629 207L1611 207L1593 207L1575 189L1557 189L1539 171L1521 171L1503 171L1485 171L1467 153L1449 153M1341 171L1323 153L1305 153M1143 153L1125 135L1107 135L1089 135L1071 135L1053 135L1035 135L1017 135L999 135L981 135M1467 189L1449 171M1827 243L1809 225M1701 225L1683 207L1665 207L1647 189L1629 189M1791 243L1773 225M1737 225L1719 207L1701 207L1683 189L1665 189L1647 171M1431 189L1413 171L1395 171L1377 153L1359 153M1161 171L1143 171M1395 189L1377 189M1917 261L1899 261L1881 261L1863 243L1845 243L1827 243L1809 243L1791 243L1773 243L1755 243L1737 225L1719 225L1701 225L1683 225L1665 225L1647 225L1629 225L1611 225L1593 225L1575 207L1557 207L1539 189L1521 189L1503 189L1485 189L1467 189L1449 189L1431 189L1413 189L1395 189L1377 171L1359 171L1341 171L1323 171L1305 171L1287 171L1269 171L1251 171L1233 171L1215 171L1197 171L1179 171L1161 171L1143 153L1125 153L1107 153L1089 153L1071 153L1053 153L1035 153" stroke="url(#SvgjsLinearGradient1427)" stroke-width="3"></path><path d="M1030.5 153 a4.5 4.5 0 1 0 9 0 a4.5 4.5 0 1 0 -9 0zM1732.5 243 a4.5 4.5 0 1 0 9 0 a4.5 4.5 0 1 0 -9 0zM1444.5 153 a4.5 4.5 0 1 0 9 0 a4.5 4.5 0 1 0 -9 0zM1300.5 153 a4.5 4.5 0 1 0 9 0 a4.5 4.5 0 1 0 -9 0zM976.5 135 a4.5 4.5 0 1 0 9 0 a4.5 4.5 0 1 0 -9 0zM1444.5 171 a4.5 4.5 0 1 0 9 0 a4.5 4.5 0 1 0 -9 0zM1804.5 225 a4.5 4.5 0 1 0 9 0 a4.5 4.5 0 1 0 -9 0zM1624.5 189 a4.5 4.5 0 1 0 9 0 a4.5 4.5 0 1 0 -9 0zM1768.5 225 a4.5 4.5 0 1 0 9 0 a4.5 4.5 0 1 0 -9 0zM1642.5 171 a4.5 4.5 0 1 0 9 0 a4.5 4.5 0 1 0 -9 0zM1354.5 153 a4.5 4.5 0 1 0 9 0 a4.5 4.5 0 1 0 -9 0zM1138.5 171 a4.5 4.5 0 1 0 9 0 a4.5 4.5 0 1 0 -9 0zM1372.5 189 a4.5 4.5 0 1 0 9 0 a4.5 4.5 0 1 0 -9 0z" fill="url(#SvgjsLinearGradient1427)"></path><path d="M1593 693L1575 711L1557 711M927 729L909 711L891 711M1179 711L1161 729L1143 747L1125 747L1107 747L1089 747L1071 747L1053 747L1035 747L1017 747L999 747L981 747L963 747L945 747L927 747M1035 729L1017 711L999 711L981 711L963 711M1611 693L1593 711L1575 729M1287 711L1269 729L1251 729L1233 729L1215 729L1197 729L1179 729L1161 747L1143 765L1125 783L1107 783L1089 783L1071 783L1053 783M1827 675L1809 693L1791 693M1773 675L1755 693L1737 693L1719 693L1701 711L1683 711L1665 729M1647 693L1629 711L1611 711L1593 729L1575 747L1557 747L1539 747L1521 747M1881 675L1863 693L1845 693L1827 693L1809 711L1791 711M1449 711L1431 729L1413 747L1395 747L1377 747L1359 747M1521 693L1503 711L1485 711L1467 729L1449 729L1431 747L1413 765L1395 765L1377 765L1359 765L1341 765L1323 765L1305 765L1287 765L1269 765L1251 747M1161 711L1143 711M1395 711L1377 729L1359 729L1341 711M1323 693L1305 693M1917 657L1899 657L1881 675L1863 675L1845 675L1827 675L1809 675L1791 675L1773 675L1755 675L1737 675L1719 675L1701 693L1683 693L1665 693L1647 693L1629 693L1611 693L1593 693L1575 693L1557 693L1539 693L1521 693L1503 693L1485 693L1467 693L1449 711L1431 711L1413 711L1395 711L1377 693L1359 693L1341 693L1323 693L1305 711L1287 711L1269 711L1251 711L1233 711L1215 711L1197 711L1179 711L1161 711L1143 729L1125 729L1107 729L1089 729L1071 729L1053 729L1035 729L1017 729L999 729L981 729L963 729L945 729L927 729L909 729L891 729L873 747L855 747L837 747L819 747L801 747" stroke="url(#SvgjsLinearGradient1427)" stroke-width="3"></path><path d="M796.5 747 a4.5 4.5 0 1 0 9 0 a4.5 4.5 0 1 0 -9 0zM1552.5 711 a4.5 4.5 0 1 0 9 0 a4.5 4.5 0 1 0 -9 0zM886.5 711 a4.5 4.5 0 1 0 9 0 a4.5 4.5 0 1 0 -9 0zM922.5 747 a4.5 4.5 0 1 0 9 0 a4.5 4.5 0 1 0 -9 0zM958.5 711 a4.5 4.5 0 1 0 9 0 a4.5 4.5 0 1 0 -9 0zM1570.5 729 a4.5 4.5 0 1 0 9 0 a4.5 4.5 0 1 0 -9 0zM1048.5 783 a4.5 4.5 0 1 0 9 0 a4.5 4.5 0 1 0 -9 0zM1786.5 693 a4.5 4.5 0 1 0 9 0 a4.5 4.5 0 1 0 -9 0zM1660.5 729 a4.5 4.5 0 1 0 9 0 a4.5 4.5 0 1 0 -9 0zM1516.5 747 a4.5 4.5 0 1 0 9 0 a4.5 4.5 0 1 0 -9 0zM1786.5 711 a4.5 4.5 0 1 0 9 0 a4.5 4.5 0 1 0 -9 0zM1354.5 747 a4.5 4.5 0 1 0 9 0 a4.5 4.5 0 1 0 -9 0zM1246.5 747 a4.5 4.5 0 1 0 9 0 a4.5 4.5 0 1 0 -9 0zM1138.5 711 a4.5 4.5 0 1 0 9 0 a4.5 4.5 0 1 0 -9 0zM1336.5 711 a4.5 4.5 0 1 0 9 0 a4.5 4.5 0 1 0 -9 0zM1300.5 693 a4.5 4.5 0 1 0 9 0 a4.5 4.5 0 1 0 -9 0z" fill="url(#SvgjsLinearGradient1427)"></path><path d="M1899 243L1881 225L1863 207L1845 207L1827 207M1917 243L1899 243L1881 243L1863 225" stroke="url(#SvgjsLinearGradient1427)" stroke-width="3"></path><path d="M1858.5 225 a4.5 4.5 0 1 0 9 0 a4.5 4.5 0 1 0 -9 0zM1822.5 207 a4.5 4.5 0 1 0 9 0 a4.5 4.5 0 1 0 -9 0z" fill="url(#SvgjsLinearGradient1427)"></path></g></g><defs><mask id="SvgjsMask1426"><rect width="1900" height="900" fill="#ffffff"></rect></mask><linearGradient x1="677.4639999999999" y1="-107.46" x2="1792.536" y2="1007.4599999999999" gradientUnits="userSpaceOnUse" id="SvgjsLinearGradient1427"><stop stop-color="rgba(0, 192, 255, 1)" offset="0.01"></stop><stop stop-color="rgba(255, 0, 57, 1)" offset="1"></stop></linearGradient><mask id="SvgjsMask1428"><rect width="1900" height="900" fill="white"></rect><path d="M1392.75 477 a2.25 2.25 0 1 0 4.5 0 a2.25 2.25 0 1 0 -4.5 0zM1464.75 459 a2.25 2.25 0 1 0 4.5 0 a2.25 2.25 0 1 0 -4.5 0zM1500.75 423 a2.25 2.25 0 1 0 4.5 0 a2.25 2.25 0 1 0 -4.5 0zM1608.75 477 a2.25 2.25 0 1 0 4.5 0 a2.25 2.25 0 1 0 -4.5 0zM1626.75 495 a2.25 2.25 0 1 0 4.5 0 a2.25 2.25 0 1 0 -4.5 0zM1410.75 495 a2.25 2.25 0 1 0 4.5 0 a2.25 2.25 0 1 0 -4.5 0zM1806.75 477 a2.25 2.25 0 1 0 4.5 0 a2.25 2.25 0 1 0 -4.5 0zM1824.75 477 a2.25 2.25 0 1 0 4.5 0 a2.25 2.25 0 1 0 -4.5 0z" fill="black"></path><path d="M978.75 351 a2.25 2.25 0 1 0 4.5 0 a2.25 2.25 0 1 0 -4.5 0zM1014.75 351 a2.25 2.25 0 1 0 4.5 0 a2.25 2.25 0 1 0 -4.5 0zM1392.75 405 a2.25 2.25 0 1 0 4.5 0 a2.25 2.25 0 1 0 -4.5 0zM1050.75 351 a2.25 2.25 0 1 0 4.5 0 a2.25 2.25 0 1 0 -4.5 0zM1374.75 423 a2.25 2.25 0 1 0 4.5 0 a2.25 2.25 0 1 0 -4.5 0zM942.75 351 a2.25 2.25 0 1 0 4.5 0 a2.25 2.25 0 1 0 -4.5 0zM1320.75 351 a2.25 2.25 0 1 0 4.5 0 a2.25 2.25 0 1 0 -4.5 0zM1032.75 405 a2.25 2.25 0 1 0 4.5 0 a2.25 2.25 0 1 0 -4.5 0zM1500.75 369 a2.25 2.25 0 1 0 4.5 0 a2.25 2.25 0 1 0 -4.5 0zM942.75 369 a2.25 2.25 0 1 0 4.5 0 a2.25 2.25 0 1 0 -4.5 0zM1554.75 441 a2.25 2.25 0 1 0 4.5 0 a2.25 2.25 0 1 0 -4.5 0zM1158.75 369 a2.25 2.25 0 1 0 4.5 0 a2.25 2.25 0 1 0 -4.5 0zM1392.75 387 a2.25 2.25 0 1 0 4.5 0 a2.25 2.25 0 1 0 -4.5 0zM1122.75 369 a2.25 2.25 0 1 0 4.5 0 a2.25 2.25 0 1 0 -4.5 0z" fill="black"></path><path d="M1698.75 477 a2.25 2.25 0 1 0 4.5 0 a2.25 2.25 0 1 0 -4.5 0zM1842.75 477 a2.25 2.25 0 1 0 4.5 0 a2.25 2.25 0 1 0 -4.5 0zM1752.75 495 a2.25 2.25 0 1 0 4.5 0 a2.25 2.25 0 1 0 -4.5 0zM1752.75 477 a2.25 2.25 0 1 0 4.5 0 a2.25 2.25 0 1 0 -4.5 0z" fill="black"></path><path d="M1680.75 405 a2.25 2.25 0 1 0 4.5 0 a2.25 2.25 0 1 0 -4.5 0z" fill="black"></path><path d="M1644.75 387 a2.25 2.25 0 1 0 4.5 0 a2.25 2.25 0 1 0 -4.5 0zM1824.75 387 a2.25 2.25 0 1 0 4.5 0 a2.25 2.25 0 1 0 -4.5 0zM1842.75 387 a2.25 2.25 0 1 0 4.5 0 a2.25 2.25 0 1 0 -4.5 0zM1860.75 387 a2.25 2.25 0 1 0 4.5 0 a2.25 2.25 0 1 0 -4.5 0z" fill="black"></path><path d="M1482.75 495 a2.25 2.25 0 1 0 4.5 0 a2.25 2.25 0 1 0 -4.5 0zM1554.75 531 a2.25 2.25 0 1 0 4.5 0 a2.25 2.25 0 1 0 -4.5 0zM1482.75 513 a2.25 2.25 0 1 0 4.5 0 a2.25 2.25 0 1 0 -4.5 0zM1788.75 531 a2.25 2.25 0 1 0 4.5 0 a2.25 2.25 0 1 0 -4.5 0zM1680.75 531 a2.25 2.25 0 1 0 4.5 0 a2.25 2.25 0 1 0 -4.5 0zM1644.75 495 a2.25 2.25 0 1 0 4.5 0 a2.25 2.25 0 1 0 -4.5 0zM1626.75 531 a2.25 2.25 0 1 0 4.5 0 a2.25 2.25 0 1 0 -4.5 0z" fill="black"></path><path d="M978.75 297 a2.25 2.25 0 1 0 4.5 0 a2.25 2.25 0 1 0 -4.5 0zM924.75 315 a2.25 2.25 0 1 0 4.5 0 a2.25 2.25 0 1 0 -4.5 0zM1068.75 297 a2.25 2.25 0 1 0 4.5 0 a2.25 2.25 0 1 0 -4.5 0zM1662.75 351 a2.25 2.25 0 1 0 4.5 0 a2.25 2.25 0 1 0 -4.5 0zM924.75 279 a2.25 2.25 0 1 0 4.5 0 a2.25 2.25 0 1 0 -4.5 0zM1554.75 369 a2.25 2.25 0 1 0 4.5 0 a2.25 2.25 0 1 0 -4.5 0zM1626.75 369 a2.25 2.25 0 1 0 4.5 0 a2.25 2.25 0 1 0 -4.5 0zM1302.75 297 a2.25 2.25 0 1 0 4.5 0 a2.25 2.25 0 1 0 -4.5 0zM1140.75 297 a2.25 2.25 0 1 0 4.5 0 a2.25 2.25 0 1 0 -4.5 0zM1140.75 279 a2.25 2.25 0 1 0 4.5 0 a2.25 2.25 0 1 0 -4.5 0zM1392.75 351 a2.25 2.25 0 1 0 4.5 0 a2.25 2.25 0 1 0 -4.5 0zM1716.75 351 a2.25 2.25 0 1 0 4.5 0 a2.25 2.25 0 1 0 -4.5 0zM1194.75 333 a2.25 2.25 0 1 0 4.5 0 a2.25 2.25 0 1 0 -4.5 0zM1788.75 387 a2.25 2.25 0 1 0 4.5 0 a2.25 2.25 0 1 0 -4.5 0z" fill="black"></path><path d="M1068.75 477 a2.25 2.25 0 1 0 4.5 0 a2.25 2.25 0 1 0 -4.5 0zM960.75 441 a2.25 2.25 0 1 0 4.5 0 a2.25 2.25 0 1 0 -4.5 0zM1158.75 531 a2.25 2.25 0 1 0 4.5 0 a2.25 2.25 0 1 0 -4.5 0zM1104.75 459 a2.25 2.25 0 1 0 4.5 0 a2.25 2.25 0 1 0 -4.5 0zM1374.75 495 a2.25 2.25 0 1 0 4.5 0 a2.25 2.25 0 1 0 -4.5 0zM1140.75 459 a2.25 2.25 0 1 0 4.5 0 a2.25 2.25 0 1 0 -4.5 0zM1716.75 549 a2.25 2.25 0 1 0 4.5 0 a2.25 2.25 0 1 0 -4.5 0zM1770.75 549 a2.25 2.25 0 1 0 4.5 0 a2.25 2.25 0 1 0 -4.5 0zM906.75 495 a2.25 2.25 0 1 0 4.5 0 a2.25 2.25 0 1 0 -4.5 0zM1086.75 495 a2.25 2.25 0 1 0 4.5 0 a2.25 2.25 0 1 0 -4.5 0zM1104.75 531 a2.25 2.25 0 1 0 4.5 0 a2.25 2.25 0 1 0 -4.5 0zM1698.75 531 a2.25 2.25 0 1 0 4.5 0 a2.25 2.25 0 1 0 -4.5 0zM1320.75 531 a2.25 2.25 0 1 0 4.5 0 a2.25 2.25 0 1 0 -4.5 0z" fill="black"></path><path d="M1374.75 315 a2.25 2.25 0 1 0 4.5 0 a2.25 2.25 0 1 0 -4.5 0zM1734.75 351 a2.25 2.25 0 1 0 4.5 0 a2.25 2.25 0 1 0 -4.5 0zM1824.75 333 a2.25 2.25 0 1 0 4.5 0 a2.25 2.25 0 1 0 -4.5 0zM1788.75 333 a2.25 2.25 0 1 0 4.5 0 a2.25 2.25 0 1 0 -4.5 0zM1842.75 333 a2.25 2.25 0 1 0 4.5 0 a2.25 2.25 0 1 0 -4.5 0zM1752.75 351 a2.25 2.25 0 1 0 4.5 0 a2.25 2.25 0 1 0 -4.5 0z" fill="black"></path><path d="M1284.75 549 a2.25 2.25 0 1 0 4.5 0 a2.25 2.25 0 1 0 -4.5 0zM1266.75 567 a2.25 2.25 0 1 0 4.5 0 a2.25 2.25 0 1 0 -4.5 0zM1302.75 567 a2.25 2.25 0 1 0 4.5 0 a2.25 2.25 0 1 0 -4.5 0zM1356.75 567 a2.25 2.25 0 1 0 4.5 0 a2.25 2.25 0 1 0 -4.5 0zM1320.75 567 a2.25 2.25 0 1 0 4.5 0 a2.25 2.25 0 1 0 -4.5 0z" fill="black"></path><path d="M1266.75 279 a2.25 2.25 0 1 0 4.5 0 a2.25 2.25 0 1 0 -4.5 0zM1554.75 297 a2.25 2.25 0 1 0 4.5 0 a2.25 2.25 0 1 0 -4.5 0zM1104.75 261 a2.25 2.25 0 1 0 4.5 0 a2.25 2.25 0 1 0 -4.5 0zM1320.75 297 a2.25 2.25 0 1 0 4.5 0 a2.25 2.25 0 1 0 -4.5 0zM1428.75 297 a2.25 2.25 0 1 0 4.5 0 a2.25 2.25 0 1 0 -4.5 0zM1248.75 297 a2.25 2.25 0 1 0 4.5 0 a2.25 2.25 0 1 0 -4.5 0zM1464.75 297 a2.25 2.25 0 1 0 4.5 0 a2.25 2.25 0 1 0 -4.5 0zM1860.75 333 a2.25 2.25 0 1 0 4.5 0 a2.25 2.25 0 1 0 -4.5 0zM1590.75 297 a2.25 2.25 0 1 0 4.5 0 a2.25 2.25 0 1 0 -4.5 0zM1302.75 261 a2.25 2.25 0 1 0 4.5 0 a2.25 2.25 0 1 0 -4.5 0z" fill="black"></path><path d="M618.75 621 a2.25 2.25 0 1 0 4.5 0 a2.25 2.25 0 1 0 -4.5 0zM1068.75 621 a2.25 2.25 0 1 0 4.5 0 a2.25 2.25 0 1 0 -4.5 0zM1302.75 603 a2.25 2.25 0 1 0 4.5 0 a2.25 2.25 0 1 0 -4.5 0zM618.75 585 a2.25 2.25 0 1 0 4.5 0 a2.25 2.25 0 1 0 -4.5 0zM1446.75 603 a2.25 2.25 0 1 0 4.5 0 a2.25 2.25 0 1 0 -4.5 0zM978.75 639 a2.25 2.25 0 1 0 4.5 0 a2.25 2.25 0 1 0 -4.5 0zM852.75 621 a2.25 2.25 0 1 0 4.5 0 a2.25 2.25 0 1 0 -4.5 0zM672.75 639 a2.25 2.25 0 1 0 4.5 0 a2.25 2.25 0 1 0 -4.5 0zM1158.75 549 a2.25 2.25 0 1 0 4.5 0 a2.25 2.25 0 1 0 -4.5 0zM924.75 549 a2.25 2.25 0 1 0 4.5 0 a2.25 2.25 0 1 0 -4.5 0zM708.75 657 a2.25 2.25 0 1 0 4.5 0 a2.25 2.25 0 1 0 -4.5 0zM1662.75 603 a2.25 2.25 0 1 0 4.5 0 a2.25 2.25 0 1 0 -4.5 0zM888.75 585 a2.25 2.25 0 1 0 4.5 0 a2.25 2.25 0 1 0 -4.5 0zM996.75 585 a2.25 2.25 0 1 0 4.5 0 a2.25 2.25 0 1 0 -4.5 0zM708.75 585 a2.25 2.25 0 1 0 4.5 0 a2.25 2.25 0 1 0 -4.5 0zM618.75 603 a2.25 2.25 0 1 0 4.5 0 a2.25 2.25 0 1 0 -4.5 0zM906.75 621 a2.25 2.25 0 1 0 4.5 0 a2.25 2.25 0 1 0 -4.5 0zM1230.75 567 a2.25 2.25 0 1 0 4.5 0 a2.25 2.25 0 1 0 -4.5 0zM780.75 657 a2.25 2.25 0 1 0 4.5 0 a2.25 2.25 0 1 0 -4.5 0z" fill="black"></path><path d="M1050.75 243 a2.25 2.25 0 1 0 4.5 0 a2.25 2.25 0 1 0 -4.5 0zM1464.75 261 a2.25 2.25 0 1 0 4.5 0 a2.25 2.25 0 1 0 -4.5 0zM1518.75 261 a2.25 2.25 0 1 0 4.5 0 a2.25 2.25 0 1 0 -4.5 0zM1338.75 225 a2.25 2.25 0 1 0 4.5 0 a2.25 2.25 0 1 0 -4.5 0zM1338.75 261 a2.25 2.25 0 1 0 4.5 0 a2.25 2.25 0 1 0 -4.5 0zM1662.75 297 a2.25 2.25 0 1 0 4.5 0 a2.25 2.25 0 1 0 -4.5 0z" fill="black"></path><path d="M960.75 243 a2.25 2.25 0 1 0 4.5 0 a2.25 2.25 0 1 0 -4.5 0zM1392.75 243 a2.25 2.25 0 1 0 4.5 0 a2.25 2.25 0 1 0 -4.5 0zM888.75 261 a2.25 2.25 0 1 0 4.5 0 a2.25 2.25 0 1 0 -4.5 0zM1518.75 243 a2.25 2.25 0 1 0 4.5 0 a2.25 2.25 0 1 0 -4.5 0zM1032.75 207 a2.25 2.25 0 1 0 4.5 0 a2.25 2.25 0 1 0 -4.5 0zM1356.75 225 a2.25 2.25 0 1 0 4.5 0 a2.25 2.25 0 1 0 -4.5 0zM1446.75 243 a2.25 2.25 0 1 0 4.5 0 a2.25 2.25 0 1 0 -4.5 0zM1284.75 207 a2.25 2.25 0 1 0 4.5 0 a2.25 2.25 0 1 0 -4.5 0zM1536.75 243 a2.25 2.25 0 1 0 4.5 0 a2.25 2.25 0 1 0 -4.5 0zM978.75 225 a2.25 2.25 0 1 0 4.5 0 a2.25 2.25 0 1 0 -4.5 0zM1014.75 243 a2.25 2.25 0 1 0 4.5 0 a2.25 2.25 0 1 0 -4.5 0zM1320.75 207 a2.25 2.25 0 1 0 4.5 0 a2.25 2.25 0 1 0 -4.5 0zM1572.75 261 a2.25 2.25 0 1 0 4.5 0 a2.25 2.25 0 1 0 -4.5 0zM1248.75 207 a2.25 2.25 0 1 0 4.5 0 a2.25 2.25 0 1 0 -4.5 0z" fill="black"></path><path d="M1248.75 657 a2.25 2.25 0 1 0 4.5 0 a2.25 2.25 0 1 0 -4.5 0zM1536.75 621 a2.25 2.25 0 1 0 4.5 0 a2.25 2.25 0 1 0 -4.5 0zM1554.75 621 a2.25 2.25 0 1 0 4.5 0 a2.25 2.25 0 1 0 -4.5 0zM1716.75 603 a2.25 2.25 0 1 0 4.5 0 a2.25 2.25 0 1 0 -4.5 0zM1374.75 621 a2.25 2.25 0 1 0 4.5 0 a2.25 2.25 0 1 0 -4.5 0zM1392.75 621 a2.25 2.25 0 1 0 4.5 0 a2.25 2.25 0 1 0 -4.5 0zM1482.75 603 a2.25 2.25 0 1 0 4.5 0 a2.25 2.25 0 1 0 -4.5 0zM1410.75 621 a2.25 2.25 0 1 0 4.5 0 a2.25 2.25 0 1 0 -4.5 0zM1410.75 603 a2.25 2.25 0 1 0 4.5 0 a2.25 2.25 0 1 0 -4.5 0zM1572.75 621 a2.25 2.25 0 1 0 4.5 0 a2.25 2.25 0 1 0 -4.5 0z" fill="black"></path><path d="M1050.75 657 a2.25 2.25 0 1 0 4.5 0 a2.25 2.25 0 1 0 -4.5 0zM1104.75 675 a2.25 2.25 0 1 0 4.5 0 a2.25 2.25 0 1 0 -4.5 0zM1806.75 639 a2.25 2.25 0 1 0 4.5 0 a2.25 2.25 0 1 0 -4.5 0zM1608.75 621 a2.25 2.25 0 1 0 4.5 0 a2.25 2.25 0 1 0 -4.5 0zM1014.75 675 a2.25 2.25 0 1 0 4.5 0 a2.25 2.25 0 1 0 -4.5 0zM1860.75 639 a2.25 2.25 0 1 0 4.5 0 a2.25 2.25 0 1 0 -4.5 0zM1140.75 675 a2.25 2.25 0 1 0 4.5 0 a2.25 2.25 0 1 0 -4.5 0zM1770.75 639 a2.25 2.25 0 1 0 4.5 0 a2.25 2.25 0 1 0 -4.5 0zM1212.75 657 a2.25 2.25 0 1 0 4.5 0 a2.25 2.25 0 1 0 -4.5 0zM1176.75 675 a2.25 2.25 0 1 0 4.5 0 a2.25 2.25 0 1 0 -4.5 0zM1626.75 621 a2.25 2.25 0 1 0 4.5 0 a2.25 2.25 0 1 0 -4.5 0zM1194.75 675 a2.25 2.25 0 1 0 4.5 0 a2.25 2.25 0 1 0 -4.5 0z" fill="black"></path><path d="M924.75 225 a2.25 2.25 0 1 0 4.5 0 a2.25 2.25 0 1 0 -4.5 0zM1680.75 243 a2.25 2.25 0 1 0 4.5 0 a2.25 2.25 0 1 0 -4.5 0zM978.75 171 a2.25 2.25 0 1 0 4.5 0 a2.25 2.25 0 1 0 -4.5 0zM852.75 189 a2.25 2.25 0 1 0 4.5 0 a2.25 2.25 0 1 0 -4.5 0zM888.75 207 a2.25 2.25 0 1 0 4.5 0 a2.25 2.25 0 1 0 -4.5 0zM888.75 225 a2.25 2.25 0 1 0 4.5 0 a2.25 2.25 0 1 0 -4.5 0zM996.75 189 a2.25 2.25 0 1 0 4.5 0 a2.25 2.25 0 1 0 -4.5 0zM1068.75 171 a2.25 2.25 0 1 0 4.5 0 a2.25 2.25 0 1 0 -4.5 0zM1086.75 171 a2.25 2.25 0 1 0 4.5 0 a2.25 2.25 0 1 0 -4.5 0zM1014.75 189 a2.25 2.25 0 1 0 4.5 0 a2.25 2.25 0 1 0 -4.5 0zM924.75 189 a2.25 2.25 0 1 0 4.5 0 a2.25 2.25 0 1 0 -4.5 0z" fill="black"></path><path d="M1086.75 693 a2.25 2.25 0 1 0 4.5 0 a2.25 2.25 0 1 0 -4.5 0zM1086.75 711 a2.25 2.25 0 1 0 4.5 0 a2.25 2.25 0 1 0 -4.5 0zM1590.75 675 a2.25 2.25 0 1 0 4.5 0 a2.25 2.25 0 1 0 -4.5 0zM1464.75 675 a2.25 2.25 0 1 0 4.5 0 a2.25 2.25 0 1 0 -4.5 0zM1392.75 693 a2.25 2.25 0 1 0 4.5 0 a2.25 2.25 0 1 0 -4.5 0zM1554.75 675 a2.25 2.25 0 1 0 4.5 0 a2.25 2.25 0 1 0 -4.5 0zM1680.75 675 a2.25 2.25 0 1 0 4.5 0 a2.25 2.25 0 1 0 -4.5 0zM1878.75 639 a2.25 2.25 0 1 0 4.5 0 a2.25 2.25 0 1 0 -4.5 0zM1284.75 693 a2.25 2.25 0 1 0 4.5 0 a2.25 2.25 0 1 0 -4.5 0z" fill="black"></path><path d="M1032.75 153 a2.25 2.25 0 1 0 4.5 0 a2.25 2.25 0 1 0 -4.5 0zM1734.75 243 a2.25 2.25 0 1 0 4.5 0 a2.25 2.25 0 1 0 -4.5 0zM1446.75 153 a2.25 2.25 0 1 0 4.5 0 a2.25 2.25 0 1 0 -4.5 0zM1302.75 153 a2.25 2.25 0 1 0 4.5 0 a2.25 2.25 0 1 0 -4.5 0zM978.75 135 a2.25 2.25 0 1 0 4.5 0 a2.25 2.25 0 1 0 -4.5 0zM1446.75 171 a2.25 2.25 0 1 0 4.5 0 a2.25 2.25 0 1 0 -4.5 0zM1806.75 225 a2.25 2.25 0 1 0 4.5 0 a2.25 2.25 0 1 0 -4.5 0zM1626.75 189 a2.25 2.25 0 1 0 4.5 0 a2.25 2.25 0 1 0 -4.5 0zM1770.75 225 a2.25 2.25 0 1 0 4.5 0 a2.25 2.25 0 1 0 -4.5 0zM1644.75 171 a2.25 2.25 0 1 0 4.5 0 a2.25 2.25 0 1 0 -4.5 0zM1356.75 153 a2.25 2.25 0 1 0 4.5 0 a2.25 2.25 0 1 0 -4.5 0zM1140.75 171 a2.25 2.25 0 1 0 4.5 0 a2.25 2.25 0 1 0 -4.5 0zM1374.75 189 a2.25 2.25 0 1 0 4.5 0 a2.25 2.25 0 1 0 -4.5 0z" fill="black"></path><path d="M798.75 747 a2.25 2.25 0 1 0 4.5 0 a2.25 2.25 0 1 0 -4.5 0zM1554.75 711 a2.25 2.25 0 1 0 4.5 0 a2.25 2.25 0 1 0 -4.5 0zM888.75 711 a2.25 2.25 0 1 0 4.5 0 a2.25 2.25 0 1 0 -4.5 0zM924.75 747 a2.25 2.25 0 1 0 4.5 0 a2.25 2.25 0 1 0 -4.5 0zM960.75 711 a2.25 2.25 0 1 0 4.5 0 a2.25 2.25 0 1 0 -4.5 0zM1572.75 729 a2.25 2.25 0 1 0 4.5 0 a2.25 2.25 0 1 0 -4.5 0zM1050.75 783 a2.25 2.25 0 1 0 4.5 0 a2.25 2.25 0 1 0 -4.5 0zM1788.75 693 a2.25 2.25 0 1 0 4.5 0 a2.25 2.25 0 1 0 -4.5 0zM1662.75 729 a2.25 2.25 0 1 0 4.5 0 a2.25 2.25 0 1 0 -4.5 0zM1518.75 747 a2.25 2.25 0 1 0 4.5 0 a2.25 2.25 0 1 0 -4.5 0zM1788.75 711 a2.25 2.25 0 1 0 4.5 0 a2.25 2.25 0 1 0 -4.5 0zM1356.75 747 a2.25 2.25 0 1 0 4.5 0 a2.25 2.25 0 1 0 -4.5 0zM1248.75 747 a2.25 2.25 0 1 0 4.5 0 a2.25 2.25 0 1 0 -4.5 0zM1140.75 711 a2.25 2.25 0 1 0 4.5 0 a2.25 2.25 0 1 0 -4.5 0zM1338.75 711 a2.25 2.25 0 1 0 4.5 0 a2.25 2.25 0 1 0 -4.5 0zM1302.75 693 a2.25 2.25 0 1 0 4.5 0 a2.25 2.25 0 1 0 -4.5 0z" fill="black"></path><path d="M1860.75 225 a2.25 2.25 0 1 0 4.5 0 a2.25 2.25 0 1 0 -4.5 0zM1824.75 207 a2.25 2.25 0 1 0 4.5 0 a2.25 2.25 0 1 0 -4.5 0z" fill="black"></path></mask></defs></svg>