<svg xmlns="http://www.w3.org/2000/svg" version="1.1" xmlns:xlink="http://www.w3.org/1999/xlink" xmlns:svgjs="http://svgjs.com/svgjs" width="1920" height="1080" preserveAspectRatio="none" viewBox="0 0 1920 1080"><g mask="url(&quot;#SvgjsMask1169&quot;)" fill="none"><rect width="1920" height="1080" x="0" y="0" fill="rgba(0, 0, 0, 1)"></rect><g mask="url(&quot;#SvgjsMask1170&quot;)"><path d="M1330 530L1310 530M930 530L910 550L890 550L870 550L850 550L830 530L810 530M1750 530L1730 550L1710 550M1510 550L1490 530L1470 530L1450 510L1430 510L1410 510L1390 510L1370 510L1350 510L1330 510L1310 510L1290 510L1270 510L1250 510L1230 510M1350 530L1330 550M750 490L730 510M1770 530L1750 550M1710 530L1690 510L1670 510L1650 510L1630 510M870 530L850 530M1790 530L1770 550M1130 550L1110 530M1530 550L1510 530L1490 510L1470 510L1450 490L1430 490L1410 490M1450 530L1430 550L1410 550L1390 550L1370 550L1350 550M1050 550L1030 570M1930 530L1910 550L1890 550L1870 550L1850 550L1830 550L1810 550L1790 550M1650 530L1630 550L1610 550L1590 550L1570 550M1950 530L1930 530L1910 530L1890 530L1870 530L1850 530L1830 530L1810 530L1790 530L1770 530L1750 530L1730 530L1710 530L1690 530L1670 530L1650 530L1630 530L1610 530L1590 530L1570 530L1550 530L1530 550L1510 550L1490 550L1470 550L1450 530L1430 530L1410 530L1390 530L1370 530L1350 530L1330 530L1310 550L1290 550L1270 570L1250 570L1230 570L1210 570L1190 550L1170 550L1150 550L1130 550L1110 550L1090 550L1070 550L1050 550L1030 550L1010 550L990 530L970 530L950 530L930 530L910 530L890 530L870 530L850 510L830 510L810 510L790 510L770 510L750 490L730 490L710 490L690 490" stroke="rgba(38, 38, 38, 1)" stroke-width="3.33"></path><path d="M685 490 a5 5 0 1 0 10 0 a5 5 0 1 0 -10 0zM1305 530 a5 5 0 1 0 10 0 a5 5 0 1 0 -10 0zM805 530 a5 5 0 1 0 10 0 a5 5 0 1 0 -10 0zM1705 550 a5 5 0 1 0 10 0 a5 5 0 1 0 -10 0zM1225 510 a5 5 0 1 0 10 0 a5 5 0 1 0 -10 0zM1325 550 a5 5 0 1 0 10 0 a5 5 0 1 0 -10 0zM725 510 a5 5 0 1 0 10 0 a5 5 0 1 0 -10 0zM1745 550 a5 5 0 1 0 10 0 a5 5 0 1 0 -10 0zM1625 510 a5 5 0 1 0 10 0 a5 5 0 1 0 -10 0zM845 530 a5 5 0 1 0 10 0 a5 5 0 1 0 -10 0zM1765 550 a5 5 0 1 0 10 0 a5 5 0 1 0 -10 0zM1105 530 a5 5 0 1 0 10 0 a5 5 0 1 0 -10 0zM1405 490 a5 5 0 1 0 10 0 a5 5 0 1 0 -10 0zM1345 550 a5 5 0 1 0 10 0 a5 5 0 1 0 -10 0zM1025 570 a5 5 0 1 0 10 0 a5 5 0 1 0 -10 0zM1785 550 a5 5 0 1 0 10 0 a5 5 0 1 0 -10 0zM1565 550 a5 5 0 1 0 10 0 a5 5 0 1 0 -10 0z" fill="rgba(38, 38, 38, 1)"></path><path d="M1690 570L1670 550M1170 570L1150 590L1130 590L1110 590L1090 590L1070 590L1050 590M1210 590L1190 590L1170 590M1950 570L1930 570L1910 570L1890 570L1870 570L1850 570L1830 570L1810 570L1790 570L1770 570L1750 570L1730 570L1710 570L1690 570L1670 570L1650 570L1630 570L1610 570L1590 570L1570 570L1550 570L1530 570L1510 570L1490 570L1470 570L1450 570L1430 570L1410 570L1390 570L1370 570L1350 570L1330 570L1310 570L1290 570L1270 590L1250 590L1230 590L1210 590L1190 570L1170 570L1150 570L1130 570" stroke="rgba(38, 38, 38, 1)" stroke-width="3.33"></path><path d="M1125 570 a5 5 0 1 0 10 0 a5 5 0 1 0 -10 0zM1665 550 a5 5 0 1 0 10 0 a5 5 0 1 0 -10 0zM1045 590 a5 5 0 1 0 10 0 a5 5 0 1 0 -10 0zM1165 590 a5 5 0 1 0 10 0 a5 5 0 1 0 -10 0z" fill="rgba(38, 38, 38, 1)"></path><path d="M1270 490L1250 470L1230 470L1210 470M910 490L890 510L870 510M1390 490L1370 470L1350 470L1330 470L1310 470L1290 470L1270 470L1250 450L1230 450L1210 450L1190 450L1170 450L1150 450L1130 450L1110 450L1090 450L1070 450M1750 510L1730 510L1710 510M1510 470L1490 490L1470 490M1090 510L1070 530M1210 490L1190 510L1170 510L1150 530L1130 530L1110 510M1010 510L990 490L970 470L950 470M1170 490L1150 470L1130 470L1110 470L1090 470L1070 470L1050 470L1030 470L1010 470L990 470M1190 490L1170 470M890 490L870 470L850 470L830 470M970 510L950 490L930 490L910 470L890 470M1050 510L1030 490L1010 490M1610 490L1590 510M1950 510L1930 510L1910 510L1890 510L1870 510L1850 510L1830 510L1810 510L1790 510L1770 510L1750 510L1730 490L1710 490L1690 490L1670 490L1650 490L1630 490L1610 490L1590 490L1570 490L1550 490L1530 470L1510 470L1490 470L1470 470L1450 470L1430 470L1410 470L1390 490L1370 490L1350 490L1330 490L1310 490L1290 490L1270 490L1250 490L1230 490L1210 490L1190 490L1170 490L1150 490L1130 490L1110 490L1090 510L1070 510L1050 510L1030 510L1010 510L990 510L970 510L950 510L930 510L910 490L890 490L870 490L850 490" stroke="rgba(23, 23, 23, 1)" stroke-width="3.33"></path><path d="M845 490 a5 5 0 1 0 10 0 a5 5 0 1 0 -10 0zM1205 470 a5 5 0 1 0 10 0 a5 5 0 1 0 -10 0zM865 510 a5 5 0 1 0 10 0 a5 5 0 1 0 -10 0zM1065 450 a5 5 0 1 0 10 0 a5 5 0 1 0 -10 0zM1705 510 a5 5 0 1 0 10 0 a5 5 0 1 0 -10 0zM1465 490 a5 5 0 1 0 10 0 a5 5 0 1 0 -10 0zM1065 530 a5 5 0 1 0 10 0 a5 5 0 1 0 -10 0zM1105 510 a5 5 0 1 0 10 0 a5 5 0 1 0 -10 0zM945 470 a5 5 0 1 0 10 0 a5 5 0 1 0 -10 0zM985 470 a5 5 0 1 0 10 0 a5 5 0 1 0 -10 0zM1165 470 a5 5 0 1 0 10 0 a5 5 0 1 0 -10 0zM825 470 a5 5 0 1 0 10 0 a5 5 0 1 0 -10 0zM885 470 a5 5 0 1 0 10 0 a5 5 0 1 0 -10 0zM1005 490 a5 5 0 1 0 10 0 a5 5 0 1 0 -10 0zM1585 510 a5 5 0 1 0 10 0 a5 5 0 1 0 -10 0z" fill="rgba(23, 23, 23, 1)"></path><path d="M930 610L910 590L890 590L870 590L850 590L830 590L810 590L790 590L770 610L750 610L730 630L710 650L690 650L670 650L650 650M1070 610L1050 630L1030 630L1010 630L990 630L970 630M1090 610L1070 630L1050 650L1030 650L1010 650M890 610L870 630L850 630L830 630L810 630L790 630L770 630L750 630L730 650L710 670L690 670L670 670L650 670M950 610L930 630L910 630L890 650L870 650L850 650L830 650L810 670L790 670L770 670L750 670L730 670L710 690M1110 610L1090 630L1070 650L1050 670L1030 670L1010 670L990 670L970 670L950 670L930 670L910 670L890 670L870 670L850 670L830 670L810 690L790 690L770 690L750 690L730 710L710 730L690 730L670 730L650 750M1270 610L1250 630L1230 630M1310 590L1290 610L1270 630L1250 650L1230 650L1210 650M1170 610L1150 630L1130 630L1110 630L1090 650L1070 670L1050 690L1030 690L1010 690M1330 590L1310 610L1290 630M1030 610L1010 590M1550 590L1530 610M1570 590L1550 610M1950 590L1930 590L1910 590L1890 590L1870 590L1850 590L1830 590L1810 590L1790 590L1770 590L1750 590L1730 590L1710 590L1690 590L1670 590L1650 590L1630 590L1610 590L1590 590L1570 590L1550 590L1530 590L1510 590L1490 590L1470 590L1450 590L1430 590L1410 590L1390 590L1370 590L1350 590L1330 590L1310 590L1290 590L1270 610L1250 610L1230 610L1210 610L1190 610L1170 610L1150 610L1130 610L1110 610L1090 610L1070 610L1050 610L1030 610L1010 610L990 610L970 610L950 610L930 610L910 610L890 610L870 610" stroke="rgba(38, 38, 38, 1)" stroke-width="3.33"></path><path d="M865 610 a5 5 0 1 0 10 0 a5 5 0 1 0 -10 0zM645 650 a5 5 0 1 0 10 0 a5 5 0 1 0 -10 0zM965 630 a5 5 0 1 0 10 0 a5 5 0 1 0 -10 0zM1005 650 a5 5 0 1 0 10 0 a5 5 0 1 0 -10 0zM645 670 a5 5 0 1 0 10 0 a5 5 0 1 0 -10 0zM705 690 a5 5 0 1 0 10 0 a5 5 0 1 0 -10 0zM645 750 a5 5 0 1 0 10 0 a5 5 0 1 0 -10 0zM1225 630 a5 5 0 1 0 10 0 a5 5 0 1 0 -10 0zM1205 650 a5 5 0 1 0 10 0 a5 5 0 1 0 -10 0zM1005 690 a5 5 0 1 0 10 0 a5 5 0 1 0 -10 0zM1285 630 a5 5 0 1 0 10 0 a5 5 0 1 0 -10 0zM1005 590 a5 5 0 1 0 10 0 a5 5 0 1 0 -10 0zM1525 610 a5 5 0 1 0 10 0 a5 5 0 1 0 -10 0zM1545 610 a5 5 0 1 0 10 0 a5 5 0 1 0 -10 0z" fill="rgba(38, 38, 38, 1)"></path><path d="M890 450L870 430L850 430L830 430L810 430L790 430L770 430L750 430L730 430L710 430L690 430M1030 450L1010 430L990 430L970 430L950 430M690 450L670 470L650 470M1430 450L1410 430L1390 430M1450 450L1430 430L1410 410L1390 410L1370 410L1350 410L1330 430M1470 450L1450 430L1430 410M1090 430L1070 410L1050 410L1030 410L1010 410L990 410L970 410L950 410L930 410M910 450L890 430L870 410L850 410L830 410L810 410L790 410L770 390M730 470L710 450M1270 430L1250 410L1230 410L1210 390L1190 390M810 450L790 470L770 470L750 470M1370 450L1350 430M930 450L910 430L890 410L870 390L850 390L830 390L810 390L790 390L770 370L750 370L730 370L710 370M1510 450L1490 430L1470 430L1450 410M1110 430L1090 410L1070 390L1050 390L1030 370L1010 370M1210 410L1190 430L1170 430M1950 490L1930 490L1910 490L1890 490L1870 490L1850 490L1830 490L1810 490L1790 490L1770 490L1750 490L1730 470L1710 470L1690 470L1670 470L1650 470L1630 470L1610 470L1590 470L1570 470L1550 470L1530 450L1510 450L1490 450L1470 450L1450 450L1430 450L1410 450L1390 450L1370 450L1350 450L1330 450L1310 430L1290 430L1270 430L1250 430L1230 430L1210 410L1190 410L1170 410L1150 430L1130 430L1110 430L1090 430L1070 430L1050 430L1030 450L1010 450L990 450L970 450L950 450L930 450L910 450L890 450L870 450L850 450L830 450L810 450L790 450L770 450L750 450L730 470L710 470L690 450L670 450L650 450" stroke="rgba(38, 38, 38, 1)" stroke-width="3.33"></path><path d="M645 450 a5 5 0 1 0 10 0 a5 5 0 1 0 -10 0zM685 430 a5 5 0 1 0 10 0 a5 5 0 1 0 -10 0zM945 430 a5 5 0 1 0 10 0 a5 5 0 1 0 -10 0zM645 470 a5 5 0 1 0 10 0 a5 5 0 1 0 -10 0zM1385 430 a5 5 0 1 0 10 0 a5 5 0 1 0 -10 0zM1325 430 a5 5 0 1 0 10 0 a5 5 0 1 0 -10 0zM1425 410 a5 5 0 1 0 10 0 a5 5 0 1 0 -10 0zM925 410 a5 5 0 1 0 10 0 a5 5 0 1 0 -10 0zM765 390 a5 5 0 1 0 10 0 a5 5 0 1 0 -10 0zM705 450 a5 5 0 1 0 10 0 a5 5 0 1 0 -10 0zM1185 390 a5 5 0 1 0 10 0 a5 5 0 1 0 -10 0zM745 470 a5 5 0 1 0 10 0 a5 5 0 1 0 -10 0zM1345 430 a5 5 0 1 0 10 0 a5 5 0 1 0 -10 0zM705 370 a5 5 0 1 0 10 0 a5 5 0 1 0 -10 0zM1445 410 a5 5 0 1 0 10 0 a5 5 0 1 0 -10 0zM1005 370 a5 5 0 1 0 10 0 a5 5 0 1 0 -10 0zM1165 430 a5 5 0 1 0 10 0 a5 5 0 1 0 -10 0z" fill="rgba(38, 38, 38, 1)"></path><path d="M1830 610L1810 630L1790 630L1770 630M1850 610L1830 630M1910 610L1890 630L1870 630M1950 610L1930 610L1910 610L1890 610L1870 610L1850 610L1830 610L1810 610L1790 610L1770 610L1750 610L1730 610L1710 610L1690 610L1670 610L1650 610L1630 610L1610 610" stroke="rgba(38, 38, 38, 1)" stroke-width="3.33"></path><path d="M1605 610 a5 5 0 1 0 10 0 a5 5 0 1 0 -10 0zM1765 630 a5 5 0 1 0 10 0 a5 5 0 1 0 -10 0zM1825 630 a5 5 0 1 0 10 0 a5 5 0 1 0 -10 0zM1865 630 a5 5 0 1 0 10 0 a5 5 0 1 0 -10 0z" fill="rgba(38, 38, 38, 1)"></path><path d="M1830 470L1810 450L1790 450M1730 450L1710 430L1690 430L1670 430L1650 430M1770 470L1750 450M1850 470L1830 450M1570 430L1550 430L1530 430L1510 430L1490 410M1950 470L1930 470L1910 470L1890 470L1870 470L1850 470L1830 470L1810 470L1790 470L1770 470L1750 470L1730 450L1710 450L1690 450L1670 450L1650 450L1630 450L1610 430L1590 430L1570 430L1550 450" stroke="rgba(23, 23, 23, 1)" stroke-width="3.33"></path><path d="M1545 450 a5 5 0 1 0 10 0 a5 5 0 1 0 -10 0zM1785 450 a5 5 0 1 0 10 0 a5 5 0 1 0 -10 0zM1645 430 a5 5 0 1 0 10 0 a5 5 0 1 0 -10 0zM1745 450 a5 5 0 1 0 10 0 a5 5 0 1 0 -10 0zM1825 450 a5 5 0 1 0 10 0 a5 5 0 1 0 -10 0zM1485 410 a5 5 0 1 0 10 0 a5 5 0 1 0 -10 0z" fill="rgba(23, 23, 23, 1)"></path><path d="M1650 630L1630 650L1610 650M1510 610L1490 630M1430 610L1410 630M1590 630L1570 650L1550 650L1530 650M1770 650L1750 650L1730 650L1710 650L1690 650L1670 650L1650 650L1630 670L1610 670L1590 670L1570 670L1550 670L1530 670M1370 610L1350 630L1330 630M1390 610L1370 630L1350 650M1950 630L1930 630L1910 650L1890 650L1870 650L1850 650L1830 650L1810 650L1790 650L1770 650L1750 630L1730 630L1710 630L1690 630L1670 630L1650 630L1630 630L1610 630L1590 630L1570 630L1550 630L1530 630L1510 610L1490 610L1470 610L1450 610L1430 610L1410 610L1390 610L1370 610L1350 610" stroke="rgba(23, 23, 23, 1)" stroke-width="3.33"></path><path d="M1345 610 a5 5 0 1 0 10 0 a5 5 0 1 0 -10 0zM1605 650 a5 5 0 1 0 10 0 a5 5 0 1 0 -10 0zM1485 630 a5 5 0 1 0 10 0 a5 5 0 1 0 -10 0zM1405 630 a5 5 0 1 0 10 0 a5 5 0 1 0 -10 0zM1525 650 a5 5 0 1 0 10 0 a5 5 0 1 0 -10 0zM1525 670 a5 5 0 1 0 10 0 a5 5 0 1 0 -10 0zM1325 630 a5 5 0 1 0 10 0 a5 5 0 1 0 -10 0zM1345 650 a5 5 0 1 0 10 0 a5 5 0 1 0 -10 0z" fill="rgba(23, 23, 23, 1)"></path><path d="M1850 430L1830 410L1810 410L1790 430L1770 430M1870 450L1850 450M1930 450L1910 430L1890 430L1870 430M1950 450L1930 450L1910 450L1890 450L1870 450L1850 430L1830 430" stroke="rgba(23, 23, 23, 1)" stroke-width="3.33"></path><path d="M1825 430 a5 5 0 1 0 10 0 a5 5 0 1 0 -10 0zM1765 430 a5 5 0 1 0 10 0 a5 5 0 1 0 -10 0zM1845 450 a5 5 0 1 0 10 0 a5 5 0 1 0 -10 0zM1865 430 a5 5 0 1 0 10 0 a5 5 0 1 0 -10 0z" fill="rgba(23, 23, 23, 1)"></path><path d="M1950 650L1930 650L1910 670L1890 670L1870 670L1850 670L1830 670L1810 670L1790 670L1770 670L1750 670" stroke="rgba(38, 38, 38, 1)" stroke-width="3.33"></path><path d="M1745 670 a5 5 0 1 0 10 0 a5 5 0 1 0 -10 0z" fill="rgba(38, 38, 38, 1)"></path><path d="M1450 390L1430 370L1410 370L1390 370L1370 370L1350 370L1330 350L1310 350L1290 350L1270 350M1650 410L1630 390L1610 390L1590 390M1770 410L1750 390L1730 390L1710 390L1690 390M1790 410L1770 390L1750 370L1730 370L1710 370L1690 370L1670 390L1650 390M1750 410L1730 430M1810 390L1790 390L1770 370M1510 390L1490 370L1470 370L1450 370L1430 350L1410 350L1390 350M1570 390L1550 370L1530 370L1510 370L1490 350L1470 350L1450 350L1430 330L1410 330M1330 370L1310 390L1290 390L1270 390L1250 390L1230 390L1210 370L1190 370M1950 430L1930 410L1910 410L1890 410L1870 390L1850 390L1830 390L1810 390L1790 410L1770 410L1750 410L1730 410L1710 410L1690 410L1670 410L1650 410L1630 410L1610 410L1590 410L1570 390L1550 390L1530 390L1510 390L1490 390L1470 390L1450 390L1430 390L1410 390L1390 390L1370 390L1350 390L1330 370L1310 370L1290 370L1270 370L1250 370" stroke="rgba(38, 38, 38, 1)" stroke-width="3.33"></path><path d="M1245 370 a5 5 0 1 0 10 0 a5 5 0 1 0 -10 0zM1265 350 a5 5 0 1 0 10 0 a5 5 0 1 0 -10 0zM1585 390 a5 5 0 1 0 10 0 a5 5 0 1 0 -10 0zM1685 390 a5 5 0 1 0 10 0 a5 5 0 1 0 -10 0zM1645 390 a5 5 0 1 0 10 0 a5 5 0 1 0 -10 0zM1725 430 a5 5 0 1 0 10 0 a5 5 0 1 0 -10 0zM1765 370 a5 5 0 1 0 10 0 a5 5 0 1 0 -10 0zM1385 350 a5 5 0 1 0 10 0 a5 5 0 1 0 -10 0zM1405 330 a5 5 0 1 0 10 0 a5 5 0 1 0 -10 0zM1185 370 a5 5 0 1 0 10 0 a5 5 0 1 0 -10 0z" fill="rgba(38, 38, 38, 1)"></path><path d="M1810 690L1790 710M1950 670L1930 670L1910 690L1890 690L1870 690L1850 690L1830 690L1810 690L1790 690L1770 690" stroke="rgba(38, 38, 38, 1)" stroke-width="3.33"></path><path d="M1765 690 a5 5 0 1 0 10 0 a5 5 0 1 0 -10 0zM1785 710 a5 5 0 1 0 10 0 a5 5 0 1 0 -10 0z" fill="rgba(38, 38, 38, 1)"></path><path d="M1450 750L1430 770L1410 770M1330 750L1310 770L1290 770L1270 770L1250 770M1610 710L1590 730L1570 750L1550 750L1530 750M1730 710L1710 730L1690 730L1670 730L1650 730L1630 730L1610 730L1590 750M1310 750L1290 730L1270 730L1250 730L1230 710L1210 710L1190 710L1170 730L1150 730L1130 730L1110 730M1430 750L1410 730L1390 730M1870 710L1850 730L1830 730M1550 730L1530 710L1510 710L1490 710M1490 730L1470 730L1450 730L1430 730L1410 710L1390 710L1370 710L1350 710L1330 710L1310 710L1290 710L1270 690M1950 690L1930 690L1910 710L1890 710L1870 710L1850 710L1830 710L1810 730L1790 730L1770 730L1750 730L1730 710L1710 710L1690 710L1670 710L1650 710L1630 710L1610 710L1590 710L1570 730L1550 730L1530 730L1510 730L1490 730L1470 750L1450 750L1430 750L1410 750L1390 750L1370 750L1350 750L1330 750L1310 750L1290 750L1270 750L1250 750L1230 770L1210 770L1190 770" stroke="rgba(23, 23, 23, 1)" stroke-width="3.33"></path><path d="M1185 770 a5 5 0 1 0 10 0 a5 5 0 1 0 -10 0zM1405 770 a5 5 0 1 0 10 0 a5 5 0 1 0 -10 0zM1245 770 a5 5 0 1 0 10 0 a5 5 0 1 0 -10 0zM1525 750 a5 5 0 1 0 10 0 a5 5 0 1 0 -10 0zM1585 750 a5 5 0 1 0 10 0 a5 5 0 1 0 -10 0zM1105 730 a5 5 0 1 0 10 0 a5 5 0 1 0 -10 0zM1385 730 a5 5 0 1 0 10 0 a5 5 0 1 0 -10 0zM1825 730 a5 5 0 1 0 10 0 a5 5 0 1 0 -10 0zM1485 710 a5 5 0 1 0 10 0 a5 5 0 1 0 -10 0zM1265 690 a5 5 0 1 0 10 0 a5 5 0 1 0 -10 0z" fill="rgba(23, 23, 23, 1)"></path><path d="M1650 370L1630 350L1610 350L1590 350M1810 370L1790 370M1950 390L1930 390L1910 390L1890 390L1870 370L1850 370L1830 370L1810 370L1790 350L1770 350L1750 350L1730 350L1710 350L1690 350L1670 350L1650 370L1630 370L1610 370L1590 370" stroke="rgba(38, 38, 38, 1)" stroke-width="3.33"></path><path d="M1585 370 a5 5 0 1 0 10 0 a5 5 0 1 0 -10 0zM1585 350 a5 5 0 1 0 10 0 a5 5 0 1 0 -10 0zM1785 370 a5 5 0 1 0 10 0 a5 5 0 1 0 -10 0z" fill="rgba(38, 38, 38, 1)"></path><path d="M1650 770L1630 750L1610 750M1910 730L1890 730M1670 770L1650 750M1630 770L1610 790L1590 790L1570 790L1550 790M1950 710L1930 710L1910 730L1890 750L1870 750L1850 750L1830 750L1810 750L1790 750L1770 750L1750 750L1730 750L1710 750L1690 750L1670 770L1650 770L1630 770L1610 770L1590 770" stroke="rgba(23, 23, 23, 1)" stroke-width="3.33"></path><path d="M1585 770 a5 5 0 1 0 10 0 a5 5 0 1 0 -10 0zM1605 750 a5 5 0 1 0 10 0 a5 5 0 1 0 -10 0zM1885 730 a5 5 0 1 0 10 0 a5 5 0 1 0 -10 0zM1645 750 a5 5 0 1 0 10 0 a5 5 0 1 0 -10 0zM1545 790 a5 5 0 1 0 10 0 a5 5 0 1 0 -10 0z" fill="rgba(23, 23, 23, 1)"></path><path d="M1690 330L1670 330M1570 290L1550 310L1530 310L1510 310M1630 310L1610 330L1590 330L1570 330L1550 330M1650 310L1630 330M1710 330L1690 310M1950 370L1930 370L1910 370L1890 370L1870 350L1850 350L1830 350L1810 350L1790 330L1770 330L1750 330L1730 330L1710 330L1690 330L1670 310L1650 310L1630 310L1610 310L1590 310L1570 290L1550 290L1530 290" stroke="rgba(23, 23, 23, 1)" stroke-width="3.33"></path><path d="M1525 290 a5 5 0 1 0 10 0 a5 5 0 1 0 -10 0zM1665 330 a5 5 0 1 0 10 0 a5 5 0 1 0 -10 0zM1505 310 a5 5 0 1 0 10 0 a5 5 0 1 0 -10 0zM1545 330 a5 5 0 1 0 10 0 a5 5 0 1 0 -10 0zM1625 330 a5 5 0 1 0 10 0 a5 5 0 1 0 -10 0zM1685 310 a5 5 0 1 0 10 0 a5 5 0 1 0 -10 0z" fill="rgba(23, 23, 23, 1)"></path><path d="M1550 830L1530 810L1510 810L1490 810L1470 810L1450 810L1430 810M1190 850L1170 870L1150 870M1330 850L1310 870L1290 870L1270 870L1250 870L1230 890L1210 910L1190 910L1170 910L1150 910M1510 850L1490 830L1470 830L1450 830L1430 830M1470 850L1450 870L1430 890L1410 890L1390 890L1370 890L1350 910M1410 850L1390 870L1370 870M1590 830L1570 810L1550 810M1650 790L1630 790M1370 850L1350 830L1330 830L1310 830L1290 830L1270 830M1210 850L1190 870L1170 890L1150 890L1130 890L1110 890L1090 890L1070 890L1050 890L1030 890L1010 890L990 890M1950 730L1930 750L1910 750L1890 770L1870 770L1850 770L1830 770L1810 770L1790 770L1770 770L1750 770L1730 770L1710 770L1690 770L1670 790L1650 790L1630 810L1610 830L1590 830L1570 830L1550 830L1530 830L1510 850L1490 850L1470 850L1450 850L1430 850L1410 850L1390 850L1370 850L1350 850L1330 850L1310 850L1290 850L1270 850L1250 850L1230 850L1210 850L1190 850L1170 850" stroke="rgba(38, 38, 38, 1)" stroke-width="3.33"></path><path d="M1165 850 a5 5 0 1 0 10 0 a5 5 0 1 0 -10 0zM1425 810 a5 5 0 1 0 10 0 a5 5 0 1 0 -10 0zM1145 870 a5 5 0 1 0 10 0 a5 5 0 1 0 -10 0zM1145 910 a5 5 0 1 0 10 0 a5 5 0 1 0 -10 0zM1425 830 a5 5 0 1 0 10 0 a5 5 0 1 0 -10 0zM1345 910 a5 5 0 1 0 10 0 a5 5 0 1 0 -10 0zM1365 870 a5 5 0 1 0 10 0 a5 5 0 1 0 -10 0zM1545 810 a5 5 0 1 0 10 0 a5 5 0 1 0 -10 0zM1625 790 a5 5 0 1 0 10 0 a5 5 0 1 0 -10 0zM1265 830 a5 5 0 1 0 10 0 a5 5 0 1 0 -10 0zM985 890 a5 5 0 1 0 10 0 a5 5 0 1 0 -10 0z" fill="rgba(38, 38, 38, 1)"></path><path d="M1950 350L1930 350L1910 350L1890 350L1870 330L1850 330L1830 330L1810 330L1790 310L1770 310L1750 310L1730 310L1710 290L1690 290L1670 290L1650 290L1630 290L1610 290L1590 290" stroke="rgba(38, 38, 38, 1)" stroke-width="3.33"></path><path d="M1585 290 a5 5 0 1 0 10 0 a5 5 0 1 0 -10 0z" fill="rgba(38, 38, 38, 1)"></path><path d="M1950 330L1930 330L1910 330L1890 330L1870 310L1850 310L1830 310" stroke="rgba(38, 38, 38, 1)" stroke-width="3.33"></path><path d="M1825 310 a5 5 0 1 0 10 0 a5 5 0 1 0 -10 0z" fill="rgba(38, 38, 38, 1)"></path><path d="M1930 770L1910 790M1950 770L1930 770L1910 770L1890 790L1870 790" stroke="rgba(38, 38, 38, 1)" stroke-width="3.33"></path><path d="M1865 790 a5 5 0 1 0 10 0 a5 5 0 1 0 -10 0zM1905 790 a5 5 0 1 0 10 0 a5 5 0 1 0 -10 0z" fill="rgba(38, 38, 38, 1)"></path><path d="M1370 290L1350 290L1330 290M1270 270L1250 290L1230 290L1210 290M1430 270L1410 270L1390 270L1370 270M1410 290L1390 310L1370 310L1350 310L1330 310L1310 310L1290 310M1290 270L1270 290L1250 310L1230 310M1470 270L1450 290L1430 290L1410 310M1490 270L1470 290L1450 310L1430 310M1310 270L1290 290M1190 270L1170 290M1510 270L1490 290M1950 310L1930 310L1910 310L1890 310L1870 290L1850 290L1830 290L1810 290L1790 290L1770 290L1750 290L1730 270L1710 270L1690 270L1670 270L1650 270L1630 270L1610 270L1590 270L1570 270L1550 270L1530 270L1510 270L1490 270L1470 270L1450 270L1430 270L1410 290L1390 290L1370 290L1350 270L1330 270L1310 270L1290 270L1270 270L1250 270L1230 270L1210 270L1190 270L1170 270L1150 270" stroke="rgba(38, 38, 38, 1)" stroke-width="3.33"></path><path d="M1145 270 a5 5 0 1 0 10 0 a5 5 0 1 0 -10 0zM1325 290 a5 5 0 1 0 10 0 a5 5 0 1 0 -10 0zM1205 290 a5 5 0 1 0 10 0 a5 5 0 1 0 -10 0zM1365 270 a5 5 0 1 0 10 0 a5 5 0 1 0 -10 0zM1285 310 a5 5 0 1 0 10 0 a5 5 0 1 0 -10 0zM1225 310 a5 5 0 1 0 10 0 a5 5 0 1 0 -10 0zM1405 310 a5 5 0 1 0 10 0 a5 5 0 1 0 -10 0zM1425 310 a5 5 0 1 0 10 0 a5 5 0 1 0 -10 0zM1285 290 a5 5 0 1 0 10 0 a5 5 0 1 0 -10 0zM1165 290 a5 5 0 1 0 10 0 a5 5 0 1 0 -10 0zM1485 290 a5 5 0 1 0 10 0 a5 5 0 1 0 -10 0z" fill="rgba(38, 38, 38, 1)"></path><path d="M1930 810L1910 830L1890 830L1870 830L1850 830L1830 830L1810 830L1790 830M1690 810L1670 830L1650 850M1570 870L1550 850L1530 850M1790 810L1770 790L1750 790L1730 790L1710 790L1690 790M1830 810L1810 790L1790 790M1530 870L1510 890L1490 890L1470 870M1950 790L1930 810L1910 810L1890 810L1870 810L1850 810L1830 810L1810 810L1790 810L1770 810L1750 810L1730 810L1710 810L1690 810L1670 810L1650 810L1630 830L1610 850L1590 870L1570 870L1550 870L1530 870L1510 870L1490 870" stroke="rgba(23, 23, 23, 1)" stroke-width="3.33"></path><path d="M1485 870 a5 5 0 1 0 10 0 a5 5 0 1 0 -10 0zM1785 830 a5 5 0 1 0 10 0 a5 5 0 1 0 -10 0zM1645 850 a5 5 0 1 0 10 0 a5 5 0 1 0 -10 0zM1525 850 a5 5 0 1 0 10 0 a5 5 0 1 0 -10 0zM1685 790 a5 5 0 1 0 10 0 a5 5 0 1 0 -10 0zM1785 790 a5 5 0 1 0 10 0 a5 5 0 1 0 -10 0zM1465 870 a5 5 0 1 0 10 0 a5 5 0 1 0 -10 0z" fill="rgba(23, 23, 23, 1)"></path><path d="M1030 250L1010 270M970 250L950 230L930 230L910 230L890 230L870 230L850 230L830 230L810 250L790 250L770 250L750 250L730 230L710 230L690 230L670 230L650 230M1670 250L1650 230M1770 270L1750 250L1730 230M1230 250L1210 230L1190 210L1170 210L1150 210M1290 250L1270 230L1250 230L1230 230L1210 210M1910 290L1890 270L1870 250L1850 250L1830 250L1810 250L1790 250L1770 250L1750 230L1730 210L1710 190L1690 190L1670 190M1170 250L1150 230L1130 230L1110 230L1090 230M1430 250L1410 230L1390 230L1370 230M1550 250L1530 230M1350 250L1330 230L1310 230L1290 230L1270 210L1250 210L1230 210L1210 190L1190 190L1170 190L1150 190L1130 190L1110 190L1090 190L1070 190L1050 170M1090 250L1070 270L1050 270L1030 270L1010 290M1190 250L1170 230M1950 290L1930 290L1910 290L1890 290L1870 270L1850 270L1830 270L1810 270L1790 270L1770 270L1750 270L1730 250L1710 250L1690 250L1670 250L1650 250L1630 250L1610 250L1590 250L1570 250L1550 250L1530 250L1510 250L1490 250L1470 250L1450 250L1430 250L1410 250L1390 250L1370 250L1350 250L1330 250L1310 250L1290 250L1270 250L1250 250L1230 250L1210 250L1190 250L1170 250L1150 250L1130 250L1110 250L1090 250L1070 250L1050 250L1030 250L1010 250L990 250L970 250L950 250L930 250L910 250L890 250" stroke="rgba(38, 38, 38, 1)" stroke-width="3.33"></path><path d="M885 250 a5 5 0 1 0 10 0 a5 5 0 1 0 -10 0zM1005 270 a5 5 0 1 0 10 0 a5 5 0 1 0 -10 0zM645 230 a5 5 0 1 0 10 0 a5 5 0 1 0 -10 0zM1645 230 a5 5 0 1 0 10 0 a5 5 0 1 0 -10 0zM1725 230 a5 5 0 1 0 10 0 a5 5 0 1 0 -10 0zM1145 210 a5 5 0 1 0 10 0 a5 5 0 1 0 -10 0zM1205 210 a5 5 0 1 0 10 0 a5 5 0 1 0 -10 0zM1665 190 a5 5 0 1 0 10 0 a5 5 0 1 0 -10 0zM1085 230 a5 5 0 1 0 10 0 a5 5 0 1 0 -10 0zM1365 230 a5 5 0 1 0 10 0 a5 5 0 1 0 -10 0zM1525 230 a5 5 0 1 0 10 0 a5 5 0 1 0 -10 0zM1045 170 a5 5 0 1 0 10 0 a5 5 0 1 0 -10 0zM1005 290 a5 5 0 1 0 10 0 a5 5 0 1 0 -10 0zM1165 230 a5 5 0 1 0 10 0 a5 5 0 1 0 -10 0z" fill="rgba(38, 38, 38, 1)"></path></g></g><defs><mask id="SvgjsMask1169"><rect width="1920" height="1080" fill="#ffffff"></rect></mask><mask id="SvgjsMask1170"><rect width="1920" height="1080" fill="white"></rect><path d="M687.5 490 a2.5 2.5 0 1 0 5 0 a2.5 2.5 0 1 0 -5 0zM1307.5 530 a2.5 2.5 0 1 0 5 0 a2.5 2.5 0 1 0 -5 0zM807.5 530 a2.5 2.5 0 1 0 5 0 a2.5 2.5 0 1 0 -5 0zM1707.5 550 a2.5 2.5 0 1 0 5 0 a2.5 2.5 0 1 0 -5 0zM1227.5 510 a2.5 2.5 0 1 0 5 0 a2.5 2.5 0 1 0 -5 0zM1327.5 550 a2.5 2.5 0 1 0 5 0 a2.5 2.5 0 1 0 -5 0zM727.5 510 a2.5 2.5 0 1 0 5 0 a2.5 2.5 0 1 0 -5 0zM1747.5 550 a2.5 2.5 0 1 0 5 0 a2.5 2.5 0 1 0 -5 0zM1627.5 510 a2.5 2.5 0 1 0 5 0 a2.5 2.5 0 1 0 -5 0zM847.5 530 a2.5 2.5 0 1 0 5 0 a2.5 2.5 0 1 0 -5 0zM1767.5 550 a2.5 2.5 0 1 0 5 0 a2.5 2.5 0 1 0 -5 0zM1107.5 530 a2.5 2.5 0 1 0 5 0 a2.5 2.5 0 1 0 -5 0zM1407.5 490 a2.5 2.5 0 1 0 5 0 a2.5 2.5 0 1 0 -5 0zM1347.5 550 a2.5 2.5 0 1 0 5 0 a2.5 2.5 0 1 0 -5 0zM1027.5 570 a2.5 2.5 0 1 0 5 0 a2.5 2.5 0 1 0 -5 0zM1787.5 550 a2.5 2.5 0 1 0 5 0 a2.5 2.5 0 1 0 -5 0zM1567.5 550 a2.5 2.5 0 1 0 5 0 a2.5 2.5 0 1 0 -5 0z" fill="black"></path><path d="M1127.5 570 a2.5 2.5 0 1 0 5 0 a2.5 2.5 0 1 0 -5 0zM1667.5 550 a2.5 2.5 0 1 0 5 0 a2.5 2.5 0 1 0 -5 0zM1047.5 590 a2.5 2.5 0 1 0 5 0 a2.5 2.5 0 1 0 -5 0zM1167.5 590 a2.5 2.5 0 1 0 5 0 a2.5 2.5 0 1 0 -5 0z" fill="black"></path><path d="M847.5 490 a2.5 2.5 0 1 0 5 0 a2.5 2.5 0 1 0 -5 0zM1207.5 470 a2.5 2.5 0 1 0 5 0 a2.5 2.5 0 1 0 -5 0zM867.5 510 a2.5 2.5 0 1 0 5 0 a2.5 2.5 0 1 0 -5 0zM1067.5 450 a2.5 2.5 0 1 0 5 0 a2.5 2.5 0 1 0 -5 0zM1707.5 510 a2.5 2.5 0 1 0 5 0 a2.5 2.5 0 1 0 -5 0zM1467.5 490 a2.5 2.5 0 1 0 5 0 a2.5 2.5 0 1 0 -5 0zM1067.5 530 a2.5 2.5 0 1 0 5 0 a2.5 2.5 0 1 0 -5 0zM1107.5 510 a2.5 2.5 0 1 0 5 0 a2.5 2.5 0 1 0 -5 0zM947.5 470 a2.5 2.5 0 1 0 5 0 a2.5 2.5 0 1 0 -5 0zM987.5 470 a2.5 2.5 0 1 0 5 0 a2.5 2.5 0 1 0 -5 0zM1167.5 470 a2.5 2.5 0 1 0 5 0 a2.5 2.5 0 1 0 -5 0zM827.5 470 a2.5 2.5 0 1 0 5 0 a2.5 2.5 0 1 0 -5 0zM887.5 470 a2.5 2.5 0 1 0 5 0 a2.5 2.5 0 1 0 -5 0zM1007.5 490 a2.5 2.5 0 1 0 5 0 a2.5 2.5 0 1 0 -5 0zM1587.5 510 a2.5 2.5 0 1 0 5 0 a2.5 2.5 0 1 0 -5 0z" fill="black"></path><path d="M867.5 610 a2.5 2.5 0 1 0 5 0 a2.5 2.5 0 1 0 -5 0zM647.5 650 a2.5 2.5 0 1 0 5 0 a2.5 2.5 0 1 0 -5 0zM967.5 630 a2.5 2.5 0 1 0 5 0 a2.5 2.5 0 1 0 -5 0zM1007.5 650 a2.5 2.5 0 1 0 5 0 a2.5 2.5 0 1 0 -5 0zM647.5 670 a2.5 2.5 0 1 0 5 0 a2.5 2.5 0 1 0 -5 0zM707.5 690 a2.5 2.5 0 1 0 5 0 a2.5 2.5 0 1 0 -5 0zM647.5 750 a2.5 2.5 0 1 0 5 0 a2.5 2.5 0 1 0 -5 0zM1227.5 630 a2.5 2.5 0 1 0 5 0 a2.5 2.5 0 1 0 -5 0zM1207.5 650 a2.5 2.5 0 1 0 5 0 a2.5 2.5 0 1 0 -5 0zM1007.5 690 a2.5 2.5 0 1 0 5 0 a2.5 2.5 0 1 0 -5 0zM1287.5 630 a2.5 2.5 0 1 0 5 0 a2.5 2.5 0 1 0 -5 0zM1007.5 590 a2.5 2.5 0 1 0 5 0 a2.5 2.5 0 1 0 -5 0zM1527.5 610 a2.5 2.5 0 1 0 5 0 a2.5 2.5 0 1 0 -5 0zM1547.5 610 a2.5 2.5 0 1 0 5 0 a2.5 2.5 0 1 0 -5 0z" fill="black"></path><path d="M647.5 450 a2.5 2.5 0 1 0 5 0 a2.5 2.5 0 1 0 -5 0zM687.5 430 a2.5 2.5 0 1 0 5 0 a2.5 2.5 0 1 0 -5 0zM947.5 430 a2.5 2.5 0 1 0 5 0 a2.5 2.5 0 1 0 -5 0zM647.5 470 a2.5 2.5 0 1 0 5 0 a2.5 2.5 0 1 0 -5 0zM1387.5 430 a2.5 2.5 0 1 0 5 0 a2.5 2.5 0 1 0 -5 0zM1327.5 430 a2.5 2.5 0 1 0 5 0 a2.5 2.5 0 1 0 -5 0zM1427.5 410 a2.5 2.5 0 1 0 5 0 a2.5 2.5 0 1 0 -5 0zM927.5 410 a2.5 2.5 0 1 0 5 0 a2.5 2.5 0 1 0 -5 0zM767.5 390 a2.5 2.5 0 1 0 5 0 a2.5 2.5 0 1 0 -5 0zM707.5 450 a2.5 2.5 0 1 0 5 0 a2.5 2.5 0 1 0 -5 0zM1187.5 390 a2.5 2.5 0 1 0 5 0 a2.5 2.5 0 1 0 -5 0zM747.5 470 a2.5 2.5 0 1 0 5 0 a2.5 2.5 0 1 0 -5 0zM1347.5 430 a2.5 2.5 0 1 0 5 0 a2.5 2.5 0 1 0 -5 0zM707.5 370 a2.5 2.5 0 1 0 5 0 a2.5 2.5 0 1 0 -5 0zM1447.5 410 a2.5 2.5 0 1 0 5 0 a2.5 2.5 0 1 0 -5 0zM1007.5 370 a2.5 2.5 0 1 0 5 0 a2.5 2.5 0 1 0 -5 0zM1167.5 430 a2.5 2.5 0 1 0 5 0 a2.5 2.5 0 1 0 -5 0z" fill="black"></path><path d="M1607.5 610 a2.5 2.5 0 1 0 5 0 a2.5 2.5 0 1 0 -5 0zM1767.5 630 a2.5 2.5 0 1 0 5 0 a2.5 2.5 0 1 0 -5 0zM1827.5 630 a2.5 2.5 0 1 0 5 0 a2.5 2.5 0 1 0 -5 0zM1867.5 630 a2.5 2.5 0 1 0 5 0 a2.5 2.5 0 1 0 -5 0z" fill="black"></path><path d="M1547.5 450 a2.5 2.5 0 1 0 5 0 a2.5 2.5 0 1 0 -5 0zM1787.5 450 a2.5 2.5 0 1 0 5 0 a2.5 2.5 0 1 0 -5 0zM1647.5 430 a2.5 2.5 0 1 0 5 0 a2.5 2.5 0 1 0 -5 0zM1747.5 450 a2.5 2.5 0 1 0 5 0 a2.5 2.5 0 1 0 -5 0zM1827.5 450 a2.5 2.5 0 1 0 5 0 a2.5 2.5 0 1 0 -5 0zM1487.5 410 a2.5 2.5 0 1 0 5 0 a2.5 2.5 0 1 0 -5 0z" fill="black"></path><path d="M1347.5 610 a2.5 2.5 0 1 0 5 0 a2.5 2.5 0 1 0 -5 0zM1607.5 650 a2.5 2.5 0 1 0 5 0 a2.5 2.5 0 1 0 -5 0zM1487.5 630 a2.5 2.5 0 1 0 5 0 a2.5 2.5 0 1 0 -5 0zM1407.5 630 a2.5 2.5 0 1 0 5 0 a2.5 2.5 0 1 0 -5 0zM1527.5 650 a2.5 2.5 0 1 0 5 0 a2.5 2.5 0 1 0 -5 0zM1527.5 670 a2.5 2.5 0 1 0 5 0 a2.5 2.5 0 1 0 -5 0zM1327.5 630 a2.5 2.5 0 1 0 5 0 a2.5 2.5 0 1 0 -5 0zM1347.5 650 a2.5 2.5 0 1 0 5 0 a2.5 2.5 0 1 0 -5 0z" fill="black"></path><path d="M1827.5 430 a2.5 2.5 0 1 0 5 0 a2.5 2.5 0 1 0 -5 0zM1767.5 430 a2.5 2.5 0 1 0 5 0 a2.5 2.5 0 1 0 -5 0zM1847.5 450 a2.5 2.5 0 1 0 5 0 a2.5 2.5 0 1 0 -5 0zM1867.5 430 a2.5 2.5 0 1 0 5 0 a2.5 2.5 0 1 0 -5 0z" fill="black"></path><path d="M1747.5 670 a2.5 2.5 0 1 0 5 0 a2.5 2.5 0 1 0 -5 0z" fill="black"></path><path d="M1247.5 370 a2.5 2.5 0 1 0 5 0 a2.5 2.5 0 1 0 -5 0zM1267.5 350 a2.5 2.5 0 1 0 5 0 a2.5 2.5 0 1 0 -5 0zM1587.5 390 a2.5 2.5 0 1 0 5 0 a2.5 2.5 0 1 0 -5 0zM1687.5 390 a2.5 2.5 0 1 0 5 0 a2.5 2.5 0 1 0 -5 0zM1647.5 390 a2.5 2.5 0 1 0 5 0 a2.5 2.5 0 1 0 -5 0zM1727.5 430 a2.5 2.5 0 1 0 5 0 a2.5 2.5 0 1 0 -5 0zM1767.5 370 a2.5 2.5 0 1 0 5 0 a2.5 2.5 0 1 0 -5 0zM1387.5 350 a2.5 2.5 0 1 0 5 0 a2.5 2.5 0 1 0 -5 0zM1407.5 330 a2.5 2.5 0 1 0 5 0 a2.5 2.5 0 1 0 -5 0zM1187.5 370 a2.5 2.5 0 1 0 5 0 a2.5 2.5 0 1 0 -5 0z" fill="black"></path><path d="M1767.5 690 a2.5 2.5 0 1 0 5 0 a2.5 2.5 0 1 0 -5 0zM1787.5 710 a2.5 2.5 0 1 0 5 0 a2.5 2.5 0 1 0 -5 0z" fill="black"></path><path d="M1187.5 770 a2.5 2.5 0 1 0 5 0 a2.5 2.5 0 1 0 -5 0zM1407.5 770 a2.5 2.5 0 1 0 5 0 a2.5 2.5 0 1 0 -5 0zM1247.5 770 a2.5 2.5 0 1 0 5 0 a2.5 2.5 0 1 0 -5 0zM1527.5 750 a2.5 2.5 0 1 0 5 0 a2.5 2.5 0 1 0 -5 0zM1587.5 750 a2.5 2.5 0 1 0 5 0 a2.5 2.5 0 1 0 -5 0zM1107.5 730 a2.5 2.5 0 1 0 5 0 a2.5 2.5 0 1 0 -5 0zM1387.5 730 a2.5 2.5 0 1 0 5 0 a2.5 2.5 0 1 0 -5 0zM1827.5 730 a2.5 2.5 0 1 0 5 0 a2.5 2.5 0 1 0 -5 0zM1487.5 710 a2.5 2.5 0 1 0 5 0 a2.5 2.5 0 1 0 -5 0zM1267.5 690 a2.5 2.5 0 1 0 5 0 a2.5 2.5 0 1 0 -5 0z" fill="black"></path><path d="M1587.5 370 a2.5 2.5 0 1 0 5 0 a2.5 2.5 0 1 0 -5 0zM1587.5 350 a2.5 2.5 0 1 0 5 0 a2.5 2.5 0 1 0 -5 0zM1787.5 370 a2.5 2.5 0 1 0 5 0 a2.5 2.5 0 1 0 -5 0z" fill="black"></path><path d="M1587.5 770 a2.5 2.5 0 1 0 5 0 a2.5 2.5 0 1 0 -5 0zM1607.5 750 a2.5 2.5 0 1 0 5 0 a2.5 2.5 0 1 0 -5 0zM1887.5 730 a2.5 2.5 0 1 0 5 0 a2.5 2.5 0 1 0 -5 0zM1647.5 750 a2.5 2.5 0 1 0 5 0 a2.5 2.5 0 1 0 -5 0zM1547.5 790 a2.5 2.5 0 1 0 5 0 a2.5 2.5 0 1 0 -5 0z" fill="black"></path><path d="M1527.5 290 a2.5 2.5 0 1 0 5 0 a2.5 2.5 0 1 0 -5 0zM1667.5 330 a2.5 2.5 0 1 0 5 0 a2.5 2.5 0 1 0 -5 0zM1507.5 310 a2.5 2.5 0 1 0 5 0 a2.5 2.5 0 1 0 -5 0zM1547.5 330 a2.5 2.5 0 1 0 5 0 a2.5 2.5 0 1 0 -5 0zM1627.5 330 a2.5 2.5 0 1 0 5 0 a2.5 2.5 0 1 0 -5 0zM1687.5 310 a2.5 2.5 0 1 0 5 0 a2.5 2.5 0 1 0 -5 0z" fill="black"></path><path d="M1167.5 850 a2.5 2.5 0 1 0 5 0 a2.5 2.5 0 1 0 -5 0zM1427.5 810 a2.5 2.5 0 1 0 5 0 a2.5 2.5 0 1 0 -5 0zM1147.5 870 a2.5 2.5 0 1 0 5 0 a2.5 2.5 0 1 0 -5 0zM1147.5 910 a2.5 2.5 0 1 0 5 0 a2.5 2.5 0 1 0 -5 0zM1427.5 830 a2.5 2.5 0 1 0 5 0 a2.5 2.5 0 1 0 -5 0zM1347.5 910 a2.5 2.5 0 1 0 5 0 a2.5 2.5 0 1 0 -5 0zM1367.5 870 a2.5 2.5 0 1 0 5 0 a2.5 2.5 0 1 0 -5 0zM1547.5 810 a2.5 2.5 0 1 0 5 0 a2.5 2.5 0 1 0 -5 0zM1627.5 790 a2.5 2.5 0 1 0 5 0 a2.5 2.5 0 1 0 -5 0zM1267.5 830 a2.5 2.5 0 1 0 5 0 a2.5 2.5 0 1 0 -5 0zM987.5 890 a2.5 2.5 0 1 0 5 0 a2.5 2.5 0 1 0 -5 0z" fill="black"></path><path d="M1587.5 290 a2.5 2.5 0 1 0 5 0 a2.5 2.5 0 1 0 -5 0z" fill="black"></path><path d="M1827.5 310 a2.5 2.5 0 1 0 5 0 a2.5 2.5 0 1 0 -5 0z" fill="black"></path><path d="M1867.5 790 a2.5 2.5 0 1 0 5 0 a2.5 2.5 0 1 0 -5 0zM1907.5 790 a2.5 2.5 0 1 0 5 0 a2.5 2.5 0 1 0 -5 0z" fill="black"></path><path d="M1147.5 270 a2.5 2.5 0 1 0 5 0 a2.5 2.5 0 1 0 -5 0zM1327.5 290 a2.5 2.5 0 1 0 5 0 a2.5 2.5 0 1 0 -5 0zM1207.5 290 a2.5 2.5 0 1 0 5 0 a2.5 2.5 0 1 0 -5 0zM1367.5 270 a2.5 2.5 0 1 0 5 0 a2.5 2.5 0 1 0 -5 0zM1287.5 310 a2.5 2.5 0 1 0 5 0 a2.5 2.5 0 1 0 -5 0zM1227.5 310 a2.5 2.5 0 1 0 5 0 a2.5 2.5 0 1 0 -5 0zM1407.5 310 a2.5 2.5 0 1 0 5 0 a2.5 2.5 0 1 0 -5 0zM1427.5 310 a2.5 2.5 0 1 0 5 0 a2.5 2.5 0 1 0 -5 0zM1287.5 290 a2.5 2.5 0 1 0 5 0 a2.5 2.5 0 1 0 -5 0zM1167.5 290 a2.5 2.5 0 1 0 5 0 a2.5 2.5 0 1 0 -5 0zM1487.5 290 a2.5 2.5 0 1 0 5 0 a2.5 2.5 0 1 0 -5 0z" fill="black"></path><path d="M1487.5 870 a2.5 2.5 0 1 0 5 0 a2.5 2.5 0 1 0 -5 0zM1787.5 830 a2.5 2.5 0 1 0 5 0 a2.5 2.5 0 1 0 -5 0zM1647.5 850 a2.5 2.5 0 1 0 5 0 a2.5 2.5 0 1 0 -5 0zM1527.5 850 a2.5 2.5 0 1 0 5 0 a2.5 2.5 0 1 0 -5 0zM1687.5 790 a2.5 2.5 0 1 0 5 0 a2.5 2.5 0 1 0 -5 0zM1787.5 790 a2.5 2.5 0 1 0 5 0 a2.5 2.5 0 1 0 -5 0zM1467.5 870 a2.5 2.5 0 1 0 5 0 a2.5 2.5 0 1 0 -5 0z" fill="black"></path><path d="M887.5 250 a2.5 2.5 0 1 0 5 0 a2.5 2.5 0 1 0 -5 0zM1007.5 270 a2.5 2.5 0 1 0 5 0 a2.5 2.5 0 1 0 -5 0zM647.5 230 a2.5 2.5 0 1 0 5 0 a2.5 2.5 0 1 0 -5 0zM1647.5 230 a2.5 2.5 0 1 0 5 0 a2.5 2.5 0 1 0 -5 0zM1727.5 230 a2.5 2.5 0 1 0 5 0 a2.5 2.5 0 1 0 -5 0zM1147.5 210 a2.5 2.5 0 1 0 5 0 a2.5 2.5 0 1 0 -5 0zM1207.5 210 a2.5 2.5 0 1 0 5 0 a2.5 2.5 0 1 0 -5 0zM1667.5 190 a2.5 2.5 0 1 0 5 0 a2.5 2.5 0 1 0 -5 0zM1087.5 230 a2.5 2.5 0 1 0 5 0 a2.5 2.5 0 1 0 -5 0zM1367.5 230 a2.5 2.5 0 1 0 5 0 a2.5 2.5 0 1 0 -5 0zM1527.5 230 a2.5 2.5 0 1 0 5 0 a2.5 2.5 0 1 0 -5 0zM1047.5 170 a2.5 2.5 0 1 0 5 0 a2.5 2.5 0 1 0 -5 0zM1007.5 290 a2.5 2.5 0 1 0 5 0 a2.5 2.5 0 1 0 -5 0zM1167.5 230 a2.5 2.5 0 1 0 5 0 a2.5 2.5 0 1 0 -5 0z" fill="black"></path></mask></defs></svg>