<svg xmlns="http://www.w3.org/2000/svg" version="1.1" xmlns:xlink="http://www.w3.org/1999/xlink" xmlns:svgjs="http://svgjs.com/svgjs" width="1440" height="560" preserveAspectRatio="none" viewBox="0 0 1440 560"><g mask="url(&quot;#SvgjsMask1652&quot;)" fill="none"><rect width="1440" height="560" x="0" y="0" fill="rgba(38, 38, 38, 1)"></rect><g transform="translate(0, 0)" stroke-linecap="round" stroke="url(#SvgjsLinearGradient1653)"><path d="M224 239.21 L224 251.21" stroke-width="12"></path><path d="M224 269.21000000000004 L224 320.79" stroke-width="12"></path><path d="M240 104.65 L240 260.65" stroke-width="12"></path><path d="M240 278.65 L240 455.35" stroke-width="12"></path><path d="M256 131.65 L256 311.65" stroke-width="12"></path><path d="M256 329.65 L256 389.65" stroke-width="12"></path><path d="M256 407.65 L256 428.36" stroke-width="12"></path><path d="M272 104.91 L272 368.90999999999997" stroke-width="12"></path><path d="M272 386.90999999999997 L272 410.90999999999997" stroke-width="12"></path><path d="M272 428.90999999999997 L272 455.09" stroke-width="12"></path><path d="M288 95.16 L288 359.15999999999997" stroke-width="12"></path><path d="M288 377.15999999999997 L288 464.85" stroke-width="12"></path><path d="M304 186.43 L304 198.43" stroke-width="12"></path><path d="M304 216.43 L304 252.43" stroke-width="12"></path><path d="M304 270.43 L304 373.57" stroke-width="12"></path><path d="M320 255.86 L320 304.14" stroke-width="12"></path><path d="M336 250.94 L336 309.06" stroke-width="12"></path><path d="M352 210.81 L352 270.81" stroke-width="12"></path><path d="M352 288.81 L352 312.81" stroke-width="12"></path><path d="M352 330.81 L352 349.19" stroke-width="12"></path><path d="M368 127.35 L368 355.35" stroke-width="12"></path><path d="M368 373.35 L368 432.64" stroke-width="12"></path><path d="M384 189.18 L384 285.18" stroke-width="12"></path><path d="M384 303.18 L384 339.18" stroke-width="12"></path><path d="M384 357.18 L384 370.82" stroke-width="12"></path><path d="M400 253.73 L400 265.73" stroke-width="12"></path><path d="M400 283.73 L400 306.27" stroke-width="12"></path><path d="M416 178.68 L416 202.68" stroke-width="12"></path><path d="M416 220.68 L416 381.32" stroke-width="12"></path><path d="M432 104.78 L432 248.78" stroke-width="12"></path><path d="M432 266.78 L432 314.78" stroke-width="12"></path><path d="M432 332.78 L432 455.23" stroke-width="12"></path><path d="M448 214.96 L448 250.96" stroke-width="12"></path><path d="M448 268.96000000000004 L448 304.96000000000004" stroke-width="12"></path><path d="M448 322.96000000000004 L448 345.04" stroke-width="12"></path><path d="M464 136.92 L464 364.91999999999996" stroke-width="12"></path><path d="M464 382.91999999999996 L464 423.08" stroke-width="12"></path><path d="M480 201.64 L480 273.64" stroke-width="12"></path><path d="M480 291.64 L480 303.64" stroke-width="12"></path><path d="M480 321.64 L480 358.36" stroke-width="12"></path><path d="M496 185.14 L496 305.14" stroke-width="12"></path><path d="M496 323.14 L496 374.86" stroke-width="12"></path><path d="M512 265.55 L512 294.45" stroke-width="12"></path><path d="M528 155.78 L528 335.78" stroke-width="12"></path><path d="M528 353.78 L528 365.78" stroke-width="12"></path><path d="M528 383.78 L528 404.22" stroke-width="12"></path><path d="M544 198.78 L544 258.78" stroke-width="12"></path><path d="M544 276.78 L544 324.78" stroke-width="12"></path><path d="M544 342.78 L544 361.22" stroke-width="12"></path><path d="M560 124.82 L560 435.18" stroke-width="12"></path><path d="M576 228.43 L576 252.43" stroke-width="12"></path><path d="M576 270.43 L576 282.43" stroke-width="12"></path><path d="M576 300.43 L576 331.57" stroke-width="12"></path><path d="M592 223.9 L592 259.9" stroke-width="12"></path><path d="M592 277.9 L592 336.1" stroke-width="12"></path><path d="M608 244.41 L608 315.59" stroke-width="12"></path><path d="M624 134.37 L624 194.37" stroke-width="12"></path><path d="M624 212.37 L624 320.37" stroke-width="12"></path><path d="M624 338.37 L624 425.63" stroke-width="12"></path><path d="M640 194.2 L640 290.2" stroke-width="12"></path><path d="M640 308.2 L640 332.2" stroke-width="12"></path><path d="M640 350.2 L640 365.8" stroke-width="12"></path><path d="M656 230.69 L656 254.69" stroke-width="12"></path><path d="M656 272.69 L656 329.31" stroke-width="12"></path><path d="M672 145.93 L672 229.93" stroke-width="12"></path><path d="M672 247.93 L672 295.93" stroke-width="12"></path><path d="M672 313.93 L672 414.07" stroke-width="12"></path><path d="M688 179.91 L688 263.90999999999997" stroke-width="12"></path><path d="M688 281.90999999999997 L688 329.90999999999997" stroke-width="12"></path><path d="M688 347.90999999999997 L688 380.1" stroke-width="12"></path><path d="M704 138.09 L704 421.91" stroke-width="12"></path><path d="M720 163.08 L720 319.08000000000004" stroke-width="12"></path><path d="M720 337.08000000000004 L720 361.08000000000004" stroke-width="12"></path><path d="M720 379.08000000000004 L720 396.92" stroke-width="12"></path><path d="M736 217.19 L736 301.19" stroke-width="12"></path><path d="M736 319.19 L736 342.81" stroke-width="12"></path><path d="M752 229.99 L752 253.99" stroke-width="12"></path><path d="M752 271.99 L752 295.99" stroke-width="12"></path><path d="M752 313.99 L752 330.01" stroke-width="12"></path><path d="M768 179.5 L768 191.5" stroke-width="12"></path><path d="M768 209.5 L768 305.5" stroke-width="12"></path><path d="M768 323.5 L768 380.5" stroke-width="12"></path><path d="M784 217.5 L784 289.5" stroke-width="12"></path><path d="M784 307.5 L784 342.5" stroke-width="12"></path><path d="M800 256.93 L800 303.07" stroke-width="12"></path><path d="M816 212.01 L816 284.01" stroke-width="12"></path><path d="M816 302.01 L816 314.01" stroke-width="12"></path><path d="M816 332.01 L816 347.99" stroke-width="12"></path><path d="M832 191.99 L832 368.01" stroke-width="12"></path><path d="M848 158.37 L848 401.63" stroke-width="12"></path><path d="M864 125.38 L864 341.38" stroke-width="12"></path><path d="M864 359.38 L864 383.38" stroke-width="12"></path><path d="M864 401.38 L864 434.62" stroke-width="12"></path><path d="M880 161.97 L880 185.97" stroke-width="12"></path><path d="M880 203.97 L880 398.02" stroke-width="12"></path><path d="M896 209.11 L896 350.89" stroke-width="12"></path><path d="M912 200.81 L912 359.19" stroke-width="12"></path><path d="M928 143.25 L928 251.25" stroke-width="12"></path><path d="M928 269.25 L928 416.75" stroke-width="12"></path><path d="M944 153.87 L944 406.13" stroke-width="12"></path><path d="M960 236.81 L960 260.81" stroke-width="12"></path><path d="M960 278.81 L960 290.81" stroke-width="12"></path><path d="M960 308.81 L960 323.19" stroke-width="12"></path><path d="M976 246.43 L976 313.57" stroke-width="12"></path><path d="M992 102.31 L992 457.69" stroke-width="12"></path><path d="M1008 241.44 L1008 253.44" stroke-width="12"></path><path d="M1008 271.44 L1008 318.56" stroke-width="12"></path><path d="M1024 195.62 L1024 279.62" stroke-width="12"></path><path d="M1024 297.62 L1024 309.62" stroke-width="12"></path><path d="M1024 327.62 L1024 364.38" stroke-width="12"></path><path d="M1040 146.94 L1040 290.94" stroke-width="12"></path><path d="M1040 308.94 L1040 368.94" stroke-width="12"></path><path d="M1040 386.94 L1040 413.06" stroke-width="12"></path><path d="M1056 204.65 L1056 240.65" stroke-width="12"></path><path d="M1056 258.65 L1056 282.65" stroke-width="12"></path><path d="M1056 300.65 L1056 355.35" stroke-width="12"></path><path d="M1072 119.76 L1072 251.76" stroke-width="12"></path><path d="M1072 269.76 L1072 440.24" stroke-width="12"></path><path d="M1088 222.61 L1088 234.61" stroke-width="12"></path><path d="M1088 252.61 L1088 264.61" stroke-width="12"></path><path d="M1088 282.61 L1088 337.39" stroke-width="12"></path><path d="M1104 191.8 L1104 251.8" stroke-width="12"></path><path d="M1104 269.8 L1104 329.8" stroke-width="12"></path><path d="M1104 347.8 L1104 368.2" stroke-width="12"></path><path d="M1120 180.91 L1120 228.91" stroke-width="12"></path><path d="M1120 246.91 L1120 306.90999999999997" stroke-width="12"></path><path d="M1120 324.90999999999997 L1120 379.09" stroke-width="12"></path><path d="M1136 220.47 L1136 256.47" stroke-width="12"></path><path d="M1136 274.47 L1136 298.47" stroke-width="12"></path><path d="M1136 316.47 L1136 339.53" stroke-width="12"></path><path d="M1152 103.06 L1152 331.06" stroke-width="12"></path><path d="M1152 349.06 L1152 456.94" stroke-width="12"></path><path d="M1168 110.99 L1168 398.99" stroke-width="12"></path><path d="M1168 416.99 L1168 449.01" stroke-width="12"></path><path d="M1184 140.5 L1184 236.5" stroke-width="12"></path><path d="M1184 254.5 L1184 302.5" stroke-width="12"></path><path d="M1184 320.5 L1184 419.5" stroke-width="12"></path><path d="M1200 106.43 L1200 286.43" stroke-width="12"></path><path d="M1200 304.43 L1200 328.43" stroke-width="12"></path><path d="M1200 346.43 L1200 453.57" stroke-width="12"></path><path d="M1216 97.17 L1216 462.83" stroke-width="12"></path></g></g><defs><mask id="SvgjsMask1652"><rect width="1440" height="560" fill="#ffffff"></rect></mask><linearGradient x1="720" y1="84" x2="720" y2="476" gradientUnits="userSpaceOnUse" id="SvgjsLinearGradient1653"><stop stop-color="rgba(64, 64, 64, 1)" offset="0"></stop><stop stop-color="rgba(0, 0, 0, 1)" offset="1"></stop></linearGradient></defs></svg>