<svg xmlns="http://www.w3.org/2000/svg" version="1.1" xmlns:xlink="http://www.w3.org/1999/xlink" xmlns:svgjs="http://svgjs.com/svgjs" width="1440" height="560" preserveAspectRatio="none" viewBox="0 0 1440 560"><g mask="url(&quot;#SvgjsMask1930&quot;)" fill="none"><rect width="1440" height="560" x="0" y="0" fill="rgba(38, 38, 38, 1)"></rect><g transform="translate(0, 0)" stroke-linecap="round" stroke="url(#SvgjsLinearGradient1931)"><path d="M185 76.15 L185 173.65" stroke-width="7.5"></path><path d="M185 184.9 L185 417.4" stroke-width="7.5"></path><path d="M185 428.65 L185 483.85" stroke-width="7.5"></path><path d="M195 237.75 L195 275.25" stroke-width="7.5"></path><path d="M195 286.5 L195 322.25" stroke-width="7.5"></path><path d="M205 207.4 L205 214.9" stroke-width="7.5"></path><path d="M205 226.15 L205 352.6" stroke-width="7.5"></path><path d="M215 108.6 L215 348.6" stroke-width="7.5"></path><path d="M215 359.85 L215 412.35" stroke-width="7.5"></path><path d="M215 423.6 L215 451.39" stroke-width="7.5"></path><path d="M225 119.66 L225 359.65999999999997" stroke-width="7.5"></path><path d="M225 370.90999999999997 L225 440.34" stroke-width="7.5"></path><path d="M235 141.74 L235 171.74" stroke-width="7.5"></path><path d="M235 182.99 L235 287.99" stroke-width="7.5"></path><path d="M235 299.24 L235 418.26" stroke-width="7.5"></path><path d="M245 122.44 L245 167.44" stroke-width="7.5"></path><path d="M245 178.69 L245 437.56" stroke-width="7.5"></path><path d="M255 100.95 L255 220.95" stroke-width="7.5"></path><path d="M255 232.2 L255 247.2" stroke-width="7.5"></path><path d="M255 258.45 L255 459.05" stroke-width="7.5"></path><path d="M265 226.25 L265 293.75" stroke-width="7.5"></path><path d="M265 305 L265 312.5" stroke-width="7.5"></path><path d="M265 323.75 L265 333.75" stroke-width="7.5"></path><path d="M275 254.38 L275 261.88" stroke-width="7.5"></path><path d="M275 273.13 L275 280.63" stroke-width="7.5"></path><path d="M275 291.88 L275 305.63" stroke-width="7.5"></path><path d="M285 255.06 L285 262.56" stroke-width="7.5"></path><path d="M285 273.81 L285 281.31" stroke-width="7.5"></path><path d="M285 292.56 L285 304.94" stroke-width="7.5"></path><path d="M295 185.48 L295 222.98" stroke-width="7.5"></path><path d="M295 234.23 L295 374.52" stroke-width="7.5"></path><path d="M305 133.94 L305 268.94" stroke-width="7.5"></path><path d="M305 280.19 L305 332.69" stroke-width="7.5"></path><path d="M305 343.94 L305 426.06" stroke-width="7.5"></path><path d="M315 213.11 L315 235.61" stroke-width="7.5"></path><path d="M315 246.86 L315 284.36" stroke-width="7.5"></path><path d="M315 295.61 L315 346.89" stroke-width="7.5"></path><path d="M325 254.6 L325 262.1" stroke-width="7.5"></path><path d="M325 273.35 L325 280.85" stroke-width="7.5"></path><path d="M325 292.1 L325 305.4" stroke-width="7.5"></path><path d="M335 241.07 L335 271.07" stroke-width="7.5"></path><path d="M335 282.32 L335 289.82" stroke-width="7.5"></path><path d="M335 301.07 L335 318.93" stroke-width="7.5"></path><path d="M345 196.07 L345 363.93" stroke-width="7.5"></path><path d="M355 125.07 L355 434.93" stroke-width="7.5"></path><path d="M365 254.81 L365 262.31" stroke-width="7.5"></path><path d="M365 273.56 L365 281.06" stroke-width="7.5"></path><path d="M365 292.31 L365 305.19" stroke-width="7.5"></path><path d="M375 93.37 L375 123.37" stroke-width="7.5"></path><path d="M375 134.62 L375 466.63" stroke-width="7.5"></path><path d="M385 241.17 L385 278.66999999999996" stroke-width="7.5"></path><path d="M385 289.91999999999996 L385 297.41999999999996" stroke-width="7.5"></path><path d="M385 308.66999999999996 L385 318.83" stroke-width="7.5"></path><path d="M395 210.88 L395 263.38" stroke-width="7.5"></path><path d="M395 274.63 L395 312.13" stroke-width="7.5"></path><path d="M395 323.38 L395 349.13" stroke-width="7.5"></path><path d="M405 102.28 L405 192.28" stroke-width="7.5"></path><path d="M405 203.53 L405 241.03" stroke-width="7.5"></path><path d="M405 252.28 L405 457.72" stroke-width="7.5"></path><path d="M415 136.66 L415 144.16" stroke-width="7.5"></path><path d="M415 155.41 L415 170.41" stroke-width="7.5"></path><path d="M415 181.66 L415 423.34" stroke-width="7.5"></path><path d="M425 89.68 L425 262.18" stroke-width="7.5"></path><path d="M425 273.43 L425 470.32" stroke-width="7.5"></path><path d="M435 250.38 L435 265.38" stroke-width="7.5"></path><path d="M435 276.63 L435 309.62" stroke-width="7.5"></path><path d="M445 245 L445 267.5" stroke-width="7.5"></path><path d="M445 278.75 L445 315" stroke-width="7.5"></path><path d="M455 153.35 L455 340.85" stroke-width="7.5"></path><path d="M455 352.1 L455 367.1" stroke-width="7.5"></path><path d="M455 378.35 L455 406.65" stroke-width="7.5"></path><path d="M465 140.11 L465 215.11" stroke-width="7.5"></path><path d="M465 226.36 L465 376.36" stroke-width="7.5"></path><path d="M465 387.61 L465 419.89" stroke-width="7.5"></path><path d="M475 187.42 L475 314.91999999999996" stroke-width="7.5"></path><path d="M475 326.16999999999996 L475 348.66999999999996" stroke-width="7.5"></path><path d="M475 359.91999999999996 L475 372.58" stroke-width="7.5"></path><path d="M485 230.18 L485 282.68" stroke-width="7.5"></path><path d="M485 293.93 L485 301.43" stroke-width="7.5"></path><path d="M485 312.68 L485 329.82" stroke-width="7.5"></path><path d="M495 132 L495 154.5" stroke-width="7.5"></path><path d="M495 165.75 L495 428" stroke-width="7.5"></path><path d="M505 149.95 L505 277.45" stroke-width="7.5"></path><path d="M505 288.7 L505 303.7" stroke-width="7.5"></path><path d="M505 314.95 L505 410.05" stroke-width="7.5"></path><path d="M515 100.24 L515 302.74" stroke-width="7.5"></path><path d="M515 313.99 L515 411.49" stroke-width="7.5"></path><path d="M515 422.74 L515 459.76" stroke-width="7.5"></path><path d="M525 247.17 L525 262.16999999999996" stroke-width="7.5"></path><path d="M525 273.41999999999996 L525 312.83" stroke-width="7.5"></path><path d="M535 115.47 L535 265.47" stroke-width="7.5"></path><path d="M535 276.72 L535 396.72" stroke-width="7.5"></path><path d="M535 407.97 L535 444.52" stroke-width="7.5"></path><path d="M545 177.54 L545 252.54" stroke-width="7.5"></path><path d="M545 263.78999999999996 L545 382.46" stroke-width="7.5"></path><path d="M555 126.75 L555 374.25" stroke-width="7.5"></path><path d="M555 385.5 L555 408" stroke-width="7.5"></path><path d="M555 419.25 L555 433.25" stroke-width="7.5"></path><path d="M565 233.74 L565 271.24" stroke-width="7.5"></path><path d="M565 282.49 L565 297.49" stroke-width="7.5"></path><path d="M565 308.74 L565 326.26" stroke-width="7.5"></path><path d="M575 218.64 L575 256.14" stroke-width="7.5"></path><path d="M575 267.39 L575 341.36" stroke-width="7.5"></path><path d="M585 227.81 L585 265.31" stroke-width="7.5"></path><path d="M585 276.56 L585 306.56" stroke-width="7.5"></path><path d="M585 317.81 L585 332.19" stroke-width="7.5"></path><path d="M595 261.51 L595 269.01" stroke-width="7.5"></path><path d="M595 280.26 L595 298.49" stroke-width="7.5"></path><path d="M605 101.03 L605 116.03" stroke-width="7.5"></path><path d="M605 127.28 L605 194.78" stroke-width="7.5"></path><path d="M605 206.03 L605 458.98" stroke-width="7.5"></path><path d="M615 131.57 L615 428.43" stroke-width="7.5"></path><path d="M625 213.82 L625 228.82" stroke-width="7.5"></path><path d="M625 240.07 L625 346.18" stroke-width="7.5"></path><path d="M635 74.65 L635 329.65" stroke-width="7.5"></path><path d="M635 340.9 L635 385.9" stroke-width="7.5"></path><path d="M635 397.15 L635 485.35" stroke-width="7.5"></path><path d="M645 200.31 L645 282.81" stroke-width="7.5"></path><path d="M645 294.06 L645 309.06" stroke-width="7.5"></path><path d="M645 320.31 L645 359.69" stroke-width="7.5"></path><path d="M655 259.65999999999997 L655 274.65999999999997" stroke-width="7.5"></path><path d="M655 285.90999999999997 L655 300.35" stroke-width="7.5"></path><path d="M665 179.4 L665 380.6" stroke-width="7.5"></path><path d="M675 92.58 L675 467.42" stroke-width="7.5"></path><path d="M685 240.37 L685 255.37" stroke-width="7.5"></path><path d="M685 266.62 L685 319.63" stroke-width="7.5"></path><path d="M695 260.25 L695 267.75" stroke-width="7.5"></path><path d="M695 279 L695 299.75" stroke-width="7.5"></path><path d="M705 82.91 L705 412.90999999999997" stroke-width="7.5"></path><path d="M705 424.15999999999997 L705 439.15999999999997" stroke-width="7.5"></path><path d="M705 450.40999999999997 L705 477.09" stroke-width="7.5"></path><path d="M715 259.3 L715 266.8" stroke-width="7.5"></path><path d="M715 278.05 L715 300.7" stroke-width="7.5"></path><path d="M725 92.78 L725 265.28" stroke-width="7.5"></path><path d="M725 276.53 L725 411.53" stroke-width="7.5"></path><path d="M725 422.78 L725 467.22" stroke-width="7.5"></path><path d="M735 243.59 L735 316.41" stroke-width="7.5"></path><path d="M745 195.2 L745 240.2" stroke-width="7.5"></path><path d="M745 251.45 L745 296.45" stroke-width="7.5"></path><path d="M745 307.7 L745 364.8" stroke-width="7.5"></path><path d="M755 223.72 L755 246.22" stroke-width="7.5"></path><path d="M755 257.47 L755 302.47" stroke-width="7.5"></path><path d="M755 313.72 L755 336.28" stroke-width="7.5"></path><path d="M765 77.51 L765 167.51" stroke-width="7.5"></path><path d="M765 178.76 L765 441.26" stroke-width="7.5"></path><path d="M765 452.51 L765 482.49" stroke-width="7.5"></path><path d="M775 199.8 L775 244.8" stroke-width="7.5"></path><path d="M775 256.05 L775 293.55" stroke-width="7.5"></path><path d="M775 304.8 L775 360.2" stroke-width="7.5"></path><path d="M785 229.24 L785 281.74" stroke-width="7.5"></path><path d="M785 292.99 L785 330.76" stroke-width="7.5"></path><path d="M795 211.28 L795 348.73" stroke-width="7.5"></path><path d="M805 232.59 L805 270.09000000000003" stroke-width="7.5"></path><path d="M805 281.34000000000003 L805 288.84000000000003" stroke-width="7.5"></path><path d="M805 300.09000000000003 L805 327.42" stroke-width="7.5"></path><path d="M815 211.32 L815 271.32" stroke-width="7.5"></path><path d="M815 282.57 L815 348.68" stroke-width="7.5"></path><path d="M825 200.13 L825 359.88" stroke-width="7.5"></path><path d="M835 248.41 L835 270.90999999999997" stroke-width="7.5"></path><path d="M835 282.15999999999997 L835 311.6" stroke-width="7.5"></path><path d="M845 241.17 L845 256.16999999999996" stroke-width="7.5"></path><path d="M845 267.41999999999996 L845 318.83" stroke-width="7.5"></path><path d="M855 74.26 L855 485.74" stroke-width="7.5"></path><path d="M865 203.59 L865 233.59" stroke-width="7.5"></path><path d="M865 244.84 L865 356.41" stroke-width="7.5"></path><path d="M875 144.09 L875 264.09000000000003" stroke-width="7.5"></path><path d="M875 275.34000000000003 L875 312.84000000000003" stroke-width="7.5"></path><path d="M875 324.09000000000003 L875 415.91" stroke-width="7.5"></path><path d="M885 156.3 L885 328.8" stroke-width="7.5"></path><path d="M885 340.05 L885 355.05" stroke-width="7.5"></path><path d="M885 366.3 L885 403.7" stroke-width="7.5"></path><path d="M895 252.33 L895 274.83000000000004" stroke-width="7.5"></path><path d="M895 286.08000000000004 L895 307.67" stroke-width="7.5"></path><path d="M905 155.54 L905 404.46" stroke-width="7.5"></path><path d="M915 125.7 L915 434.3" stroke-width="7.5"></path><path d="M925 125.81 L925 155.81" stroke-width="7.5"></path><path d="M925 167.06 L925 174.56" stroke-width="7.5"></path><path d="M925 185.81 L925 434.19" stroke-width="7.5"></path><path d="M935 148.21 L935 283.21000000000004" stroke-width="7.5"></path><path d="M935 294.46000000000004 L935 361.96000000000004" stroke-width="7.5"></path><path d="M935 373.21000000000004 L935 411.79" stroke-width="7.5"></path><path d="M945 239.95 L945 320.05" stroke-width="7.5"></path><path d="M955 259.06 L955 266.56" stroke-width="7.5"></path><path d="M955 277.81 L955 300.94" stroke-width="7.5"></path><path d="M965 164.96 L965 187.46" stroke-width="7.5"></path><path d="M965 198.71 L965 258.71000000000004" stroke-width="7.5"></path><path d="M965 269.96000000000004 L965 395.04" stroke-width="7.5"></path><path d="M975 217.13 L975 342.87" stroke-width="7.5"></path><path d="M985 260.13 L985 299.87" stroke-width="7.5"></path><path d="M995 103.26 L995 456.74" stroke-width="7.5"></path><path d="M1005 167.57 L1005 325.07" stroke-width="7.5"></path><path d="M1005 336.32 L1005 343.82" stroke-width="7.5"></path><path d="M1005 355.07 L1005 392.43" stroke-width="7.5"></path><path d="M1015 231.93 L1015 276.93" stroke-width="7.5"></path><path d="M1015 288.18 L1015 295.68" stroke-width="7.5"></path><path d="M1015 306.93 L1015 328.07" stroke-width="7.5"></path><path d="M1025 187.06 L1025 202.06" stroke-width="7.5"></path><path d="M1025 213.31 L1025 372.94" stroke-width="7.5"></path><path d="M1035 241.16 L1035 271.15999999999997" stroke-width="7.5"></path><path d="M1035 282.40999999999997 L1035 297.40999999999997" stroke-width="7.5"></path><path d="M1035 308.65999999999997 L1035 318.83" stroke-width="7.5"></path><path d="M1045 166.61 L1045 279.11" stroke-width="7.5"></path><path d="M1045 290.36 L1045 393.39" stroke-width="7.5"></path><path d="M1055 109.47 L1055 386.97" stroke-width="7.5"></path><path d="M1055 398.22 L1055 450.53" stroke-width="7.5"></path><path d="M1065 113.31 L1065 446.69" stroke-width="7.5"></path><path d="M1075 255.71 L1075 263.21000000000004" stroke-width="7.5"></path><path d="M1075 274.46000000000004 L1075 281.96000000000004" stroke-width="7.5"></path><path d="M1075 293.21000000000004 L1075 304.29" stroke-width="7.5"></path><path d="M1085 198.41 L1085 333.40999999999997" stroke-width="7.5"></path><path d="M1085 344.65999999999997 L1085 361.59" stroke-width="7.5"></path><path d="M1095 193.38 L1095 253.38" stroke-width="7.5"></path><path d="M1095 264.63 L1095 287.13" stroke-width="7.5"></path><path d="M1095 298.38 L1095 366.62" stroke-width="7.5"></path><path d="M1105 247.1 L1105 254.6" stroke-width="7.5"></path><path d="M1105 265.85 L1105 273.35" stroke-width="7.5"></path><path d="M1105 284.6 L1105 312.9" stroke-width="7.5"></path><path d="M1115 240.4 L1115 247.9" stroke-width="7.5"></path><path d="M1115 259.15 L1115 289.15" stroke-width="7.5"></path><path d="M1115 300.4 L1115 319.6" stroke-width="7.5"></path><path d="M1125 239.41 L1125 254.41" stroke-width="7.5"></path><path d="M1125 265.65999999999997 L1125 295.65999999999997" stroke-width="7.5"></path><path d="M1125 306.90999999999997 L1125 320.59" stroke-width="7.5"></path><path d="M1135 226.04 L1135 241.04" stroke-width="7.5"></path><path d="M1135 252.29 L1135 274.78999999999996" stroke-width="7.5"></path><path d="M1135 286.03999999999996 L1135 333.96" stroke-width="7.5"></path><path d="M1145 73.88 L1145 246.38" stroke-width="7.5"></path><path d="M1145 257.63 L1145 486.12" stroke-width="7.5"></path><path d="M1155 141.72 L1155 171.72" stroke-width="7.5"></path><path d="M1155 182.97 L1155 272.97" stroke-width="7.5"></path><path d="M1155 284.22 L1155 418.28" stroke-width="7.5"></path><path d="M1165 257.24 L1165 264.74" stroke-width="7.5"></path><path d="M1165 275.99 L1165 283.49" stroke-width="7.5"></path><path d="M1165 294.74 L1165 302.76" stroke-width="7.5"></path><path d="M1175 151.83 L1175 324.33000000000004" stroke-width="7.5"></path><path d="M1175 335.58000000000004 L1175 373.08000000000004" stroke-width="7.5"></path><path d="M1175 384.33000000000004 L1175 408.17" stroke-width="7.5"></path><path d="M1185 235.52 L1185 265.52" stroke-width="7.5"></path><path d="M1185 276.77 L1185 324.48" stroke-width="7.5"></path><path d="M1195 196.13 L1195 241.13" stroke-width="7.5"></path><path d="M1195 252.38 L1195 363.88" stroke-width="7.5"></path><path d="M1205 94.92 L1205 432.42" stroke-width="7.5"></path><path d="M1205 443.67 L1205 465.08" stroke-width="7.5"></path><path d="M1215 144.12 L1215 234.12" stroke-width="7.5"></path><path d="M1215 245.37 L1215 282.87" stroke-width="7.5"></path><path d="M1215 294.12 L1215 415.88" stroke-width="7.5"></path><path d="M1225 250.9 L1225 309.11" stroke-width="7.5"></path><path d="M1235 207.91 L1235 230.41" stroke-width="7.5"></path><path d="M1235 241.66 L1235 286.65999999999997" stroke-width="7.5"></path><path d="M1235 297.90999999999997 L1235 352.09" stroke-width="7.5"></path><path d="M1245 132.46 L1245 427.54" stroke-width="7.5"></path><path d="M1255 235.46 L1255 280.46000000000004" stroke-width="7.5"></path><path d="M1255 291.71000000000004 L1255 299.21000000000004" stroke-width="7.5"></path><path d="M1255 310.46000000000004 L1255 324.54" stroke-width="7.5"></path></g></g><defs><mask id="SvgjsMask1930"><rect width="1440" height="560" fill="#ffffff"></rect></mask><linearGradient x1="720" y1="70" x2="720" y2="490" gradientUnits="userSpaceOnUse" id="SvgjsLinearGradient1931"><stop stop-color="rgba(64, 64, 64, 1)" offset="0"></stop><stop stop-color="rgba(0, 0, 0, 1)" offset="1"></stop></linearGradient></defs></svg>