<svg xmlns="http://www.w3.org/2000/svg" version="1.1" xmlns:xlink="http://www.w3.org/1999/xlink" xmlns:svgjs="http://svgjs.com/svgjs" width="1440" height="560" preserveAspectRatio="none" viewBox="0 0 1440 560"><g mask="url(&quot;#SvgjsMask1916&quot;)" fill="none"><rect width="1440" height="560" x="0" y="0" fill="rgba(38, 38, 38, 1)"></rect><g transform="translate(0, 0)" stroke-linecap="round" stroke="url(#SvgjsLinearGradient1917)"><path d="M225 260.69 L225 275.69" stroke-width="7.5"></path><path d="M225 286.94 L225 299.31" stroke-width="7.5"></path><path d="M235 176.69 L235 229.19" stroke-width="7.5"></path><path d="M235 240.44 L235 270.44" stroke-width="7.5"></path><path d="M235 281.69 L235 383.31" stroke-width="7.5"></path><path d="M245 154.2 L245 334.2" stroke-width="7.5"></path><path d="M245 345.45 L245 405.8" stroke-width="7.5"></path><path d="M255 175.46 L255 235.46" stroke-width="7.5"></path><path d="M255 246.71 L255 276.71000000000004" stroke-width="7.5"></path><path d="M255 287.96000000000004 L255 384.54" stroke-width="7.5"></path><path d="M265 116.46 L265 401.46" stroke-width="7.5"></path><path d="M265 412.71 L265 420.21" stroke-width="7.5"></path><path d="M265 431.46 L265 443.54" stroke-width="7.5"></path><path d="M275 145.88 L275 414.12" stroke-width="7.5"></path><path d="M285 128.78 L285 233.78" stroke-width="7.5"></path><path d="M285 245.03 L285 431.23" stroke-width="7.5"></path><path d="M295 263.5 L295 271" stroke-width="7.5"></path><path d="M295 282.25 L295 296.5" stroke-width="7.5"></path><path d="M305 186.39 L305 283.89" stroke-width="7.5"></path><path d="M305 295.14 L305 310.14" stroke-width="7.5"></path><path d="M305 321.39 L305 373.61" stroke-width="7.5"></path><path d="M315 146.13 L315 413.87" stroke-width="7.5"></path><path d="M325 190.67 L325 318.16999999999996" stroke-width="7.5"></path><path d="M325 329.41999999999996 L325 344.41999999999996" stroke-width="7.5"></path><path d="M325 355.66999999999996 L325 369.33" stroke-width="7.5"></path><path d="M335 115.27 L335 444.73" stroke-width="7.5"></path><path d="M345 148.17 L345 238.17" stroke-width="7.5"></path><path d="M345 249.42 L345 264.41999999999996" stroke-width="7.5"></path><path d="M345 275.66999999999996 L345 411.83" stroke-width="7.5"></path><path d="M355 125.87 L355 253.37" stroke-width="7.5"></path><path d="M355 264.62 L355 434.13" stroke-width="7.5"></path><path d="M365 182.27 L365 227.27" stroke-width="7.5"></path><path d="M365 238.52 L365 377.73" stroke-width="7.5"></path><path d="M375 251.23 L375 258.73" stroke-width="7.5"></path><path d="M375 269.98 L375 284.98" stroke-width="7.5"></path><path d="M375 296.23 L375 308.77" stroke-width="7.5"></path><path d="M385 114.92 L385 212.42000000000002" stroke-width="7.5"></path><path d="M385 223.67000000000002 L385 253.67000000000002" stroke-width="7.5"></path><path d="M385 264.92 L385 445.08" stroke-width="7.5"></path><path d="M395 92.9 L395 347.9" stroke-width="7.5"></path><path d="M395 359.15 L395 467.11" stroke-width="7.5"></path><path d="M405 241.31 L405 256.31" stroke-width="7.5"></path><path d="M405 267.56 L405 282.56" stroke-width="7.5"></path><path d="M405 293.81 L405 318.69" stroke-width="7.5"></path><path d="M415 251.1 L415 258.6" stroke-width="7.5"></path><path d="M415 269.85 L415 277.35" stroke-width="7.5"></path><path d="M415 288.6 L415 308.9" stroke-width="7.5"></path><path d="M425 108.94 L425 116.44" stroke-width="7.5"></path><path d="M425 127.69 L425 322.69" stroke-width="7.5"></path><path d="M425 333.94 L425 451.06" stroke-width="7.5"></path><path d="M435 207.24 L435 297.24" stroke-width="7.5"></path><path d="M435 308.49 L435 330.99" stroke-width="7.5"></path><path d="M435 342.24 L435 352.76" stroke-width="7.5"></path><path d="M445 251.44 L445 308.56" stroke-width="7.5"></path><path d="M455 161.37 L455 191.37" stroke-width="7.5"></path><path d="M455 202.62 L455 398.63" stroke-width="7.5"></path><path d="M465 123.4 L465 436.61" stroke-width="7.5"></path><path d="M475 107.21 L475 152.20999999999998" stroke-width="7.5"></path><path d="M475 163.45999999999998 L475 452.79" stroke-width="7.5"></path><path d="M485 115.17 L485 302.67" stroke-width="7.5"></path><path d="M485 313.92 L485 373.92" stroke-width="7.5"></path><path d="M485 385.17 L485 444.83" stroke-width="7.5"></path><path d="M495 158.41 L495 360.90999999999997" stroke-width="7.5"></path><path d="M495 372.15999999999997 L495 401.6" stroke-width="7.5"></path><path d="M505 190.8 L505 280.8" stroke-width="7.5"></path><path d="M505 292.05 L505 337.05" stroke-width="7.5"></path><path d="M505 348.3 L505 369.2" stroke-width="7.5"></path><path d="M515 210.87 L515 270.87" stroke-width="7.5"></path><path d="M515 282.12 L515 297.12" stroke-width="7.5"></path><path d="M515 308.37 L515 349.13" stroke-width="7.5"></path><path d="M525 191.51 L525 368.49" stroke-width="7.5"></path><path d="M535 189.78 L535 302.28" stroke-width="7.5"></path><path d="M535 313.53 L535 321.03" stroke-width="7.5"></path><path d="M535 332.28 L535 370.22" stroke-width="7.5"></path><path d="M545 235.49 L545 257.99" stroke-width="7.5"></path><path d="M545 269.24 L545 276.74" stroke-width="7.5"></path><path d="M545 287.99 L545 324.51" stroke-width="7.5"></path><path d="M555 164.09 L555 224.09" stroke-width="7.5"></path><path d="M555 235.34 L555 395.91" stroke-width="7.5"></path><path d="M565 169.51 L565 312.01" stroke-width="7.5"></path><path d="M565 323.26 L565 390.49" stroke-width="7.5"></path><path d="M575 112.52 L575 420.02" stroke-width="7.5"></path><path d="M575 431.27 L575 447.48" stroke-width="7.5"></path><path d="M585 261.43 L585 298.57" stroke-width="7.5"></path><path d="M595 100 L595 362.5" stroke-width="7.5"></path><path d="M595 373.75 L595 388.75" stroke-width="7.5"></path><path d="M595 400 L595 460" stroke-width="7.5"></path><path d="M605 239.21 L605 284.21000000000004" stroke-width="7.5"></path><path d="M605 295.46000000000004 L605 320.79" stroke-width="7.5"></path><path d="M615 120.65 L615 330.65" stroke-width="7.5"></path><path d="M615 341.9 L615 356.9" stroke-width="7.5"></path><path d="M615 368.15 L615 439.36" stroke-width="7.5"></path><path d="M625 247 L625 262" stroke-width="7.5"></path><path d="M625 273.25 L625 288.25" stroke-width="7.5"></path><path d="M625 299.5 L625 313" stroke-width="7.5"></path><path d="M635 247.41 L635 262.40999999999997" stroke-width="7.5"></path><path d="M635 273.65999999999997 L635 281.15999999999997" stroke-width="7.5"></path><path d="M635 292.40999999999997 L635 312.59" stroke-width="7.5"></path><path d="M645 109.47 L645 131.97" stroke-width="7.5"></path><path d="M645 143.22 L645 180.72" stroke-width="7.5"></path><path d="M645 191.97 L645 450.53" stroke-width="7.5"></path><path d="M655 113.91 L655 286.40999999999997" stroke-width="7.5"></path><path d="M655 297.65999999999997 L655 446.1" stroke-width="7.5"></path><path d="M665 100.67 L665 340.67" stroke-width="7.5"></path><path d="M665 351.92 L665 459.33" stroke-width="7.5"></path><path d="M675 122.01 L675 437.99" stroke-width="7.5"></path><path d="M685 158.46 L685 270.96000000000004" stroke-width="7.5"></path><path d="M685 282.21000000000004 L685 401.54" stroke-width="7.5"></path><path d="M695 143.6 L695 361.1" stroke-width="7.5"></path><path d="M695 372.35 L695 387.35" stroke-width="7.5"></path><path d="M695 398.6 L695 416.4" stroke-width="7.5"></path><path d="M705 153.61 L705 198.61" stroke-width="7.5"></path><path d="M705 209.86 L705 337.36" stroke-width="7.5"></path><path d="M705 348.61 L705 406.39" stroke-width="7.5"></path><path d="M715 186.09 L715 238.59" stroke-width="7.5"></path><path d="M715 249.84 L715 339.84000000000003" stroke-width="7.5"></path><path d="M715 351.09000000000003 L715 373.91" stroke-width="7.5"></path><path d="M725 230.81 L725 245.81" stroke-width="7.5"></path><path d="M725 257.06 L725 302.06" stroke-width="7.5"></path><path d="M725 313.31 L725 329.19" stroke-width="7.5"></path><path d="M735 248.02 L735 278.02" stroke-width="7.5"></path><path d="M735 289.27 L735 311.98" stroke-width="7.5"></path><path d="M745 139.47 L745 281.97" stroke-width="7.5"></path><path d="M745 293.22 L745 420.52" stroke-width="7.5"></path><path d="M755 261.82 L755 269.32" stroke-width="7.5"></path><path d="M755 280.57 L755 298.18" stroke-width="7.5"></path><path d="M765 159.96 L765 227.46" stroke-width="7.5"></path><path d="M765 238.71 L765 291.21000000000004" stroke-width="7.5"></path><path d="M765 302.46000000000004 L765 400.04" stroke-width="7.5"></path><path d="M775 201.94 L775 231.94" stroke-width="7.5"></path><path d="M775 243.19 L775 358.06" stroke-width="7.5"></path><path d="M785 138.32 L785 363.32" stroke-width="7.5"></path><path d="M785 374.57 L785 397.07" stroke-width="7.5"></path><path d="M785 408.32 L785 421.68" stroke-width="7.5"></path><path d="M795 220.1 L795 339.89" stroke-width="7.5"></path><path d="M805 114.48 L805 121.98" stroke-width="7.5"></path><path d="M805 133.23000000000002 L805 425.73" stroke-width="7.5"></path><path d="M805 436.98 L805 445.52" stroke-width="7.5"></path><path d="M815 164.63 L815 329.63" stroke-width="7.5"></path><path d="M815 340.88 L815 395.38" stroke-width="7.5"></path><path d="M825 133.4 L825 170.9" stroke-width="7.5"></path><path d="M825 182.15 L825 426.61" stroke-width="7.5"></path><path d="M835 106.75 L835 271.75" stroke-width="7.5"></path><path d="M835 283 L835 290.5" stroke-width="7.5"></path><path d="M835 301.75 L835 453.25" stroke-width="7.5"></path><path d="M845 242.56 L845 272.56" stroke-width="7.5"></path><path d="M845 283.81 L845 317.44" stroke-width="7.5"></path><path d="M855 109.65 L855 319.65" stroke-width="7.5"></path><path d="M855 330.9 L855 398.4" stroke-width="7.5"></path><path d="M855 409.65 L855 450.36" stroke-width="7.5"></path><path d="M865 256.90999999999997 L865 264.40999999999997" stroke-width="7.5"></path><path d="M865 275.65999999999997 L865 283.15999999999997" stroke-width="7.5"></path><path d="M865 294.40999999999997 L865 303.09" stroke-width="7.5"></path><path d="M875 169.94 L875 244.94" stroke-width="7.5"></path><path d="M875 256.19 L875 338.69" stroke-width="7.5"></path><path d="M875 349.94 L875 390.06" stroke-width="7.5"></path><path d="M885 197.33 L885 294.83000000000004" stroke-width="7.5"></path><path d="M885 306.08000000000004 L885 362.67" stroke-width="7.5"></path><path d="M895 255.54 L895 263.03999999999996" stroke-width="7.5"></path><path d="M895 274.28999999999996 L895 281.78999999999996" stroke-width="7.5"></path><path d="M895 293.03999999999996 L895 304.46" stroke-width="7.5"></path><path d="M905 211.56 L905 348.44" stroke-width="7.5"></path><path d="M915 219.72 L915 294.72" stroke-width="7.5"></path><path d="M915 305.97 L915 313.47" stroke-width="7.5"></path><path d="M915 324.72 L915 340.27" stroke-width="7.5"></path><path d="M925 138.74 L925 341.24" stroke-width="7.5"></path><path d="M925 352.49 L925 382.49" stroke-width="7.5"></path><path d="M925 393.74 L925 421.26" stroke-width="7.5"></path><path d="M935 234.34 L935 264.34000000000003" stroke-width="7.5"></path><path d="M935 275.59000000000003 L935 305.59000000000003" stroke-width="7.5"></path><path d="M935 316.84000000000003 L935 325.67" stroke-width="7.5"></path><path d="M945 140.6 L945 343.1" stroke-width="7.5"></path><path d="M945 354.35 L945 419.4" stroke-width="7.5"></path><path d="M955 144.89 L955 257.39" stroke-width="7.5"></path><path d="M955 268.64 L955 351.14" stroke-width="7.5"></path><path d="M955 362.39 L955 415.11" stroke-width="7.5"></path><path d="M965 215.08 L965 297.58000000000004" stroke-width="7.5"></path><path d="M965 308.83000000000004 L965 316.33000000000004" stroke-width="7.5"></path><path d="M965 327.58000000000004 L965 344.92" stroke-width="7.5"></path><path d="M975 189.68 L975 227.18" stroke-width="7.5"></path><path d="M975 238.43 L975 260.93" stroke-width="7.5"></path><path d="M975 272.18 L975 370.32" stroke-width="7.5"></path><path d="M985 208.8 L985 351.2" stroke-width="7.5"></path><path d="M995 124.62 L995 435.38" stroke-width="7.5"></path><path d="M1005 182.97 L1005 197.97" stroke-width="7.5"></path><path d="M1005 209.22 L1005 351.72" stroke-width="7.5"></path><path d="M1005 362.97 L1005 377.03" stroke-width="7.5"></path><path d="M1015 157.78 L1015 187.78" stroke-width="7.5"></path><path d="M1015 199.03 L1015 402.23" stroke-width="7.5"></path><path d="M1025 184.04 L1025 375.96" stroke-width="7.5"></path><path d="M1035 254.72 L1035 305.27" stroke-width="7.5"></path><path d="M1045 132.92 L1045 350.41999999999996" stroke-width="7.5"></path><path d="M1045 361.66999999999996 L1045 399.16999999999996" stroke-width="7.5"></path><path d="M1045 410.41999999999996 L1045 427.08" stroke-width="7.5"></path><path d="M1055 172.49 L1055 269.99" stroke-width="7.5"></path><path d="M1055 281.24 L1055 333.74" stroke-width="7.5"></path><path d="M1055 344.99 L1055 387.51" stroke-width="7.5"></path><path d="M1065 132.88 L1065 320.38" stroke-width="7.5"></path><path d="M1065 331.63 L1065 391.63" stroke-width="7.5"></path><path d="M1065 402.88 L1065 427.13" stroke-width="7.5"></path><path d="M1075 172.47 L1075 284.97" stroke-width="7.5"></path><path d="M1075 296.22 L1075 363.72" stroke-width="7.5"></path><path d="M1075 374.97 L1075 387.53" stroke-width="7.5"></path><path d="M1085 215.76 L1085 230.76" stroke-width="7.5"></path><path d="M1085 242.01 L1085 279.51" stroke-width="7.5"></path><path d="M1085 290.76 L1085 344.24" stroke-width="7.5"></path><path d="M1095 113.56 L1095 338.56" stroke-width="7.5"></path><path d="M1095 349.81 L1095 357.31" stroke-width="7.5"></path><path d="M1095 368.56 L1095 446.44" stroke-width="7.5"></path><path d="M1105 150.59 L1105 409.41" stroke-width="7.5"></path><path d="M1115 120.94 L1115 135.94" stroke-width="7.5"></path><path d="M1115 147.19 L1115 207.19" stroke-width="7.5"></path><path d="M1115 218.44 L1115 439.06" stroke-width="7.5"></path><path d="M1125 164.72 L1125 395.28" stroke-width="7.5"></path><path d="M1135 186.23 L1135 313.73" stroke-width="7.5"></path><path d="M1135 324.98 L1135 347.48" stroke-width="7.5"></path><path d="M1135 358.73 L1135 373.77" stroke-width="7.5"></path><path d="M1145 158.54 L1145 401.46" stroke-width="7.5"></path><path d="M1155 118.13 L1155 245.63" stroke-width="7.5"></path><path d="M1155 256.88 L1155 286.88" stroke-width="7.5"></path><path d="M1155 298.13 L1155 441.88" stroke-width="7.5"></path><path d="M1165 202.06 L1165 224.56" stroke-width="7.5"></path><path d="M1165 235.81 L1165 357.94" stroke-width="7.5"></path><path d="M1175 184.51 L1175 229.51" stroke-width="7.5"></path><path d="M1175 240.76 L1175 255.76" stroke-width="7.5"></path><path d="M1175 267.01 L1175 375.49" stroke-width="7.5"></path><path d="M1185 148.24 L1185 380.74" stroke-width="7.5"></path><path d="M1185 391.99 L1185 411.76" stroke-width="7.5"></path><path d="M1195 196.34 L1195 323.84000000000003" stroke-width="7.5"></path><path d="M1195 335.09000000000003 L1195 363.65" stroke-width="7.5"></path><path d="M1205 239.13 L1205 261.63" stroke-width="7.5"></path><path d="M1205 272.88 L1205 287.88" stroke-width="7.5"></path><path d="M1205 299.13 L1205 320.88" stroke-width="7.5"></path><path d="M1215 249.55 L1215 264.55" stroke-width="7.5"></path><path d="M1215 275.8 L1215 290.8" stroke-width="7.5"></path><path d="M1215 302.05 L1215 310.45" stroke-width="7.5"></path></g></g><defs><mask id="SvgjsMask1916"><rect width="1440" height="560" fill="#ffffff"></rect></mask><linearGradient x1="720" y1="84" x2="720" y2="476" gradientUnits="userSpaceOnUse" id="SvgjsLinearGradient1917"><stop stop-color="rgba(64, 64, 64, 1)" offset="0"></stop><stop stop-color="rgba(0, 0, 0, 1)" offset="1"></stop></linearGradient></defs></svg>